<svg height="400" width="600" version="1.1" xmlns="http://www.w3.org/2000/svg"><g transform="translate(0,0)"  xmlns:xlink="http://www.w3.org/1999/xlink" version="1.1" style="font-family:'lucida grande', 'lucida sans unicode', arial, helvetica, sans-serif;font-size:12px;" xmlns="http://www.w3.org/2000/svg" width="600" height="400"><desc>Created with Highcharts 4.1.5</desc><defs><clipPath id="highcharts-141"><rect x="0" y="0" width="490" height="269"></rect></clipPath></defs><rect x="0" y="0" width="600" height="400" strokeWidth="0" fill="#FFFFFF" class=" highcharts-background"></rect><g class="highcharts-grid" ><path fill="none" d="M 589.5 60 L 589.5 329" stroke="#D8D8D8" stroke-width="1"  opacity="1"></path></g><g class="highcharts-grid" ><path fill="none" d="M 100 275.5 L 590 275.5" stroke="#D8D8D8" stroke-width="1"  opacity="1"></path><path fill="none" d="M 100 203.5 L 590 203.5" stroke="#D8D8D8" stroke-width="1"  opacity="1"></path><path fill="none" d="M 100 132.5 L 590 132.5" stroke="#D8D8D8" stroke-width="1"  opacity="1"></path><path fill="none" d="M 100 59.5 L 590 59.5" stroke="#D8D8D8" stroke-width="1"  opacity="1"></path></g><g class="highcharts-axis" ><path fill="none" d="M 1146.5 329 L 1146.5 339" stroke="#C0D0E0" stroke-width="1" opacity="1"></path><text x="345"  text-anchor="middle" transform="translate(0,0)" class=" highcharts-xaxis-title" style="color:#707070;fill:#707070;" visibility="visible" y="383">Frequency</text><path fill="none" d="M 100 329.5 L 590 329.5" stroke="#C0D0E0" stroke-width="1"  visibility="visible"></path></g><g class="highcharts-axis" ><text x="45"  text-anchor="middle" transform="translate(0,0) rotate(270 45 194.5)" class=" highcharts-yaxis-title" style="color:#89a54e;fill:#89a54e;" visibility="visible" y="194.5"><tspan>Decibel (dbV)</tspan></text><path fill="none" d="M 99.5 60 L 99.5 329" stroke="#C0D0E0" stroke-width="1"  visibility="visible"></path></g><g class="highcharts-series-group" ><g class="highcharts-series" visibility="visible"  transform="translate(100,60) scale(1 1)" clip-path="url(#highcharts-141)"><path fill="none" d="M 4.803921568662566 236.357636517269 L 9.211189062819532 235.9659822298983 L 13.618456556964755 235.56811306664986 L 18.02572405112172 235.16384858734858 L 22.43299154527869 234.75300040916676 L 26.840259039423913 234.33537173351834 L 31.247526533580878 233.91075683719524 L 35.654794027726105 233.47894052445042 L 40.06206152187133 233.03969753637728 L 44.46932901602829 232.5927919135258 L 48.87659651018526 232.13797630724298 L 53.28386400433048 231.67499123470512 L 57.69113149848745 231.20356427202515 L 62.09839899264441 230.7234091791545 L 66.50566648678964 230.23422494954113 L 70.9129339809466 229.73569477664398 L 75.32020147509184 229.22748492841998 L 79.72746896923705 228.7092435197704 L 84.13473646339402 228.18059917164098 L 88.54200395755099 227.6411595439793 L 92.9492714516962 227.09050972803664 L 97.35653894585317 226.5282104815136 L 101.76380644001014 225.9537962877476 L 106.17107393415536 225.36677321746058 L 110.57834142830059 224.766616568463 L 114.98560892245756 224.15276825505657 L 119.39287641660277 223.52463391459204 L 123.80014391075974 222.8815796935928 L 128.2074114049167 222.2229286698928 L 132.61467889906194 221.54795686017383 L 137.0219463932189 220.85588875387833 L 141.42921388737588 220.14589230443326 L 145.83648138150934 219.41707329667673 L 150.2437488756663 218.6684689948741 L 154.65101636982328 217.89904095816652 L 159.0582838639685 217.10766688896416 L 163.46555135812548 216.29313135375315 L 167.87281885228245 215.45411518380638 L 172.28008634642765 214.58918332381978 L 176.68735384057288 213.6967708474955 L 181.09462133472985 212.77516679790017 L 185.50188882887508 211.82249543350613 L 189.90915632303205 210.836694363491 L 194.31642381718902 209.81548893180695 L 198.72369131133422 208.75636205019558 L 203.1309588054912 207.65651847401355 L 207.53822629964816 206.51284224526418 L 211.94549379378165 205.32184567199528 L 216.35276128793862 204.0796077402168 L 220.7600287820956 202.78169921790555 L 225.1672962762408 201.42309084394623 L 229.57456377039776 199.99803979998484 L 233.98183126455473 198.49994799338447 L 238.38909875869996 196.92118331126073 L 242.7963662528452 195.2528515920955 L 247.20363374700216 193.48450205314884 L 251.61090124115913 191.60374141836957 L 256.01816873530436 189.59572053297785 L 260.4254362294613 187.44243929902302 L 264.8327037236065 185.12178686355725 L 269.23997121776347 182.60618599777146 L 273.64723871192047 179.86062804867498 L 278.0545062060657 176.8397369267493 L 282.4617737002109 173.4832226400659 L 286.86904119436787 169.70853224026348 L 291.27630868852486 165.39832970350244 L 295.68357618267004 160.37771231850343 L 300.09084367682703 154.36904982810876 L 304.498111170984 146.89146863552776 L 308.9053786651175 136.99622325180474 L 313.31264615927444 122.35189718947302 L 317.71991365343143 93.64842028674366 L 322.1271811475766 73.14581910361392 L 326.5344486417336 115.8583171093741 L 330.94171613589054 133.26268970875043 L 335.3489836300358 144.39046184391748 L 339.7562511241928 152.59441483595432 L 344.163518618338 159.09984145904548 L 348.5707861124832 164.49370437753004 L 352.9780536066402 169.10307978296834 L 357.3853211007971 173.12902893150215 L 361.79258859494234 176.7040254882329 L 366.19985608909934 179.91999051280183 L 370.6071235832563 182.8433223456829 L 375.0143910774015 185.52355011238694 L 379.42165857154674 187.998604632634 L 383.8289260657037 190.29817899663743 L 388.2361935598489 192.4459537785208 L 392.6434610540059 194.46111819109672 L 397.05072854816285 196.35943866363414 L 401.4579960423081 198.1540273894026 L 405.8652635364651 199.85590657978412 L 410.272531030622 201.4744303141755 L 414.6797985247555 203.01760504855545 L 419.0870660189125 204.49233666264894 L 423.4943335130694 205.90462336820747 L 427.90160100721465 207.25970811965558 L 432.30886850137165 208.56220031943624 L 436.7161359955286 209.8161739546494 L 441.1234034896738 211.02524743837995 L 445.53067098381905 212.19264910190265 L 449.937938477976 213.32127132529044 L 454.3452059721212 214.41371559253838 L 458.7524734662782 215.47233023802485 L 463.15974096043516 216.499242262414 L 467.5670084545804 217.4963843021588 L 471.97427594873733 218.46551761235673 L 476.38154344288256 219.40825174986998 L 480.78881093703956 220.3260615093828 L 485.1960784311848 221.22030156000085" stroke="#7cb5ec" stroke-width="2"  stroke-linejoin="round" stroke-linecap="round"></path></g><g class="highcharts-markers" visibility="visible"  transform="translate(100,60) scale(1 1)" clip-path="none"><path fill="#7cb5ec" d="M 485 220.22030156000085 C 486.332 220.22030156000085 486.332 222.22030156000085 485 222.22030156000085 C 483.668 222.22030156000085 483.668 220.22030156000085 485 220.22030156000085 Z"></path><path fill="#7cb5ec" d="M 480 219.3260615093828 C 481.332 219.3260615093828 481.332 221.3260615093828 480 221.3260615093828 C 478.668 221.3260615093828 478.668 219.3260615093828 480 219.3260615093828 Z"></path><path fill="#7cb5ec" d="M 476 218.40825174986998 C 477.332 218.40825174986998 477.332 220.40825174986998 476 220.40825174986998 C 474.668 220.40825174986998 474.668 218.40825174986998 476 218.40825174986998 Z"></path><path fill="#7cb5ec" d="M 471 217.46551761235673 C 472.332 217.46551761235673 472.332 219.46551761235673 471 219.46551761235673 C 469.668 219.46551761235673 469.668 217.46551761235673 471 217.46551761235673 Z"></path><path fill="#7cb5ec" d="M 467 216.4963843021588 C 468.332 216.4963843021588 468.332 218.4963843021588 467 218.4963843021588 C 465.668 218.4963843021588 465.668 216.4963843021588 467 216.4963843021588 Z"></path><path fill="#7cb5ec" d="M 463 215.499242262414 C 464.332 215.499242262414 464.332 217.499242262414 463 217.499242262414 C 461.668 217.499242262414 461.668 215.499242262414 463 215.499242262414 Z"></path><path fill="#7cb5ec" d="M 458 214.47233023802485 C 459.332 214.47233023802485 459.332 216.47233023802485 458 216.47233023802485 C 456.668 216.47233023802485 456.668 214.47233023802485 458 214.47233023802485 Z"></path><path fill="#7cb5ec" d="M 454 213.41371559253838 C 455.332 213.41371559253838 455.332 215.41371559253838 454 215.41371559253838 C 452.668 215.41371559253838 452.668 213.41371559253838 454 213.41371559253838 Z"></path><path fill="#7cb5ec" d="M 449 212.32127132529044 C 450.332 212.32127132529044 450.332 214.32127132529044 449 214.32127132529044 C 447.668 214.32127132529044 447.668 212.32127132529044 449 212.32127132529044 Z"></path><path fill="#7cb5ec" d="M 445 211.19264910190265 C 446.332 211.19264910190265 446.332 213.19264910190265 445 213.19264910190265 C 443.668 213.19264910190265 443.668 211.19264910190265 445 211.19264910190265 Z"></path><path fill="#7cb5ec" d="M 441 210.02524743837995 C 442.332 210.02524743837995 442.332 212.02524743837995 441 212.02524743837995 C 439.668 212.02524743837995 439.668 210.02524743837995 441 210.02524743837995 Z"></path><path fill="#7cb5ec" d="M 436 208.8161739546494 C 437.332 208.8161739546494 437.332 210.8161739546494 436 210.8161739546494 C 434.668 210.8161739546494 434.668 208.8161739546494 436 208.8161739546494 Z"></path><path fill="#7cb5ec" d="M 432 207.56220031943624 C 433.332 207.56220031943624 433.332 209.56220031943624 432 209.56220031943624 C 430.668 209.56220031943624 430.668 207.56220031943624 432 207.56220031943624 Z"></path><path fill="#7cb5ec" d="M 427 206.25970811965558 C 428.332 206.25970811965558 428.332 208.25970811965558 427 208.25970811965558 C 425.668 208.25970811965558 425.668 206.25970811965558 427 206.25970811965558 Z"></path><path fill="#7cb5ec" d="M 423 204.90462336820747 C 424.332 204.90462336820747 424.332 206.90462336820747 423 206.90462336820747 C 421.668 206.90462336820747 421.668 204.90462336820747 423 204.90462336820747 Z"></path><path fill="#7cb5ec" d="M 419 203.49233666264894 C 420.332 203.49233666264894 420.332 205.49233666264894 419 205.49233666264894 C 417.668 205.49233666264894 417.668 203.49233666264894 419 203.49233666264894 Z"></path><path fill="#7cb5ec" d="M 414 202.01760504855545 C 415.332 202.01760504855545 415.332 204.01760504855545 414 204.01760504855545 C 412.668 204.01760504855545 412.668 202.01760504855545 414 202.01760504855545 Z"></path><path fill="#7cb5ec" d="M 410 200.4744303141755 C 411.332 200.4744303141755 411.332 202.4744303141755 410 202.4744303141755 C 408.668 202.4744303141755 408.668 200.4744303141755 410 200.4744303141755 Z"></path><path fill="#7cb5ec" d="M 405 198.85590657978412 C 406.332 198.85590657978412 406.332 200.85590657978412 405 200.85590657978412 C 403.668 200.85590657978412 403.668 198.85590657978412 405 198.85590657978412 Z"></path><path fill="#7cb5ec" d="M 401 197.1540273894026 C 402.332 197.1540273894026 402.332 199.1540273894026 401 199.1540273894026 C 399.668 199.1540273894026 399.668 197.1540273894026 401 197.1540273894026 Z"></path><path fill="#7cb5ec" d="M 397 195.35943866363414 C 398.332 195.35943866363414 398.332 197.35943866363414 397 197.35943866363414 C 395.668 197.35943866363414 395.668 195.35943866363414 397 195.35943866363414 Z"></path><path fill="#7cb5ec" d="M 392 193.46111819109672 C 393.332 193.46111819109672 393.332 195.46111819109672 392 195.46111819109672 C 390.668 195.46111819109672 390.668 193.46111819109672 392 193.46111819109672 Z"></path><path fill="#7cb5ec" d="M 388 191.4459537785208 C 389.332 191.4459537785208 389.332 193.4459537785208 388 193.4459537785208 C 386.668 193.4459537785208 386.668 191.4459537785208 388 191.4459537785208 Z"></path><path fill="#7cb5ec" d="M 383 189.29817899663743 C 384.332 189.29817899663743 384.332 191.29817899663743 383 191.29817899663743 C 381.668 191.29817899663743 381.668 189.29817899663743 383 189.29817899663743 Z"></path><path fill="#7cb5ec" d="M 379 186.998604632634 C 380.332 186.998604632634 380.332 188.998604632634 379 188.998604632634 C 377.668 188.998604632634 377.668 186.998604632634 379 186.998604632634 Z"></path><path fill="#7cb5ec" d="M 375 184.52355011238694 C 376.332 184.52355011238694 376.332 186.52355011238694 375 186.52355011238694 C 373.668 186.52355011238694 373.668 184.52355011238694 375 184.52355011238694 Z"></path><path fill="#7cb5ec" d="M 370 181.8433223456829 C 371.332 181.8433223456829 371.332 183.8433223456829 370 183.8433223456829 C 368.668 183.8433223456829 368.668 181.8433223456829 370 181.8433223456829 Z"></path><path fill="#7cb5ec" d="M 366 178.91999051280183 C 367.332 178.91999051280183 367.332 180.91999051280183 366 180.91999051280183 C 364.668 180.91999051280183 364.668 178.91999051280183 366 178.91999051280183 Z"></path><path fill="#7cb5ec" d="M 361 175.7040254882329 C 362.332 175.7040254882329 362.332 177.7040254882329 361 177.7040254882329 C 359.668 177.7040254882329 359.668 175.7040254882329 361 175.7040254882329 Z"></path><path fill="#7cb5ec" d="M 357 172.12902893150215 C 358.332 172.12902893150215 358.332 174.12902893150215 357 174.12902893150215 C 355.668 174.12902893150215 355.668 172.12902893150215 357 172.12902893150215 Z"></path><path fill="#7cb5ec" d="M 352 168.10307978296834 C 353.332 168.10307978296834 353.332 170.10307978296834 352 170.10307978296834 C 350.668 170.10307978296834 350.668 168.10307978296834 352 168.10307978296834 Z"></path><path fill="#7cb5ec" d="M 348 163.49370437753004 C 349.332 163.49370437753004 349.332 165.49370437753004 348 165.49370437753004 C 346.668 165.49370437753004 346.668 163.49370437753004 348 163.49370437753004 Z"></path><path fill="#7cb5ec" d="M 344 158.09984145904548 C 345.332 158.09984145904548 345.332 160.09984145904548 344 160.09984145904548 C 342.668 160.09984145904548 342.668 158.09984145904548 344 158.09984145904548 Z"></path><path fill="#7cb5ec" d="M 339 151.59441483595432 C 340.332 151.59441483595432 340.332 153.59441483595432 339 153.59441483595432 C 337.668 153.59441483595432 337.668 151.59441483595432 339 151.59441483595432 Z"></path><path fill="#7cb5ec" d="M 335 143.39046184391748 C 336.332 143.39046184391748 336.332 145.39046184391748 335 145.39046184391748 C 333.668 145.39046184391748 333.668 143.39046184391748 335 143.39046184391748 Z"></path><path fill="#7cb5ec" d="M 330 132.26268970875043 C 331.332 132.26268970875043 331.332 134.26268970875043 330 134.26268970875043 C 328.668 134.26268970875043 328.668 132.26268970875043 330 132.26268970875043 Z"></path><path fill="#7cb5ec" d="M 326 114.8583171093741 C 327.332 114.8583171093741 327.332 116.8583171093741 326 116.8583171093741 C 324.668 116.8583171093741 324.668 114.8583171093741 326 114.8583171093741 Z"></path><path fill="#7cb5ec" d="M 322 72.14581910361392 C 323.332 72.14581910361392 323.332 74.14581910361392 322 74.14581910361392 C 320.668 74.14581910361392 320.668 72.14581910361392 322 72.14581910361392 Z"></path><path fill="#7cb5ec" d="M 317 92.64842028674366 C 318.332 92.64842028674366 318.332 94.64842028674366 317 94.64842028674366 C 315.668 94.64842028674366 315.668 92.64842028674366 317 92.64842028674366 Z"></path><path fill="#7cb5ec" d="M 313 121.35189718947302 C 314.332 121.35189718947302 314.332 123.35189718947302 313 123.35189718947302 C 311.668 123.35189718947302 311.668 121.35189718947302 313 121.35189718947302 Z"></path><path fill="#7cb5ec" d="M 308 135.99622325180474 C 309.332 135.99622325180474 309.332 137.99622325180474 308 137.99622325180474 C 306.668 137.99622325180474 306.668 135.99622325180474 308 135.99622325180474 Z"></path><path fill="#7cb5ec" d="M 304 145.89146863552776 C 305.332 145.89146863552776 305.332 147.89146863552776 304 147.89146863552776 C 302.668 147.89146863552776 302.668 145.89146863552776 304 145.89146863552776 Z"></path><path fill="#7cb5ec" d="M 300 153.36904982810876 C 301.332 153.36904982810876 301.332 155.36904982810876 300 155.36904982810876 C 298.668 155.36904982810876 298.668 153.36904982810876 300 153.36904982810876 Z"></path><path fill="#7cb5ec" d="M 295 159.37771231850343 C 296.332 159.37771231850343 296.332 161.37771231850343 295 161.37771231850343 C 293.668 161.37771231850343 293.668 159.37771231850343 295 159.37771231850343 Z"></path><path fill="#7cb5ec" d="M 291 164.39832970350244 C 292.332 164.39832970350244 292.332 166.39832970350244 291 166.39832970350244 C 289.668 166.39832970350244 289.668 164.39832970350244 291 164.39832970350244 Z"></path><path fill="#7cb5ec" d="M 286 168.70853224026348 C 287.332 168.70853224026348 287.332 170.70853224026348 286 170.70853224026348 C 284.668 170.70853224026348 284.668 168.70853224026348 286 168.70853224026348 Z"></path><path fill="#7cb5ec" d="M 282 172.4832226400659 C 283.332 172.4832226400659 283.332 174.4832226400659 282 174.4832226400659 C 280.668 174.4832226400659 280.668 172.4832226400659 282 172.4832226400659 Z"></path><path fill="#7cb5ec" d="M 278 175.8397369267493 C 279.332 175.8397369267493 279.332 177.8397369267493 278 177.8397369267493 C 276.668 177.8397369267493 276.668 175.8397369267493 278 175.8397369267493 Z"></path><path fill="#7cb5ec" d="M 273 178.86062804867498 C 274.332 178.86062804867498 274.332 180.86062804867498 273 180.86062804867498 C 271.668 180.86062804867498 271.668 178.86062804867498 273 178.86062804867498 Z"></path><path fill="#7cb5ec" d="M 269 181.60618599777146 C 270.332 181.60618599777146 270.332 183.60618599777146 269 183.60618599777146 C 267.668 183.60618599777146 267.668 181.60618599777146 269 181.60618599777146 Z"></path><path fill="#7cb5ec" d="M 264 184.12178686355725 C 265.332 184.12178686355725 265.332 186.12178686355725 264 186.12178686355725 C 262.668 186.12178686355725 262.668 184.12178686355725 264 184.12178686355725 Z"></path><path fill="#7cb5ec" d="M 260 186.44243929902302 C 261.332 186.44243929902302 261.332 188.44243929902302 260 188.44243929902302 C 258.668 188.44243929902302 258.668 186.44243929902302 260 186.44243929902302 Z"></path><path fill="#7cb5ec" d="M 256 188.59572053297785 C 257.332 188.59572053297785 257.332 190.59572053297785 256 190.59572053297785 C 254.668 190.59572053297785 254.668 188.59572053297785 256 188.59572053297785 Z"></path><path fill="#7cb5ec" d="M 251 190.60374141836957 C 252.332 190.60374141836957 252.332 192.60374141836957 251 192.60374141836957 C 249.668 192.60374141836957 249.668 190.60374141836957 251 190.60374141836957 Z"></path><path fill="#7cb5ec" d="M 247 192.48450205314884 C 248.332 192.48450205314884 248.332 194.48450205314884 247 194.48450205314884 C 245.668 194.48450205314884 245.668 192.48450205314884 247 192.48450205314884 Z"></path><path fill="#7cb5ec" d="M 242 194.2528515920955 C 243.332 194.2528515920955 243.332 196.2528515920955 242 196.2528515920955 C 240.668 196.2528515920955 240.668 194.2528515920955 242 194.2528515920955 Z"></path><path fill="#7cb5ec" d="M 238 195.92118331126073 C 239.332 195.92118331126073 239.332 197.92118331126073 238 197.92118331126073 C 236.668 197.92118331126073 236.668 195.92118331126073 238 195.92118331126073 Z"></path><path fill="#7cb5ec" d="M 233 197.49994799338447 C 234.332 197.49994799338447 234.332 199.49994799338447 233 199.49994799338447 C 231.668 199.49994799338447 231.668 197.49994799338447 233 197.49994799338447 Z"></path><path fill="#7cb5ec" d="M 229 198.99803979998484 C 230.332 198.99803979998484 230.332 200.99803979998484 229 200.99803979998484 C 227.668 200.99803979998484 227.668 198.99803979998484 229 198.99803979998484 Z"></path><path fill="#7cb5ec" d="M 225 200.42309084394623 C 226.332 200.42309084394623 226.332 202.42309084394623 225 202.42309084394623 C 223.668 202.42309084394623 223.668 200.42309084394623 225 200.42309084394623 Z"></path><path fill="#7cb5ec" d="M 220 201.78169921790555 C 221.332 201.78169921790555 221.332 203.78169921790555 220 203.78169921790555 C 218.668 203.78169921790555 218.668 201.78169921790555 220 201.78169921790555 Z"></path><path fill="#7cb5ec" d="M 216 203.0796077402168 C 217.332 203.0796077402168 217.332 205.0796077402168 216 205.0796077402168 C 214.668 205.0796077402168 214.668 203.0796077402168 216 203.0796077402168 Z"></path><path fill="#7cb5ec" d="M 211 204.32184567199528 C 212.332 204.32184567199528 212.332 206.32184567199528 211 206.32184567199528 C 209.668 206.32184567199528 209.668 204.32184567199528 211 204.32184567199528 Z"></path><path fill="#7cb5ec" d="M 207 205.51284224526418 C 208.332 205.51284224526418 208.332 207.51284224526418 207 207.51284224526418 C 205.668 207.51284224526418 205.668 205.51284224526418 207 205.51284224526418 Z"></path><path fill="#7cb5ec" d="M 203 206.65651847401355 C 204.332 206.65651847401355 204.332 208.65651847401355 203 208.65651847401355 C 201.668 208.65651847401355 201.668 206.65651847401355 203 206.65651847401355 Z"></path><path fill="#7cb5ec" d="M 198 207.75636205019558 C 199.332 207.75636205019558 199.332 209.75636205019558 198 209.75636205019558 C 196.668 209.75636205019558 196.668 207.75636205019558 198 207.75636205019558 Z"></path><path fill="#7cb5ec" d="M 194 208.81548893180695 C 195.332 208.81548893180695 195.332 210.81548893180695 194 210.81548893180695 C 192.668 210.81548893180695 192.668 208.81548893180695 194 208.81548893180695 Z"></path><path fill="#7cb5ec" d="M 189 209.836694363491 C 190.332 209.836694363491 190.332 211.836694363491 189 211.836694363491 C 187.668 211.836694363491 187.668 209.836694363491 189 209.836694363491 Z"></path><path fill="#7cb5ec" d="M 185 210.82249543350613 C 186.332 210.82249543350613 186.332 212.82249543350613 185 212.82249543350613 C 183.668 212.82249543350613 183.668 210.82249543350613 185 210.82249543350613 Z"></path><path fill="#7cb5ec" d="M 181 211.77516679790017 C 182.332 211.77516679790017 182.332 213.77516679790017 181 213.77516679790017 C 179.668 213.77516679790017 179.668 211.77516679790017 181 211.77516679790017 Z"></path><path fill="#7cb5ec" d="M 176 212.6967708474955 C 177.332 212.6967708474955 177.332 214.6967708474955 176 214.6967708474955 C 174.668 214.6967708474955 174.668 212.6967708474955 176 212.6967708474955 Z"></path><path fill="#7cb5ec" d="M 172 213.58918332381978 C 173.332 213.58918332381978 173.332 215.58918332381978 172 215.58918332381978 C 170.668 215.58918332381978 170.668 213.58918332381978 172 213.58918332381978 Z"></path><path fill="#7cb5ec" d="M 167 214.45411518380638 C 168.332 214.45411518380638 168.332 216.45411518380638 167 216.45411518380638 C 165.668 216.45411518380638 165.668 214.45411518380638 167 214.45411518380638 Z"></path><path fill="#7cb5ec" d="M 163 215.29313135375315 C 164.332 215.29313135375315 164.332 217.29313135375315 163 217.29313135375315 C 161.668 217.29313135375315 161.668 215.29313135375315 163 215.29313135375315 Z"></path><path fill="#7cb5ec" d="M 159 216.10766688896416 C 160.332 216.10766688896416 160.332 218.10766688896416 159 218.10766688896416 C 157.668 218.10766688896416 157.668 216.10766688896416 159 216.10766688896416 Z"></path><path fill="#7cb5ec" d="M 154 216.89904095816652 C 155.332 216.89904095816652 155.332 218.89904095816652 154 218.89904095816652 C 152.668 218.89904095816652 152.668 216.89904095816652 154 216.89904095816652 Z"></path><path fill="#7cb5ec" d="M 150 217.6684689948741 C 151.332 217.6684689948741 151.332 219.6684689948741 150 219.6684689948741 C 148.668 219.6684689948741 148.668 217.6684689948741 150 217.6684689948741 Z"></path><path fill="#7cb5ec" d="M 145 218.41707329667673 C 146.332 218.41707329667673 146.332 220.41707329667673 145 220.41707329667673 C 143.668 220.41707329667673 143.668 218.41707329667673 145 218.41707329667673 Z"></path><path fill="#7cb5ec" d="M 141 219.14589230443326 C 142.332 219.14589230443326 142.332 221.14589230443326 141 221.14589230443326 C 139.668 221.14589230443326 139.668 219.14589230443326 141 219.14589230443326 Z"></path><path fill="#7cb5ec" d="M 137 219.85588875387833 C 138.332 219.85588875387833 138.332 221.85588875387833 137 221.85588875387833 C 135.668 221.85588875387833 135.668 219.85588875387833 137 219.85588875387833 Z"></path><path fill="#7cb5ec" d="M 132 220.54795686017383 C 133.332 220.54795686017383 133.332 222.54795686017383 132 222.54795686017383 C 130.668 222.54795686017383 130.668 220.54795686017383 132 220.54795686017383 Z"></path><path fill="#7cb5ec" d="M 128 221.2229286698928 C 129.332 221.2229286698928 129.332 223.2229286698928 128 223.2229286698928 C 126.668 223.2229286698928 126.668 221.2229286698928 128 221.2229286698928 Z"></path><path fill="#7cb5ec" d="M 123 221.8815796935928 C 124.332 221.8815796935928 124.332 223.8815796935928 123 223.8815796935928 C 121.668 223.8815796935928 121.668 221.8815796935928 123 221.8815796935928 Z"></path><path fill="#7cb5ec" d="M 119 222.52463391459204 C 120.332 222.52463391459204 120.332 224.52463391459204 119 224.52463391459204 C 117.668 224.52463391459204 117.668 222.52463391459204 119 222.52463391459204 Z"></path><path fill="#7cb5ec" d="M 114 223.15276825505657 C 115.332 223.15276825505657 115.332 225.15276825505657 114 225.15276825505657 C 112.668 225.15276825505657 112.668 223.15276825505657 114 223.15276825505657 Z"></path><path fill="#7cb5ec" d="M 110 223.766616568463 C 111.332 223.766616568463 111.332 225.766616568463 110 225.766616568463 C 108.668 225.766616568463 108.668 223.766616568463 110 223.766616568463 Z"></path><path fill="#7cb5ec" d="M 106 224.36677321746058 C 107.332 224.36677321746058 107.332 226.36677321746058 106 226.36677321746058 C 104.668 226.36677321746058 104.668 224.36677321746058 106 224.36677321746058 Z"></path><path fill="#7cb5ec" d="M 101 224.9537962877476 C 102.332 224.9537962877476 102.332 226.9537962877476 101 226.9537962877476 C 99.668 226.9537962877476 99.668 224.9537962877476 101 224.9537962877476 Z"></path><path fill="#7cb5ec" d="M 97 225.5282104815136 C 98.332 225.5282104815136 98.332 227.5282104815136 97 227.5282104815136 C 95.668 227.5282104815136 95.668 225.5282104815136 97 225.5282104815136 Z"></path><path fill="#7cb5ec" d="M 92 226.09050972803664 C 93.332 226.09050972803664 93.332 228.09050972803664 92 228.09050972803664 C 90.668 228.09050972803664 90.668 226.09050972803664 92 226.09050972803664 Z"></path><path fill="#7cb5ec" d="M 88 226.6411595439793 C 89.332 226.6411595439793 89.332 228.6411595439793 88 228.6411595439793 C 86.668 228.6411595439793 86.668 226.6411595439793 88 226.6411595439793 Z"></path><path fill="#7cb5ec" d="M 84 227.18059917164098 C 85.332 227.18059917164098 85.332 229.18059917164098 84 229.18059917164098 C 82.668 229.18059917164098 82.668 227.18059917164098 84 227.18059917164098 Z"></path><path fill="#7cb5ec" d="M 79 227.7092435197704 C 80.332 227.7092435197704 80.332 229.7092435197704 79 229.7092435197704 C 77.668 229.7092435197704 77.668 227.7092435197704 79 227.7092435197704 Z"></path><path fill="#7cb5ec" d="M 75 228.22748492841998 C 76.332 228.22748492841998 76.332 230.22748492841998 75 230.22748492841998 C 73.668 230.22748492841998 73.668 228.22748492841998 75 228.22748492841998 Z"></path><path fill="#7cb5ec" d="M 70 228.73569477664398 C 71.332 228.73569477664398 71.332 230.73569477664398 70 230.73569477664398 C 68.668 230.73569477664398 68.668 228.73569477664398 70 228.73569477664398 Z"></path><path fill="#7cb5ec" d="M 66 229.23422494954113 C 67.332 229.23422494954113 67.332 231.23422494954113 66 231.23422494954113 C 64.668 231.23422494954113 64.668 229.23422494954113 66 229.23422494954113 Z"></path><path fill="#7cb5ec" d="M 62 229.7234091791545 C 63.332 229.7234091791545 63.332 231.7234091791545 62 231.7234091791545 C 60.668 231.7234091791545 60.668 229.7234091791545 62 229.7234091791545 Z"></path><path fill="#7cb5ec" d="M 57 230.20356427202515 C 58.332 230.20356427202515 58.332 232.20356427202515 57 232.20356427202515 C 55.668 232.20356427202515 55.668 230.20356427202515 57 230.20356427202515 Z"></path><path fill="#7cb5ec" d="M 53 230.67499123470512 C 54.332 230.67499123470512 54.332 232.67499123470512 53 232.67499123470512 C 51.668 232.67499123470512 51.668 230.67499123470512 53 230.67499123470512 Z"></path><path fill="#7cb5ec" d="M 48 231.13797630724298 C 49.332 231.13797630724298 49.332 233.13797630724298 48 233.13797630724298 C 46.668 233.13797630724298 46.668 231.13797630724298 48 231.13797630724298 Z"></path><path fill="#7cb5ec" d="M 44 231.5927919135258 C 45.332 231.5927919135258 45.332 233.5927919135258 44 233.5927919135258 C 42.668 233.5927919135258 42.668 231.5927919135258 44 231.5927919135258 Z"></path><path fill="#7cb5ec" d="M 40 232.03969753637728 C 41.332 232.03969753637728 41.332 234.03969753637728 40 234.03969753637728 C 38.668 234.03969753637728 38.668 232.03969753637728 40 232.03969753637728 Z"></path><path fill="#7cb5ec" d="M 35 232.47894052445042 C 36.332 232.47894052445042 36.332 234.47894052445042 35 234.47894052445042 C 33.668 234.47894052445042 33.668 232.47894052445042 35 232.47894052445042 Z"></path><path fill="#7cb5ec" d="M 31 232.91075683719524 C 32.332 232.91075683719524 32.332 234.91075683719524 31 234.91075683719524 C 29.668 234.91075683719524 29.668 232.91075683719524 31 232.91075683719524 Z"></path><path fill="#7cb5ec" d="M 26 233.33537173351834 C 27.332 233.33537173351834 27.332 235.33537173351834 26 235.33537173351834 C 24.668 235.33537173351834 24.668 233.33537173351834 26 233.33537173351834 Z"></path><path fill="#7cb5ec" d="M 22 233.75300040916676 C 23.332 233.75300040916676 23.332 235.75300040916676 22 235.75300040916676 C 20.668 235.75300040916676 20.668 233.75300040916676 22 233.75300040916676 Z"></path><path fill="#7cb5ec" d="M 18 234.16384858734858 C 19.332 234.16384858734858 19.332 236.16384858734858 18 236.16384858734858 C 16.668 236.16384858734858 16.668 234.16384858734858 18 234.16384858734858 Z"></path><path fill="#7cb5ec" d="M 13 234.56811306664986 C 14.332 234.56811306664986 14.332 236.56811306664986 13 236.56811306664986 C 11.668 236.56811306664986 11.668 234.56811306664986 13 234.56811306664986 Z"></path><path fill="#7cb5ec" d="M 9 234.9659822298983 C 10.332 234.9659822298983 10.332 236.9659822298983 9 236.9659822298983 C 7.668 236.9659822298983 7.668 234.9659822298983 9 234.9659822298983 Z"></path><path fill="#7cb5ec" d="M 4 235.357636517269 C 5.332 235.357636517269 5.332 237.357636517269 4 237.357636517269 C 2.668 237.357636517269 2.668 235.357636517269 4 235.357636517269 Z"></path></g><g class="highcharts-series" visibility="visible"  transform="translate(100,60) scale(1 1)" clip-path="url(#highcharts-141)"></g><g class="highcharts-markers" visibility="visible"  transform="translate(100,60) scale(1 1)" clip-path="none"></g><g class="highcharts-series" visibility="visible"  transform="translate(100,60) scale(1 1)" clip-path="url(#highcharts-141)"></g><g class="highcharts-markers" visibility="visible"  transform="translate(100,60) scale(1 1)" clip-path="none"></g></g><text x="300" text-anchor="middle" class="highcharts-title"  style="color:#333333;font-size:18px;fill:#333333;width:536px;" y="24"><tspan>Unnamed Project Simulation</tspan></text><text x="300" text-anchor="middle" class="highcharts-subtitle"  style="color:#555555;fill:#555555;width:536px;" y="45"><tspan>Magnitude Plot</tspan></text><g class="highcharts-axis-labels highcharts-xaxis-labels" ><text x="1146.5320165104301" style="color:#a0a0a0;cursor:default;font-size:11px;fill:#a0a0a0;" text-anchor="end" transform="translate(0,0)" y="349" opacity="1"><tspan>3.162 GHz</tspan></text></g><g class="highcharts-axis-labels highcharts-yaxis-labels" ><text x="90" style="color:#89a54e;cursor:default;font-size:11px;fill:#89a54e;width:80px;text-overflow:clip;" text-anchor="end" transform="translate(0,0)" y="273" opacity="1"><tspan>20  dBV</tspan></text><text x="90" style="color:#89a54e;cursor:default;font-size:11px;fill:#89a54e;width:80px;text-overflow:clip;" text-anchor="end" transform="translate(0,0)" y="201" opacity="1"><tspan>40  dBV</tspan></text><text x="90" style="color:#89a54e;cursor:default;font-size:11px;fill:#89a54e;width:80px;text-overflow:clip;" text-anchor="end" transform="translate(0,0)" y="130" opacity="1"><tspan>60  dBV</tspan></text><text x="90" style="color:#89a54e;cursor:default;font-size:11px;fill:#89a54e;width:80px;text-overflow:clip;" text-anchor="end" transform="translate(0,0)" y="58" opacity="1"><tspan>80  dBV</tspan></text></g><g class="highcharts-tooltip"  style="cursor:default;padding:0;white-space:nowrap;" transform="translate(0,-9999)"><path fill="rgb(249, 249, 249)" fill-opacity=" .85" d="M 3 0 L 13 0 C 16 0 16 0 16 3 L 16 13 C 16 16 16 16 13 16 L 3 16 C 0 16 0 16 0 13 L 0 3 C 0 0 0 0 3 0"></path><text x="8"  style="font-size:12px;color:#333333;fill:#333333;" transform="translate(0,20)"></text></g><text x="590" text-anchor="end"  style="cursor:pointer;color:#909090;font-size:9px;fill:#909090;" y="395">PartSim.com</text></g></svg>