<?xml version="1.0" encoding="UTF-8" standalone="no"?>
<svg
   xmlns:dc="http://purl.org/dc/elements/1.1/"
   xmlns:cc="http://creativecommons.org/ns#"
   xmlns:rdf="http://www.w3.org/1999/02/22-rdf-syntax-ns#"
   xmlns:svg="http://www.w3.org/2000/svg"
   xmlns="http://www.w3.org/2000/svg"
   xmlns:sodipodi="http://sodipodi.sourceforge.net/DTD/sodipodi-0.dtd"
   xmlns:inkscape="http://www.inkscape.org/namespaces/inkscape"
   version="1.1"
   width="14.8006cm"
   height="21.0007cm"
   viewBox="0 0 58270 82680 "
   id="svg2"
   inkscape:version="0.91 r13725"
   sodipodi:docname="pov-B.Cu.svg">
  <metadata
     id="metadata352">
    <rdf:RDF>
      <cc:Work
         rdf:about="">
        <dc:format>image/svg+xml</dc:format>
        <dc:type
           rdf:resource="http://purl.org/dc/dcmitype/StillImage" />
      </cc:Work>
    </rdf:RDF>
  </metadata>
  <defs
     id="defs350" />
  <sodipodi:namedview
     pagecolor="#ffffff"
     bordercolor="#666666"
     borderopacity="1"
     objecttolerance="10"
     gridtolerance="10"
     guidetolerance="10"
     inkscape:pageopacity="0"
     inkscape:pageshadow="2"
     inkscape:window-width="1366"
     inkscape:window-height="722"
     id="namedview348"
     showgrid="false"
     inkscape:zoom="0.44852271"
     inkscape:cx="477.7813"
     inkscape:cy="278.82089"
     inkscape:window-x="0"
     inkscape:window-y="24"
     inkscape:window-maximized="1"
     inkscape:current-layer="svg2" />
  <title
     id="title4">SVG Picture created as pov-B.Cu.svg date 2017/10/11 13:44:25 </title>
  <desc
     id="desc6">Picture generated by PCBNEW </desc>
  <g
     style="fill:#000000; fill-opacity:1;stroke:#000000; stroke-opacity:1; stroke-linecap:round; stroke-linejoin:round; "
     transform="translate(0 0) scale(1 1)"
     id="g8" />
  <g
     style="fill:#000000; fill-opacity:0.0;  stroke:#000000; stroke-width:-0.000393701; stroke-opacity:1;  stroke-linecap:round; stroke-linejoin:round;"
     id="g10" />
  <g
     style="fill:#000000;fill-opacity:0;stroke:#000000;stroke-width:59.05509949;stroke-linecap:round;stroke-linejoin:round;stroke-opacity:1"
     id="g12"
     transform="translate(785.00004,4565.0009)">
    <path
       d="m 23050,43150 0,3500"
       id="path14"
       inkscape:connector-curvature="0" />
    <path
       d="m 23050,46650 0,12250"
       id="path16"
       inkscape:connector-curvature="0" />
    <path
       d="m 33600,14650 -10550,0"
       id="path18"
       inkscape:connector-curvature="0" />
    <path
       d="m 33650,58900 -50,-44250"
       id="path20"
       inkscape:connector-curvature="0" />
    <path
       d="m 23050,58900 10600,0"
       id="path22"
       inkscape:connector-curvature="0" />
    <path
       d="m 23050,14650 0,28500"
       id="path24"
       inkscape:connector-curvature="0" />
  </g>
  <g
     style="fill:#000000;fill-opacity:1;stroke:#000000;stroke-width:0;stroke-linecap:round;stroke-linejoin:round;stroke-opacity:1"
     id="g26"
     transform="translate(785.00004,4565.0009)">
    <circle
       cx="28500"
       cy="54750"
       r="590.55103"
       id="circle28" />
  </g>
  <g
     style="fill:#000000; fill-opacity:1.0;  stroke:#000000; stroke-width:39.3701; stroke-opacity:1;  stroke-linecap:round; stroke-linejoin:round;"
     id="g30" />
  <g
     style="fill:#000000;fill-opacity:1;stroke:#000000;stroke-width:0;stroke-linecap:round;stroke-linejoin:round;stroke-opacity:1"
     id="g32"
     transform="translate(785.00004,4565.0009)">
    <polyline
       style="fill-rule:evenodd"
       points="27909,46092 29090,46092 29090,47273 27909,47273 27909,46092 "
       id="polyline34" />
    <polyline
       style="fill-rule:evenodd"
       points="31200,43500 32000,43500 32000,44300 31200,44300 31200,43500 "
       id="polyline36" />
  </g>
  <g
     style="fill:#000000; fill-opacity:1.0;  stroke:#000000; stroke-width:800; stroke-opacity:1;  stroke-linecap:round; stroke-linejoin:round;"
     id="g38" />
  <g
     style="fill:#000000;fill-opacity:0;stroke:#000000;stroke-width:800;stroke-linecap:round;stroke-linejoin:round;stroke-opacity:1"
     id="g40"
     transform="translate(785.00004,4565.0009)">
    <path
       d="m 30600,43900 0,0"
       id="path42"
       inkscape:connector-curvature="0" />
  </g>
  <g
     style="fill:#000000;fill-opacity:1;stroke:#000000;stroke-width:0;stroke-linecap:round;stroke-linejoin:round;stroke-opacity:1"
     id="g44"
     transform="translate(785.00004,4565.0009)">
    <circle
       cx="29400"
       cy="33800"
       r="330"
       id="circle46" />
  </g>
  <g
     style="fill:#000000; fill-opacity:1.0;  stroke:#000000; stroke-width:39.3701; stroke-opacity:1;  stroke-linecap:round; stroke-linejoin:round;"
     id="g48" />
  <g
     style="fill:#000000; fill-opacity:1.0;  stroke:#000000; stroke-width:660; stroke-opacity:1;  stroke-linecap:round; stroke-linejoin:round;"
     id="g50" />
  <g
     style="fill:#000000;fill-opacity:0;stroke:#000000;stroke-width:660;stroke-linecap:round;stroke-linejoin:round;stroke-opacity:1"
     id="g52"
     transform="translate(785.00004,4565.0009)">
    <path
       d="m 29562,32800 -325,0"
       id="path54"
       inkscape:connector-curvature="0" />
  </g>
  <g
     style="fill:#000000;fill-opacity:1;stroke:#000000;stroke-width:0;stroke-linecap:round;stroke-linejoin:round;stroke-opacity:1"
     id="g56"
     transform="translate(785.00004,4565.0009)">
    <circle
       cx="29400"
       cy="31800"
       r="330"
       id="circle58" />
  </g>
  <g
     style="fill:#000000; fill-opacity:1.0;  stroke:#000000; stroke-width:39.3701; stroke-opacity:1;  stroke-linecap:round; stroke-linejoin:round;"
     id="g60" />
  <g
     style="fill:#000000;fill-opacity:1;stroke:#000000;stroke-width:0;stroke-linecap:round;stroke-linejoin:round;stroke-opacity:1"
     id="g62"
     transform="translate(785.00004,4565.0009)">
    <circle
       cx="31550"
       cy="35150"
       r="236.22"
       id="circle64" />
  </g>
  <g
     style="fill:#000000; fill-opacity:1.0;  stroke:#000000; stroke-width:39.3701; stroke-opacity:1;  stroke-linecap:round; stroke-linejoin:round;"
     id="g66" />
  <g
     style="fill:#000000;fill-opacity:1;stroke:#000000;stroke-width:0;stroke-linecap:round;stroke-linejoin:round;stroke-opacity:1"
     id="g68"
     transform="translate(785.00004,4565.0009)">
    <circle
       cx="24200"
       cy="42650"
       r="236.22"
       id="circle70" />
  </g>
  <g
     style="fill:#000000; fill-opacity:1.0;  stroke:#000000; stroke-width:39.3701; stroke-opacity:1;  stroke-linecap:round; stroke-linejoin:round;"
     id="g72" />
  <g
     style="fill:#000000;fill-opacity:1;stroke:#000000;stroke-width:0;stroke-linecap:round;stroke-linejoin:round;stroke-opacity:1"
     id="g74"
     transform="translate(785.00004,4565.0009)">
    <circle
       cx="27400"
       cy="43750"
       r="236.22"
       id="circle76" />
  </g>
  <g
     style="fill:#000000; fill-opacity:1.0;  stroke:#000000; stroke-width:39.3701; stroke-opacity:1;  stroke-linecap:round; stroke-linejoin:round;"
     id="g78" />
  <g
     style="fill:#000000;fill-opacity:1;stroke:#000000;stroke-width:0;stroke-linecap:round;stroke-linejoin:round;stroke-opacity:1"
     id="g80"
     transform="translate(785.00004,4565.0009)">
    <circle
       cx="24300"
       cy="43900"
       r="236.22"
       id="circle82" />
  </g>
  <g
     style="fill:#000000; fill-opacity:1.0;  stroke:#000000; stroke-width:39.3701; stroke-opacity:1;  stroke-linecap:round; stroke-linejoin:round;"
     id="g84" />
  <g
     style="fill:#000000;fill-opacity:1;stroke:#000000;stroke-width:0;stroke-linecap:round;stroke-linejoin:round;stroke-opacity:1"
     id="g86"
     transform="translate(785.00004,4565.0009)">
    <circle
       cx="26150"
       cy="44400"
       r="236.22"
       id="circle88" />
  </g>
  <g
     style="fill:#000000; fill-opacity:1.0;  stroke:#000000; stroke-width:39.3701; stroke-opacity:1;  stroke-linecap:round; stroke-linejoin:round;"
     id="g90" />
  <g
     style="fill:#000000;fill-opacity:1;stroke:#000000;stroke-width:0;stroke-linecap:round;stroke-linejoin:round;stroke-opacity:1"
     id="g92"
     transform="translate(785.00004,4565.0009)">
    <circle
       cx="24050"
       cy="44400"
       r="236.22"
       id="circle94" />
  </g>
  <g
     style="fill:#000000; fill-opacity:1.0;  stroke:#000000; stroke-width:39.3701; stroke-opacity:1;  stroke-linecap:round; stroke-linejoin:round;"
     id="g96" />
  <g
     style="fill:#000000;fill-opacity:1;stroke:#000000;stroke-width:0;stroke-linecap:round;stroke-linejoin:round;stroke-opacity:1"
     id="g98"
     transform="translate(785.00004,4565.0009)">
    <circle
       cx="24550"
       cy="36650"
       r="236.22"
       id="circle100" />
  </g>
  <g
     style="fill:#000000; fill-opacity:1.0;  stroke:#000000; stroke-width:39.3701; stroke-opacity:1;  stroke-linecap:round; stroke-linejoin:round;"
     id="g102" />
  <g
     style="fill:#000000;fill-opacity:1;stroke:#000000;stroke-width:0;stroke-linecap:round;stroke-linejoin:round;stroke-opacity:1"
     id="g104"
     transform="translate(785.00004,4565.0009)">
    <circle
       cx="25300"
       cy="36000"
       r="236.22"
       id="circle106" />
  </g>
  <g
     style="fill:#000000; fill-opacity:1.0;  stroke:#000000; stroke-width:39.3701; stroke-opacity:1;  stroke-linecap:round; stroke-linejoin:round;"
     id="g108" />
  <g
     style="fill:#000000;fill-opacity:1;stroke:#000000;stroke-width:0;stroke-linecap:round;stroke-linejoin:round;stroke-opacity:1"
     id="g110"
     transform="translate(785.00004,4565.0009)">
    <circle
       cx="23800"
       cy="44900"
       r="236.22"
       id="circle112" />
  </g>
  <g
     style="fill:#000000; fill-opacity:1.0;  stroke:#000000; stroke-width:39.3701; stroke-opacity:1;  stroke-linecap:round; stroke-linejoin:round;"
     id="g114" />
  <g
     style="fill:#000000;fill-opacity:1;stroke:#000000;stroke-width:0;stroke-linecap:round;stroke-linejoin:round;stroke-opacity:1"
     id="g116"
     transform="translate(785.00004,4565.0009)">
    <circle
       cx="25300"
       cy="42800"
       r="236.22"
       id="circle118" />
  </g>
  <g
     style="fill:#000000; fill-opacity:1.0;  stroke:#000000; stroke-width:39.3701; stroke-opacity:1;  stroke-linecap:round; stroke-linejoin:round;"
     id="g120" />
  <g
     style="fill:#000000;fill-opacity:1;stroke:#000000;stroke-width:0;stroke-linecap:round;stroke-linejoin:round;stroke-opacity:1"
     id="g122"
     transform="translate(785.00004,4565.0009)">
    <circle
       cx="25000"
       cy="41550"
       r="236.22"
       id="circle124" />
  </g>
  <g
     style="fill:#000000; fill-opacity:1.0;  stroke:#000000; stroke-width:39.3701; stroke-opacity:1;  stroke-linecap:round; stroke-linejoin:round;"
     id="g126" />
  <g
     style="fill:#000000;fill-opacity:1;stroke:#000000;stroke-width:0;stroke-linecap:round;stroke-linejoin:round;stroke-opacity:1"
     id="g128"
     transform="translate(785.00004,4565.0009)">
    <circle
       cx="30500"
       cy="33850"
       r="236.22"
       id="circle130" />
  </g>
  <g
     style="fill:#000000; fill-opacity:1.0;  stroke:#000000; stroke-width:39.3701; stroke-opacity:1;  stroke-linecap:round; stroke-linejoin:round;"
     id="g132" />
  <g
     style="fill:#000000;fill-opacity:1;stroke:#000000;stroke-width:0;stroke-linecap:round;stroke-linejoin:round;stroke-opacity:1"
     id="g134"
     transform="translate(785.00004,4565.0009)">
    <circle
       cx="25050"
       cy="38700"
       r="236.22"
       id="circle136" />
  </g>
  <g
     style="fill:#000000; fill-opacity:1.0;  stroke:#000000; stroke-width:39.3701; stroke-opacity:1;  stroke-linecap:round; stroke-linejoin:round;"
     id="g138" />
  <g
     style="fill:#000000; fill-opacity:1.0;  stroke:#000000; stroke-width:157.48; stroke-opacity:1;  stroke-linecap:round; stroke-linejoin:round;"
     id="g140" />
  <g
     style="fill:#000000;fill-opacity:0;stroke:#000000;stroke-width:157.47999573;stroke-linecap:round;stroke-linejoin:round;stroke-opacity:1"
     id="g142"
     transform="translate(785.00004,4565.0009)">
    <path
       d="m 24450,40950 0,1450"
       id="path144"
       inkscape:connector-curvature="0" />
    <path
       d="m 24450,42400 -250,250"
       id="path146"
       inkscape:connector-curvature="0" />
    <path
       d="m 31550,35150 0,2550"
       id="path148"
       inkscape:connector-curvature="0" />
    <path
       d="m 25350,39850 0,800"
       id="path150"
       inkscape:connector-curvature="0" />
    <path
       d="m 27050,38150 -1700,1700"
       id="path152"
       inkscape:connector-curvature="0" />
    <path
       d="m 31100,38150 -4050,0"
       id="path154"
       inkscape:connector-curvature="0" />
    <path
       d="m 31550,37700 -450,450"
       id="path156"
       inkscape:connector-curvature="0" />
    <path
       d="m 25350,40650 -600,0"
       id="path158"
       inkscape:connector-curvature="0" />
    <path
       d="m 24750,40650 -300,300"
       id="path160"
       inkscape:connector-curvature="0" />
    <path
       d="m 27200,42400 0,1150"
       id="path162"
       inkscape:connector-curvature="0" />
    <path
       d="m 27200,43550 200,200"
       id="path164"
       inkscape:connector-curvature="0" />
    <path
       d="m 27050,42250 150,150"
       id="path166"
       inkscape:connector-curvature="0" />
    <path
       d="m 26250,42250 800,0"
       id="path168"
       inkscape:connector-curvature="0" />
    <path
       d="m 25850,41850 400,400"
       id="path170"
       inkscape:connector-curvature="0" />
    <path
       d="m 25850,41150 0,700"
       id="path172"
       inkscape:connector-curvature="0" />
    <path
       d="m 25350,40650 500,500"
       id="path174"
       inkscape:connector-curvature="0" />
  </g>
  <g
     style="fill:#000000;fill-opacity:0;stroke:#000000;stroke-width:137.79499817;stroke-linecap:round;stroke-linejoin:round;stroke-opacity:1"
     id="g176"
     transform="translate(785.00004,4565.0009)">
    <path
       d="m 24050,44400 -250,-250"
       id="path178"
       inkscape:connector-curvature="0" />
    <path
       d="m 23800,44150 0,-7150"
       id="path180"
       inkscape:connector-curvature="0" />
    <path
       d="m 24549,36650 1,-1"
       id="path182"
       inkscape:connector-curvature="0" />
    <path
       d="m 23800,37000 350,-350"
       id="path184"
       inkscape:connector-curvature="0" />
    <path
       d="m 24150,36650 399,0"
       id="path186"
       inkscape:connector-curvature="0" />
    <path
       d="m 23800,44900 -450,-450"
       id="path188"
       inkscape:connector-curvature="0" />
    <path
       d="m 23350,44450 0,-7900"
       id="path190"
       inkscape:connector-curvature="0" />
    <path
       d="m 23350,36550 550,-550"
       id="path192"
       inkscape:connector-curvature="0" />
    <path
       d="m 23900,36000 1065,0"
       id="path194"
       inkscape:connector-curvature="0" />
    <path
       d="m 24965,36000 335,0"
       id="path196"
       inkscape:connector-curvature="0" />
    <path
       d="m 25300,41850 0,950"
       id="path198"
       inkscape:connector-curvature="0" />
    <path
       d="m 25000,41550 300,300"
       id="path200"
       inkscape:connector-curvature="0" />
    <path
       d="m 30500,33850 0,2450"
       id="path202"
       inkscape:connector-curvature="0" />
    <path
       d="m 30500,36300 -400,400"
       id="path204"
       inkscape:connector-curvature="0" />
    <path
       d="m 30100,36700 -4400,0"
       id="path206"
       inkscape:connector-curvature="0" />
    <path
       d="m 25700,36700 -414,413"
       id="path208"
       inkscape:connector-curvature="0" />
    <path
       d="m 25286,37113 0,1350"
       id="path210"
       inkscape:connector-curvature="0" />
    <path
       d="m 25286,38463 -236,237"
       id="path212"
       inkscape:connector-curvature="0" />
  </g>
  <g
     style="fill:#000000;fill-opacity:1;stroke:#000000;stroke-width:100;stroke-linecap:round;stroke-linejoin:round;stroke-opacity:1"
     id="g214"
     transform="translate(785.00004,4565.0009)">
    <polyline
       style="fill-rule:evenodd"
       points="33370,58620 23329,58620 23329,55346 27974,55346 28037,55471 28348,55593 28683,55587 28962,55471 29025,55346 28500,54820 27974,55346 23329,55346 23329,54598 27656,54598 27662,54933 27778,55212 27903,55275 28429,54750 28570,54750 29096,55275 29221,55212 29343,54901 29337,54566 29221,54287 29096,54224 28570,54750 28429,54750 27903,54224 27778,54287 27656,54598 23329,54598 23329,54153 27974,54153 28500,54679 29025,54153 28962,54028 28651,53906 28316,53912 28037,54028 27974,54153 23329,54153 23329,46092 27654,46092 27654,47273 27671,47366 27726,47451 27810,47508 27909,47528 29090,47528 29183,47511 29268,47456 29325,47372 29345,47273 29345,46092 29328,45999 29273,45914 29189,45857 29090,45837 27909,45837 27816,45855 27731,45909 27674,45993 27654,46092 23329,46092 23329,45034 23387,45175 23524,45311 23702,45386 23896,45386 24075,45312 24168,45218 24800,45218 24922,45194 25025,45125 25094,45022 25118,44900 25115,44885 27866,44885 27970,45136 28162,45328 28413,45432 28685,45433 28936,45329 29128,45137 29232,44886 29233,44614 29129,44363 28937,44171 28686,44067 28414,44066 28163,44170 27971,44362 27867,44613 27866,44885 25115,44885 25094,44777 25025,44674 24988,44650 25025,44625 25094,44522 25118,44400 25094,44277 25025,44174 24922,44105 24800,44081 24418,44081 24325,43988 24147,43913 24118,43913 24118,43136 24296,43136 24475,43062 24611,42925 24686,42747 24686,42626 24753,42525 24778,42400 24778,41984 24902,42036 24981,42036 24981,42431 24888,42524 24813,42702 24813,42896 24887,43075 25024,43211 25202,43286 25396,43286 25575,43212 25711,43075 25786,42897 25786,42703 25712,42524 25618,42431 25618,42083 26017,42482 26124,42553 26250,42578 26871,42578 26871,43550 26896,43675 26913,43702 26913,43846 26987,44025 27124,44161 27302,44236 27496,44236 27675,44162 27786,44050 29967,44050 30073,44281 30259,44453 30449,44532 30550,44485 30550,43950 30014,43950 29967,44050 27786,44050 27811,44025 27886,43847 27886,43749 29967,43749 30014,43850 30550,43850 30550,43314 30650,43314 30650,43850 30657,43850 30657,43950 30650,43950 30650,44485 30750,44532 30940,44453 30978,44418 31017,44477 31100,44534 31200,44554 32000,44554 32092,44537 32177,44482 32234,44399 32254,44300 32254,43500 32237,43407 32182,43322 32099,43265 32000,43245 31200,43245 31107,43262 31022,43317 30978,43381 30940,43346 30750,43267 30650,43314 30550,43314 30449,43267 30259,43346 30073,43518 29967,43749 27886,43749 27886,43653 27812,43474 27675,43338 27528,43276 27528,42400 27503,42274 27432,42167 27282,42017 27219,41975 27175,41946 27050,41921 26386,41921 26178,41713 26178,41150 26153,41024 26082,40917 25678,40513 25678,39986 27186,38478 31100,38478 31225,38453 31332,38382 31782,37932 31840,37846 31853,37825 31878,37700 31878,35508 31961,35425 32036,35247 32036,35053 31962,34874 31825,34738 31647,34663 31453,34663 31274,34737 31138,34874 31063,35052 31063,35246 31137,35425 31221,35508 31221,37563 30963,37821 27050,37821 26924,37846 26817,37917 25117,39617 25046,39724 25021,39850 25021,40321 24750,40321 24624,40346 24517,40417 24217,40717 24146,40824 24121,40950 24121,42163 24118,42163 24118,37132 24231,37019 24274,37061 24452,37136 24646,37136 24825,37062 24961,36925 25036,36747 25036,36553 24962,36374 24906,36318 24931,36318 25024,36411 25202,36486 25396,36486 25554,36420 25474,36474 25060,36888 24991,36991 24967,37113 24967,38213 24953,38213 24774,38287 24638,38424 24563,38602 24563,38796 24637,38975 24774,39111 24952,39186 25146,39186 25325,39112 25461,38975 25536,38797 25536,38652 25580,38585 25602,38478 25605,38463 25605,37245 25832,37018 30100,37018 30222,36994 30325,36925 30725,36525 30766,36463 30794,36422 30818,36300 30818,34218 30911,34125 30986,33947 30986,33753 30912,33574 30775,33438 30597,33363 30403,33363 30224,33437 30088,33574 30013,33752 30013,33946 30087,34125 30181,34218 30181,36167 29967,36381 25700,36381 25632,36394 25583,36404 25711,36275 25786,36097 25786,35903 25712,35724 25575,35588 25397,35513 25203,35513 25024,35587 24931,35681 23900,35681 23777,35705 23726,35739 23674,35774 23329,36119 23329,32939 28674,32939 28682,32975 28792,33174 28969,33316 29042,33337 28908,33471 28820,33684 28819,33914 28908,34128 29071,34291 29284,34379 29514,34380 29728,34291 29891,34128 29979,33915 29980,33685 29891,33471 29758,33337 29830,33316 30007,33174 30117,32975 30125,32939 30077,32850 29450,32850 29450,32857 29350,32857 29350,32850 28722,32850 28674,32939 23329,32939 23329,32660 28674,32660 28722,32750 29350,32750 29350,32742 29450,32742 29450,32750 30077,32750 30125,32660 30117,32624 30007,32425 29830,32283 29757,32262 29891,32128 29979,31915 29980,31685 29891,31471 29728,31308 29515,31220 29285,31219 29071,31308 28908,31471 28820,31684 28819,31914 28908,32128 29041,32262 28969,32283 28792,32425 28682,32624 28674,32660 23329,32660 23329,14929 33320,14929 33370,58620 "
       id="polyline216" />
  </g>
  <g
     style="fill:#FFFFFF; fill-opacity:1.0;  stroke:#FFFFFF; stroke-width:100; stroke-opacity:1;  stroke-linecap:round; stroke-linejoin:round;"
     id="g218" />
  <g
     style="fill:#ffffff;fill-opacity:1;stroke:#ffffff;stroke-width:0;stroke-linecap:round;stroke-linejoin:round;stroke-opacity:1"
     id="g220"
     transform="translate(785.00004,4565.0009)">
    <circle
       cx="31550"
       cy="35150"
       r="118.11"
       id="circle222" />
  </g>
  <g
     style="fill:#FFFFFF; fill-opacity:1.0;  stroke:#FFFFFF; stroke-width:39.3701; stroke-opacity:1;  stroke-linecap:round; stroke-linejoin:round;"
     id="g224" />
  <g
     style="fill:#ffffff;fill-opacity:1;stroke:#ffffff;stroke-width:0;stroke-linecap:round;stroke-linejoin:round;stroke-opacity:1"
     id="g226"
     transform="translate(785.00004,4565.0009)">
    <circle
       cx="24200"
       cy="42650"
       r="118.11"
       id="circle228" />
  </g>
  <g
     style="fill:#FFFFFF; fill-opacity:1.0;  stroke:#FFFFFF; stroke-width:39.3701; stroke-opacity:1;  stroke-linecap:round; stroke-linejoin:round;"
     id="g230" />
  <g
     style="fill:#ffffff;fill-opacity:1;stroke:#ffffff;stroke-width:0;stroke-linecap:round;stroke-linejoin:round;stroke-opacity:1"
     id="g232"
     transform="translate(785.00004,4565.0009)">
    <circle
       cx="27400"
       cy="43750"
       r="118.11"
       id="circle234" />
  </g>
  <g
     style="fill:#FFFFFF; fill-opacity:1.0;  stroke:#FFFFFF; stroke-width:39.3701; stroke-opacity:1;  stroke-linecap:round; stroke-linejoin:round;"
     id="g236" />
  <g
     style="fill:#ffffff;fill-opacity:1;stroke:#ffffff;stroke-width:0;stroke-linecap:round;stroke-linejoin:round;stroke-opacity:1"
     id="g238"
     transform="translate(785.00004,4565.0009)">
    <circle
       cx="24300"
       cy="43900"
       r="118.11"
       id="circle240" />
  </g>
  <g
     style="fill:#FFFFFF; fill-opacity:1.0;  stroke:#FFFFFF; stroke-width:39.3701; stroke-opacity:1;  stroke-linecap:round; stroke-linejoin:round;"
     id="g242" />
  <g
     style="fill:#ffffff;fill-opacity:1;stroke:#ffffff;stroke-width:0;stroke-linecap:round;stroke-linejoin:round;stroke-opacity:1"
     id="g244"
     transform="translate(785.00004,4565.0009)">
    <circle
       cx="26150"
       cy="44400"
       r="118.11"
       id="circle246" />
  </g>
  <g
     style="fill:#FFFFFF; fill-opacity:1.0;  stroke:#FFFFFF; stroke-width:39.3701; stroke-opacity:1;  stroke-linecap:round; stroke-linejoin:round;"
     id="g248" />
  <g
     style="fill:#ffffff;fill-opacity:1;stroke:#ffffff;stroke-width:0;stroke-linecap:round;stroke-linejoin:round;stroke-opacity:1"
     id="g250"
     transform="translate(785.00004,4565.0009)">
    <circle
       cx="24050"
       cy="44400"
       r="118.11"
       id="circle252" />
  </g>
  <g
     style="fill:#FFFFFF; fill-opacity:1.0;  stroke:#FFFFFF; stroke-width:39.3701; stroke-opacity:1;  stroke-linecap:round; stroke-linejoin:round;"
     id="g254" />
  <g
     style="fill:#ffffff;fill-opacity:1;stroke:#ffffff;stroke-width:0;stroke-linecap:round;stroke-linejoin:round;stroke-opacity:1"
     id="g256"
     transform="translate(785.00004,4565.0009)">
    <circle
       cx="24550"
       cy="36650"
       r="118.11"
       id="circle258" />
  </g>
  <g
     style="fill:#FFFFFF; fill-opacity:1.0;  stroke:#FFFFFF; stroke-width:39.3701; stroke-opacity:1;  stroke-linecap:round; stroke-linejoin:round;"
     id="g260" />
  <g
     style="fill:#ffffff;fill-opacity:1;stroke:#ffffff;stroke-width:0;stroke-linecap:round;stroke-linejoin:round;stroke-opacity:1"
     id="g262"
     transform="translate(785.00004,4565.0009)">
    <circle
       cx="25300"
       cy="36000"
       r="118.11"
       id="circle264" />
  </g>
  <g
     style="fill:#FFFFFF; fill-opacity:1.0;  stroke:#FFFFFF; stroke-width:39.3701; stroke-opacity:1;  stroke-linecap:round; stroke-linejoin:round;"
     id="g266" />
  <g
     style="fill:#ffffff;fill-opacity:1;stroke:#ffffff;stroke-width:0;stroke-linecap:round;stroke-linejoin:round;stroke-opacity:1"
     id="g268"
     transform="translate(785.00004,4565.0009)">
    <circle
       cx="23800"
       cy="44900"
       r="118.11"
       id="circle270" />
  </g>
  <g
     style="fill:#FFFFFF; fill-opacity:1.0;  stroke:#FFFFFF; stroke-width:39.3701; stroke-opacity:1;  stroke-linecap:round; stroke-linejoin:round;"
     id="g272" />
  <g
     style="fill:#ffffff;fill-opacity:1;stroke:#ffffff;stroke-width:0;stroke-linecap:round;stroke-linejoin:round;stroke-opacity:1"
     id="g274"
     transform="translate(785.00004,4565.0009)">
    <circle
       cx="25300"
       cy="42800"
       r="118.11"
       id="circle276" />
  </g>
  <g
     style="fill:#FFFFFF; fill-opacity:1.0;  stroke:#FFFFFF; stroke-width:39.3701; stroke-opacity:1;  stroke-linecap:round; stroke-linejoin:round;"
     id="g278" />
  <g
     style="fill:#ffffff;fill-opacity:1;stroke:#ffffff;stroke-width:0;stroke-linecap:round;stroke-linejoin:round;stroke-opacity:1"
     id="g280"
     transform="translate(785.00004,4565.0009)">
    <circle
       cx="25000"
       cy="41550"
       r="118.11"
       id="circle282" />
  </g>
  <g
     style="fill:#FFFFFF; fill-opacity:1.0;  stroke:#FFFFFF; stroke-width:39.3701; stroke-opacity:1;  stroke-linecap:round; stroke-linejoin:round;"
     id="g284" />
  <g
     style="fill:#ffffff;fill-opacity:1;stroke:#ffffff;stroke-width:0;stroke-linecap:round;stroke-linejoin:round;stroke-opacity:1"
     id="g286"
     transform="translate(785.00004,4565.0009)">
    <circle
       cx="30500"
       cy="33850"
       r="118.11"
       id="circle288" />
  </g>
  <g
     style="fill:#FFFFFF; fill-opacity:1.0;  stroke:#FFFFFF; stroke-width:39.3701; stroke-opacity:1;  stroke-linecap:round; stroke-linejoin:round;"
     id="g290" />
  <g
     style="fill:#ffffff;fill-opacity:1;stroke:#ffffff;stroke-width:0;stroke-linecap:round;stroke-linejoin:round;stroke-opacity:1"
     id="g292"
     transform="translate(785.00004,4565.0009)">
    <circle
       cx="25050"
       cy="38700"
       r="118.11"
       id="circle294" />
  </g>
  <g
     style="fill:#FFFFFF; fill-opacity:1.0;  stroke:#FFFFFF; stroke-width:39.3701; stroke-opacity:1;  stroke-linecap:round; stroke-linejoin:round;"
     id="g296" />
  <g
     style="fill:#ffffff;fill-opacity:1;stroke:#ffffff;stroke-width:0;stroke-linecap:round;stroke-linejoin:round;stroke-opacity:1"
     id="g298"
     transform="translate(785.00004,4565.0009)">
    <circle
       cx="28500"
       cy="54750"
       r="295.276"
       id="circle300" />
  </g>
  <g
     style="fill:#FFFFFF; fill-opacity:1.0;  stroke:#FFFFFF; stroke-width:39.3701; stroke-opacity:1;  stroke-linecap:round; stroke-linejoin:round;"
     id="g302" />
  <g
     style="fill:#ffffff;fill-opacity:1;stroke:#ffffff;stroke-width:0;stroke-linecap:round;stroke-linejoin:round;stroke-opacity:1"
     id="g304"
     transform="translate(785.00004,4565.0009)">
    <circle
       cx="28500"
       cy="46683.102"
       r="295.276"
       id="circle306" />
  </g>
  <g
     style="fill:#FFFFFF; fill-opacity:1.0;  stroke:#FFFFFF; stroke-width:39.3701; stroke-opacity:1;  stroke-linecap:round; stroke-linejoin:round;"
     id="g308" />
  <g
     style="fill:#ffffff;fill-opacity:1;stroke:#ffffff;stroke-width:0;stroke-linecap:round;stroke-linejoin:round;stroke-opacity:1"
     id="g310"
     transform="translate(785.00004,4565.0009)">
    <circle
       cx="31600"
       cy="43900"
       r="200"
       id="circle312" />
  </g>
  <g
     style="fill:#FFFFFF; fill-opacity:1.0;  stroke:#FFFFFF; stroke-width:39.3701; stroke-opacity:1;  stroke-linecap:round; stroke-linejoin:round;"
     id="g314" />
  <g
     style="fill:#ffffff;fill-opacity:1;stroke:#ffffff;stroke-width:0;stroke-linecap:round;stroke-linejoin:round;stroke-opacity:1"
     id="g316"
     transform="translate(785.00004,4565.0009)">
    <circle
       cx="30600"
       cy="43900"
       r="200"
       id="circle318" />
  </g>
  <g
     style="fill:#FFFFFF; fill-opacity:1.0;  stroke:#FFFFFF; stroke-width:39.3701; stroke-opacity:1;  stroke-linecap:round; stroke-linejoin:round;"
     id="g320" />
  <g
     style="fill:#ffffff;fill-opacity:1;stroke:#ffffff;stroke-width:0;stroke-linecap:round;stroke-linejoin:round;stroke-opacity:1"
     id="g322"
     transform="translate(785.00004,4565.0009)">
    <circle
       cx="29400"
       cy="33800"
       r="160"
       id="circle324" />
  </g>
  <g
     style="fill:#FFFFFF; fill-opacity:1.0;  stroke:#FFFFFF; stroke-width:39.3701; stroke-opacity:1;  stroke-linecap:round; stroke-linejoin:round;"
     id="g326" />
  <g
     style="fill:#ffffff;fill-opacity:1;stroke:#ffffff;stroke-width:0;stroke-linecap:round;stroke-linejoin:round;stroke-opacity:1"
     id="g328"
     transform="translate(785.00004,4565.0009)">
    <circle
       cx="29400"
       cy="32800"
       r="295.276"
       id="circle330" />
  </g>
  <g
     style="fill:#FFFFFF; fill-opacity:1.0;  stroke:#FFFFFF; stroke-width:39.3701; stroke-opacity:1;  stroke-linecap:round; stroke-linejoin:round;"
     id="g332" />
  <g
     style="fill:#ffffff;fill-opacity:1;stroke:#ffffff;stroke-width:0;stroke-linecap:round;stroke-linejoin:round;stroke-opacity:1"
     id="g334"
     transform="translate(785.00004,4565.0009)">
    <circle
       cx="29400"
       cy="31800"
       r="160"
       id="circle336" />
  </g>
  <g
     style="fill:#FFFFFF; fill-opacity:1.0;  stroke:#FFFFFF; stroke-width:39.3701; stroke-opacity:1;  stroke-linecap:round; stroke-linejoin:round;"
     id="g338" />
  <g
     style="fill:#ffffff;fill-opacity:1;stroke:#ffffff;stroke-width:0;stroke-linecap:round;stroke-linejoin:round;stroke-opacity:1"
     id="g340"
     transform="translate(785.00004,4565.0009)">
    <circle
       cx="28550"
       cy="44750"
       r="433.07101"
       id="circle342" />
  </g>
  <g
     style="fill:#FFFFFF; fill-opacity:1.0;  stroke:#FFFFFF; stroke-width:39.3701; stroke-opacity:1;  stroke-linecap:round; stroke-linejoin:round;"
     id="g344" />
  <g
     style="fill:#000000; fill-opacity:1.0;  stroke:#000000; stroke-width:39.3701; stroke-opacity:1;  stroke-linecap:round; stroke-linejoin:round;"
     id="g346" />
</svg>
