<?xml version="1.0" standalone="no"?>
 <!DOCTYPE svg PUBLIC "-//W3C//DTD SVG 1.1//EN" 
 "http://www.w3.org/Graphics/SVG/1.1/DTD/svg11.dtd"> 
<svg xmlns="http://www.w3.org/2000/svg" version="1.1" 
    width="14.8006cm" height="21.0007cm" viewBox="0 0 58270 82680 ">
<title>SVG Picture created as voltage_divider-F.Cu.svg date 2017/04/25 09:46:33 </title>
  <desc>Picture generated by PCBNEW </desc>
<g style="fill:#000000; fill-opacity:1;stroke:#000000; stroke-opacity:1;
stroke-linecap:round; stroke-linejoin:round; "
 transform="translate(0 0) scale(1 1)">
</g>
<g style="fill:#000000; fill-opacity:0.0; 
stroke:#000000; stroke-width:-0.000393701; stroke-opacity:1; 
stroke-linecap:round; stroke-linejoin:round;">
</g>
<g style="fill:#000000; fill-opacity:0.0; 
stroke:#000000; stroke-width:59.0551; stroke-opacity:1; 
stroke-linecap:round; stroke-linejoin:round;">
<path d="M26770 30600
L31770 30600
" />
<path d="M26770 40600
L26770 30600
" />
<path d="M31770 40600
L26770 40600
" />
<path d="M31770 30600
L31770 40600
" />
</g>
<g style="fill:#000000; fill-opacity:0.0; 
stroke:#000000; stroke-width:0; stroke-opacity:1; 
stroke-linecap:round; stroke-linejoin:round;">
</g>
<g style="fill:#000000; fill-opacity:1.0; 
stroke:#000000; stroke-width:0; stroke-opacity:1; 
stroke-linecap:round; stroke-linejoin:round;">
<polyline style="fill-rule:evenodd;"
points="30904,35522
30235,35522
30235,35877
30904,35877
30904,35522
" /> 
<polyline style="fill-rule:evenodd;"
points="30904,36664
30235,36664
30235,37018
30904,37018
30904,36664
" /> 
<polyline style="fill-rule:evenodd;"
points="30747,34534
30747,33865
30392,33865
30392,34534
30747,34534
" /> 
<polyline style="fill-rule:evenodd;"
points="29605,34534
29605,33865
29251,33865
29251,34534
29605,34534
" /> 
<polyline style="fill-rule:evenodd;"
points="30440,39670
30440,38529
29299,38529
29299,39670
30440,39670
" /> 
<circle cx="28310.9" cy="39100" r="570.866" /> 
</g>
<g style="fill:#000000; fill-opacity:1.0; 
stroke:#000000; stroke-width:39.3701; stroke-opacity:1; 
stroke-linecap:round; stroke-linejoin:round;">
</g>
<g style="fill:#000000; fill-opacity:1.0; 
stroke:#000000; stroke-width:0; stroke-opacity:1; 
stroke-linecap:round; stroke-linejoin:round;">
<polyline style="fill-rule:evenodd;"
points="30440,32270
30440,31129
29299,31129
29299,32270
30440,32270
" /> 
<circle cx="28310.9" cy="31700" r="570.866" /> 
</g>
<g style="fill:#000000; fill-opacity:1.0; 
stroke:#000000; stroke-width:39.3701; stroke-opacity:1; 
stroke-linecap:round; stroke-linejoin:round;">
</g>
<g style="fill:#000000; fill-opacity:1.0; 
stroke:#000000; stroke-width:433.071; stroke-opacity:1; 
stroke-linecap:round; stroke-linejoin:round;">
</g>
<g style="fill:#000000; fill-opacity:0.0; 
stroke:#000000; stroke-width:433.071; stroke-opacity:1; 
stroke-linecap:round; stroke-linejoin:round;">
<path d="M30570 34200
L30570 35500
" />
</g>
<g style="fill:#000000; fill-opacity:0.0; 
stroke:#000000; stroke-width:314.961; stroke-opacity:1; 
stroke-linecap:round; stroke-linejoin:round;">
<path d="M30570 35700
L30570 35500
" />
</g>
<g style="fill:#000000; fill-opacity:0.0; 
stroke:#000000; stroke-width:433.071; stroke-opacity:1; 
stroke-linecap:round; stroke-linejoin:round;">
<path d="M30570 34200
L30570 32000
" />
<path d="M30570 32000
L30270 31700
" />
<path d="M30270 31700
L29870 31700
" />
<path d="M30570 37050
L30570 38800
" />
</g>
<g style="fill:#000000; fill-opacity:0.0; 
stroke:#000000; stroke-width:314.961; stroke-opacity:1; 
stroke-linecap:round; stroke-linejoin:round;">
<path d="M30570 36841
L30570 37050
" />
</g>
<g style="fill:#000000; fill-opacity:0.0; 
stroke:#000000; stroke-width:433.071; stroke-opacity:1; 
stroke-linecap:round; stroke-linejoin:round;">
<path d="M30570 38800
L30270 39100
" />
<path d="M30270 39100
L29870 39100
" />
<path d="M29220 34200
L28818 34200
" />
</g>
<g style="fill:#000000; fill-opacity:0.0; 
stroke:#000000; stroke-width:314.961; stroke-opacity:1; 
stroke-linecap:round; stroke-linejoin:round;">
<path d="M29428 34200
L29220 34200
" />
</g>
<g style="fill:#000000; fill-opacity:0.0; 
stroke:#000000; stroke-width:433.071; stroke-opacity:1; 
stroke-linecap:round; stroke-linejoin:round;">
<path d="M28310 31700
L28310 34200
" />
<path d="M28310 34200
L28310 39100
" />
<path d="M28818 34200
L28310 34200
" />
</g> 
</svg>
