%TF.GenerationSoftware,KiCad,Pcbnew,4.0.7*%
%TF.CreationDate,2019-01-12T03:56:20+05:00*%
%TF.ProjectId,Nokia1202_LCD,4E6F6B6961313230325F4C43442E6B69,0.1*%
%TF.FileFunction,Copper,L1,Top,Signal*%
%FSLAX46Y46*%
G04 Gerber Fmt 4.6, Leading zero omitted, Abs format (unit mm)*
G04 Created by KiCad (PCBNEW 4.0.7) date Sat Jan 12 03:56:20 2019*
%MOMM*%
%LPD*%
G01*
G04 APERTURE LIST*
%ADD10C,0.100000*%
%ADD11C,0.150000*%
%ADD12R,0.900000X0.800000*%
%ADD13R,1.727200X2.032000*%
%ADD14O,1.727200X2.032000*%
%ADD15R,2.150000X1.100000*%
%ADD16R,0.700000X1.300000*%
%ADD17R,1.700000X1.700000*%
%ADD18R,0.319989X2.399995*%
%ADD19C,0.250000*%
%ADD20C,0.400000*%
%ADD21C,0.254000*%
G04 APERTURE END LIST*
D10*
D11*
X127381000Y-212090000D02*
G75*
G03X126111000Y-210820000I-1270000J0D01*
G01*
X87630000Y-248158000D02*
G75*
G03X88900000Y-249428000I1270000J0D01*
G01*
X126111000Y-249428000D02*
G75*
G03X127381000Y-248158000I0J1270000D01*
G01*
X88900000Y-210820000D02*
G75*
G03X87630000Y-212090000I0J-1270000D01*
G01*
X87630000Y-248158000D02*
X87630000Y-212090000D01*
X126111000Y-249428000D02*
X88900000Y-249428000D01*
X127381000Y-212090000D02*
X127381000Y-248158000D01*
X88900000Y-210820000D02*
X126111000Y-210820000D01*
D12*
X124209300Y-212879900D03*
X124209300Y-214779900D03*
X126209300Y-213829900D03*
D13*
X98448000Y-213852000D03*
D14*
X100988000Y-213852000D03*
X103528000Y-213852000D03*
X106068000Y-213852000D03*
X108608000Y-213852000D03*
X111148000Y-213852000D03*
X113688000Y-213852000D03*
X116228000Y-213852000D03*
D15*
X91666800Y-214741000D03*
X94616800Y-214741000D03*
D16*
X121396800Y-215087200D03*
X119496800Y-215087200D03*
D17*
X88519000Y-248535700D03*
X126492000Y-248535700D03*
X88531700Y-221776800D03*
X126479300Y-221776800D03*
D16*
X120627100Y-212407500D03*
X122527100Y-212407500D03*
D18*
X98267000Y-219694000D03*
X97667000Y-219694000D03*
X98867000Y-219694000D03*
X99467000Y-219694000D03*
X100067000Y-219694000D03*
X100667000Y-219694000D03*
X101267000Y-219694000D03*
X101867000Y-219694000D03*
X102467000Y-219694000D03*
X103067000Y-219694000D03*
X103667000Y-219694000D03*
X104267000Y-219694000D03*
D19*
X102467000Y-222875700D02*
X102679500Y-223088200D01*
D20*
X116228000Y-215877000D02*
X116228000Y-215191200D01*
X116228000Y-215191200D02*
X116332000Y-215087200D01*
X116332000Y-215087200D02*
X118300500Y-215087200D01*
X118300500Y-215087200D02*
X119496800Y-215087200D01*
X116228000Y-215671400D02*
X116228000Y-215099900D01*
X116228000Y-215099900D02*
X116228000Y-213852000D01*
D19*
X116240700Y-215087200D02*
X116228000Y-215099900D01*
D20*
X101267000Y-218468200D02*
X101267000Y-217934800D01*
X101267000Y-217934800D02*
X101892100Y-217309700D01*
X101892100Y-217309700D02*
X114795300Y-217309700D01*
X114795300Y-217309700D02*
X116228000Y-215877000D01*
X116228000Y-215877000D02*
X116228000Y-215671400D01*
D19*
X101267000Y-219694000D02*
X101267000Y-218468200D01*
D20*
X91666800Y-214741000D02*
X91666800Y-223238800D01*
X92583000Y-224155000D02*
X100545900Y-224155000D01*
X91666800Y-223238800D02*
X92583000Y-224155000D01*
X100545900Y-224155000D02*
X101267000Y-223433900D01*
X101267000Y-223433900D02*
X101267000Y-221143997D01*
D19*
X101267000Y-219694000D02*
X101867000Y-219694000D01*
X101267000Y-219694000D02*
X101267000Y-221143997D01*
D20*
X116231300Y-215668100D02*
X116228000Y-215671400D01*
X116228000Y-214004400D02*
X116228000Y-213852000D01*
D19*
X117309900Y-224955100D02*
X124107700Y-218157300D01*
X124107700Y-218157300D02*
X124107700Y-215754500D01*
X103479600Y-224955100D02*
X117309900Y-224955100D01*
X102467000Y-223942500D02*
X103479600Y-224955100D01*
X102467000Y-219694000D02*
X102467000Y-223942500D01*
X95478600Y-223100900D02*
X94616800Y-222239100D01*
X94616800Y-222239100D02*
X94616800Y-214741000D01*
X98985000Y-223100900D02*
X95478600Y-223100900D01*
X99467000Y-222618900D02*
X98985000Y-223100900D01*
X99467000Y-219694000D02*
X99467000Y-222618900D01*
X100988000Y-212852000D02*
X100988000Y-212994100D01*
X98267000Y-219694000D02*
X98267000Y-217213700D01*
X98267000Y-217213700D02*
X99707700Y-215773000D01*
X99707700Y-215773000D02*
X104673400Y-215773000D01*
X104673400Y-215773000D02*
X106068000Y-214378400D01*
X106068000Y-214378400D02*
X106068000Y-213852000D01*
X98867000Y-219694000D02*
X98867000Y-221681000D01*
X103528000Y-214302200D02*
X103528000Y-213852000D01*
X98867000Y-221681000D02*
X98539300Y-222008700D01*
X98539300Y-222008700D02*
X96761300Y-222008700D01*
X96761300Y-222008700D02*
X96443800Y-221691200D01*
X96443800Y-221691200D02*
X96443800Y-217614500D01*
X96443800Y-217614500D02*
X98748011Y-215310289D01*
X98748011Y-215310289D02*
X102519911Y-215310289D01*
X102519911Y-215310289D02*
X103528000Y-214302200D01*
X100067000Y-219694000D02*
X100067000Y-216734500D01*
X100067000Y-216734500D02*
X100520500Y-216281000D01*
X100520500Y-216281000D02*
X109985000Y-216281000D01*
X109985000Y-216281000D02*
X111148000Y-215118000D01*
X111148000Y-215118000D02*
X111148000Y-213852000D01*
X100667000Y-219694000D02*
X100667000Y-217201300D01*
X100667000Y-217201300D02*
X101130100Y-216738200D01*
X101130100Y-216738200D02*
X112356900Y-216738200D01*
X113688000Y-215407100D02*
X113688000Y-213852000D01*
X112356900Y-216738200D02*
X113688000Y-215407100D01*
D20*
X120627100Y-212407500D02*
X120027100Y-212407500D01*
X120027100Y-212407500D02*
X119290500Y-211670900D01*
X119290500Y-211670900D02*
X109016800Y-211670900D01*
X109016800Y-211670900D02*
X108608000Y-212079700D01*
X108608000Y-212079700D02*
X108608000Y-213852000D01*
X121396800Y-218633000D02*
X121396800Y-215087200D01*
X103667000Y-221611900D02*
X103667000Y-221081600D01*
D19*
X103667000Y-219694000D02*
X103667000Y-221081600D01*
D20*
X121396800Y-218633000D02*
X120815100Y-219214700D01*
X120815100Y-219214700D02*
X107010200Y-219214700D01*
X107010200Y-219214700D02*
X106121200Y-220103700D01*
X106121200Y-220103700D02*
X106121200Y-221691200D01*
X103987600Y-221932500D02*
X103667000Y-221611900D01*
X106121200Y-221691200D02*
X105892600Y-221919800D01*
X105892600Y-221919800D02*
X105892600Y-221932500D01*
X105892600Y-221932500D02*
X103987600Y-221932500D01*
D19*
X103067000Y-219694000D02*
X103067000Y-218293800D01*
D20*
X103067000Y-218293800D02*
X103390700Y-217970100D01*
X120446800Y-217589100D02*
X120446800Y-214134700D01*
X103390700Y-217970100D02*
X120065800Y-217970100D01*
X120065800Y-217970100D02*
X120446800Y-217589100D01*
X120751600Y-213829900D02*
X126209300Y-213829900D01*
X120446800Y-214134700D02*
X120751600Y-213829900D01*
X122527100Y-212407500D02*
X123736900Y-212407500D01*
X123736900Y-212407500D02*
X124209300Y-212879900D01*
D21*
G36*
X107836561Y-211760159D02*
X107773000Y-212079700D01*
X107773000Y-212457465D01*
X107548330Y-212607585D01*
X107338000Y-212922366D01*
X107127670Y-212607585D01*
X106641489Y-212282729D01*
X106068000Y-212168655D01*
X105494511Y-212282729D01*
X105008330Y-212607585D01*
X104798000Y-212922366D01*
X104587670Y-212607585D01*
X104101489Y-212282729D01*
X103528000Y-212168655D01*
X102954511Y-212282729D01*
X102468330Y-212607585D01*
X102261539Y-212917069D01*
X101890036Y-212501268D01*
X101362791Y-212247291D01*
X101347026Y-212244642D01*
X101115000Y-212365783D01*
X101115000Y-213725000D01*
X101135000Y-213725000D01*
X101135000Y-213979000D01*
X101115000Y-213979000D01*
X101115000Y-213999000D01*
X100861000Y-213999000D01*
X100861000Y-213979000D01*
X100841000Y-213979000D01*
X100841000Y-213725000D01*
X100861000Y-213725000D01*
X100861000Y-212365783D01*
X100628974Y-212244642D01*
X100613209Y-212247291D01*
X100085964Y-212501268D01*
X99929093Y-212676845D01*
X99914762Y-212600683D01*
X99775690Y-212384559D01*
X99563490Y-212239569D01*
X99311600Y-212188560D01*
X97584400Y-212188560D01*
X97349083Y-212232838D01*
X97132959Y-212371910D01*
X96987969Y-212584110D01*
X96936960Y-212836000D01*
X96936960Y-214868000D01*
X96981238Y-215103317D01*
X97120310Y-215319441D01*
X97332510Y-215464431D01*
X97487650Y-215495848D01*
X95906399Y-217077099D01*
X95741652Y-217323661D01*
X95683800Y-217614500D01*
X95683800Y-221691200D01*
X95741652Y-221982039D01*
X95906399Y-222228601D01*
X96223899Y-222546101D01*
X96470461Y-222710848D01*
X96761300Y-222768700D01*
X98539300Y-222768700D01*
X98830139Y-222710848D01*
X99076701Y-222546101D01*
X99404401Y-222218401D01*
X99569148Y-221971839D01*
X99627000Y-221681000D01*
X99627000Y-221471217D01*
X99655116Y-221490428D01*
X99670241Y-221493491D01*
X99705747Y-221528997D01*
X99753303Y-221528997D01*
X99783601Y-221516447D01*
X99907006Y-221541437D01*
X100226994Y-221541437D01*
X100372140Y-221514126D01*
X100432000Y-221526248D01*
X100432000Y-223088032D01*
X100200032Y-223320000D01*
X92928868Y-223320000D01*
X92501800Y-222892932D01*
X92501800Y-215938440D01*
X92741800Y-215938440D01*
X92977117Y-215894162D01*
X93141293Y-215788518D01*
X93182102Y-215829327D01*
X93415491Y-215926000D01*
X94331050Y-215926000D01*
X94489800Y-215767250D01*
X94489800Y-214868000D01*
X94743800Y-214868000D01*
X94743800Y-215767250D01*
X94902550Y-215926000D01*
X95818109Y-215926000D01*
X96051498Y-215829327D01*
X96230127Y-215650699D01*
X96326800Y-215417310D01*
X96326800Y-215026750D01*
X96168050Y-214868000D01*
X94743800Y-214868000D01*
X94489800Y-214868000D01*
X94469800Y-214868000D01*
X94469800Y-214614000D01*
X94489800Y-214614000D01*
X94489800Y-213714750D01*
X94743800Y-213714750D01*
X94743800Y-214614000D01*
X96168050Y-214614000D01*
X96326800Y-214455250D01*
X96326800Y-214064690D01*
X96230127Y-213831301D01*
X96051498Y-213652673D01*
X95818109Y-213556000D01*
X94902550Y-213556000D01*
X94743800Y-213714750D01*
X94489800Y-213714750D01*
X94331050Y-213556000D01*
X93415491Y-213556000D01*
X93182102Y-213652673D01*
X93140140Y-213694634D01*
X92993690Y-213594569D01*
X92741800Y-213543560D01*
X90591800Y-213543560D01*
X90356483Y-213587838D01*
X90140359Y-213726910D01*
X89995369Y-213939110D01*
X89944360Y-214191000D01*
X89944360Y-215291000D01*
X89988638Y-215526317D01*
X90127710Y-215742441D01*
X90339910Y-215887431D01*
X90591800Y-215938440D01*
X90831800Y-215938440D01*
X90831800Y-223238800D01*
X90895361Y-223558341D01*
X91025722Y-223753440D01*
X91076366Y-223829234D01*
X91992566Y-224745434D01*
X92263459Y-224926439D01*
X92583000Y-224990000D01*
X100545900Y-224990000D01*
X100865441Y-224926439D01*
X101136334Y-224745434D01*
X101857434Y-224024334D01*
X101866852Y-224010239D01*
X102038439Y-223753441D01*
X102102000Y-223433900D01*
X102102000Y-221527324D01*
X102153337Y-221517664D01*
X102180697Y-221528997D01*
X102228253Y-221528997D01*
X102259576Y-221497674D01*
X102262311Y-221497159D01*
X102469677Y-221363723D01*
X102655116Y-221490428D01*
X102670241Y-221493491D01*
X102705747Y-221528997D01*
X102753303Y-221528997D01*
X102783601Y-221516447D01*
X102832000Y-221526248D01*
X102832000Y-221611900D01*
X102895561Y-221931441D01*
X102929370Y-221982039D01*
X103076566Y-222202334D01*
X103397166Y-222522934D01*
X103668059Y-222703939D01*
X103987600Y-222767500D01*
X105892600Y-222767500D01*
X106212141Y-222703939D01*
X106483034Y-222522934D01*
X106508608Y-222484660D01*
X106711634Y-222281634D01*
X106739894Y-222239340D01*
X106892639Y-222010741D01*
X106956200Y-221691200D01*
X106956200Y-220449568D01*
X107356068Y-220049700D01*
X120815100Y-220049700D01*
X121134641Y-219986139D01*
X121405534Y-219805134D01*
X121987234Y-219223434D01*
X122050466Y-219128800D01*
X122168239Y-218952541D01*
X122231800Y-218633000D01*
X122231800Y-216152175D01*
X122343231Y-215989090D01*
X122394240Y-215737200D01*
X122394240Y-215065650D01*
X123124300Y-215065650D01*
X123124300Y-215306210D01*
X123220973Y-215539599D01*
X123399602Y-215718227D01*
X123632991Y-215814900D01*
X123923550Y-215814900D01*
X124082300Y-215656150D01*
X124082300Y-214906900D01*
X124336300Y-214906900D01*
X124336300Y-215656150D01*
X124495050Y-215814900D01*
X124785609Y-215814900D01*
X125018998Y-215718227D01*
X125197627Y-215539599D01*
X125294300Y-215306210D01*
X125294300Y-215065650D01*
X125135550Y-214906900D01*
X124336300Y-214906900D01*
X124082300Y-214906900D01*
X123283050Y-214906900D01*
X123124300Y-215065650D01*
X122394240Y-215065650D01*
X122394240Y-214664900D01*
X125284631Y-214664900D01*
X125295210Y-214681341D01*
X125507410Y-214826331D01*
X125759300Y-214877340D01*
X126659300Y-214877340D01*
X126671000Y-214875138D01*
X126671000Y-220279360D01*
X125629300Y-220279360D01*
X125393983Y-220323638D01*
X125177859Y-220462710D01*
X125032869Y-220674910D01*
X124981860Y-220926800D01*
X124981860Y-222626800D01*
X125026138Y-222862117D01*
X125165210Y-223078241D01*
X125377410Y-223223231D01*
X125629300Y-223274240D01*
X126671000Y-223274240D01*
X126671000Y-247038260D01*
X125642000Y-247038260D01*
X125406683Y-247082538D01*
X125190559Y-247221610D01*
X125045569Y-247433810D01*
X124994560Y-247685700D01*
X124994560Y-248718000D01*
X90016440Y-248718000D01*
X90016440Y-247685700D01*
X89972162Y-247450383D01*
X89833090Y-247234259D01*
X89620890Y-247089269D01*
X89369000Y-247038260D01*
X88340000Y-247038260D01*
X88340000Y-223274240D01*
X89381700Y-223274240D01*
X89617017Y-223229962D01*
X89833141Y-223090890D01*
X89978131Y-222878690D01*
X90029140Y-222626800D01*
X90029140Y-220926800D01*
X89984862Y-220691483D01*
X89845790Y-220475359D01*
X89633590Y-220330369D01*
X89381700Y-220279360D01*
X88340000Y-220279360D01*
X88340000Y-212159930D01*
X88395478Y-211881021D01*
X88513856Y-211703855D01*
X88691019Y-211585479D01*
X88969931Y-211530000D01*
X107990348Y-211530000D01*
X107836561Y-211760159D01*
X107836561Y-211760159D01*
G37*
X107836561Y-211760159D02*
X107773000Y-212079700D01*
X107773000Y-212457465D01*
X107548330Y-212607585D01*
X107338000Y-212922366D01*
X107127670Y-212607585D01*
X106641489Y-212282729D01*
X106068000Y-212168655D01*
X105494511Y-212282729D01*
X105008330Y-212607585D01*
X104798000Y-212922366D01*
X104587670Y-212607585D01*
X104101489Y-212282729D01*
X103528000Y-212168655D01*
X102954511Y-212282729D01*
X102468330Y-212607585D01*
X102261539Y-212917069D01*
X101890036Y-212501268D01*
X101362791Y-212247291D01*
X101347026Y-212244642D01*
X101115000Y-212365783D01*
X101115000Y-213725000D01*
X101135000Y-213725000D01*
X101135000Y-213979000D01*
X101115000Y-213979000D01*
X101115000Y-213999000D01*
X100861000Y-213999000D01*
X100861000Y-213979000D01*
X100841000Y-213979000D01*
X100841000Y-213725000D01*
X100861000Y-213725000D01*
X100861000Y-212365783D01*
X100628974Y-212244642D01*
X100613209Y-212247291D01*
X100085964Y-212501268D01*
X99929093Y-212676845D01*
X99914762Y-212600683D01*
X99775690Y-212384559D01*
X99563490Y-212239569D01*
X99311600Y-212188560D01*
X97584400Y-212188560D01*
X97349083Y-212232838D01*
X97132959Y-212371910D01*
X96987969Y-212584110D01*
X96936960Y-212836000D01*
X96936960Y-214868000D01*
X96981238Y-215103317D01*
X97120310Y-215319441D01*
X97332510Y-215464431D01*
X97487650Y-215495848D01*
X95906399Y-217077099D01*
X95741652Y-217323661D01*
X95683800Y-217614500D01*
X95683800Y-221691200D01*
X95741652Y-221982039D01*
X95906399Y-222228601D01*
X96223899Y-222546101D01*
X96470461Y-222710848D01*
X96761300Y-222768700D01*
X98539300Y-222768700D01*
X98830139Y-222710848D01*
X99076701Y-222546101D01*
X99404401Y-222218401D01*
X99569148Y-221971839D01*
X99627000Y-221681000D01*
X99627000Y-221471217D01*
X99655116Y-221490428D01*
X99670241Y-221493491D01*
X99705747Y-221528997D01*
X99753303Y-221528997D01*
X99783601Y-221516447D01*
X99907006Y-221541437D01*
X100226994Y-221541437D01*
X100372140Y-221514126D01*
X100432000Y-221526248D01*
X100432000Y-223088032D01*
X100200032Y-223320000D01*
X92928868Y-223320000D01*
X92501800Y-222892932D01*
X92501800Y-215938440D01*
X92741800Y-215938440D01*
X92977117Y-215894162D01*
X93141293Y-215788518D01*
X93182102Y-215829327D01*
X93415491Y-215926000D01*
X94331050Y-215926000D01*
X94489800Y-215767250D01*
X94489800Y-214868000D01*
X94743800Y-214868000D01*
X94743800Y-215767250D01*
X94902550Y-215926000D01*
X95818109Y-215926000D01*
X96051498Y-215829327D01*
X96230127Y-215650699D01*
X96326800Y-215417310D01*
X96326800Y-215026750D01*
X96168050Y-214868000D01*
X94743800Y-214868000D01*
X94489800Y-214868000D01*
X94469800Y-214868000D01*
X94469800Y-214614000D01*
X94489800Y-214614000D01*
X94489800Y-213714750D01*
X94743800Y-213714750D01*
X94743800Y-214614000D01*
X96168050Y-214614000D01*
X96326800Y-214455250D01*
X96326800Y-214064690D01*
X96230127Y-213831301D01*
X96051498Y-213652673D01*
X95818109Y-213556000D01*
X94902550Y-213556000D01*
X94743800Y-213714750D01*
X94489800Y-213714750D01*
X94331050Y-213556000D01*
X93415491Y-213556000D01*
X93182102Y-213652673D01*
X93140140Y-213694634D01*
X92993690Y-213594569D01*
X92741800Y-213543560D01*
X90591800Y-213543560D01*
X90356483Y-213587838D01*
X90140359Y-213726910D01*
X89995369Y-213939110D01*
X89944360Y-214191000D01*
X89944360Y-215291000D01*
X89988638Y-215526317D01*
X90127710Y-215742441D01*
X90339910Y-215887431D01*
X90591800Y-215938440D01*
X90831800Y-215938440D01*
X90831800Y-223238800D01*
X90895361Y-223558341D01*
X91025722Y-223753440D01*
X91076366Y-223829234D01*
X91992566Y-224745434D01*
X92263459Y-224926439D01*
X92583000Y-224990000D01*
X100545900Y-224990000D01*
X100865441Y-224926439D01*
X101136334Y-224745434D01*
X101857434Y-224024334D01*
X101866852Y-224010239D01*
X102038439Y-223753441D01*
X102102000Y-223433900D01*
X102102000Y-221527324D01*
X102153337Y-221517664D01*
X102180697Y-221528997D01*
X102228253Y-221528997D01*
X102259576Y-221497674D01*
X102262311Y-221497159D01*
X102469677Y-221363723D01*
X102655116Y-221490428D01*
X102670241Y-221493491D01*
X102705747Y-221528997D01*
X102753303Y-221528997D01*
X102783601Y-221516447D01*
X102832000Y-221526248D01*
X102832000Y-221611900D01*
X102895561Y-221931441D01*
X102929370Y-221982039D01*
X103076566Y-222202334D01*
X103397166Y-222522934D01*
X103668059Y-222703939D01*
X103987600Y-222767500D01*
X105892600Y-222767500D01*
X106212141Y-222703939D01*
X106483034Y-222522934D01*
X106508608Y-222484660D01*
X106711634Y-222281634D01*
X106739894Y-222239340D01*
X106892639Y-222010741D01*
X106956200Y-221691200D01*
X106956200Y-220449568D01*
X107356068Y-220049700D01*
X120815100Y-220049700D01*
X121134641Y-219986139D01*
X121405534Y-219805134D01*
X121987234Y-219223434D01*
X122050466Y-219128800D01*
X122168239Y-218952541D01*
X122231800Y-218633000D01*
X122231800Y-216152175D01*
X122343231Y-215989090D01*
X122394240Y-215737200D01*
X122394240Y-215065650D01*
X123124300Y-215065650D01*
X123124300Y-215306210D01*
X123220973Y-215539599D01*
X123399602Y-215718227D01*
X123632991Y-215814900D01*
X123923550Y-215814900D01*
X124082300Y-215656150D01*
X124082300Y-214906900D01*
X124336300Y-214906900D01*
X124336300Y-215656150D01*
X124495050Y-215814900D01*
X124785609Y-215814900D01*
X125018998Y-215718227D01*
X125197627Y-215539599D01*
X125294300Y-215306210D01*
X125294300Y-215065650D01*
X125135550Y-214906900D01*
X124336300Y-214906900D01*
X124082300Y-214906900D01*
X123283050Y-214906900D01*
X123124300Y-215065650D01*
X122394240Y-215065650D01*
X122394240Y-214664900D01*
X125284631Y-214664900D01*
X125295210Y-214681341D01*
X125507410Y-214826331D01*
X125759300Y-214877340D01*
X126659300Y-214877340D01*
X126671000Y-214875138D01*
X126671000Y-220279360D01*
X125629300Y-220279360D01*
X125393983Y-220323638D01*
X125177859Y-220462710D01*
X125032869Y-220674910D01*
X124981860Y-220926800D01*
X124981860Y-222626800D01*
X125026138Y-222862117D01*
X125165210Y-223078241D01*
X125377410Y-223223231D01*
X125629300Y-223274240D01*
X126671000Y-223274240D01*
X126671000Y-247038260D01*
X125642000Y-247038260D01*
X125406683Y-247082538D01*
X125190559Y-247221610D01*
X125045569Y-247433810D01*
X124994560Y-247685700D01*
X124994560Y-248718000D01*
X90016440Y-248718000D01*
X90016440Y-247685700D01*
X89972162Y-247450383D01*
X89833090Y-247234259D01*
X89620890Y-247089269D01*
X89369000Y-247038260D01*
X88340000Y-247038260D01*
X88340000Y-223274240D01*
X89381700Y-223274240D01*
X89617017Y-223229962D01*
X89833141Y-223090890D01*
X89978131Y-222878690D01*
X90029140Y-222626800D01*
X90029140Y-220926800D01*
X89984862Y-220691483D01*
X89845790Y-220475359D01*
X89633590Y-220330369D01*
X89381700Y-220279360D01*
X88340000Y-220279360D01*
X88340000Y-212159930D01*
X88395478Y-211881021D01*
X88513856Y-211703855D01*
X88691019Y-211585479D01*
X88969931Y-211530000D01*
X107990348Y-211530000D01*
X107836561Y-211760159D01*
M02*
