%TF.GenerationSoftware,KiCad,Pcbnew,4.0.7*%
%TF.CreationDate,2019-01-12T03:56:20+05:00*%
%TF.ProjectId,Nokia1202_LCD,4E6F6B6961313230325F4C43442E6B69,0.1*%
%TF.FileFunction,Legend,Bot*%
%FSLAX46Y46*%
G04 Gerber Fmt 4.6, Leading zero omitted, Abs format (unit mm)*
G04 Created by KiCad (PCBNEW 4.0.7) date Sat Jan 12 03:56:20 2019*
%MOMM*%
%LPD*%
G01*
G04 APERTURE LIST*
%ADD10C,0.100000*%
%ADD11C,0.300000*%
%ADD12C,0.150000*%
G04 APERTURE END LIST*
D10*
D11*
X115403128Y-220238971D02*
X115403128Y-218738971D01*
X114545985Y-220238971D02*
X115188842Y-219381829D01*
X114545985Y-218738971D02*
X115403128Y-219596114D01*
X113260271Y-220238971D02*
X113260271Y-219453257D01*
X113331700Y-219310400D01*
X113474557Y-219238971D01*
X113760271Y-219238971D01*
X113903128Y-219310400D01*
X113260271Y-220167543D02*
X113403128Y-220238971D01*
X113760271Y-220238971D01*
X113903128Y-220167543D01*
X113974557Y-220024686D01*
X113974557Y-219881829D01*
X113903128Y-219738971D01*
X113760271Y-219667543D01*
X113403128Y-219667543D01*
X113260271Y-219596114D01*
X112545985Y-220238971D02*
X112545985Y-219238971D01*
X112545985Y-219524686D02*
X112474557Y-219381829D01*
X112403128Y-219310400D01*
X112260271Y-219238971D01*
X112117414Y-219238971D01*
X111617414Y-220238971D02*
X111617414Y-219238971D01*
X111617414Y-218738971D02*
X111688843Y-218810400D01*
X111617414Y-218881829D01*
X111545986Y-218810400D01*
X111617414Y-218738971D01*
X111617414Y-218881829D01*
X110903128Y-220238971D02*
X110903128Y-218738971D01*
X110903128Y-219310400D02*
X110760271Y-219238971D01*
X110474557Y-219238971D01*
X110331700Y-219310400D01*
X110260271Y-219381829D01*
X110188842Y-219524686D01*
X110188842Y-219953257D01*
X110260271Y-220096114D01*
X110331700Y-220167543D01*
X110474557Y-220238971D01*
X110760271Y-220238971D01*
X110903128Y-220167543D01*
X108974557Y-220167543D02*
X109117414Y-220238971D01*
X109403128Y-220238971D01*
X109545985Y-220167543D01*
X109617414Y-220024686D01*
X109617414Y-219453257D01*
X109545985Y-219310400D01*
X109403128Y-219238971D01*
X109117414Y-219238971D01*
X108974557Y-219310400D01*
X108903128Y-219453257D01*
X108903128Y-219596114D01*
X109617414Y-219738971D01*
X106688843Y-220810400D02*
X106760271Y-220738971D01*
X106903128Y-220524686D01*
X106974557Y-220381829D01*
X107045986Y-220167543D01*
X107117414Y-219810400D01*
X107117414Y-219524686D01*
X107045986Y-219167543D01*
X106974557Y-218953257D01*
X106903128Y-218810400D01*
X106760271Y-218596114D01*
X106688843Y-218524686D01*
X106117414Y-220238971D02*
X106117414Y-218738971D01*
X105260271Y-220238971D02*
X105903128Y-219381829D01*
X105260271Y-218738971D02*
X106117414Y-219596114D01*
X104760271Y-220810400D02*
X104688843Y-220738971D01*
X104545986Y-220524686D01*
X104474557Y-220381829D01*
X104403128Y-220167543D01*
X104331700Y-219810400D01*
X104331700Y-219524686D01*
X104403128Y-219167543D01*
X104474557Y-218953257D01*
X104545986Y-218810400D01*
X104688843Y-218596114D01*
X104760271Y-218524686D01*
X101760271Y-220238971D02*
X102474557Y-220238971D01*
X102474557Y-218738971D01*
X101474557Y-219238971D02*
X100903128Y-219238971D01*
X101260271Y-218738971D02*
X101260271Y-220024686D01*
X101188843Y-220167543D01*
X101045985Y-220238971D01*
X100903128Y-220238971D01*
X99760271Y-220238971D02*
X99760271Y-218738971D01*
X99760271Y-220167543D02*
X99903128Y-220238971D01*
X100188842Y-220238971D01*
X100331700Y-220167543D01*
X100403128Y-220096114D01*
X100474557Y-219953257D01*
X100474557Y-219524686D01*
X100403128Y-219381829D01*
X100331700Y-219310400D01*
X100188842Y-219238971D01*
X99903128Y-219238971D01*
X99760271Y-219310400D01*
X114380115Y-222593086D02*
X114451543Y-222521657D01*
X114594400Y-222450229D01*
X114737258Y-222450229D01*
X114880115Y-222521657D01*
X114951543Y-222593086D01*
X115022972Y-222735943D01*
X115022972Y-222878800D01*
X114951543Y-223021657D01*
X114880115Y-223093086D01*
X114737258Y-223164514D01*
X114594400Y-223164514D01*
X114451543Y-223093086D01*
X114380115Y-223021657D01*
X114380115Y-222450229D02*
X114380115Y-223021657D01*
X114308686Y-223093086D01*
X114237258Y-223093086D01*
X114094400Y-223021657D01*
X114022972Y-222878800D01*
X114022972Y-222521657D01*
X114165829Y-222307371D01*
X114380115Y-222164514D01*
X114665829Y-222093086D01*
X114951543Y-222164514D01*
X115165829Y-222307371D01*
X115308686Y-222521657D01*
X115380115Y-222807371D01*
X115308686Y-223093086D01*
X115165829Y-223307371D01*
X114951543Y-223450229D01*
X114665829Y-223521657D01*
X114380115Y-223450229D01*
X114165829Y-223307371D01*
X113380115Y-223307371D02*
X113380115Y-222307371D01*
X113380115Y-222450229D02*
X113308687Y-222378800D01*
X113165829Y-222307371D01*
X112951544Y-222307371D01*
X112808687Y-222378800D01*
X112737258Y-222521657D01*
X112737258Y-223307371D01*
X112737258Y-222521657D02*
X112665829Y-222378800D01*
X112522972Y-222307371D01*
X112308687Y-222307371D01*
X112165829Y-222378800D01*
X112094401Y-222521657D01*
X112094401Y-223307371D01*
X110737258Y-222307371D02*
X110737258Y-223307371D01*
X111380115Y-222307371D02*
X111380115Y-223093086D01*
X111308687Y-223235943D01*
X111165829Y-223307371D01*
X110951544Y-223307371D01*
X110808687Y-223235943D01*
X110737258Y-223164514D01*
X110022972Y-223307371D02*
X110022972Y-222307371D01*
X110022972Y-222593086D02*
X109951544Y-222450229D01*
X109880115Y-222378800D01*
X109737258Y-222307371D01*
X109594401Y-222307371D01*
X109094401Y-223307371D02*
X109094401Y-222307371D01*
X109094401Y-221807371D02*
X109165830Y-221878800D01*
X109094401Y-221950229D01*
X109022973Y-221878800D01*
X109094401Y-221807371D01*
X109094401Y-221950229D01*
X107737258Y-222307371D02*
X107737258Y-223307371D01*
X108380115Y-222307371D02*
X108380115Y-223093086D01*
X108308687Y-223235943D01*
X108165829Y-223307371D01*
X107951544Y-223307371D01*
X107808687Y-223235943D01*
X107737258Y-223164514D01*
X107022972Y-223307371D02*
X107022972Y-221807371D01*
X106880115Y-222735943D02*
X106451544Y-223307371D01*
X106451544Y-222307371D02*
X107022972Y-222878800D01*
X105808686Y-223307371D02*
X105808686Y-222307371D01*
X105808686Y-221807371D02*
X105880115Y-221878800D01*
X105808686Y-221950229D01*
X105737258Y-221878800D01*
X105808686Y-221807371D01*
X105808686Y-221950229D01*
X104451543Y-223307371D02*
X104451543Y-221807371D01*
X104451543Y-223235943D02*
X104594400Y-223307371D01*
X104880114Y-223307371D01*
X105022972Y-223235943D01*
X105094400Y-223164514D01*
X105165829Y-223021657D01*
X105165829Y-222593086D01*
X105094400Y-222450229D01*
X105022972Y-222378800D01*
X104880114Y-222307371D01*
X104594400Y-222307371D01*
X104451543Y-222378800D01*
X103094400Y-223307371D02*
X103094400Y-222521657D01*
X103165829Y-222378800D01*
X103308686Y-222307371D01*
X103594400Y-222307371D01*
X103737257Y-222378800D01*
X103094400Y-223235943D02*
X103237257Y-223307371D01*
X103594400Y-223307371D01*
X103737257Y-223235943D01*
X103808686Y-223093086D01*
X103808686Y-222950229D01*
X103737257Y-222807371D01*
X103594400Y-222735943D01*
X103237257Y-222735943D01*
X103094400Y-222664514D01*
X102522971Y-222307371D02*
X102165828Y-223307371D01*
X101808686Y-222307371D01*
X101237257Y-223307371D02*
X101237257Y-222307371D01*
X101237257Y-221807371D02*
X101308686Y-221878800D01*
X101237257Y-221950229D01*
X101165829Y-221878800D01*
X101237257Y-221807371D01*
X101237257Y-221950229D01*
X99880114Y-223307371D02*
X99880114Y-221807371D01*
X99880114Y-223235943D02*
X100022971Y-223307371D01*
X100308685Y-223307371D01*
X100451543Y-223235943D01*
X100522971Y-223164514D01*
X100594400Y-223021657D01*
X100594400Y-222593086D01*
X100522971Y-222450229D01*
X100451543Y-222378800D01*
X100308685Y-222307371D01*
X100022971Y-222307371D01*
X99880114Y-222378800D01*
X118094401Y-225857371D02*
X118094401Y-224357371D01*
X117451544Y-225857371D02*
X117451544Y-225071657D01*
X117522973Y-224928800D01*
X117665830Y-224857371D01*
X117880115Y-224857371D01*
X118022973Y-224928800D01*
X118094401Y-225000229D01*
X116951544Y-224857371D02*
X116380115Y-224857371D01*
X116737258Y-224357371D02*
X116737258Y-225643086D01*
X116665830Y-225785943D01*
X116522972Y-225857371D01*
X116380115Y-225857371D01*
X116094401Y-224857371D02*
X115522972Y-224857371D01*
X115880115Y-224357371D02*
X115880115Y-225643086D01*
X115808687Y-225785943D01*
X115665829Y-225857371D01*
X115522972Y-225857371D01*
X115022972Y-224857371D02*
X115022972Y-226357371D01*
X115022972Y-224928800D02*
X114880115Y-224857371D01*
X114594401Y-224857371D01*
X114451544Y-224928800D01*
X114380115Y-225000229D01*
X114308686Y-225143086D01*
X114308686Y-225571657D01*
X114380115Y-225714514D01*
X114451544Y-225785943D01*
X114594401Y-225857371D01*
X114880115Y-225857371D01*
X115022972Y-225785943D01*
X113665829Y-225714514D02*
X113594401Y-225785943D01*
X113665829Y-225857371D01*
X113737258Y-225785943D01*
X113665829Y-225714514D01*
X113665829Y-225857371D01*
X113665829Y-224928800D02*
X113594401Y-225000229D01*
X113665829Y-225071657D01*
X113737258Y-225000229D01*
X113665829Y-224928800D01*
X113665829Y-225071657D01*
X111880115Y-224285943D02*
X113165829Y-226214514D01*
X110308686Y-224285943D02*
X111594400Y-226214514D01*
X109808685Y-225857371D02*
X109808685Y-224357371D01*
X109665828Y-225285943D02*
X109237257Y-225857371D01*
X109237257Y-224857371D02*
X109808685Y-225428800D01*
X107951542Y-225857371D02*
X107951542Y-225071657D01*
X108022971Y-224928800D01*
X108165828Y-224857371D01*
X108451542Y-224857371D01*
X108594399Y-224928800D01*
X107951542Y-225785943D02*
X108094399Y-225857371D01*
X108451542Y-225857371D01*
X108594399Y-225785943D01*
X108665828Y-225643086D01*
X108665828Y-225500229D01*
X108594399Y-225357371D01*
X108451542Y-225285943D01*
X108094399Y-225285943D01*
X107951542Y-225214514D01*
X107237256Y-225857371D02*
X107237256Y-224857371D01*
X107237256Y-225143086D02*
X107165828Y-225000229D01*
X107094399Y-224928800D01*
X106951542Y-224857371D01*
X106808685Y-224857371D01*
X106308685Y-225857371D02*
X106308685Y-224857371D01*
X106308685Y-224357371D02*
X106380114Y-224428800D01*
X106308685Y-224500229D01*
X106237257Y-224428800D01*
X106308685Y-224357371D01*
X106308685Y-224500229D01*
X105594399Y-225857371D02*
X105594399Y-224357371D01*
X105594399Y-224928800D02*
X105451542Y-224857371D01*
X105165828Y-224857371D01*
X105022971Y-224928800D01*
X104951542Y-225000229D01*
X104880113Y-225143086D01*
X104880113Y-225571657D01*
X104951542Y-225714514D01*
X105022971Y-225785943D01*
X105165828Y-225857371D01*
X105451542Y-225857371D01*
X105594399Y-225785943D01*
X103665828Y-225785943D02*
X103808685Y-225857371D01*
X104094399Y-225857371D01*
X104237256Y-225785943D01*
X104308685Y-225643086D01*
X104308685Y-225071657D01*
X104237256Y-224928800D01*
X104094399Y-224857371D01*
X103808685Y-224857371D01*
X103665828Y-224928800D01*
X103594399Y-225071657D01*
X103594399Y-225214514D01*
X104308685Y-225357371D01*
X102951542Y-225714514D02*
X102880114Y-225785943D01*
X102951542Y-225857371D01*
X103022971Y-225785943D01*
X102951542Y-225714514D01*
X102951542Y-225857371D01*
X101594399Y-225785943D02*
X101737256Y-225857371D01*
X102022970Y-225857371D01*
X102165828Y-225785943D01*
X102237256Y-225714514D01*
X102308685Y-225571657D01*
X102308685Y-225143086D01*
X102237256Y-225000229D01*
X102165828Y-224928800D01*
X102022970Y-224857371D01*
X101737256Y-224857371D01*
X101594399Y-224928800D01*
X100737256Y-225857371D02*
X100880114Y-225785943D01*
X100951542Y-225714514D01*
X101022971Y-225571657D01*
X101022971Y-225143086D01*
X100951542Y-225000229D01*
X100880114Y-224928800D01*
X100737256Y-224857371D01*
X100522971Y-224857371D01*
X100380114Y-224928800D01*
X100308685Y-225000229D01*
X100237256Y-225143086D01*
X100237256Y-225571657D01*
X100308685Y-225714514D01*
X100380114Y-225785943D01*
X100522971Y-225857371D01*
X100737256Y-225857371D01*
X99594399Y-225714514D02*
X99522971Y-225785943D01*
X99594399Y-225857371D01*
X99665828Y-225785943D01*
X99594399Y-225714514D01*
X99594399Y-225857371D01*
X98880113Y-225857371D02*
X98880113Y-224357371D01*
X98737256Y-225285943D02*
X98308685Y-225857371D01*
X98308685Y-224857371D02*
X98880113Y-225428800D01*
X97094399Y-225785943D02*
X97237256Y-225857371D01*
X97522970Y-225857371D01*
X97665827Y-225785943D01*
X97737256Y-225643086D01*
X97737256Y-225071657D01*
X97665827Y-224928800D01*
X97522970Y-224857371D01*
X97237256Y-224857371D01*
X97094399Y-224928800D01*
X97022970Y-225071657D01*
X97022970Y-225214514D01*
X97737256Y-225357371D01*
D12*
X127381000Y-212090000D02*
G75*
G03X126111000Y-210820000I-1270000J0D01*
G01*
X87630000Y-248158000D02*
G75*
G03X88900000Y-249428000I1270000J0D01*
G01*
X126111000Y-249428000D02*
G75*
G03X127381000Y-248158000I0J1270000D01*
G01*
X88900000Y-210820000D02*
G75*
G03X87630000Y-212090000I0J-1270000D01*
G01*
X87630000Y-248158000D02*
X87630000Y-212090000D01*
X126111000Y-249428000D02*
X88900000Y-249428000D01*
X127381000Y-212090000D02*
X127381000Y-248158000D01*
X88900000Y-210820000D02*
X126111000Y-210820000D01*
M02*
