<?xml version="1.0" encoding="UTF-8" standalone="no"?>
<svg
   xmlns:dc="http://purl.org/dc/elements/1.1/"
   xmlns:cc="http://creativecommons.org/ns#"
   xmlns:rdf="http://www.w3.org/1999/02/22-rdf-syntax-ns#"
   xmlns:svg="http://www.w3.org/2000/svg"
   xmlns="http://www.w3.org/2000/svg"
   xmlns:sodipodi="http://sodipodi.sourceforge.net/DTD/sodipodi-0.dtd"
   xmlns:inkscape="http://www.inkscape.org/namespaces/inkscape"
   version="1.1"
   width="14.8006cm"
   height="21.0007cm"
   viewBox="0 0 58270 82680 "
   id="svg2"
   inkscape:version="0.91 r13725"
   sodipodi:docname="Nokia1616_LCD-B.Cu.svg">
  <metadata
     id="metadata260">
    <rdf:RDF>
      <cc:Work
         rdf:about="">
        <dc:format>image/svg+xml</dc:format>
        <dc:type
           rdf:resource="http://purl.org/dc/dcmitype/StillImage" />
        <dc:title>SVG Picture created as Nokia1616_LCD-B.Cu.svg date 2017/04/06 17:07:17 </dc:title>
      </cc:Work>
    </rdf:RDF>
  </metadata>
  <defs
     id="defs258" />
  <sodipodi:namedview
     pagecolor="#ffffff"
     bordercolor="#666666"
     borderopacity="1"
     objecttolerance="10"
     gridtolerance="10"
     guidetolerance="10"
     inkscape:pageopacity="0"
     inkscape:pageshadow="2"
     inkscape:window-width="1360"
     inkscape:window-height="722"
     id="namedview256"
     showgrid="false"
     inkscape:zoom="0.44852271"
     inkscape:cx="705.94552"
     inkscape:cy="164.68933"
     inkscape:window-x="0"
     inkscape:window-y="24"
     inkscape:window-maximized="1"
     inkscape:current-layer="svg2" />
  <title
     id="title4">SVG Picture created as Nokia1616_LCD-B.Cu.svg date 2017/04/06 17:07:17 </title>
  <desc
     id="desc6">Picture generated by PCBNEW </desc>
  <g
     style="fill:#000000;fill-opacity:1;stroke:#000000;stroke-linecap:round;stroke-linejoin:round;stroke-opacity:1"
     transform="translate(635.00004,3590.0009)"
     id="g8" />
  <g
     style="fill:#000000;fill-opacity:0;stroke:#000000;stroke-width:-0.0003937;stroke-linecap:round;stroke-linejoin:round;stroke-opacity:1"
     id="g10"
     transform="translate(635.00004,3590.0009)" />
  <g
     style="fill:#000000;fill-opacity:0;stroke:#000000;stroke-width:59.05509949;stroke-linecap:round;stroke-linejoin:round;stroke-opacity:1"
     id="g12"
     transform="translate(635.00004,3590.0009)">
    <path
       d="m 35500,25500 0,24500"
       id="path14"
       inkscape:connector-curvature="0" />
    <path
       d="m 21500,25500 14000,0"
       id="path16"
       inkscape:connector-curvature="0" />
    <path
       d="m 21500,50000 0,-24500"
       id="path18"
       inkscape:connector-curvature="0" />
    <path
       d="m 35500,50000 -14000,0"
       id="path20"
       inkscape:connector-curvature="0" />
  </g>
  <g
     style="fill:#000000;fill-opacity:0;stroke:#000000;stroke-width:0;stroke-linecap:round;stroke-linejoin:round;stroke-opacity:1"
     id="g22"
     transform="translate(635.00004,3590.0009)" />
  <g
     style="fill:#000000;fill-opacity:1;stroke:#000000;stroke-width:0;stroke-linecap:round;stroke-linejoin:round;stroke-opacity:1"
     id="g24"
     transform="translate(635.00004,3590.0009)">
    <polyline
       style="fill-rule:evenodd"
       points="32290,48875 31503,48875 31503,48008 32290,48008 32290,48875 "
       id="polyline26" />
  </g>
  <g
     style="fill:#000000;fill-opacity:1;stroke:#000000;stroke-width:866.14202881;stroke-linecap:round;stroke-linejoin:round;stroke-opacity:1"
     id="g28"
     transform="translate(635.00004,3590.0009)" />
  <g
     style="fill:#000000;fill-opacity:0;stroke:#000000;stroke-width:866.14202881;stroke-linecap:round;stroke-linejoin:round;stroke-opacity:1"
     id="g30"
     transform="translate(635.00004,3590.0009)">
    <path
       d="m 30897,48481 0,-79"
       id="path32"
       inkscape:connector-curvature="0" />
    <path
       d="m 29897,48481 0,-79"
       id="path34"
       inkscape:connector-curvature="0" />
    <path
       d="m 28897,48481 0,-79"
       id="path36"
       inkscape:connector-curvature="0" />
    <path
       d="m 27897,48481 0,-79"
       id="path38"
       inkscape:connector-curvature="0" />
    <path
       d="m 26897,48481 0,-79"
       id="path40"
       inkscape:connector-curvature="0" />
    <path
       d="m 25897,48481 0,-79"
       id="path42"
       inkscape:connector-curvature="0" />
    <path
       d="m 24897,48481 0,-79"
       id="path44"
       inkscape:connector-curvature="0" />
  </g>
  <g
     style="fill:#000000;fill-opacity:0;stroke:#000000;stroke-width:0;stroke-linecap:round;stroke-linejoin:round;stroke-opacity:1"
     id="g46"
     transform="translate(635.00004,3590.0009)" />
  <g
     style="fill:#000000;fill-opacity:1;stroke:#000000;stroke-width:0;stroke-linecap:round;stroke-linejoin:round;stroke-opacity:1"
     id="g48"
     transform="translate(635.00004,3590.0009)">
    <polyline
       style="fill-rule:evenodd"
       points="24501,26056 25288,26056 25288,26923 24501,26923 24501,26056 "
       id="polyline50" />
  </g>
  <g
     style="fill:#000000;fill-opacity:1;stroke:#000000;stroke-width:866.14202881;stroke-linecap:round;stroke-linejoin:round;stroke-opacity:1"
     id="g52"
     transform="translate(635.00004,3590.0009)" />
  <g
     style="fill:#000000;fill-opacity:0;stroke:#000000;stroke-width:866.14202881;stroke-linecap:round;stroke-linejoin:round;stroke-opacity:1"
     id="g54"
     transform="translate(635.00004,3590.0009)">
    <path
       d="m 25895,26450 0,79"
       id="path56"
       inkscape:connector-curvature="0" />
    <path
       d="m 26895,26450 0,79"
       id="path58"
       inkscape:connector-curvature="0" />
    <path
       d="m 27895,26450 0,79"
       id="path60"
       inkscape:connector-curvature="0" />
    <path
       d="m 28895,26450 0,79"
       id="path62"
       inkscape:connector-curvature="0" />
    <path
       d="m 29895,26450 0,79"
       id="path64"
       inkscape:connector-curvature="0" />
    <path
       d="m 30895,26450 0,79"
       id="path66"
       inkscape:connector-curvature="0" />
    <path
       d="m 31895,26450 0,79"
       id="path68"
       inkscape:connector-curvature="0" />
  </g>
  <g
     style="fill:#000000;fill-opacity:1;stroke:#000000;stroke-width:0;stroke-linecap:round;stroke-linejoin:round;stroke-opacity:1"
     id="g70"
     transform="translate(635.00004,3590.0009)">
    <circle
       cx="33100"
       cy="47350"
       r="255.90601"
       id="circle72" />
  </g>
  <g
     style="fill:#000000;fill-opacity:1;stroke:#000000;stroke-width:39.37009811;stroke-linecap:round;stroke-linejoin:round;stroke-opacity:1"
     id="g74"
     transform="translate(635.00004,3590.0009)" />
  <g
     style="fill:#000000;fill-opacity:1;stroke:#000000;stroke-width:236.22000122;stroke-linecap:round;stroke-linejoin:round;stroke-opacity:1"
     id="g76"
     transform="translate(635.00004,3590.0009)" />
  <g
     style="fill:#000000;fill-opacity:0;stroke:#000000;stroke-width:236.22000122;stroke-linecap:round;stroke-linejoin:round;stroke-opacity:1"
     id="g78"
     transform="translate(635.00004,3590.0009)">
    <path
       d="m 31897,48442 0,-40"
       id="path80"
       inkscape:connector-curvature="0" />
    <path
       d="m 31895,48400 0,-21202"
       id="path82"
       inkscape:connector-curvature="0" />
    <path
       d="m 31897,48402 -2,-2"
       id="path84"
       inkscape:connector-curvature="0" />
    <path
       d="m 31895,27198 0,-708"
       id="path86"
       inkscape:connector-curvature="0" />
    <path
       d="m 28897,48442 0,-21950"
       id="path88"
       inkscape:connector-curvature="0" />
    <path
       d="m 28897,26492 -2,-2"
       id="path90"
       inkscape:connector-curvature="0" />
  </g>
  <g
     style="fill:#000000;fill-opacity:0;stroke:#000000;stroke-width:125.98400116;stroke-linecap:round;stroke-linejoin:round;stroke-opacity:1"
     id="g92"
     transform="translate(635.00004,3590.0009)">
    <path
       d="m 29000,48339 -103,103"
       id="path94"
       inkscape:connector-curvature="0" />
  </g>
  <g
     style="fill:#000000;fill-opacity:0;stroke:#000000;stroke-width:236.22000122;stroke-linecap:round;stroke-linejoin:round;stroke-opacity:1"
     id="g96"
     transform="translate(635.00004,3590.0009)">
    <path
       d="m 29895,26490 0,21950"
       id="path98"
       inkscape:connector-curvature="0" />
    <path
       d="m 29895,48440 2,2"
       id="path100"
       inkscape:connector-curvature="0" />
  </g>
  <g
     style="fill:#000000;fill-opacity:0;stroke:#000000;stroke-width:125.98400116;stroke-linecap:round;stroke-linejoin:round;stroke-opacity:1"
     id="g102"
     transform="translate(635.00004,3590.0009)">
    <path
       d="m 30000,26560 -103,103"
       id="path104"
       inkscape:connector-curvature="0" />
    <path
       d="m 30000,26500 0,60"
       id="path106"
       inkscape:connector-curvature="0" />
  </g>
  <g
     style="fill:#000000;fill-opacity:0;stroke:#000000;stroke-width:236.22000122;stroke-linecap:round;stroke-linejoin:round;stroke-opacity:1"
     id="g108"
     transform="translate(635.00004,3590.0009)">
    <path
       d="m 26897,48442 0,-21950"
       id="path110"
       inkscape:connector-curvature="0" />
    <path
       d="m 26897,26492 -2,-2"
       id="path112"
       inkscape:connector-curvature="0" />
  </g>
  <g
     style="fill:#000000;fill-opacity:0;stroke:#000000;stroke-width:125.98400116;stroke-linecap:round;stroke-linejoin:round;stroke-opacity:1"
     id="g114"
     transform="translate(635.00004,3590.0009)">
    <path
       d="m 27000,48339 -103,103"
       id="path116"
       inkscape:connector-curvature="0" />
  </g>
  <g
     style="fill:#000000;fill-opacity:0;stroke:#000000;stroke-width:236.22000122;stroke-linecap:round;stroke-linejoin:round;stroke-opacity:1"
     id="g118"
     transform="translate(635.00004,3590.0009)">
    <path
       d="m 25895,26490 0,21950"
       id="path120"
       inkscape:connector-curvature="0" />
    <path
       d="m 25895,48440 2,2"
       id="path122"
       inkscape:connector-curvature="0" />
  </g>
  <g
     style="fill:#000000;fill-opacity:0;stroke:#000000;stroke-width:125.98400116;stroke-linecap:round;stroke-linejoin:round;stroke-opacity:1"
     id="g124"
     transform="translate(635.00004,3590.0009)">
    <path
       d="m 26000,48339 -103,103"
       id="path126"
       inkscape:connector-curvature="0" />
  </g>
  <g
     style="fill:#000000;fill-opacity:0;stroke:#000000;stroke-width:236.22000122;stroke-linecap:round;stroke-linejoin:round;stroke-opacity:1"
     id="g128"
     transform="translate(635.00004,3590.0009)">
    <path
       d="m 27895,26490 0,21950"
       id="path130"
       inkscape:connector-curvature="0" />
    <path
       d="m 27895,48440 2,2"
       id="path132"
       inkscape:connector-curvature="0" />
  </g>
  <g
     style="fill:#000000;fill-opacity:0;stroke:#000000;stroke-width:125.98400116;stroke-linecap:round;stroke-linejoin:round;stroke-opacity:1"
     id="g134"
     transform="translate(635.00004,3590.0009)">
    <path
       d="m 28000,48339 -103,103"
       id="path136"
       inkscape:connector-curvature="0" />
  </g>
  <g
     style="fill:#000000;fill-opacity:0;stroke:#000000;stroke-width:236.22000122;stroke-linecap:round;stroke-linejoin:round;stroke-opacity:1"
     id="g138"
     transform="translate(635.00004,3590.0009)">
    <path
       d="m 24897,27443 -2,-2"
       id="path140"
       inkscape:connector-curvature="0" />
    <path
       d="m 24895,27441 0,-951"
       id="path142"
       inkscape:connector-curvature="0" />
    <path
       d="m 24897,48442 0,-20999"
       id="path144"
       inkscape:connector-curvature="0" />
  </g>
  <g
     style="fill:#000000;fill-opacity:1;stroke:#000000;stroke-width:100;stroke-linecap:round;stroke-linejoin:round;stroke-opacity:1"
     id="g146"
     transform="translate(635.00004,3590.0009)">
    <polyline
       style="fill-rule:evenodd"
       points="25634,25808 25486,25907 25469,25881 25386,25825 25288,25805 24501,25805 24409,25822 24325,25876 24269,25959 24249,26056 24249,26923 24266,27014 24320,27098 24403,27154 24501,27174 24530,27174 24530,27441 24532,27451 24532,47830 24416,47907 24268,48128 24217,48388 24217,48495 24268,48755 24416,48976 24636,49123 24897,49175 25157,49123 25377,48976 25397,48947 25416,48976 25636,49123 25897,49175 26157,49123 26377,48976 26397,48947 26416,48976 26636,49123 26897,49175 27157,49123 27377,48976 27397,48947 27416,48976 27636,49123 27897,49175 28157,49123 28377,48976 28397,48947 28416,48976 28636,49123 28897,49175 29157,49123 29377,48976 29397,48947 29416,48976 29636,49123 29897,49175 30157,49123 30377,48976 30404,48935 30504,49039 30741,49146 30847,49099 30847,48492 30839,48492 30839,48392 30847,48392 30847,47784 30741,47737 30504,47844 30404,47948 30377,47907 30259,47829 30259,27101 30375,27024 30402,26983 30502,27087 30739,27194 30845,27147 30845,26540 30837,26540 30837,26440 30845,26440 30845,26432 30945,26432 30945,26440 30952,26440 30952,26540 30945,26540 30945,27147 31050,27194 31287,27087 31387,26983 31414,27024 31530,27101 31530,47757 31503,47757 31411,47774 31327,47828 31305,47860 31289,47844 31052,47737 30947,47784 30947,48392 30954,48392 30954,48492 30947,48492 30947,49099 31052,49146 31289,49039 31305,49023 31322,49050 31405,49106 31503,49126 32290,49126 32382,49109 32466,49055 32522,48972 32542,48875 32542,48008 32525,47917 32471,47833 32388,47777 32290,47757 32259,47757 32259,27101 32375,27024 32523,26803 32574,26543 32574,26436 32523,26176 32375,25955 32155,25808 31994,25776 35223,25776 35223,49723 21776,49723 21776,25776 25795,25776 25634,25808 "
       id="polyline148" />
  </g>
  <g
     style="fill:#ffffff;fill-opacity:1;stroke:#ffffff;stroke-width:100;stroke-linecap:round;stroke-linejoin:round;stroke-opacity:1"
     id="g150"
     transform="translate(635.00004,3590.0009)" />
  <g
     style="fill:#ffffff;fill-opacity:1;stroke:#ffffff;stroke-width:0;stroke-linecap:round;stroke-linejoin:round;stroke-opacity:1"
     id="g152"
     transform="translate(635.00004,3590.0009)">
    <circle
       cx="33100"
       cy="47350"
       r="157.48"
       id="circle154" />
  </g>
  <g
     style="fill:#ffffff;fill-opacity:1;stroke:#ffffff;stroke-width:39.37009811;stroke-linecap:round;stroke-linejoin:round;stroke-opacity:1"
     id="g156"
     transform="translate(635.00004,3590.0009)" />
  <g
     style="fill:#ffffff;fill-opacity:1;stroke:#ffffff;stroke-width:0;stroke-linecap:round;stroke-linejoin:round;stroke-opacity:1"
     id="g158"
     transform="translate(635.00004,3590.0009)">
    <circle
       cx="31897"
       cy="48442"
       r="295.276"
       id="circle160" />
  </g>
  <g
     style="fill:#ffffff;fill-opacity:1;stroke:#ffffff;stroke-width:39.37009811;stroke-linecap:round;stroke-linejoin:round;stroke-opacity:1"
     id="g162"
     transform="translate(635.00004,3590.0009)" />
  <g
     style="fill:#ffffff;fill-opacity:1;stroke:#ffffff;stroke-width:0;stroke-linecap:round;stroke-linejoin:round;stroke-opacity:1"
     id="g164"
     transform="translate(635.00004,3590.0009)">
    <circle
       cx="30897"
       cy="48442"
       r="295.276"
       id="circle166" />
  </g>
  <g
     style="fill:#ffffff;fill-opacity:1;stroke:#ffffff;stroke-width:39.37009811;stroke-linecap:round;stroke-linejoin:round;stroke-opacity:1"
     id="g168"
     transform="translate(635.00004,3590.0009)" />
  <g
     style="fill:#ffffff;fill-opacity:1;stroke:#ffffff;stroke-width:0;stroke-linecap:round;stroke-linejoin:round;stroke-opacity:1"
     id="g170"
     transform="translate(635.00004,3590.0009)">
    <circle
       cx="29897"
       cy="48442"
       r="295.276"
       id="circle172" />
  </g>
  <g
     style="fill:#ffffff;fill-opacity:1;stroke:#ffffff;stroke-width:39.37009811;stroke-linecap:round;stroke-linejoin:round;stroke-opacity:1"
     id="g174"
     transform="translate(635.00004,3590.0009)" />
  <g
     style="fill:#ffffff;fill-opacity:1;stroke:#ffffff;stroke-width:0;stroke-linecap:round;stroke-linejoin:round;stroke-opacity:1"
     id="g176"
     transform="translate(635.00004,3590.0009)">
    <circle
       cx="28897"
       cy="48442"
       r="295.276"
       id="circle178" />
  </g>
  <g
     style="fill:#ffffff;fill-opacity:1;stroke:#ffffff;stroke-width:39.37009811;stroke-linecap:round;stroke-linejoin:round;stroke-opacity:1"
     id="g180"
     transform="translate(635.00004,3590.0009)" />
  <g
     style="fill:#ffffff;fill-opacity:1;stroke:#ffffff;stroke-width:0;stroke-linecap:round;stroke-linejoin:round;stroke-opacity:1"
     id="g182"
     transform="translate(635.00004,3590.0009)">
    <circle
       cx="27897"
       cy="48442"
       r="295.276"
       id="circle184" />
  </g>
  <g
     style="fill:#ffffff;fill-opacity:1;stroke:#ffffff;stroke-width:39.37009811;stroke-linecap:round;stroke-linejoin:round;stroke-opacity:1"
     id="g186"
     transform="translate(635.00004,3590.0009)" />
  <g
     style="fill:#ffffff;fill-opacity:1;stroke:#ffffff;stroke-width:0;stroke-linecap:round;stroke-linejoin:round;stroke-opacity:1"
     id="g188"
     transform="translate(635.00004,3590.0009)">
    <circle
       cx="26897"
       cy="48442"
       r="295.276"
       id="circle190" />
  </g>
  <g
     style="fill:#ffffff;fill-opacity:1;stroke:#ffffff;stroke-width:39.37009811;stroke-linecap:round;stroke-linejoin:round;stroke-opacity:1"
     id="g192"
     transform="translate(635.00004,3590.0009)" />
  <g
     style="fill:#ffffff;fill-opacity:1;stroke:#ffffff;stroke-width:0;stroke-linecap:round;stroke-linejoin:round;stroke-opacity:1"
     id="g194"
     transform="translate(635.00004,3590.0009)">
    <circle
       cx="25897"
       cy="48442"
       r="295.276"
       id="circle196" />
  </g>
  <g
     style="fill:#ffffff;fill-opacity:1;stroke:#ffffff;stroke-width:39.37009811;stroke-linecap:round;stroke-linejoin:round;stroke-opacity:1"
     id="g198"
     transform="translate(635.00004,3590.0009)" />
  <g
     style="fill:#ffffff;fill-opacity:1;stroke:#ffffff;stroke-width:0;stroke-linecap:round;stroke-linejoin:round;stroke-opacity:1"
     id="g200"
     transform="translate(635.00004,3590.0009)">
    <circle
       cx="24897"
       cy="48442"
       r="295.276"
       id="circle202" />
  </g>
  <g
     style="fill:#ffffff;fill-opacity:1;stroke:#ffffff;stroke-width:39.37009811;stroke-linecap:round;stroke-linejoin:round;stroke-opacity:1"
     id="g204"
     transform="translate(635.00004,3590.0009)" />
  <g
     style="fill:#ffffff;fill-opacity:1;stroke:#ffffff;stroke-width:0;stroke-linecap:round;stroke-linejoin:round;stroke-opacity:1"
     id="g206"
     transform="translate(635.00004,3590.0009)">
    <circle
       cx="24895"
       cy="26490"
       r="295.276"
       id="circle208" />
  </g>
  <g
     style="fill:#ffffff;fill-opacity:1;stroke:#ffffff;stroke-width:39.37009811;stroke-linecap:round;stroke-linejoin:round;stroke-opacity:1"
     id="g210"
     transform="translate(635.00004,3590.0009)" />
  <g
     style="fill:#ffffff;fill-opacity:1;stroke:#ffffff;stroke-width:0;stroke-linecap:round;stroke-linejoin:round;stroke-opacity:1"
     id="g212"
     transform="translate(635.00004,3590.0009)">
    <circle
       cx="25895"
       cy="26490"
       r="295.276"
       id="circle214" />
  </g>
  <g
     style="fill:#ffffff;fill-opacity:1;stroke:#ffffff;stroke-width:39.37009811;stroke-linecap:round;stroke-linejoin:round;stroke-opacity:1"
     id="g216"
     transform="translate(635.00004,3590.0009)" />
  <g
     style="fill:#ffffff;fill-opacity:1;stroke:#ffffff;stroke-width:0;stroke-linecap:round;stroke-linejoin:round;stroke-opacity:1"
     id="g218"
     transform="translate(635.00004,3590.0009)">
    <circle
       cx="26895"
       cy="26490"
       r="295.276"
       id="circle220" />
  </g>
  <g
     style="fill:#ffffff;fill-opacity:1;stroke:#ffffff;stroke-width:39.37009811;stroke-linecap:round;stroke-linejoin:round;stroke-opacity:1"
     id="g222"
     transform="translate(635.00004,3590.0009)" />
  <g
     style="fill:#ffffff;fill-opacity:1;stroke:#ffffff;stroke-width:0;stroke-linecap:round;stroke-linejoin:round;stroke-opacity:1"
     id="g224"
     transform="translate(635.00004,3590.0009)">
    <circle
       cx="27895"
       cy="26490"
       r="295.276"
       id="circle226" />
  </g>
  <g
     style="fill:#ffffff;fill-opacity:1;stroke:#ffffff;stroke-width:39.37009811;stroke-linecap:round;stroke-linejoin:round;stroke-opacity:1"
     id="g228"
     transform="translate(635.00004,3590.0009)" />
  <g
     style="fill:#ffffff;fill-opacity:1;stroke:#ffffff;stroke-width:0;stroke-linecap:round;stroke-linejoin:round;stroke-opacity:1"
     id="g230"
     transform="translate(635.00004,3590.0009)">
    <circle
       cx="28895"
       cy="26490"
       r="295.276"
       id="circle232" />
  </g>
  <g
     style="fill:#ffffff;fill-opacity:1;stroke:#ffffff;stroke-width:39.37009811;stroke-linecap:round;stroke-linejoin:round;stroke-opacity:1"
     id="g234"
     transform="translate(635.00004,3590.0009)" />
  <g
     style="fill:#ffffff;fill-opacity:1;stroke:#ffffff;stroke-width:0;stroke-linecap:round;stroke-linejoin:round;stroke-opacity:1"
     id="g236"
     transform="translate(635.00004,3590.0009)">
    <circle
       cx="29895"
       cy="26490"
       r="295.276"
       id="circle238" />
  </g>
  <g
     style="fill:#ffffff;fill-opacity:1;stroke:#ffffff;stroke-width:39.37009811;stroke-linecap:round;stroke-linejoin:round;stroke-opacity:1"
     id="g240"
     transform="translate(635.00004,3590.0009)" />
  <g
     style="fill:#ffffff;fill-opacity:1;stroke:#ffffff;stroke-width:0;stroke-linecap:round;stroke-linejoin:round;stroke-opacity:1"
     id="g242"
     transform="translate(635.00004,3590.0009)">
    <circle
       cx="30895"
       cy="26490"
       r="295.276"
       id="circle244" />
  </g>
  <g
     style="fill:#ffffff;fill-opacity:1;stroke:#ffffff;stroke-width:39.37009811;stroke-linecap:round;stroke-linejoin:round;stroke-opacity:1"
     id="g246"
     transform="translate(635.00004,3590.0009)" />
  <g
     style="fill:#ffffff;fill-opacity:1;stroke:#ffffff;stroke-width:0;stroke-linecap:round;stroke-linejoin:round;stroke-opacity:1"
     id="g248"
     transform="translate(635.00004,3590.0009)">
    <circle
       cx="31895"
       cy="26490"
       r="295.276"
       id="circle250" />
  </g>
  <g
     style="fill:#ffffff;fill-opacity:1;stroke:#ffffff;stroke-width:39.37009811;stroke-linecap:round;stroke-linejoin:round;stroke-opacity:1"
     id="g252"
     transform="translate(635.00004,3590.0009)" />
  <g
     style="fill:#000000;fill-opacity:1;stroke:#000000;stroke-width:39.37009811;stroke-linecap:round;stroke-linejoin:round;stroke-opacity:1"
     id="g254"
     transform="translate(635.00004,3590.0009)" />
</svg>
