<?xml version="1.0" encoding="UTF-8" standalone="no"?>
<svg
   xmlns:dc="http://purl.org/dc/elements/1.1/"
   xmlns:cc="http://creativecommons.org/ns#"
   xmlns:rdf="http://www.w3.org/1999/02/22-rdf-syntax-ns#"
   xmlns:svg="http://www.w3.org/2000/svg"
   xmlns="http://www.w3.org/2000/svg"
   xmlns:sodipodi="http://sodipodi.sourceforge.net/DTD/sodipodi-0.dtd"
   xmlns:inkscape="http://www.inkscape.org/namespaces/inkscape"
   version="1.1"
   width="14.8006cm"
   height="21.0007cm"
   viewBox="0 0 58270 82680 "
   id="svg2"
   inkscape:version="0.91 r13725"
   sodipodi:docname="Nokia1616_LCD-F.Cu.svg">
  <metadata
     id="metadata398">
    <rdf:RDF>
      <cc:Work
         rdf:about="">
        <dc:format>image/svg+xml</dc:format>
        <dc:type
           rdf:resource="http://purl.org/dc/dcmitype/StillImage" />
        <dc:title>SVG Picture created as Nokia1616_LCD-F.Cu.svg date 2017/03/16 17:35:47 </dc:title>
      </cc:Work>
    </rdf:RDF>
  </metadata>
  <defs
     id="defs396" />
  <sodipodi:namedview
     pagecolor="#ffffff"
     bordercolor="#666666"
     borderopacity="1"
     objecttolerance="10"
     gridtolerance="10"
     guidetolerance="10"
     inkscape:pageopacity="0"
     inkscape:pageshadow="2"
     inkscape:window-width="1360"
     inkscape:window-height="722"
     id="namedview394"
     showgrid="false"
     inkscape:zoom="5.0744552"
     inkscape:cx="248.67684"
     inkscape:cy="326.40497"
     inkscape:window-x="0"
     inkscape:window-y="24"
     inkscape:window-maximized="1"
     inkscape:current-layer="svg2" />
  <title
     id="title4">SVG Picture created as Nokia1616_LCD-F.Cu.svg date 2017/03/16 17:35:47 </title>
  <desc
     id="desc6">Picture generated by PCBNEW </desc>
  <g
     style="fill:#000000; fill-opacity:1;stroke:#000000; stroke-opacity:1; stroke-linecap:round; stroke-linejoin:round; "
     transform="translate(0 0) scale(1 1)"
     id="g8" />
  <g
     style="fill:#000000; fill-opacity:0.0;  stroke:#000000; stroke-width:-0.000393701; stroke-opacity:1;  stroke-linecap:round; stroke-linejoin:round;"
     id="g10" />
  <g
     style="fill:#000000;fill-opacity:0;stroke:#000000;stroke-width:59.05509949;stroke-linecap:round;stroke-linejoin:round;stroke-opacity:1"
     id="g12"
     transform="translate(-624.99996,2830.0009)">
    <path
       d="m 22850,27520 20,21980"
       id="path14"
       inkscape:connector-curvature="0" />
    <path
       d="m 36670,27520 -13820,0"
       id="path16"
       inkscape:connector-curvature="0" />
    <path
       d="m 36670,49500 0,-21980"
       id="path18"
       inkscape:connector-curvature="0" />
    <path
       d="m 22870,49500 13800,0"
       id="path20"
       inkscape:connector-curvature="0" />
  </g>
  <g
     style="fill:#000000; fill-opacity:0.0;  stroke:#000000; stroke-width:0; stroke-opacity:1;  stroke-linecap:round; stroke-linejoin:round;"
     id="g22" />
  <g
     style="fill:#000000;fill-opacity:1;stroke:#000000;stroke-width:0;stroke-linecap:round;stroke-linejoin:round;stroke-opacity:1"
     id="g24"
     transform="translate(-624.99996,2830.0009)">
    <polyline
       style="fill-rule:evenodd"
       points="24941,48756 24941,48127 24548,48127 24548,48756 24941,48756 "
       id="polyline26" />
    <polyline
       style="fill-rule:evenodd"
       points="23760,48756 23760,48127 23367,48127 23367,48756 23760,48756 "
       id="polyline28" />
    <polyline
       style="fill-rule:evenodd"
       points="26033,48842 26713,48842 26713,48042 26033,48042 26033,48842 "
       id="polyline30" />
  </g>
  <g
     style="fill:#000000; fill-opacity:1.0;  stroke:#000000; stroke-width:680; stroke-opacity:1;  stroke-linecap:round; stroke-linejoin:round;"
     id="g32" />
  <g
     style="fill:#000000;fill-opacity:0;stroke:#000000;stroke-width:680;stroke-linecap:round;stroke-linejoin:round;stroke-opacity:1"
     id="g34"
     transform="translate(-624.99996,2830.0009)">
    <path
       d="m 27373,48502 0,-120"
       id="path36"
       inkscape:connector-curvature="0" />
    <path
       d="m 28373,48502 0,-120"
       id="path38"
       inkscape:connector-curvature="0" />
    <path
       d="m 29373,48502 0,-120"
       id="path40"
       inkscape:connector-curvature="0" />
    <path
       d="m 30373,48502 0,-120"
       id="path42"
       inkscape:connector-curvature="0" />
    <path
       d="m 31373,48502 0,-120"
       id="path44"
       inkscape:connector-curvature="0" />
    <path
       d="m 32373,48502 0,-120"
       id="path46"
       inkscape:connector-curvature="0" />
    <path
       d="m 33373,48502 0,-120"
       id="path48"
       inkscape:connector-curvature="0" />
  </g>
  <g
     style="fill:#000000; fill-opacity:0.0;  stroke:#000000; stroke-width:0; stroke-opacity:1;  stroke-linecap:round; stroke-linejoin:round;"
     id="g50" />
  <g
     style="fill:#000000;fill-opacity:1;stroke:#000000;stroke-width:0;stroke-linecap:round;stroke-linejoin:round;stroke-opacity:1"
     id="g52"
     transform="translate(-624.99996,2830.0009)">
    <polyline
       style="fill-rule:evenodd"
       points="25270,45367 25270,46312 25396,46312 25396,45367 25270,45367 "
       id="polyline54" />
    <polyline
       style="fill-rule:evenodd"
       points="25506,45367 25506,46312 25632,46312 25632,45367 25506,45367 "
       id="polyline56" />
    <polyline
       style="fill-rule:evenodd"
       points="25742,45367 25742,46312 25868,46312 25868,45367 25742,45367 "
       id="polyline58" />
    <polyline
       style="fill-rule:evenodd"
       points="25978,45367 25978,46312 26104,46312 26104,45367 25978,45367 "
       id="polyline60" />
    <polyline
       style="fill-rule:evenodd"
       points="26215,45367 26215,46312 26341,46312 26341,45367 26215,45367 "
       id="polyline62" />
    <polyline
       style="fill-rule:evenodd"
       points="26451,45367 26451,46312 26577,46312 26577,45367 26451,45367 "
       id="polyline64" />
    <polyline
       style="fill-rule:evenodd"
       points="26687,45367 26687,46312 26813,46312 26813,45367 26687,45367 "
       id="polyline66" />
    <polyline
       style="fill-rule:evenodd"
       points="26923,45367 26923,46312 27049,46312 27049,45367 26923,45367 "
       id="polyline68" />
    <polyline
       style="fill-rule:evenodd"
       points="27159,45367 27159,46312 27285,46312 27285,45367 27159,45367 "
       id="polyline70" />
    <polyline
       style="fill-rule:evenodd"
       points="27396,45367 27396,46312 27522,46312 27522,45367 27396,45367 "
       id="polyline72" />
    <polyline
       style="fill-rule:evenodd"
       points="27632,45367 27632,46312 27758,46312 27758,45367 27632,45367 "
       id="polyline74" />
    <polyline
       style="fill-rule:evenodd"
       points="27868,45367 27868,46312 27994,46312 27994,45367 27868,45367 "
       id="polyline76" />
    <polyline
       style="fill-rule:evenodd"
       points="35412,48492 35727,48492 35727,48177 35412,48177 35412,48492 "
       id="polyline78" />
    <polyline
       style="fill-rule:evenodd"
       points="35412,47744 35727,47744 35727,47429 35412,47429 35412,47744 "
       id="polyline80" />
    <polyline
       style="fill-rule:evenodd"
       points="36199,48118 36514,48118 36514,47803 36199,47803 36199,48118 "
       id="polyline82" />
    <polyline
       style="fill-rule:evenodd"
       points="35848,49274 35848,48605 35493,48605 35493,49274 35848,49274 "
       id="polyline84" />
    <polyline
       style="fill-rule:evenodd"
       points="34706,49274 34706,48605 34351,48605 34351,49274 34706,49274 "
       id="polyline86" />
  </g>
  <g
     style="fill:#000000; fill-opacity:1.0;  stroke:#000000; stroke-width:125.984; stroke-opacity:1;  stroke-linecap:round; stroke-linejoin:round;"
     id="g88" />
  <g
     style="fill:#000000;fill-opacity:0;stroke:#000000;stroke-width:125.98400116;stroke-linecap:round;stroke-linejoin:round;stroke-opacity:1"
     id="g90"
     transform="translate(-624.99996,2830.0009)">
    <path
       d="m 24745,48442 0,-1160"
       id="path92"
       inkscape:connector-curvature="0" />
    <path
       d="m 24745,47282 -483,-483"
       id="path94"
       inkscape:connector-curvature="0" />
    <path
       d="m 24262,46799 0,-2749"
       id="path96"
       inkscape:connector-curvature="0" />
    <path
       d="m 24262,44050 31,-31"
       id="path98"
       inkscape:connector-curvature="0" />
    <path
       d="m 24293,44019 2481,0"
       id="path100"
       inkscape:connector-curvature="0" />
    <path
       d="m 26774,44019 214,214"
       id="path102"
       inkscape:connector-curvature="0" />
    <path
       d="m 26988,44233 0,399"
       id="path104"
       inkscape:connector-curvature="0" />
    <path
       d="m 26988,44632 -2,1"
       id="path106"
       inkscape:connector-curvature="0" />
  </g>
  <g
     style="fill:#000000;fill-opacity:0;stroke:#000000;stroke-width:98.42520142;stroke-linecap:round;stroke-linejoin:round;stroke-opacity:1"
     id="g108"
     transform="translate(-624.99996,2830.0009)">
    <path
       d="m 26986,45840 0,-1207"
       id="path110"
       inkscape:connector-curvature="0" />
    <path
       d="m 26986,45840 0,789"
       id="path112"
       inkscape:connector-curvature="0" />
    <path
       d="m 26986,46629 66,66"
       id="path114"
       inkscape:connector-curvature="0" />
    <path
       d="m 27052,46695 579,0"
       id="path116"
       inkscape:connector-curvature="0" />
    <path
       d="m 27631,46695 64,-65"
       id="path118"
       inkscape:connector-curvature="0" />
    <path
       d="m 27695,46630 0,-790"
       id="path120"
       inkscape:connector-curvature="0" />
  </g>
  <g
     style="fill:#000000;fill-opacity:0;stroke:#000000;stroke-width:125.98400116;stroke-linecap:round;stroke-linejoin:round;stroke-opacity:1"
     id="g122"
     transform="translate(-624.99996,2830.0009)">
    <path
       d="m 33370,47900 3,3"
       id="path124"
       inkscape:connector-curvature="0" />
    <path
       d="m 33373,47903 0,539"
       id="path126"
       inkscape:connector-curvature="0" />
    <path
       d="m 26373,48442 -1628,0"
       id="path128"
       inkscape:connector-curvature="0" />
    <path
       d="m 33370,47900 0,-1408"
       id="path130"
       inkscape:connector-curvature="0" />
    <path
       d="m 33370,46492 -262,-262"
       id="path132"
       inkscape:connector-curvature="0" />
    <path
       d="m 33108,46230 -4165,0"
       id="path134"
       inkscape:connector-curvature="0" />
    <path
       d="m 27960,44550 -139,138"
       id="path136"
       inkscape:connector-curvature="0" />
    <path
       d="m 28943,46230 -166,-166"
       id="path138"
       inkscape:connector-curvature="0" />
    <path
       d="m 28777,46064 0,-1397"
       id="path140"
       inkscape:connector-curvature="0" />
    <path
       d="m 28777,44667 -117,-117"
       id="path142"
       inkscape:connector-curvature="0" />
    <path
       d="m 28660,44550 -700,0"
       id="path144"
       inkscape:connector-curvature="0" />
  </g>
  <g
     style="fill:#000000;fill-opacity:0;stroke:#000000;stroke-width:98.42520142;stroke-linecap:round;stroke-linejoin:round;stroke-opacity:1"
     id="g146"
     transform="translate(-624.99996,2830.0009)">
    <path
       d="m 26750,45840 236,0"
       id="path148"
       inkscape:connector-curvature="0" />
    <path
       d="m 27695,45840 0,-1026"
       id="path150"
       inkscape:connector-curvature="0" />
    <path
       d="m 27695,44814 126,-126"
       id="path152"
       inkscape:connector-curvature="0" />
  </g>
  <g
     style="fill:#000000;fill-opacity:0;stroke:#000000;stroke-width:125.98400116;stroke-linecap:round;stroke-linejoin:round;stroke-opacity:1"
     id="g154"
     transform="translate(-624.99996,2830.0009)">
    <path
       d="m 35570,47586 -629,0"
       id="path156"
       inkscape:connector-curvature="0" />
    <path
       d="m 34941,47586 -96,97"
       id="path158"
       inkscape:connector-curvature="0" />
    <path
       d="m 34845,47683 0,38"
       id="path160"
       inkscape:connector-curvature="0" />
  </g>
  <g
     style="fill:#000000;fill-opacity:0;stroke:#000000;stroke-width:98.42520142;stroke-linecap:round;stroke-linejoin:round;stroke-opacity:1"
     id="g162"
     transform="translate(-624.99996,2830.0009)">
    <path
       d="m 34845,47975 0,-254"
       id="path164"
       inkscape:connector-curvature="0" />
    <path
       d="m 26041,45840 0,1249"
       id="path166"
       inkscape:connector-curvature="0" />
    <path
       d="m 26041,47089 218,218"
       id="path168"
       inkscape:connector-curvature="0" />
    <path
       d="m 29194,47307 676,676"
       id="path170"
       inkscape:connector-curvature="0" />
    <path
       d="m 26259,47307 2935,0"
       id="path172"
       inkscape:connector-curvature="0" />
    <path
       d="m 29870,47983 0,989"
       id="path174"
       inkscape:connector-curvature="0" />
    <path
       d="m 29870,48972 -103,103"
       id="path176"
       inkscape:connector-curvature="0" />
    <path
       d="m 29767,49075 0,197"
       id="path178"
       inkscape:connector-curvature="0" />
    <path
       d="m 29767,49272 128,128"
       id="path180"
       inkscape:connector-curvature="0" />
    <path
       d="m 29895,49400 5075,0"
       id="path182"
       inkscape:connector-curvature="0" />
    <path
       d="m 34970,49400 225,-225"
       id="path184"
       inkscape:connector-curvature="0" />
    <path
       d="m 35195,49175 0,-850"
       id="path186"
       inkscape:connector-curvature="0" />
    <path
       d="m 35195,48325 -350,-350"
       id="path188"
       inkscape:connector-curvature="0" />
    <path
       d="m 27222,44382 0,-67"
       id="path190"
       inkscape:connector-curvature="0" />
    <path
       d="m 27222,45840 0,-1458"
       id="path192"
       inkscape:connector-curvature="0" />
    <path
       d="m 27222,44382 0,-1231"
       id="path194"
       inkscape:connector-curvature="0" />
    <path
       d="m 29767,49075 -2317,0"
       id="path196"
       inkscape:connector-curvature="0" />
    <path
       d="m 24208,48604 -162,-162"
       id="path198"
       inkscape:connector-curvature="0" />
    <path
       d="m 24046,48442 -483,0"
       id="path200"
       inkscape:connector-curvature="0" />
    <path
       d="m 24208,48901 0,-297"
       id="path202"
       inkscape:connector-curvature="0" />
    <path
       d="m 24297,48990 -89,-89"
       id="path204"
       inkscape:connector-curvature="0" />
    <path
       d="m 25641,48990 -1344,0"
       id="path206"
       inkscape:connector-curvature="0" />
    <path
       d="m 25703,48928 -62,62"
       id="path208"
       inkscape:connector-curvature="0" />
    <path
       d="m 25724,48928 -21,0"
       id="path210"
       inkscape:connector-curvature="0" />
    <path
       d="m 25871,49075 -147,-147"
       id="path212"
       inkscape:connector-curvature="0" />
    <path
       d="m 27450,49075 -1579,0"
       id="path214"
       inkscape:connector-curvature="0" />
    <path
       d="m 27373,48998 0,-556"
       id="path216"
       inkscape:connector-curvature="0" />
    <path
       d="m 27450,49075 -77,-77"
       id="path218"
       inkscape:connector-curvature="0" />
    <path
       d="m 25569,45840 0,1467"
       id="path220"
       inkscape:connector-curvature="0" />
    <path
       d="m 25569,47307 184,184"
       id="path222"
       inkscape:connector-curvature="0" />
    <path
       d="m 25753,47491 3228,0"
       id="path224"
       inkscape:connector-curvature="0" />
    <path
       d="m 28981,47491 392,392"
       id="path226"
       inkscape:connector-curvature="0" />
    <path
       d="m 29373,47883 0,519"
       id="path228"
       inkscape:connector-curvature="0" />
  </g>
  <g
     style="fill:#000000;fill-opacity:0;stroke:#000000;stroke-width:125.98400116;stroke-linecap:round;stroke-linejoin:round;stroke-opacity:1"
     id="g230"
     transform="translate(-624.99996,2830.0009)">
    <path
       d="m 25660,44900 -961,0"
       id="path232"
       inkscape:connector-curvature="0" />
    <path
       d="m 25050,47017 0,380"
       id="path234"
       inkscape:connector-curvature="0" />
    <path
       d="m 24699,44900 -129,129"
       id="path236"
       inkscape:connector-curvature="0" />
    <path
       d="m 24570,45029 0,1508"
       id="path238"
       inkscape:connector-curvature="0" />
    <path
       d="m 24570,46537 480,480"
       id="path240"
       inkscape:connector-curvature="0" />
    <path
       d="m 25050,47397 38,38"
       id="path242"
       inkscape:connector-curvature="0" />
  </g>
  <g
     style="fill:#000000;fill-opacity:0;stroke:#000000;stroke-width:98.42520142;stroke-linecap:round;stroke-linejoin:round;stroke-opacity:1"
     id="g244"
     transform="translate(-624.99996,2830.0009)">
    <path
       d="m 28373,48442 0,-539"
       id="path246"
       inkscape:connector-curvature="0" />
    <path
       d="m 28373,47903 -3,-3"
       id="path248"
       inkscape:connector-curvature="0" />
    <path
       d="m 28250,47689 -2908,0"
       id="path250"
       inkscape:connector-curvature="0" />
    <path
       d="m 28370,47900 0,-91"
       id="path252"
       inkscape:connector-curvature="0" />
    <path
       d="m 28370,47809 -120,-120"
       id="path254"
       inkscape:connector-curvature="0" />
    <path
       d="m 25342,47689 -254,-254"
       id="path256"
       inkscape:connector-curvature="0" />
    <path
       d="m 25805,45840 0,-795"
       id="path258"
       inkscape:connector-curvature="0" />
    <path
       d="m 25805,45045 -145,-145"
       id="path260"
       inkscape:connector-curvature="0" />
    <path
       d="m 26278,45840 0,1027"
       id="path262"
       inkscape:connector-curvature="0" />
    <path
       d="m 26278,46867 249,249"
       id="path264"
       inkscape:connector-curvature="0" />
    <path
       d="m 26527,47116 4360,0"
       id="path266"
       inkscape:connector-curvature="0" />
    <path
       d="m 30887,47116 483,483"
       id="path268"
       inkscape:connector-curvature="0" />
    <path
       d="m 31370,47599 0,301"
       id="path270"
       inkscape:connector-curvature="0" />
    <path
       d="m 31370,47900 3,3"
       id="path272"
       inkscape:connector-curvature="0" />
    <path
       d="m 31373,47903 0,539"
       id="path274"
       inkscape:connector-curvature="0" />
    <path
       d="m 26514,45840 0,870"
       id="path276"
       inkscape:connector-curvature="0" />
    <path
       d="m 26514,46710 196,196"
       id="path278"
       inkscape:connector-curvature="0" />
    <path
       d="m 26710,46906 5497,0"
       id="path280"
       inkscape:connector-curvature="0" />
    <path
       d="m 32207,46906 163,163"
       id="path282"
       inkscape:connector-curvature="0" />
    <path
       d="m 32370,47069 0,831"
       id="path284"
       inkscape:connector-curvature="0" />
    <path
       d="m 32370,47900 3,3"
       id="path286"
       inkscape:connector-curvature="0" />
    <path
       d="m 32373,47903 0,539"
       id="path288"
       inkscape:connector-curvature="0" />
  </g>
  <g
     style="fill:#000000;fill-opacity:0;stroke:#000000;stroke-width:125.98400116;stroke-linecap:round;stroke-linejoin:round;stroke-opacity:1"
     id="g290"
     transform="translate(-624.99996,2830.0009)">
    <path
       d="m 30373,48442 0,573"
       id="path292"
       inkscape:connector-curvature="0" />
    <path
       d="m 30373,49015 112,112"
       id="path294"
       inkscape:connector-curvature="0" />
    <path
       d="m 30485,49127 4109,0"
       id="path296"
       inkscape:connector-curvature="0" />
    <path
       d="m 28110,44300 800,0"
       id="path298"
       inkscape:connector-curvature="0" />
    <path
       d="m 28910,44300 150,150"
       id="path300"
       inkscape:connector-curvature="0" />
    <path
       d="m 36356,47621 1,1"
       id="path302"
       inkscape:connector-curvature="0" />
    <path
       d="m 29060,44450 0,1345"
       id="path304"
       inkscape:connector-curvature="0" />
    <path
       d="m 29060,45795 137,137"
       id="path306"
       inkscape:connector-curvature="0" />
    <path
       d="m 35870,45932 486,486"
       id="path308"
       inkscape:connector-curvature="0" />
    <path
       d="m 29197,45932 6673,0"
       id="path310"
       inkscape:connector-curvature="0" />
    <path
       d="m 36356,46418 0,1203"
       id="path312"
       inkscape:connector-curvature="0" />
    <path
       d="m 36357,47622 0,339"
       id="path314"
       inkscape:connector-curvature="0" />
  </g>
  <g
     style="fill:#000000;fill-opacity:0;stroke:#000000;stroke-width:98.42520142;stroke-linecap:round;stroke-linejoin:round;stroke-opacity:1"
     id="g316"
     transform="translate(-624.99996,2830.0009)">
    <path
       d="m 27459,45840 0,-1310"
       id="path318"
       inkscape:connector-curvature="0" />
    <path
       d="m 27459,44530 126,-126"
       id="path320"
       inkscape:connector-curvature="0" />
  </g>
  <g
     style="fill:#000000;fill-opacity:0;stroke:#000000;stroke-width:125.98400116;stroke-linecap:round;stroke-linejoin:round;stroke-opacity:1"
     id="g322"
     transform="translate(-624.99996,2830.0009)">
    <path
       d="m 27690,44300 420,0"
       id="path324"
       inkscape:connector-curvature="0" />
    <path
       d="m 27585,44404 105,-104"
       id="path326"
       inkscape:connector-curvature="0" />
    <path
       d="m 28110,44300 -150,0"
       id="path328"
       inkscape:connector-curvature="0" />
    <path
       d="m 35570,48335 0,504"
       id="path330"
       inkscape:connector-curvature="0" />
    <path
       d="m 35570,48839 100,101"
       id="path332"
       inkscape:connector-curvature="0" />
  </g>
  <g
     style="fill:#000000;fill-opacity:1;stroke:#000000;stroke-width:100;stroke-linecap:round;stroke-linejoin:round;stroke-opacity:1"
     id="g334"
     transform="translate(-624.99996,2830.0009)">
    <polyline
       style="fill-rule:evenodd"
       points="33533,46328 33583,46403 33601,46492 33601,47887 33604,47903 33604,47925 33732,48011 33842,48176 33881,48370 33881,48513 33842,48707 33732,48872 33697,48895 34180,48895 34180,48605 34192,48543 34229,48485 34285,48447 34351,48433 34706,48433 34768,48445 34825,48482 34864,48538 34877,48605 34877,49274 34872,49302 35327,49302 35322,49274 35322,48634 35292,48615 35254,48559 35241,48492 35241,48177 35252,48115 35289,48058 35345,48019 35412,48006 35727,48006 35789,48017 35847,48054 35885,48110 35898,48177 35898,48443 35910,48445 35967,48482 36005,48538 36019,48605 36019,49274 36014,49302 36472,49302 36472,48289 36199,48289 36137,48278 36079,48241 36041,48185 36028,48118 36028,47803 36039,47741 36066,47699 35977,47699 35977,47794 35939,47886 35869,47956 35777,47994 35682,47994 35620,47931 35620,47636 35520,47636 35520,47931 35457,47994 35362,47994 35270,47956 35200,47886 35162,47794 35162,47699 35225,47636 35520,47636 35620,47636 35915,47636 35977,47699 36066,47699 36076,47683 36125,47650 36125,47626 36124,47621 36124,47379 35977,47379 35977,47474 35915,47536 35620,47536 35620,47241 35520,47241 35520,47536 35225,47536 35162,47474 35162,47379 35200,47287 35270,47217 35362,47179 35457,47179 35520,47241 35620,47241 35682,47179 35777,47179 35869,47217 35939,47287 35977,47379 36124,47379 36124,46513 35774,46163 33367,46163 33533,46328 "
       id="polyline336" />
    <polyline
       style="fill-rule:evenodd"
       points="23067,49302 29730,49302 29876,48991 29872,48554 29842,48707 29732,48872 29567,48982 29373,49021 29178,48982 29013,48872 28903,48707 28873,48553 28842,48707 28732,48872 28567,48982 28373,49021 28178,48982 28013,48872 27910,48718 27881,48801 27728,48973 27520,49073 27514,49074 27423,49027 27423,48492 27430,48492 27430,48392 27423,48392 27423,48384 27323,48384 27323,48392 27315,48392 27315,48492 27323,48492 27323,49027 27231,49074 27225,49073 27017,48973 26884,48824 26884,48842 26872,48904 26835,48961 26779,48999 26713,49013 26033,49013 25970,49001 25913,48964 25875,48908 25861,48842 25861,48673 25113,48673 25113,48756 25101,48819 25064,48876 25008,48914 24941,48928 24548,48928 24485,48916 24428,48879 24390,48823 24376,48756 24376,48554 24010,48554 24010,48806 23972,48898 23902,48968 23810,49006 23676,49006 23613,48944 23613,48492 23513,48492 23513,48944 23451,49006 23317,49006 23225,48968 23155,48898 23117,48806 23117,48554 23179,48492 23513,48492 23613,48492 23948,48492 24010,48554 24376,48554 24376,48127 24386,48077 24010,48077 24010,48329 23948,48392 23613,48392 23613,47939 23513,47939 23513,48392 23179,48392 23117,48329 23117,48077 23155,47985 23225,47915 23317,47877 23451,47877 23513,47939 23613,47939 23676,47877 23810,47877 23902,47915 23972,47985 24010,48077 24386,48077 24388,48064 24425,48007 24481,47969 24513,47962 24513,47377 24098,46962 24098,46962 24048,46887 24030,46799 24030,44050 24048,43961 24098,43886 24129,43855 24204,43805 24293,43787 26773,43787 26774,43787 26862,43805 26937,43855 27151,44069 27201,44144 27219,44233 27219,44487 27246,44508 27258,44447 27305,44377 27382,44300 27421,44241 27526,44136 27601,44086 27690,44068 28910,44068 28998,44086 29073,44136 29073,44136 29223,44286 29273,44361 29291,44450 29291,45699 29292,45700 35869,45700 35870,45700 35958,45718 36033,45768 36472,46207 36472,27717 23047,27717 23067,49302 "
       id="polyline338" />
    <polyline
       style="fill-rule:evenodd"
       points="29134,47337 29526,47729 29573,47799 29590,47882 29590,47883 29590,47916 29732,48011 29842,48176 29871,48323 29868,47333 29128,47333 29134,47337 "
       id="polyline340" />
  </g>
  <g
     style="fill:#FFFFFF; fill-opacity:1.0;  stroke:#FFFFFF; stroke-width:100; stroke-opacity:1;  stroke-linecap:round; stroke-linejoin:round;"
     id="g342" />
  <g
     style="fill:#ffffff;fill-opacity:1;stroke:#ffffff;stroke-width:0;stroke-linecap:round;stroke-linejoin:round;stroke-opacity:1"
     id="g344"
     transform="translate(-624.99996,2830.0009)">
    <circle
       cx="26373"
       cy="48442"
       r="200"
       id="circle346" />
  </g>
  <g
     style="fill:#FFFFFF; fill-opacity:1.0;  stroke:#FFFFFF; stroke-width:39.3701; stroke-opacity:1;  stroke-linecap:round; stroke-linejoin:round;"
     id="g348" />
  <g
     style="fill:#ffffff;fill-opacity:1;stroke:#ffffff;stroke-width:0;stroke-linecap:round;stroke-linejoin:round;stroke-opacity:1"
     id="g350"
     transform="translate(-624.99996,2830.0009)">
    <circle
       cx="27373"
       cy="48442"
       r="200"
       id="circle352" />
  </g>
  <g
     style="fill:#FFFFFF; fill-opacity:1.0;  stroke:#FFFFFF; stroke-width:39.3701; stroke-opacity:1;  stroke-linecap:round; stroke-linejoin:round;"
     id="g354" />
  <g
     style="fill:#ffffff;fill-opacity:1;stroke:#ffffff;stroke-width:0;stroke-linecap:round;stroke-linejoin:round;stroke-opacity:1"
     id="g356"
     transform="translate(-624.99996,2830.0009)">
    <circle
       cx="28373"
       cy="48442"
       r="200"
       id="circle358" />
  </g>
  <g
     style="fill:#FFFFFF; fill-opacity:1.0;  stroke:#FFFFFF; stroke-width:39.3701; stroke-opacity:1;  stroke-linecap:round; stroke-linejoin:round;"
     id="g360" />
  <g
     style="fill:#ffffff;fill-opacity:1;stroke:#ffffff;stroke-width:0;stroke-linecap:round;stroke-linejoin:round;stroke-opacity:1"
     id="g362"
     transform="translate(-624.99996,2830.0009)">
    <circle
       cx="29373"
       cy="48442"
       r="200"
       id="circle364" />
  </g>
  <g
     style="fill:#FFFFFF; fill-opacity:1.0;  stroke:#FFFFFF; stroke-width:39.3701; stroke-opacity:1;  stroke-linecap:round; stroke-linejoin:round;"
     id="g366" />
  <g
     style="fill:#ffffff;fill-opacity:1;stroke:#ffffff;stroke-width:0;stroke-linecap:round;stroke-linejoin:round;stroke-opacity:1"
     id="g368"
     transform="translate(-624.99996,2830.0009)">
    <circle
       cx="30373"
       cy="48442"
       r="200"
       id="circle370" />
  </g>
  <g
     style="fill:#FFFFFF; fill-opacity:1.0;  stroke:#FFFFFF; stroke-width:39.3701; stroke-opacity:1;  stroke-linecap:round; stroke-linejoin:round;"
     id="g372" />
  <g
     style="fill:#ffffff;fill-opacity:1;stroke:#ffffff;stroke-width:0;stroke-linecap:round;stroke-linejoin:round;stroke-opacity:1"
     id="g374"
     transform="translate(-624.99996,2830.0009)">
    <circle
       cx="31373"
       cy="48442"
       r="200"
       id="circle376" />
  </g>
  <g
     style="fill:#FFFFFF; fill-opacity:1.0;  stroke:#FFFFFF; stroke-width:39.3701; stroke-opacity:1;  stroke-linecap:round; stroke-linejoin:round;"
     id="g378" />
  <g
     style="fill:#ffffff;fill-opacity:1;stroke:#ffffff;stroke-width:0;stroke-linecap:round;stroke-linejoin:round;stroke-opacity:1"
     id="g380"
     transform="translate(-624.99996,2830.0009)">
    <circle
       cx="32373"
       cy="48442"
       r="200"
       id="circle382" />
  </g>
  <g
     style="fill:#FFFFFF; fill-opacity:1.0;  stroke:#FFFFFF; stroke-width:39.3701; stroke-opacity:1;  stroke-linecap:round; stroke-linejoin:round;"
     id="g384" />
  <g
     style="fill:#ffffff;fill-opacity:1;stroke:#ffffff;stroke-width:0;stroke-linecap:round;stroke-linejoin:round;stroke-opacity:1"
     id="g386"
     transform="translate(-624.99996,2830.0009)">
    <circle
       cx="33373"
       cy="48442"
       r="200"
       id="circle388" />
  </g>
  <g
     style="fill:#FFFFFF; fill-opacity:1.0;  stroke:#FFFFFF; stroke-width:39.3701; stroke-opacity:1;  stroke-linecap:round; stroke-linejoin:round;"
     id="g390" />
  <g
     style="fill:#000000; fill-opacity:1.0;  stroke:#000000; stroke-width:39.3701; stroke-opacity:1;  stroke-linecap:round; stroke-linejoin:round;"
     id="g392" />
</svg>
