<?xml version="1.0" standalone="no"?>
 <!DOCTYPE svg PUBLIC "-//W3C//DTD SVG 1.1//EN" 
 "http://www.w3.org/Graphics/SVG/1.1/DTD/svg11.dtd"> 
<svg xmlns="http://www.w3.org/2000/svg" version="1.1" 
    width="20cm" height="11.999cm" viewBox="0 0 78740 47240 ">
<title>SVG Picture created as Nokia1616_LCD-F.Cu.svg date 2017/02/04 23:10:24 </title>
  <desc>Picture generated by PCBNEW </desc>
<g style="fill:#000000; fill-opacity:1;stroke:#000000; stroke-opacity:1;
stroke-linecap:round; stroke-linejoin:round; "
 transform="translate(0 0) scale(1 1)">
</g>
<g style="fill:#000000; fill-opacity:0.0; 
stroke:#000000; stroke-width:-0.000393701; stroke-opacity:1; 
stroke-linecap:round; stroke-linejoin:round;">
</g>
<g style="fill:#000000; fill-opacity:0.0; 
stroke:#000000; stroke-width:59.0551; stroke-opacity:1; 
stroke-linecap:round; stroke-linejoin:round;">
<path d="M55040 9130
L55040 30530
" />
<path d="M68840 9130
L55040 9130
" />
<path d="M68840 30530
L68840 9130
" />
<path d="M55040 30530
L68840 30530
" />
</g>
<g style="fill:#000000; fill-opacity:0.0; 
stroke:#000000; stroke-width:0; stroke-opacity:1; 
stroke-linecap:round; stroke-linejoin:round;">
</g>
<g style="fill:#000000; fill-opacity:1.0; 
stroke:#000000; stroke-width:0; stroke-opacity:1; 
stroke-linecap:round; stroke-linejoin:round;">
<polyline style="fill-rule:evenodd;"
points="57450,26967
57450,27912
57576,27912
57576,26967
57450,26967
" /> 
<polyline style="fill-rule:evenodd;"
points="57686,26967
57686,27912
57812,27912
57812,26967
57686,26967
" /> 
<polyline style="fill-rule:evenodd;"
points="57922,26967
57922,27912
58048,27912
58048,26967
57922,26967
" /> 
<polyline style="fill-rule:evenodd;"
points="58158,26967
58158,27912
58284,27912
58284,26967
58158,26967
" /> 
<polyline style="fill-rule:evenodd;"
points="58395,26967
58395,27912
58521,27912
58521,26967
58395,26967
" /> 
<polyline style="fill-rule:evenodd;"
points="58631,26967
58631,27912
58757,27912
58757,26967
58631,26967
" /> 
<polyline style="fill-rule:evenodd;"
points="58867,26967
58867,27912
58993,27912
58993,26967
58867,26967
" /> 
<polyline style="fill-rule:evenodd;"
points="59103,26967
59103,27912
59229,27912
59229,26967
59103,26967
" /> 
<polyline style="fill-rule:evenodd;"
points="59339,26967
59339,27912
59465,27912
59465,26967
59339,26967
" /> 
<polyline style="fill-rule:evenodd;"
points="59576,26967
59576,27912
59702,27912
59702,26967
59576,26967
" /> 
<polyline style="fill-rule:evenodd;"
points="59812,26967
59812,27912
59938,27912
59938,26967
59812,26967
" /> 
<polyline style="fill-rule:evenodd;"
points="60048,26967
60048,27912
60174,27912
60174,26967
60048,26967
" /> 
<polyline style="fill-rule:evenodd;"
points="57127,29614
57127,28985
56733,28985
56733,29614
57127,29614
" /> 
<polyline style="fill-rule:evenodd;"
points="55946,29614
55946,28985
55552,28985
55552,29614
55946,29614
" /> 
<polyline style="fill-rule:evenodd;"
points="58210,29900
58890,29900
58890,29100
58210,29100
58210,29900
" /> 
</g>
<g style="fill:#000000; fill-opacity:1.0; 
stroke:#000000; stroke-width:680; stroke-opacity:1; 
stroke-linecap:round; stroke-linejoin:round;">
</g>
<g style="fill:#000000; fill-opacity:0.0; 
stroke:#000000; stroke-width:680; stroke-opacity:1; 
stroke-linecap:round; stroke-linejoin:round;">
<path d="M59550 29560
L59550 29440
" />
<path d="M60550 29560
L60550 29440
" />
<path d="M61550 29560
L61550 29440
" />
<path d="M62550 29560
L62550 29440
" />
<path d="M63550 29560
L63550 29440
" />
<path d="M64550 29560
L64550 29440
" />
<path d="M65550 29560
L65550 29440
" />
</g>
<g style="fill:#000000; fill-opacity:0.0; 
stroke:#000000; stroke-width:98.4252; stroke-opacity:1; 
stroke-linecap:round; stroke-linejoin:round;">
<path d="M58930 27440
L59166 27440
" />
<path d="M59166 27440
L59166 28010
" />
<path d="M59166 28010
L59196 28040
" />
<path d="M59196 28040
L59845 28040
" />
<path d="M59845 28040
L59875 28010
" />
<path d="M59875 28010
L59875 27440
" />
<path d="M59166 27440
L59166 26516
" />
<path d="M59166 26516
L59056 26406
" />
<path d="M59875 27440
L59875 26414
" />
<path d="M59875 26414
L60001 26288
" />
</g>
<g style="fill:#000000; fill-opacity:0.0; 
stroke:#000000; stroke-width:125.984; stroke-opacity:1; 
stroke-linecap:round; stroke-linejoin:round;">
<path d="M58945 26295
L57054 26295
" />
<path d="M59056 26406
L58945 26295
" />
<path d="M57054 26295
L56930 26419
" />
<path d="M56930 26419
L56930 28859
" />
<path d="M56930 28859
L56930 29300
" />
<path d="M58550 29500
L56950 29500
" />
<path d="M56950 29500
L56930 29480
" />
<path d="M56930 29480
L56930 29300
" />
<path d="M56930 29300
L56930 29300
" />
<path d="M65550 29500
L65550 28180
" />
<path d="M65550 28180
L65370 28000
" />
<path d="M65370 28000
L61190 28000
" />
<path d="M60990 26300
L60840 26150
" />
<path d="M61190 28000
L60990 27800
" />
<path d="M60990 27800
L60990 26300
" />
<path d="M60840 26150
L60140 26150
" />
<path d="M60140 26150
L60001 26288
" />
</g>
<g style="fill:#000000; fill-opacity:0.0; 
stroke:#000000; stroke-width:98.4252; stroke-opacity:1; 
stroke-linecap:round; stroke-linejoin:round;">
<path d="M58221 27440
L58221 28381
" />
<path d="M61872 28577
L62050 28755
" />
<path d="M58221 28381
L58417 28577
" />
<path d="M58417 28577
L61872 28577
" />
<path d="M62050 28755
L62050 30070
" />
<path d="M62050 30070
L61940 30180
" />
<path d="M61940 30180
L61500 30180
" />
<path d="M59402 26132
L59190 25920
" />
<path d="M59402 27440
L59402 26132
" />
<path d="M57749 27440
L57749 28629
" />
<path d="M57749 28629
L57875 28755
" />
<path d="M57875 28755
L61395 28755
" />
<path d="M61550 28910
L61550 29500
" />
<path d="M61395 28755
L61550 28910
" />
</g>
<g style="fill:#000000; fill-opacity:0.0; 
stroke:#000000; stroke-width:125.984; stroke-opacity:1; 
stroke-linecap:round; stroke-linejoin:round;">
<path d="M57570 28940
L57190 28560
" />
<path d="M57190 28560
L57190 26720
" />
<path d="M57190 26720
L57410 26500
" />
<path d="M57410 26500
L57840 26500
" />
</g>
<g style="fill:#000000; fill-opacity:0.0; 
stroke:#000000; stroke-width:98.4252; stroke-opacity:1; 
stroke-linecap:round; stroke-linejoin:round;">
<path d="M57985 27440
L57985 26645
" />
<path d="M57985 26645
L57840 26500
" />
<path d="M60550 29500
L60550 29060
" />
<path d="M60550 29060
L60430 28940
" />
<path d="M60430 28940
L57570 28940
" />
<path d="M58458 27440
L58458 28238
" />
<path d="M58458 28238
L58620 28400
" />
<path d="M63550 28520
L63550 29500
" />
<path d="M58620 28400
L63430 28400
" />
<path d="M63430 28400
L63550 28520
" />
<path d="M58694 27440
L58694 28074
" />
<path d="M58694 28074
L58842 28222
" />
<path d="M58842 28222
L64402 28222
" />
<path d="M64402 28222
L64550 28370
" />
<path d="M64550 28370
L64550 29500
" />
<path d="M59639 27440
L59639 26130
" />
<path d="M59639 26130
L59765 26004
" />
</g>
<g style="fill:#000000; fill-opacity:0.0; 
stroke:#000000; stroke-width:125.984; stroke-opacity:1; 
stroke-linecap:round; stroke-linejoin:round;">
<path d="M62550 29500
L62550 30150
" />
<path d="M61240 27700
L61240 26050
" />
<path d="M62550 30150
L62650 30250
" />
<path d="M66790 28070
L66515 27795
" />
<path d="M62650 30250
L66640 30250
" />
<path d="M66790 30100
L66790 28070
" />
<path d="M66640 30250
L66790 30100
" />
<path d="M61090 25900
L60290 25900
" />
<path d="M66515 27795
L61335 27795
" />
<path d="M61335 27795
L61240 27700
" />
<path d="M61240 26050
L61090 25900
" />
<path d="M59870 25900
L60290 25900
" />
<path d="M59765 26004
L59870 25900
" />
<path d="M60290 25900
L60140 25900
" />
</g>
<g style="fill:#000000; fill-opacity:1.0; 
stroke:#000000; stroke-width:100; stroke-opacity:1; 
stroke-linecap:round; stroke-linejoin:round;">
<polyline style="fill-rule:evenodd;"
points="55237,30332
61743,30332
62049,30076
62045,29634
62019,29765
61909,29930
61744,30040
61550,30079
61355,30040
61190,29930
61080,29765
61050,29611
61019,29765
60909,29930
60744,30040
60550,30079
60355,30040
60190,29930
60087,29776
60058,29859
59905,30031
59697,30131
59691,30132
59600,30085
59600,29550
59607,29550
59607,29450
59600,29450
59600,29442
59500,29442
59500,29450
59492,29450
59492,29550
59500,29550
59500,30085
59408,30132
59402,30131
59194,30031
59061,29882
59061,29900
59049,29962
59012,30019
58956,30057
58890,30071
58210,30071
58147,30059
58090,30022
58052,29966
58038,29900
58038,29731
57252,29731
57250,29734
57194,29772
57127,29786
56733,29786
56671,29774
56614,29737
56575,29681
56562,29614
56562,29412
56196,29412
56196,29664
56158,29756
56087,29826
55996,29864
55861,29864
55799,29802
55799,29350
55699,29350
55699,29802
55636,29864
55502,29864
55410,29826
55340,29756
55302,29664
55302,29412
55365,29350
55699,29350
55799,29350
56133,29350
56196,29412
56562,29412
56562,28985
56571,28935
56196,28935
56196,29187
56133,29250
55799,29250
55799,28797
55699,28797
55699,29250
55365,29250
55302,29187
55302,28935
55340,28843
55410,28773
55502,28735
55636,28735
55699,28797
55799,28797
55861,28735
55996,28735
56087,28773
56158,28843
56196,28935
56571,28935
56574,28922
56610,28865
56667,28827
56699,28820
56699,26419
56699,26419
56717,26331
56725,26318
56767,26256
56767,26256
56891,26131
56966,26081
57054,26064
58945,26064
58974,26070
59244,26070
59264,26074
59280,26086
59421,26239
59421,26130
59438,26047
59485,25977
59562,25900
59601,25841
59706,25736
59781,25686
59870,25668
61090,25668
61178,25686
61253,25736
61253,25736
61403,25886
61453,25961
61471,26050
61471,27564
66515,27564
66515,27564
66603,27581
66678,27631
66953,27906
67003,27981
67021,28070
67021,30100
67003,30188
66953,30263
66884,30332
68642,30332
68642,9327
55237,9327
55237,30332
" /> 
</g>
<g style="fill:#FFFFFF; fill-opacity:1.0; 
stroke:#FFFFFF; stroke-width:100; stroke-opacity:1; 
stroke-linecap:round; stroke-linejoin:round;">
</g>
<g style="fill:#FFFFFF; fill-opacity:1.0; 
stroke:#FFFFFF; stroke-width:0; stroke-opacity:1; 
stroke-linecap:round; stroke-linejoin:round;">
<circle cx="58550" cy="29500" r="200" /> 
</g>
<g style="fill:#FFFFFF; fill-opacity:1.0; 
stroke:#FFFFFF; stroke-width:39.3701; stroke-opacity:1; 
stroke-linecap:round; stroke-linejoin:round;">
</g>
<g style="fill:#FFFFFF; fill-opacity:1.0; 
stroke:#FFFFFF; stroke-width:0; stroke-opacity:1; 
stroke-linecap:round; stroke-linejoin:round;">
<circle cx="59550" cy="29500" r="200" /> 
</g>
<g style="fill:#FFFFFF; fill-opacity:1.0; 
stroke:#FFFFFF; stroke-width:39.3701; stroke-opacity:1; 
stroke-linecap:round; stroke-linejoin:round;">
</g>
<g style="fill:#FFFFFF; fill-opacity:1.0; 
stroke:#FFFFFF; stroke-width:0; stroke-opacity:1; 
stroke-linecap:round; stroke-linejoin:round;">
<circle cx="60550" cy="29500" r="200" /> 
</g>
<g style="fill:#FFFFFF; fill-opacity:1.0; 
stroke:#FFFFFF; stroke-width:39.3701; stroke-opacity:1; 
stroke-linecap:round; stroke-linejoin:round;">
</g>
<g style="fill:#FFFFFF; fill-opacity:1.0; 
stroke:#FFFFFF; stroke-width:0; stroke-opacity:1; 
stroke-linecap:round; stroke-linejoin:round;">
<circle cx="61550" cy="29500" r="200" /> 
</g>
<g style="fill:#FFFFFF; fill-opacity:1.0; 
stroke:#FFFFFF; stroke-width:39.3701; stroke-opacity:1; 
stroke-linecap:round; stroke-linejoin:round;">
</g>
<g style="fill:#FFFFFF; fill-opacity:1.0; 
stroke:#FFFFFF; stroke-width:0; stroke-opacity:1; 
stroke-linecap:round; stroke-linejoin:round;">
<circle cx="62550" cy="29500" r="200" /> 
</g>
<g style="fill:#FFFFFF; fill-opacity:1.0; 
stroke:#FFFFFF; stroke-width:39.3701; stroke-opacity:1; 
stroke-linecap:round; stroke-linejoin:round;">
</g>
<g style="fill:#FFFFFF; fill-opacity:1.0; 
stroke:#FFFFFF; stroke-width:0; stroke-opacity:1; 
stroke-linecap:round; stroke-linejoin:round;">
<circle cx="63550" cy="29500" r="200" /> 
</g>
<g style="fill:#FFFFFF; fill-opacity:1.0; 
stroke:#FFFFFF; stroke-width:39.3701; stroke-opacity:1; 
stroke-linecap:round; stroke-linejoin:round;">
</g>
<g style="fill:#FFFFFF; fill-opacity:1.0; 
stroke:#FFFFFF; stroke-width:0; stroke-opacity:1; 
stroke-linecap:round; stroke-linejoin:round;">
<circle cx="64550" cy="29500" r="200" /> 
</g>
<g style="fill:#FFFFFF; fill-opacity:1.0; 
stroke:#FFFFFF; stroke-width:39.3701; stroke-opacity:1; 
stroke-linecap:round; stroke-linejoin:round;">
</g>
<g style="fill:#FFFFFF; fill-opacity:1.0; 
stroke:#FFFFFF; stroke-width:0; stroke-opacity:1; 
stroke-linecap:round; stroke-linejoin:round;">
<circle cx="65550" cy="29500" r="200" /> 
</g>
<g style="fill:#FFFFFF; fill-opacity:1.0; 
stroke:#FFFFFF; stroke-width:39.3701; stroke-opacity:1; 
stroke-linecap:round; stroke-linejoin:round;">
</g>
<g style="fill:#000000; fill-opacity:1.0; 
stroke:#000000; stroke-width:39.3701; stroke-opacity:1; 
stroke-linecap:round; stroke-linejoin:round;">
</g> 
</svg>
