<?xml version="1.0" encoding="UTF-8" standalone="no"?>
<svg
   xmlns:dc="http://purl.org/dc/elements/1.1/"
   xmlns:cc="http://creativecommons.org/ns#"
   xmlns:rdf="http://www.w3.org/1999/02/22-rdf-syntax-ns#"
   xmlns:svg="http://www.w3.org/2000/svg"
   xmlns="http://www.w3.org/2000/svg"
   xmlns:sodipodi="http://sodipodi.sourceforge.net/DTD/sodipodi-0.dtd"
   xmlns:inkscape="http://www.inkscape.org/namespaces/inkscape"
   version="1.1"
   width="14.8006cm"
   height="21.0007cm"
   viewBox="0 0 58270 82680 "
   id="svg2"
   inkscape:version="0.91 r13725"
   sodipodi:docname="Nokia1616_LCD-F.Cu.svg">
  <metadata
     id="metadata546">
    <rdf:RDF>
      <cc:Work
         rdf:about="">
        <dc:format>image/svg+xml</dc:format>
        <dc:type
           rdf:resource="http://purl.org/dc/dcmitype/StillImage" />
      </cc:Work>
    </rdf:RDF>
  </metadata>
  <defs
     id="defs544" />
  <sodipodi:namedview
     pagecolor="#ffffff"
     bordercolor="#666666"
     borderopacity="1"
     objecttolerance="10"
     gridtolerance="10"
     guidetolerance="10"
     inkscape:pageopacity="0"
     inkscape:pageshadow="2"
     inkscape:window-width="1360"
     inkscape:window-height="722"
     id="namedview542"
     showgrid="false"
     inkscape:zoom="7.1763633"
     inkscape:cx="262.15512"
     inkscape:cy="308.92161"
     inkscape:window-x="0"
     inkscape:window-y="24"
     inkscape:window-maximized="1"
     inkscape:current-layer="svg2" />
  <title
     id="title4">SVG Picture created as Nokia1616_LCD-F.Cu.svg date 2017/04/06 17:25:28 </title>
  <desc
     id="desc6">Picture generated by PCBNEW </desc>
  <g
     style="fill:#000000;fill-opacity:1;stroke:#000000;stroke-linecap:round;stroke-linejoin:round;stroke-opacity:1"
     transform="translate(-634.99996,3590.0009)"
     id="g8" />
  <g
     style="fill:#000000;fill-opacity:0;stroke:#000000;stroke-width:-0.0003937;stroke-linecap:round;stroke-linejoin:round;stroke-opacity:1"
     id="g10"
     transform="translate(-634.99996,3590.0009)" />
  <g
     style="fill:#000000;fill-opacity:0;stroke:#000000;stroke-width:98.42520142;stroke-linecap:round;stroke-linejoin:round;stroke-opacity:1"
     id="g12"
     transform="translate(-634.99996,3590.0009)">
    <path
       d="m 23463,25971 0,394"
       id="path14"
       inkscape:connector-curvature="0" />
    <path
       d="m 23501,26121 112,-150"
       id="path16"
       inkscape:connector-curvature="0" />
    <path
       d="m 23613,26234 -150,-150"
       id="path18"
       inkscape:connector-curvature="0" />
    <path
       d="m 23951,25971 0,207 -19,37 -37,19 -75,0 -38,-19"
       id="path20"
       inkscape:connector-curvature="0" />
    <path
       d="m 23951,25990 -38,-19 -93,0 -38,19 -19,38 0,37 19,38 38,18 93,0 38,19"
       id="path22"
       inkscape:connector-curvature="0" />
    <path
       d="m 24138,25971 0,263"
       id="path24"
       inkscape:connector-curvature="0" />
    <path
       d="m 24138,26159 19,37 19,19 37,19 38,0"
       id="path26"
       inkscape:connector-curvature="0" />
    <path
       d="m 24382,25971 0,263"
       id="path28"
       inkscape:connector-curvature="0" />
    <path
       d="m 24382,26365 -19,-19 19,-18 19,18 -19,19 0,-37"
       id="path30"
       inkscape:connector-curvature="0" />
    <path
       d="m 24569,25971 0,394"
       id="path32"
       inkscape:connector-curvature="0" />
    <path
       d="m 24569,26215 38,19 75,0 37,-19 19,-19 19,-37 0,-113 -19,-37 -19,-19 -37,-19 -75,0 -38,19"
       id="path34"
       inkscape:connector-curvature="0" />
    <path
       d="m 25076,25990 -38,-19 -75,0 -37,19 -19,38 0,150 19,37 37,19 75,0 38,-19 18,-37 0,-38 -187,-37"
       id="path36"
       inkscape:connector-curvature="0" />
    <path
       d="m 34376,25971 0,263"
       id="path38"
       inkscape:connector-curvature="0" />
    <path
       d="m 34376,26196 19,19 37,19 56,0 38,-19 19,-37 0,-207"
       id="path40"
       inkscape:connector-curvature="0" />
    <path
       d="m 34545,26178 18,37 38,19 56,0 38,-19 18,-37 0,-207"
       id="path42"
       inkscape:connector-curvature="0" />
    <path
       d="m 35070,26234 0,-263"
       id="path44"
       inkscape:connector-curvature="0" />
    <path
       d="m 34901,26234 0,-206 19,-38 37,-19 56,0 38,19 19,19"
       id="path46"
       inkscape:connector-curvature="0" />
    <path
       d="m 35257,25971 0,263"
       id="path48"
       inkscape:connector-curvature="0" />
    <path
       d="m 35257,26159 19,37 19,19 37,19 38,0"
       id="path50"
       inkscape:connector-curvature="0" />
    <path
       d="m 35501,25971 0,263"
       id="path52"
       inkscape:connector-curvature="0" />
    <path
       d="m 35501,26365 -19,-19 19,-18 18,18 -18,19 0,-37"
       id="path54"
       inkscape:connector-curvature="0" />
    <path
       d="m 35857,26234 0,-263"
       id="path56"
       inkscape:connector-curvature="0" />
    <path
       d="m 35688,26234 0,-206 19,-38 37,-19 57,0 37,19 19,19"
       id="path58"
       inkscape:connector-curvature="0" />
    <path
       d="m 36044,25971 0,394"
       id="path60"
       inkscape:connector-curvature="0" />
    <path
       d="m 36082,26121 112,-150"
       id="path62"
       inkscape:connector-curvature="0" />
    <path
       d="m 36194,26234 -150,-150"
       id="path64"
       inkscape:connector-curvature="0" />
    <path
       d="m 36363,25971 0,263"
       id="path66"
       inkscape:connector-curvature="0" />
    <path
       d="m 36363,26365 -19,-19 19,-18 19,18 -19,19 0,-37"
       id="path68"
       inkscape:connector-curvature="0" />
  </g>
  <g
     style="fill:#000000;fill-opacity:0;stroke:#000000;stroke-width:59.05509949;stroke-linecap:round;stroke-linejoin:round;stroke-opacity:1"
     id="g70"
     transform="translate(-634.99996,3590.0009)">
    <path
       d="m 22770,25500 0,24500"
       id="path72"
       inkscape:connector-curvature="0" />
    <path
       d="m 36770,25500 -14000,0"
       id="path74"
       inkscape:connector-curvature="0" />
    <path
       d="m 36770,50000 0,-24500"
       id="path76"
       inkscape:connector-curvature="0" />
    <path
       d="m 22770,50000 14000,0"
       id="path78"
       inkscape:connector-curvature="0" />
  </g>
  <g
     style="fill:#000000;fill-opacity:0;stroke:#000000;stroke-width:0;stroke-linecap:round;stroke-linejoin:round;stroke-opacity:1"
     id="g80"
     transform="translate(-634.99996,3590.0009)" />
  <g
     style="fill:#000000;fill-opacity:1;stroke:#000000;stroke-width:0;stroke-linecap:round;stroke-linejoin:round;stroke-opacity:1"
     id="g82"
     transform="translate(-634.99996,3590.0009)">
    <polyline
       style="fill-rule:evenodd"
       points="24507,48764 24507,48135 24113,48135 24113,48764 24507,48764 "
       id="polyline84" />
    <polyline
       style="fill-rule:evenodd"
       points="23326,48764 23326,48135 22932,48135 22932,48764 23326,48764 "
       id="polyline86" />
    <polyline
       style="fill-rule:evenodd"
       points="25270,45367 25270,46312 25396,46312 25396,45367 25270,45367 "
       id="polyline88" />
    <polyline
       style="fill-rule:evenodd"
       points="25506,45367 25506,46312 25632,46312 25632,45367 25506,45367 "
       id="polyline90" />
    <polyline
       style="fill-rule:evenodd"
       points="25742,45367 25742,46312 25868,46312 25868,45367 25742,45367 "
       id="polyline92" />
    <polyline
       style="fill-rule:evenodd"
       points="25978,45367 25978,46312 26104,46312 26104,45367 25978,45367 "
       id="polyline94" />
    <polyline
       style="fill-rule:evenodd"
       points="26215,45367 26215,46312 26341,46312 26341,45367 26215,45367 "
       id="polyline96" />
    <polyline
       style="fill-rule:evenodd"
       points="26451,45367 26451,46312 26577,46312 26577,45367 26451,45367 "
       id="polyline98" />
    <polyline
       style="fill-rule:evenodd"
       points="26687,45367 26687,46312 26813,46312 26813,45367 26687,45367 "
       id="polyline100" />
    <polyline
       style="fill-rule:evenodd"
       points="26923,45367 26923,46312 27049,46312 27049,45367 26923,45367 "
       id="polyline102" />
    <polyline
       style="fill-rule:evenodd"
       points="27159,45367 27159,46312 27285,46312 27285,45367 27159,45367 "
       id="polyline104" />
    <polyline
       style="fill-rule:evenodd"
       points="27396,45367 27396,46312 27522,46312 27522,45367 27396,45367 "
       id="polyline106" />
    <polyline
       style="fill-rule:evenodd"
       points="27632,45367 27632,46312 27758,46312 27758,45367 27632,45367 "
       id="polyline108" />
    <polyline
       style="fill-rule:evenodd"
       points="27868,45367 27868,46312 27994,46312 27994,45367 27868,45367 "
       id="polyline110" />
    <polyline
       style="fill-rule:evenodd"
       points="34768,48331 35083,48331 35083,48016 34768,48016 34768,48331 "
       id="polyline112" />
    <polyline
       style="fill-rule:evenodd"
       points="34768,47583 35083,47583 35083,47268 34768,47268 34768,47583 "
       id="polyline114" />
    <polyline
       style="fill-rule:evenodd"
       points="35555,47957 35870,47957 35870,47642 35555,47642 35555,47957 "
       id="polyline116" />
    <polyline
       style="fill-rule:evenodd"
       points="35868,49584 35868,48915 35513,48915 35513,49584 35868,49584 "
       id="polyline118" />
    <polyline
       style="fill-rule:evenodd"
       points="34726,49584 34726,48915 34371,48915 34371,49584 34726,49584 "
       id="polyline120" />
    <polyline
       style="fill-rule:evenodd"
       points="25979,48875 26766,48875 26766,48008 25979,48008 25979,48875 "
       id="polyline122" />
  </g>
  <g
     style="fill:#000000;fill-opacity:1;stroke:#000000;stroke-width:866.14202881;stroke-linecap:round;stroke-linejoin:round;stroke-opacity:1"
     id="g124"
     transform="translate(-634.99996,3590.0009)" />
  <g
     style="fill:#000000;fill-opacity:0;stroke:#000000;stroke-width:866.14202881;stroke-linecap:round;stroke-linejoin:round;stroke-opacity:1"
     id="g126"
     transform="translate(-634.99996,3590.0009)">
    <path
       d="m 27373,48481 0,-79"
       id="path128"
       inkscape:connector-curvature="0" />
    <path
       d="m 28373,48481 0,-79"
       id="path130"
       inkscape:connector-curvature="0" />
    <path
       d="m 29373,48481 0,-79"
       id="path132"
       inkscape:connector-curvature="0" />
    <path
       d="m 30373,48481 0,-79"
       id="path134"
       inkscape:connector-curvature="0" />
    <path
       d="m 31373,48481 0,-79"
       id="path136"
       inkscape:connector-curvature="0" />
    <path
       d="m 32373,48481 0,-79"
       id="path138"
       inkscape:connector-curvature="0" />
    <path
       d="m 33373,48481 0,-79"
       id="path140"
       inkscape:connector-curvature="0" />
  </g>
  <g
     style="fill:#000000;fill-opacity:0;stroke:#000000;stroke-width:0;stroke-linecap:round;stroke-linejoin:round;stroke-opacity:1"
     id="g142"
     transform="translate(-634.99996,3590.0009)" />
  <g
     style="fill:#000000;fill-opacity:1;stroke:#000000;stroke-width:0;stroke-linecap:round;stroke-linejoin:round;stroke-opacity:1"
     id="g144"
     transform="translate(-634.99996,3590.0009)">
    <polyline
       style="fill-rule:evenodd"
       points="33768,26056 32981,26056 32981,26923 33768,26923 33768,26056 "
       id="polyline146" />
  </g>
  <g
     style="fill:#000000;fill-opacity:1;stroke:#000000;stroke-width:866.14202881;stroke-linecap:round;stroke-linejoin:round;stroke-opacity:1"
     id="g148"
     transform="translate(-634.99996,3590.0009)" />
  <g
     style="fill:#000000;fill-opacity:0;stroke:#000000;stroke-width:866.14202881;stroke-linecap:round;stroke-linejoin:round;stroke-opacity:1"
     id="g150"
     transform="translate(-634.99996,3590.0009)">
    <path
       d="m 32375,26450 0,79"
       id="path152"
       inkscape:connector-curvature="0" />
    <path
       d="m 31375,26450 0,79"
       id="path154"
       inkscape:connector-curvature="0" />
    <path
       d="m 30375,26450 0,79"
       id="path156"
       inkscape:connector-curvature="0" />
    <path
       d="m 29375,26450 0,79"
       id="path158"
       inkscape:connector-curvature="0" />
    <path
       d="m 28375,26450 0,79"
       id="path160"
       inkscape:connector-curvature="0" />
    <path
       d="m 27375,26450 0,79"
       id="path162"
       inkscape:connector-curvature="0" />
    <path
       d="m 26375,26450 0,79"
       id="path164"
       inkscape:connector-curvature="0" />
  </g>
  <g
     style="fill:#000000;fill-opacity:1;stroke:#000000;stroke-width:0;stroke-linecap:round;stroke-linejoin:round;stroke-opacity:1"
     id="g166"
     transform="translate(-634.99996,3590.0009)">
    <circle
       cx="25170"
       cy="47350"
       r="255.90601"
       id="circle168" />
  </g>
  <g
     style="fill:#000000;fill-opacity:1;stroke:#000000;stroke-width:39.37009811;stroke-linecap:round;stroke-linejoin:round;stroke-opacity:1"
     id="g170"
     transform="translate(-634.99996,3590.0009)" />
  <g
     style="fill:#000000;fill-opacity:1;stroke:#000000;stroke-width:125.98400116;stroke-linecap:round;stroke-linejoin:round;stroke-opacity:1"
     id="g172"
     transform="translate(-634.99996,3590.0009)" />
  <g
     style="fill:#000000;fill-opacity:0;stroke:#000000;stroke-width:125.98400116;stroke-linecap:round;stroke-linejoin:round;stroke-opacity:1"
     id="g174"
     transform="translate(-634.99996,3590.0009)">
    <path
       d="m 26050,44019 -1564,0"
       id="path176"
       inkscape:connector-curvature="0" />
    <path
       d="m 24486,44019 -224,224"
       id="path178"
       inkscape:connector-curvature="0" />
    <path
       d="m 24262,44243 0,15"
       id="path180"
       inkscape:connector-curvature="0" />
    <path
       d="m 24262,44258 -442,442"
       id="path182"
       inkscape:connector-curvature="0" />
    <path
       d="m 23820,44700 0,3650"
       id="path184"
       inkscape:connector-curvature="0" />
    <path
       d="m 23820,48350 100,100"
       id="path186"
       inkscape:connector-curvature="0" />
    <path
       d="m 23920,48450 390,0"
       id="path188"
       inkscape:connector-curvature="0" />
    <path
       d="m 24745,48442 -8,8"
       id="path190"
       inkscape:connector-curvature="0" />
    <path
       d="m 24737,48450 -427,0"
       id="path192"
       inkscape:connector-curvature="0" />
    <path
       d="m 26050,44019 220,0"
       id="path194"
       inkscape:connector-curvature="0" />
    <path
       d="m 26050,44019 61,0"
       id="path196"
       inkscape:connector-curvature="0" />
    <path
       d="m 26530,44019 244,0"
       id="path198"
       inkscape:connector-curvature="0" />
    <path
       d="m 26270,44019 260,0"
       id="path200"
       inkscape:connector-curvature="0" />
    <path
       d="m 26530,44019 -101,0"
       id="path202"
       inkscape:connector-curvature="0" />
    <path
       d="m 26774,44019 214,214"
       id="path204"
       inkscape:connector-curvature="0" />
    <path
       d="m 26988,44233 0,399"
       id="path206"
       inkscape:connector-curvature="0" />
    <path
       d="m 26988,44632 -2,1"
       id="path208"
       inkscape:connector-curvature="0" />
  </g>
  <g
     style="fill:#000000;fill-opacity:0;stroke:#000000;stroke-width:98.42520142;stroke-linecap:round;stroke-linejoin:round;stroke-opacity:1"
     id="g210"
     transform="translate(-634.99996,3590.0009)">
    <path
       d="m 26986,45840 0,-1207"
       id="path212"
       inkscape:connector-curvature="0" />
  </g>
  <g
     style="fill:#000000;fill-opacity:0;stroke:#000000;stroke-width:125.98400116;stroke-linecap:round;stroke-linejoin:round;stroke-opacity:1"
     id="g214"
     transform="translate(-634.99996,3590.0009)">
    <path
       d="m 26373,48442 -1628,0"
       id="path216"
       inkscape:connector-curvature="0" />
  </g>
  <g
     style="fill:#000000;fill-opacity:0;stroke:#000000;stroke-width:98.42520142;stroke-linecap:round;stroke-linejoin:round;stroke-opacity:1"
     id="g218"
     transform="translate(-634.99996,3590.0009)">
    <path
       d="m 26750,45840 236,0"
       id="path220"
       inkscape:connector-curvature="0" />
    <path
       d="m 25425,47094 -255,256"
       id="path222"
       inkscape:connector-curvature="0" />
    <path
       d="m 26041,45840 0,638"
       id="path224"
       inkscape:connector-curvature="0" />
    <path
       d="m 26041,46478 -616,616"
       id="path226"
       inkscape:connector-curvature="0" />
    <path
       d="m 27450,49075 -80,80"
       id="path228"
       inkscape:connector-curvature="0" />
    <path
       d="m 27370,49155 -4145,0"
       id="path230"
       inkscape:connector-curvature="0" />
    <path
       d="m 23225,49155 -96,-96"
       id="path232"
       inkscape:connector-curvature="0" />
    <path
       d="m 23129,49059 0,-609"
       id="path234"
       inkscape:connector-curvature="0" />
    <path
       d="m 29792,49050 -100,100"
       id="path236"
       inkscape:connector-curvature="0" />
    <path
       d="m 29692,49150 -2167,0"
       id="path238"
       inkscape:connector-curvature="0" />
    <path
       d="m 27525,49150 -75,-75"
       id="path240"
       inkscape:connector-curvature="0" />
  </g>
  <g
     style="fill:#000000;fill-opacity:0;stroke:#000000;stroke-width:125.98400116;stroke-linecap:round;stroke-linejoin:round;stroke-opacity:1"
     id="g242"
     transform="translate(-634.99996,3590.0009)">
    <path
       d="m 36480,49735 0,-280"
       id="path244"
       inkscape:connector-curvature="0" />
    <path
       d="m 36415,49800 65,-65"
       id="path246"
       inkscape:connector-curvature="0" />
    <path
       d="m 35070,49800 1345,0"
       id="path248"
       inkscape:connector-curvature="0" />
    <path
       d="m 29970,49800 -178,-178"
       id="path250"
       inkscape:connector-curvature="0" />
    <path
       d="m 29792,49622 0,-572"
       id="path252"
       inkscape:connector-curvature="0" />
    <path
       d="m 35070,49800 -5100,0"
       id="path254"
       inkscape:connector-curvature="0" />
    <path
       d="m 35120,49750 -50,50"
       id="path256"
       inkscape:connector-curvature="0" />
    <path
       d="m 35120,48800 0,950"
       id="path258"
       inkscape:connector-curvature="0" />
    <path
       d="m 34970,48650 150,150"
       id="path260"
       inkscape:connector-curvature="0" />
    <path
       d="m 34570,48650 400,0"
       id="path262"
       inkscape:connector-curvature="0" />
    <path
       d="m 34220,48300 350,350"
       id="path264"
       inkscape:connector-curvature="0" />
    <path
       d="m 34220,47450 0,850"
       id="path266"
       inkscape:connector-curvature="0" />
    <path
       d="m 34244,47425 -24,25"
       id="path268"
       inkscape:connector-curvature="0" />
    <path
       d="m 34926,47425 -682,0"
       id="path270"
       inkscape:connector-curvature="0" />
  </g>
  <g
     style="fill:#000000;fill-opacity:0;stroke:#000000;stroke-width:98.42520142;stroke-linecap:round;stroke-linejoin:round;stroke-opacity:1"
     id="g272"
     transform="translate(-634.99996,3590.0009)">
    <path
       d="m 27222,44382 0,-67"
       id="path274"
       inkscape:connector-curvature="0" />
    <path
       d="m 27222,45840 0,-1458"
       id="path276"
       inkscape:connector-curvature="0" />
    <path
       d="m 27222,44382 0,-1231"
       id="path278"
       inkscape:connector-curvature="0" />
    <path
       d="m 27373,48998 0,-556"
       id="path280"
       inkscape:connector-curvature="0" />
    <path
       d="m 27450,49075 -77,-77"
       id="path282"
       inkscape:connector-curvature="0" />
    <path
       d="m 29373,48402 0,-519"
       id="path284"
       inkscape:connector-curvature="0" />
    <path
       d="m 29373,47883 -533,-533"
       id="path286"
       inkscape:connector-curvature="0" />
    <path
       d="m 28840,47350 -2920,0"
       id="path288"
       inkscape:connector-curvature="0" />
    <path
       d="m 25280,46700 289,-290"
       id="path290"
       inkscape:connector-curvature="0" />
    <path
       d="m 25920,47350 -400,400"
       id="path292"
       inkscape:connector-curvature="0" />
    <path
       d="m 25520,47750 -600,0"
       id="path294"
       inkscape:connector-curvature="0" />
    <path
       d="m 24920,47750 -250,-250"
       id="path296"
       inkscape:connector-curvature="0" />
    <path
       d="m 24670,47500 0,-600"
       id="path298"
       inkscape:connector-curvature="0" />
    <path
       d="m 24670,46900 200,-200"
       id="path300"
       inkscape:connector-curvature="0" />
    <path
       d="m 24870,46700 410,0"
       id="path302"
       inkscape:connector-curvature="0" />
    <path
       d="m 25569,46410 0,-570"
       id="path304"
       inkscape:connector-curvature="0" />
  </g>
  <g
     style="fill:#000000;fill-opacity:0;stroke:#000000;stroke-width:125.98400116;stroke-linecap:round;stroke-linejoin:round;stroke-opacity:1"
     id="g306"
     transform="translate(-634.99996,3590.0009)">
    <path
       d="m 25660,44900 -961,0"
       id="path308"
       inkscape:connector-curvature="0" />
    <path
       d="m 24699,44900 -329,329"
       id="path310"
       inkscape:connector-curvature="0" />
    <path
       d="m 24370,45229 0,2371"
       id="path312"
       inkscape:connector-curvature="0" />
    <path
       d="m 24370,47600 400,400"
       id="path314"
       inkscape:connector-curvature="0" />
    <path
       d="m 24770,48000 800,0"
       id="path316"
       inkscape:connector-curvature="0" />
    <path
       d="m 25570,48000 150,-150"
       id="path318"
       inkscape:connector-curvature="0" />
  </g>
  <g
     style="fill:#000000;fill-opacity:0;stroke:#000000;stroke-width:98.42520142;stroke-linecap:round;stroke-linejoin:round;stroke-opacity:1"
     id="g320"
     transform="translate(-634.99996,3590.0009)">
    <path
       d="m 28373,48442 0,-689"
       id="path322"
       inkscape:connector-curvature="0" />
    <path
       d="m 28373,47753 -203,-203"
       id="path324"
       inkscape:connector-curvature="0" />
    <path
       d="m 28170,47550 -2150,0"
       id="path326"
       inkscape:connector-curvature="0" />
    <path
       d="m 26020,47550 -300,300"
       id="path328"
       inkscape:connector-curvature="0" />
    <path
       d="m 25805,45840 0,-795"
       id="path330"
       inkscape:connector-curvature="0" />
    <path
       d="m 25805,45045 -145,-145"
       id="path332"
       inkscape:connector-curvature="0" />
    <path
       d="m 26278,45840 0,1168"
       id="path334"
       inkscape:connector-curvature="0" />
    <path
       d="m 26386,47116 4865,0"
       id="path336"
       inkscape:connector-curvature="0" />
    <path
       d="m 26278,47008 108,108"
       id="path338"
       inkscape:connector-curvature="0" />
    <path
       d="m 31251,47116 122,122"
       id="path340"
       inkscape:connector-curvature="0" />
    <path
       d="m 31373,47238 0,1204"
       id="path342"
       inkscape:connector-curvature="0" />
    <path
       d="m 26514,45840 0,954"
       id="path344"
       inkscape:connector-curvature="0" />
    <path
       d="m 26514,46794 112,112"
       id="path346"
       inkscape:connector-curvature="0" />
    <path
       d="m 26626,46906 5590,0"
       id="path348"
       inkscape:connector-curvature="0" />
    <path
       d="m 32216,46906 157,157"
       id="path350"
       inkscape:connector-curvature="0" />
    <path
       d="m 32373,47063 0,1379"
       id="path352"
       inkscape:connector-curvature="0" />
  </g>
  <g
     style="fill:#000000;fill-opacity:0;stroke:#000000;stroke-width:125.98400116;stroke-linecap:round;stroke-linejoin:round;stroke-opacity:1"
     id="g354"
     transform="translate(-634.99996,3590.0009)">
    <path
       d="m 34549,49300 -4074,0"
       id="path356"
       inkscape:connector-curvature="0" />
    <path
       d="m 30475,49300 -102,-102"
       id="path358"
       inkscape:connector-curvature="0" />
    <path
       d="m 30373,49198 0,-756"
       id="path360"
       inkscape:connector-curvature="0" />
    <path
       d="m 28110,44300 800,0"
       id="path362"
       inkscape:connector-curvature="0" />
    <path
       d="m 29197,45932 6673,0"
       id="path364"
       inkscape:connector-curvature="0" />
    <path
       d="m 28910,44300 150,150"
       id="path366"
       inkscape:connector-curvature="0" />
    <path
       d="m 29060,44450 0,1345"
       id="path368"
       inkscape:connector-curvature="0" />
    <path
       d="m 29060,45795 137,137"
       id="path370"
       inkscape:connector-curvature="0" />
    <path
       d="m 36070,46132 0,1518"
       id="path372"
       inkscape:connector-curvature="0" />
    <path
       d="m 35870,45932 200,200"
       id="path374"
       inkscape:connector-curvature="0" />
    <path
       d="m 36070,47650 -150,150"
       id="path376"
       inkscape:connector-curvature="0" />
    <path
       d="m 35920,47800 -207,0"
       id="path378"
       inkscape:connector-curvature="0" />
  </g>
  <g
     style="fill:#000000;fill-opacity:0;stroke:#000000;stroke-width:98.42520142;stroke-linecap:round;stroke-linejoin:round;stroke-opacity:1"
     id="g380"
     transform="translate(-634.99996,3590.0009)">
    <path
       d="m 27459,45840 0,-1310"
       id="path382"
       inkscape:connector-curvature="0" />
    <path
       d="m 27459,44530 126,-126"
       id="path384"
       inkscape:connector-curvature="0" />
  </g>
  <g
     style="fill:#000000;fill-opacity:0;stroke:#000000;stroke-width:125.98400116;stroke-linecap:round;stroke-linejoin:round;stroke-opacity:1"
     id="g386"
     transform="translate(-634.99996,3590.0009)">
    <path
       d="m 27690,44300 420,0"
       id="path388"
       inkscape:connector-curvature="0" />
    <path
       d="m 27585,44404 105,-104"
       id="path390"
       inkscape:connector-curvature="0" />
    <path
       d="m 28110,44300 -150,0"
       id="path392"
       inkscape:connector-curvature="0" />
    <path
       d="m 34926,48174 283,0"
       id="path394"
       inkscape:connector-curvature="0" />
    <path
       d="m 35209,48174 481,481"
       id="path396"
       inkscape:connector-curvature="0" />
    <path
       d="m 35690,48839 0,461"
       id="path398"
       inkscape:connector-curvature="0" />
    <path
       d="m 35690,48655 0,184"
       id="path400"
       inkscape:connector-curvature="0" />
    <path
       d="m 33370,47900 3,3"
       id="path402"
       inkscape:connector-curvature="0" />
    <path
       d="m 33373,47903 0,539"
       id="path404"
       inkscape:connector-curvature="0" />
    <path
       d="m 33370,47900 0,-1408"
       id="path406"
       inkscape:connector-curvature="0" />
    <path
       d="m 33370,46492 -262,-262"
       id="path408"
       inkscape:connector-curvature="0" />
    <path
       d="m 33108,46230 -4165,0"
       id="path410"
       inkscape:connector-curvature="0" />
    <path
       d="m 27960,44550 -139,138"
       id="path412"
       inkscape:connector-curvature="0" />
    <path
       d="m 28943,46230 -166,-166"
       id="path414"
       inkscape:connector-curvature="0" />
    <path
       d="m 28777,46064 0,-1397"
       id="path416"
       inkscape:connector-curvature="0" />
    <path
       d="m 28777,44667 -117,-117"
       id="path418"
       inkscape:connector-curvature="0" />
    <path
       d="m 28660,44550 -700,0"
       id="path420"
       inkscape:connector-curvature="0" />
  </g>
  <g
     style="fill:#000000;fill-opacity:0;stroke:#000000;stroke-width:98.42520142;stroke-linecap:round;stroke-linejoin:round;stroke-opacity:1"
     id="g422"
     transform="translate(-634.99996,3590.0009)">
    <path
       d="m 27695,45840 0,-1026"
       id="path424"
       inkscape:connector-curvature="0" />
    <path
       d="m 27695,44814 126,-126"
       id="path426"
       inkscape:connector-curvature="0" />
  </g>
  <g
     style="fill:#000000;fill-opacity:1;stroke:#000000;stroke-width:100;stroke-linecap:round;stroke-linejoin:round;stroke-opacity:1"
     id="g428"
     transform="translate(-634.99996,3590.0009)">
    <polyline
       style="fill-rule:evenodd"
       points="33589,46272 33656,46373 33679,46492 33679,47791 33853,47907 34001,48128 34052,48388 34052,48495 34001,48755 33853,48976 33832,48990 34120,48990 34120,48915 34137,48823 34191,48739 34274,48683 34371,48663 34726,48663 34817,48680 34901,48734 34958,48817 34977,48915 34977,49584 34960,49676 34930,49723 35309,49723 35281,49682 35262,49584 35262,48915 35279,48823 35333,48739 35335,48738 35164,48566 35083,48583 34768,48583 34677,48565 34593,48511 34536,48429 34516,48331 34516,48016 34534,47925 34588,47841 34644,47802 34626,47795 34556,47725 34518,47633 34518,47538 34581,47475 34876,47475 34876,47483 34976,47483 34976,47475 35271,47475 35330,47535 35375,47467 35457,47410 35555,47390 35760,47390 35760,47218 35333,47218 35333,47313 35271,47375 34976,47375 34976,47080 34876,47080 34876,47375 34581,47375 34518,47313 34518,47218 34556,47126 34626,47056 34718,47018 34813,47018 34876,47080 34976,47080 35038,47018 35133,47018 35225,47056 35295,47126 35333,47218 35760,47218 35760,46260 35741,46241 33558,46241 33589,46272 "
       id="polyline430" />
    <polyline
       style="fill-rule:evenodd"
       points="32635,25808 32783,25907 32800,25881 32883,25825 32981,25805 33768,25805 33860,25822 33944,25876 34000,25959 34020,26056 34020,26923 34003,27014 33949,27098 33866,27154 33768,27174 32981,27174 32889,27157 32805,27103 32784,27072 32635,27171 32375,27223 32114,27171 31894,27024 31875,26995 31855,27024 31635,27171 31375,27223 31114,27171 30894,27024 30875,26995 30855,27024 30635,27171 30375,27223 30114,27171 29894,27024 29875,26995 29855,27024 29635,27171 29375,27223 29114,27171 28894,27024 28875,26995 28855,27024 28635,27171 28375,27223 28114,27171 27894,27024 27867,26983 27767,27087 27530,27194 27425,27147 27425,26540 27432,26540 27432,26440 27425,26440 27425,26432 27325,26432 27325,26440 27317,26440 27317,26540 27325,26540 27325,27147 27219,27194 26982,27087 26882,26983 26855,27024 26635,27171 26375,27223 26114,27171 25894,27024 25746,26803 25695,26543 25695,26436 25746,26176 25894,25955 26114,25808 26275,25776 25416,25776 25416,26721 23123,26721 23123,25776 23046,25776 23046,47914 23079,47947 23079,48400 23071,48400 23071,48500 23079,48500 23079,48952 23046,48985 23046,49723 34168,49723 34140,49682 34125,49609 30475,49609 30469,49608 29880,49610 29861,49606 29844,49595 29719,49470 29709,49456 29705,49436 29708,49417 29859,49020 29859,48967 29853,48976 29633,49123 29373,49175 29112,49123 28892,48976 28873,48947 28853,48976 28633,49123 28373,49175 28112,49123 27892,48976 27865,48935 27765,49039 27528,49146 27423,49099 27423,48492 27430,48492 27430,48392 27423,48392 27423,48384 27323,48384 27323,48392 27315,48392 27315,48492 27323,48492 27323,49099 27217,49146 26980,49039 26964,49023 26947,49050 26864,49106 26766,49126 25979,49126 25887,49109 25803,49055 25747,48972 25727,48875 25727,48751 24777,48751 24759,48755 24759,48764 24741,48856 24687,48940 24605,48996 24507,49016 24113,49016 24022,48999 23938,48945 23881,48862 23862,48764 23862,48748 23801,48736 23700,48669 23600,48569 23554,48500 23513,48500 23576,48562 23576,48814 23538,48906 23467,48976 23376,49014 23241,49014 23179,48952 23179,48500 23187,48500 23187,48400 23179,48400 23179,47947 23241,47885 23376,47885 23467,47923 23510,47965 23510,44700 23533,44581 23600,44480 24012,44069 24042,44023 24266,43799 24367,43732 24486,43709 26774,43709 26892,43732 26993,43799 27207,44013 27274,44114 27297,44233 27297,44273 27326,44244 27366,44185 27470,44080 27571,44013 27690,43990 28910,43990 29028,44013 29129,44080 29279,44230 29346,44331 29369,44450 29369,45622 35870,45622 35988,45645 36089,45712 36289,45912 36356,46013 36379,46132 36379,47650 36356,47768 36289,47869 36139,48019 36106,48040 36104,48048 36050,48132 35968,48189 35870,48209 35682,48209 35909,48436 35977,48536 36000,48655 36000,48707 36043,48734 36099,48817 36119,48915 36119,49584 36102,49676 36071,49723 36493,49723 36493,26721 34035,26721 34035,25776 32474,25776 32635,25808 "
       id="polyline432" />
    <polyline
       style="fill-rule:evenodd"
       points="25489,46909 25440,46941 25393,46973 25280,46996 24992,46996 24966,47022 24966,47377 25042,47453 25397,47453 25674,47177 25674,46724 25489,46909 "
       id="polyline434" />
  </g>
  <g
     style="fill:#ffffff;fill-opacity:1;stroke:#ffffff;stroke-width:100;stroke-linecap:round;stroke-linejoin:round;stroke-opacity:1"
     id="g436"
     transform="translate(-634.99996,3590.0009)" />
  <g
     style="fill:#ffffff;fill-opacity:1;stroke:#ffffff;stroke-width:0;stroke-linecap:round;stroke-linejoin:round;stroke-opacity:1"
     id="g438"
     transform="translate(-634.99996,3590.0009)">
    <circle
       cx="25170"
       cy="47350"
       r="157.48"
       id="circle440" />
  </g>
  <g
     style="fill:#ffffff;fill-opacity:1;stroke:#ffffff;stroke-width:39.37009811;stroke-linecap:round;stroke-linejoin:round;stroke-opacity:1"
     id="g442"
     transform="translate(-634.99996,3590.0009)" />
  <g
     style="fill:#ffffff;fill-opacity:1;stroke:#ffffff;stroke-width:0;stroke-linecap:round;stroke-linejoin:round;stroke-opacity:1"
     id="g444"
     transform="translate(-634.99996,3590.0009)">
    <circle
       cx="26373"
       cy="48442"
       r="295.276"
       id="circle446" />
  </g>
  <g
     style="fill:#ffffff;fill-opacity:1;stroke:#ffffff;stroke-width:39.37009811;stroke-linecap:round;stroke-linejoin:round;stroke-opacity:1"
     id="g448"
     transform="translate(-634.99996,3590.0009)" />
  <g
     style="fill:#ffffff;fill-opacity:1;stroke:#ffffff;stroke-width:0;stroke-linecap:round;stroke-linejoin:round;stroke-opacity:1"
     id="g450"
     transform="translate(-634.99996,3590.0009)">
    <circle
       cx="27373"
       cy="48442"
       r="295.276"
       id="circle452" />
  </g>
  <g
     style="fill:#ffffff;fill-opacity:1;stroke:#ffffff;stroke-width:39.37009811;stroke-linecap:round;stroke-linejoin:round;stroke-opacity:1"
     id="g454"
     transform="translate(-634.99996,3590.0009)" />
  <g
     style="fill:#ffffff;fill-opacity:1;stroke:#ffffff;stroke-width:0;stroke-linecap:round;stroke-linejoin:round;stroke-opacity:1"
     id="g456"
     transform="translate(-634.99996,3590.0009)">
    <circle
       cx="28373"
       cy="48442"
       r="295.276"
       id="circle458" />
  </g>
  <g
     style="fill:#ffffff;fill-opacity:1;stroke:#ffffff;stroke-width:39.37009811;stroke-linecap:round;stroke-linejoin:round;stroke-opacity:1"
     id="g460"
     transform="translate(-634.99996,3590.0009)" />
  <g
     style="fill:#ffffff;fill-opacity:1;stroke:#ffffff;stroke-width:0;stroke-linecap:round;stroke-linejoin:round;stroke-opacity:1"
     id="g462"
     transform="translate(-634.99996,3590.0009)">
    <circle
       cx="29373"
       cy="48442"
       r="295.276"
       id="circle464" />
  </g>
  <g
     style="fill:#ffffff;fill-opacity:1;stroke:#ffffff;stroke-width:39.37009811;stroke-linecap:round;stroke-linejoin:round;stroke-opacity:1"
     id="g466"
     transform="translate(-634.99996,3590.0009)" />
  <g
     style="fill:#ffffff;fill-opacity:1;stroke:#ffffff;stroke-width:0;stroke-linecap:round;stroke-linejoin:round;stroke-opacity:1"
     id="g468"
     transform="translate(-634.99996,3590.0009)">
    <circle
       cx="30373"
       cy="48442"
       r="295.276"
       id="circle470" />
  </g>
  <g
     style="fill:#ffffff;fill-opacity:1;stroke:#ffffff;stroke-width:39.37009811;stroke-linecap:round;stroke-linejoin:round;stroke-opacity:1"
     id="g472"
     transform="translate(-634.99996,3590.0009)" />
  <g
     style="fill:#ffffff;fill-opacity:1;stroke:#ffffff;stroke-width:0;stroke-linecap:round;stroke-linejoin:round;stroke-opacity:1"
     id="g474"
     transform="translate(-634.99996,3590.0009)">
    <circle
       cx="31373"
       cy="48442"
       r="295.276"
       id="circle476" />
  </g>
  <g
     style="fill:#ffffff;fill-opacity:1;stroke:#ffffff;stroke-width:39.37009811;stroke-linecap:round;stroke-linejoin:round;stroke-opacity:1"
     id="g478"
     transform="translate(-634.99996,3590.0009)" />
  <g
     style="fill:#ffffff;fill-opacity:1;stroke:#ffffff;stroke-width:0;stroke-linecap:round;stroke-linejoin:round;stroke-opacity:1"
     id="g480"
     transform="translate(-634.99996,3590.0009)">
    <circle
       cx="32373"
       cy="48442"
       r="295.276"
       id="circle482" />
  </g>
  <g
     style="fill:#ffffff;fill-opacity:1;stroke:#ffffff;stroke-width:39.37009811;stroke-linecap:round;stroke-linejoin:round;stroke-opacity:1"
     id="g484"
     transform="translate(-634.99996,3590.0009)" />
  <g
     style="fill:#ffffff;fill-opacity:1;stroke:#ffffff;stroke-width:0;stroke-linecap:round;stroke-linejoin:round;stroke-opacity:1"
     id="g486"
     transform="translate(-634.99996,3590.0009)">
    <circle
       cx="33373"
       cy="48442"
       r="295.276"
       id="circle488" />
  </g>
  <g
     style="fill:#ffffff;fill-opacity:1;stroke:#ffffff;stroke-width:39.37009811;stroke-linecap:round;stroke-linejoin:round;stroke-opacity:1"
     id="g490"
     transform="translate(-634.99996,3590.0009)" />
  <g
     style="fill:#ffffff;fill-opacity:1;stroke:#ffffff;stroke-width:0;stroke-linecap:round;stroke-linejoin:round;stroke-opacity:1"
     id="g492"
     transform="translate(-634.99996,3590.0009)">
    <circle
       cx="33375"
       cy="26490"
       r="295.276"
       id="circle494" />
  </g>
  <g
     style="fill:#ffffff;fill-opacity:1;stroke:#ffffff;stroke-width:39.37009811;stroke-linecap:round;stroke-linejoin:round;stroke-opacity:1"
     id="g496"
     transform="translate(-634.99996,3590.0009)" />
  <g
     style="fill:#ffffff;fill-opacity:1;stroke:#ffffff;stroke-width:0;stroke-linecap:round;stroke-linejoin:round;stroke-opacity:1"
     id="g498"
     transform="translate(-634.99996,3590.0009)">
    <circle
       cx="32375"
       cy="26490"
       r="295.276"
       id="circle500" />
  </g>
  <g
     style="fill:#ffffff;fill-opacity:1;stroke:#ffffff;stroke-width:39.37009811;stroke-linecap:round;stroke-linejoin:round;stroke-opacity:1"
     id="g502"
     transform="translate(-634.99996,3590.0009)" />
  <g
     style="fill:#ffffff;fill-opacity:1;stroke:#ffffff;stroke-width:0;stroke-linecap:round;stroke-linejoin:round;stroke-opacity:1"
     id="g504"
     transform="translate(-634.99996,3590.0009)">
    <circle
       cx="31375"
       cy="26490"
       r="295.276"
       id="circle506" />
  </g>
  <g
     style="fill:#ffffff;fill-opacity:1;stroke:#ffffff;stroke-width:39.37009811;stroke-linecap:round;stroke-linejoin:round;stroke-opacity:1"
     id="g508"
     transform="translate(-634.99996,3590.0009)" />
  <g
     style="fill:#ffffff;fill-opacity:1;stroke:#ffffff;stroke-width:0;stroke-linecap:round;stroke-linejoin:round;stroke-opacity:1"
     id="g510"
     transform="translate(-634.99996,3590.0009)">
    <circle
       cx="30375"
       cy="26490"
       r="295.276"
       id="circle512" />
  </g>
  <g
     style="fill:#ffffff;fill-opacity:1;stroke:#ffffff;stroke-width:39.37009811;stroke-linecap:round;stroke-linejoin:round;stroke-opacity:1"
     id="g514"
     transform="translate(-634.99996,3590.0009)" />
  <g
     style="fill:#ffffff;fill-opacity:1;stroke:#ffffff;stroke-width:0;stroke-linecap:round;stroke-linejoin:round;stroke-opacity:1"
     id="g516"
     transform="translate(-634.99996,3590.0009)">
    <circle
       cx="29375"
       cy="26490"
       r="295.276"
       id="circle518" />
  </g>
  <g
     style="fill:#ffffff;fill-opacity:1;stroke:#ffffff;stroke-width:39.37009811;stroke-linecap:round;stroke-linejoin:round;stroke-opacity:1"
     id="g520"
     transform="translate(-634.99996,3590.0009)" />
  <g
     style="fill:#ffffff;fill-opacity:1;stroke:#ffffff;stroke-width:0;stroke-linecap:round;stroke-linejoin:round;stroke-opacity:1"
     id="g522"
     transform="translate(-634.99996,3590.0009)">
    <circle
       cx="28375"
       cy="26490"
       r="295.276"
       id="circle524" />
  </g>
  <g
     style="fill:#ffffff;fill-opacity:1;stroke:#ffffff;stroke-width:39.37009811;stroke-linecap:round;stroke-linejoin:round;stroke-opacity:1"
     id="g526"
     transform="translate(-634.99996,3590.0009)" />
  <g
     style="fill:#ffffff;fill-opacity:1;stroke:#ffffff;stroke-width:0;stroke-linecap:round;stroke-linejoin:round;stroke-opacity:1"
     id="g528"
     transform="translate(-634.99996,3590.0009)">
    <circle
       cx="27375"
       cy="26490"
       r="295.276"
       id="circle530" />
  </g>
  <g
     style="fill:#ffffff;fill-opacity:1;stroke:#ffffff;stroke-width:39.37009811;stroke-linecap:round;stroke-linejoin:round;stroke-opacity:1"
     id="g532"
     transform="translate(-634.99996,3590.0009)" />
  <g
     style="fill:#ffffff;fill-opacity:1;stroke:#ffffff;stroke-width:0;stroke-linecap:round;stroke-linejoin:round;stroke-opacity:1"
     id="g534"
     transform="translate(-634.99996,3590.0009)">
    <circle
       cx="26375"
       cy="26490"
       r="295.276"
       id="circle536" />
  </g>
  <g
     style="fill:#ffffff;fill-opacity:1;stroke:#ffffff;stroke-width:39.37009811;stroke-linecap:round;stroke-linejoin:round;stroke-opacity:1"
     id="g538"
     transform="translate(-634.99996,3590.0009)" />
  <g
     style="fill:#000000;fill-opacity:1;stroke:#000000;stroke-width:39.37009811;stroke-linecap:round;stroke-linejoin:round;stroke-opacity:1"
     id="g540"
     transform="translate(-634.99996,3590.0009)" />
</svg>
