<?xml version="1.0" standalone="no"?>
 <!DOCTYPE svg PUBLIC "-//W3C//DTD SVG 1.1//EN" 
 "http://www.w3.org/Graphics/SVG/1.1/DTD/svg11.dtd"> 
<svg xmlns="http://www.w3.org/2000/svg" version="1.1" 
    width="21.0007cm" height="29.7002cm" viewBox="0 0 82680 116930 ">
<title>SVG Picture created as Arduino_UNO_Shield_Template-Front.svg date 2017/02/07 14:53:53 </title>
  <desc>Picture generated by PCBNEW </desc>
<g style="fill:#000000; fill-opacity:1;stroke:#000000; stroke-opacity:1;
stroke-linecap:round; stroke-linejoin:round; "
 transform="translate(0 0) scale(1 1)">
</g>
<g style="fill:#000000; fill-opacity:0.0; 
stroke:#000000; stroke-width:-0.000393701; stroke-opacity:1; 
stroke-linecap:round; stroke-linejoin:round;">
</g>
<g style="fill:#000000; fill-opacity:0.0; 
stroke:#000000; stroke-width:150; stroke-opacity:1; 
stroke-linecap:round; stroke-linejoin:round;">
<path d="M34105 28605
L34080 49600
" />
<path d="M65040 28605
L34105 28605
" />
<path d="M65050 49600
L65040 28605
" />
<path d="M65050 49600
L34080 49600
" />
</g>
<g style="fill:#000000; fill-opacity:0.0; 
stroke:#000000; stroke-width:0; stroke-opacity:1; 
stroke-linecap:round; stroke-linejoin:round;">
</g>
<g style="fill:#000000; fill-opacity:1.0; 
stroke:#000000; stroke-width:0; stroke-opacity:1; 
stroke-linecap:round; stroke-linejoin:round;">
<polyline style="fill-rule:evenodd;"
points="44052,33399
44052,32770
43658,32770
43658,33399
44052,33399
" /> 
<polyline style="fill-rule:evenodd;"
points="42871,33399
42871,32770
42477,32770
42477,33399
42871,33399
" /> 
<polyline style="fill-rule:evenodd;"
points="44037,34759
44037,34130
43643,34130
43643,34759
44037,34759
" /> 
<polyline style="fill-rule:evenodd;"
points="42856,34759
42856,34130
42462,34130
42462,34759
42856,34759
" /> 
<polyline style="fill-rule:evenodd;"
points="62307,43061
63252,43061
63252,42935
62307,42935
62307,43061
" /> 
<polyline style="fill-rule:evenodd;"
points="62307,42825
63252,42825
63252,42699
62307,42699
62307,42825
" /> 
<polyline style="fill-rule:evenodd;"
points="62307,42588
63252,42588
63252,42462
62307,42462
62307,42588
" /> 
<polyline style="fill-rule:evenodd;"
points="62307,42352
63252,42352
63252,42226
62307,42226
62307,42352
" /> 
<polyline style="fill-rule:evenodd;"
points="62307,42116
63252,42116
63252,41990
62307,41990
62307,42116
" /> 
<polyline style="fill-rule:evenodd;"
points="62307,41880
63252,41880
63252,41754
62307,41754
62307,41880
" /> 
<polyline style="fill-rule:evenodd;"
points="62307,41644
63252,41644
63252,41518
62307,41518
62307,41644
" /> 
<polyline style="fill-rule:evenodd;"
points="62307,41407
63252,41407
63252,41281
62307,41281
62307,41407
" /> 
<polyline style="fill-rule:evenodd;"
points="62307,41171
63252,41171
63252,41045
62307,41045
62307,41171
" /> 
<polyline style="fill-rule:evenodd;"
points="62307,40935
63252,40935
63252,40809
62307,40809
62307,40935
" /> 
<polyline style="fill-rule:evenodd;"
points="62307,40699
63252,40699
63252,40573
62307,40573
62307,40699
" /> 
<polyline style="fill-rule:evenodd;"
points="62307,40462
63252,40462
63252,40337
62307,40337
62307,40462
" /> 
<polyline style="fill-rule:evenodd;"
points="40894,44044
40265,44044
40265,44320
40894,44320
40894,44044
" /> 
<polyline style="fill-rule:evenodd;"
points="40894,43611
40265,43611
40265,43887
40894,43887
40894,43611
" /> 
<polyline style="fill-rule:evenodd;"
points="40894,43178
40265,43178
40265,43453
40894,43453
40894,43178
" /> 
<polyline style="fill-rule:evenodd;"
points="40894,42745
40265,42745
40265,43020
40894,43020
40894,42745
" /> 
<polyline style="fill-rule:evenodd;"
points="40894,42312
40265,42312
40265,42587
40894,42587
40894,42312
" /> 
<polyline style="fill-rule:evenodd;"
points="40894,41879
40265,41879
40265,42154
40894,42154
40894,41879
" /> 
<polyline style="fill-rule:evenodd;"
points="40894,41446
40265,41446
40265,41721
40894,41721
40894,41446
" /> 
<polyline style="fill-rule:evenodd;"
points="40894,41012
40265,41012
40265,41288
40894,41288
40894,41012
" /> 
<polyline style="fill-rule:evenodd;"
points="40619,44851
40068,44851
40068,45324
40619,45324
40619,44851
" /> 
<polyline style="fill-rule:evenodd;"
points="40619,39024
40068,39024
40068,39654
40619,39654
40619,39024
" /> 
<polyline style="fill-rule:evenodd;"
points="36131,39221
36997,39221
36997,38749
36131,38749
36131,39221
" /> 
<polyline style="fill-rule:evenodd;"
points="36170,45324
37036,45324
37036,44851
36170,44851
36170,45324
" /> 
<polyline style="fill-rule:evenodd;"
points="40894,44477
40265,44477
40265,44753
40894,44753
40894,44477
" /> 
<polyline style="fill-rule:evenodd;"
points="42536,31525
42536,32194
42891,32194
42891,31525
42536,31525
" /> 
<polyline style="fill-rule:evenodd;"
points="43678,31525
43678,32194
44033,32194
44033,31525
43678,31525
" /> 
<polyline style="fill-rule:evenodd;"
points="62761,30585
62761,31254
63116,31254
63116,30585
62761,30585
" /> 
<polyline style="fill-rule:evenodd;"
points="63903,30585
63903,31254
64258,31254
64258,30585
63903,30585
" /> 
<polyline style="fill-rule:evenodd;"
points="42501,35430
42501,36099
42856,36099
42856,35430
42501,35430
" /> 
<polyline style="fill-rule:evenodd;"
points="43643,35430
43643,36099
43998,36099
43998,35430
43643,35430
" /> 
<circle cx="40682.8" cy="32415.7" r="344.488" /> 
</g>
<g style="fill:#000000; fill-opacity:1.0; 
stroke:#000000; stroke-width:59.0551; stroke-opacity:1; 
stroke-linecap:round; stroke-linejoin:round;">
</g>
<g style="fill:#000000; fill-opacity:1.0; 
stroke:#000000; stroke-width:0; stroke-opacity:1; 
stroke-linecap:round; stroke-linejoin:round;">
<circle cx="40682.8" cy="34384.3" r="344.488" /> 
</g>
<g style="fill:#000000; fill-opacity:1.0; 
stroke:#000000; stroke-width:59.0551; stroke-opacity:1; 
stroke-linecap:round; stroke-linejoin:round;">
</g>
<g style="fill:#000000; fill-opacity:1.0; 
stroke:#000000; stroke-width:0; stroke-opacity:1; 
stroke-linecap:round; stroke-linejoin:round;">
<circle cx="40682.8" cy="33400" r="344.488" /> 
</g>
<g style="fill:#000000; fill-opacity:1.0; 
stroke:#000000; stroke-width:59.0551; stroke-opacity:1; 
stroke-linecap:round; stroke-linejoin:round;">
</g>
<g style="fill:#000000; fill-opacity:1.0; 
stroke:#000000; stroke-width:0; stroke-opacity:1; 
stroke-linecap:round; stroke-linejoin:round;">
<circle cx="34974.1" cy="34384.3" r="344.488" /> 
</g>
<g style="fill:#000000; fill-opacity:1.0; 
stroke:#000000; stroke-width:59.0551; stroke-opacity:1; 
stroke-linecap:round; stroke-linejoin:round;">
</g>
<g style="fill:#000000; fill-opacity:1.0; 
stroke:#000000; stroke-width:0; stroke-opacity:1; 
stroke-linecap:round; stroke-linejoin:round;">
<circle cx="34974.1" cy="32415.7" r="344.488" /> 
</g>
<g style="fill:#000000; fill-opacity:1.0; 
stroke:#000000; stroke-width:59.0551; stroke-opacity:1; 
stroke-linecap:round; stroke-linejoin:round;">
</g>
<g style="fill:#000000; fill-opacity:1.0; 
stroke:#000000; stroke-width:1574.8; stroke-opacity:1; 
stroke-linecap:round; stroke-linejoin:round;">
</g>
<g style="fill:#000000; fill-opacity:0.0; 
stroke:#000000; stroke-width:1574.8; stroke-opacity:1; 
stroke-linecap:round; stroke-linejoin:round;">
<path d="M37730 35840
L37730 35840
" />
<path d="M37730 30959
L37730 30959
" />
</g>
<g style="fill:#000000; fill-opacity:0.0; 
stroke:#000000; stroke-width:354; stroke-opacity:1; 
stroke-linecap:round; stroke-linejoin:round;">
<path d="M61940 46238
L61940 46001
" />
<path d="M61440 46238
L61440 46001
" />
<path d="M62440 46238
L62440 46001
" />
</g>
<g style="fill:#000000; fill-opacity:0.0; 
stroke:#000000; stroke-width:0; stroke-opacity:1; 
stroke-linecap:round; stroke-linejoin:round;">
</g>
<g style="fill:#000000; fill-opacity:1.0; 
stroke:#000000; stroke-width:0; stroke-opacity:1; 
stroke-linecap:round; stroke-linejoin:round;">
<polyline style="fill-rule:evenodd;"
points="61680,29993
61680,29206
61080,29206
61080,29993
61680,29993
" /> 
</g>
<g style="fill:#000000; fill-opacity:1.0; 
stroke:#000000; stroke-width:600; stroke-opacity:1; 
stroke-linecap:round; stroke-linejoin:round;">
</g>
<g style="fill:#000000; fill-opacity:0.0; 
stroke:#000000; stroke-width:600; stroke-opacity:1; 
stroke-linecap:round; stroke-linejoin:round;">
<path d="M60380 29466
L60380 29733
" />
<path d="M59380 29388
L59380 29811
" />
<path d="M58380 29388
L58380 29811
" />
<path d="M57380 29388
L57380 29811
" />
<path d="M56380 29388
L56380 29811
" />
<path d="M55380 29388
L55380 29811
" />
<path d="M54380 29388
L54380 29811
" />
<path d="M53380 29388
L53380 29811
" />
<path d="M52380 29388
L52380 29811
" />
</g>
<g style="fill:#000000; fill-opacity:0.0; 
stroke:#000000; stroke-width:0; stroke-opacity:1; 
stroke-linecap:round; stroke-linejoin:round;">
</g>
<g style="fill:#000000; fill-opacity:1.0; 
stroke:#000000; stroke-width:0; stroke-opacity:1; 
stroke-linecap:round; stroke-linejoin:round;">
<polyline style="fill-rule:evenodd;"
points="51080,30111
51080,29088
50480,29088
50480,30111
51080,30111
" /> 
</g>
<g style="fill:#000000; fill-opacity:1.0; 
stroke:#000000; stroke-width:600; stroke-opacity:1; 
stroke-linecap:round; stroke-linejoin:round;">
</g>
<g style="fill:#000000; fill-opacity:0.0; 
stroke:#000000; stroke-width:600; stroke-opacity:1; 
stroke-linecap:round; stroke-linejoin:round;">
<path d="M49780 29388
L49780 29811
" />
<path d="M48780 29388
L48780 29811
" />
<path d="M47780 29388
L47780 29811
" />
<path d="M46780 29388
L46780 29811
" />
<path d="M45780 29388
L45780 29811
" />
<path d="M44780 29388
L44780 29811
" />
<path d="M43780 29388
L43780 29811
" />
<path d="M45780 48388
L45780 48811
" />
<path d="M44780 48388
L44780 48811
" />
<path d="M43780 48388
L43780 48811
" />
<path d="M46780 48388
L46780 48811
" />
<path d="M47780 48388
L47780 48811
" />
</g>
<g style="fill:#000000; fill-opacity:0.0; 
stroke:#000000; stroke-width:0; stroke-opacity:1; 
stroke-linecap:round; stroke-linejoin:round;">
</g>
<g style="fill:#000000; fill-opacity:1.0; 
stroke:#000000; stroke-width:0; stroke-opacity:1; 
stroke-linecap:round; stroke-linejoin:round;">
<polyline style="fill-rule:evenodd;"
points="49080,49111
49080,48088
48480,48088
48480,49111
49080,49111
" /> 
</g>
<g style="fill:#000000; fill-opacity:1.0; 
stroke:#000000; stroke-width:600; stroke-opacity:1; 
stroke-linecap:round; stroke-linejoin:round;">
</g>
<g style="fill:#000000; fill-opacity:0.0; 
stroke:#000000; stroke-width:600; stroke-opacity:1; 
stroke-linecap:round; stroke-linejoin:round;">
<path d="M50780 48388
L50780 48811
" />
<path d="M51780 48388
L51780 48811
" />
<path d="M52780 48388
L52780 48811
" />
<path d="M53780 48388
L53780 48811
" />
<path d="M54780 48388
L54780 48811
" />
<path d="M55780 48388
L55780 48811
" />
<path d="M56780 48388
L56780 48811
" />
</g>
<g style="fill:#000000; fill-opacity:0.0; 
stroke:#000000; stroke-width:0; stroke-opacity:1; 
stroke-linecap:round; stroke-linejoin:round;">
</g>
<g style="fill:#000000; fill-opacity:1.0; 
stroke:#000000; stroke-width:0; stroke-opacity:1; 
stroke-linecap:round; stroke-linejoin:round;">
<polyline style="fill-rule:evenodd;"
points="58080,49111
58080,48088
57480,48088
57480,49111
58080,49111
" /> 
<polyline style="fill-rule:evenodd;"
points="62756,29505
62756,30174
63111,30174
63111,29505
62756,29505
" /> 
<polyline style="fill-rule:evenodd;"
points="63898,29505
63898,30174
64253,30174
64253,29505
63898,29505
" /> 
<polyline style="fill-rule:evenodd;"
points="61680,30324
61080,30324
61080,31348
61680,31348
61680,30324
" /> 
</g>
<g style="fill:#000000; fill-opacity:1.0; 
stroke:#000000; stroke-width:600; stroke-opacity:1; 
stroke-linecap:round; stroke-linejoin:round;">
</g>
<g style="fill:#000000; fill-opacity:0.0; 
stroke:#000000; stroke-width:600; stroke-opacity:1; 
stroke-linecap:round; stroke-linejoin:round;">
<path d="M60380 30624
L60380 31048
" />
</g>
<g style="fill:#000000; fill-opacity:1.0; 
stroke:#000000; stroke-width:0; stroke-opacity:1; 
stroke-linecap:round; stroke-linejoin:round;">
<circle cx="51780" cy="46660" r="393.701" /> 
</g>
<g style="fill:#000000; fill-opacity:1.0; 
stroke:#000000; stroke-width:59.0551; stroke-opacity:1; 
stroke-linecap:round; stroke-linejoin:round;">
</g>
<g style="fill:#000000; fill-opacity:1.0; 
stroke:#000000; stroke-width:0; stroke-opacity:1; 
stroke-linecap:round; stroke-linejoin:round;">
<circle cx="63880" cy="46295" r="393.701" /> 
</g>
<g style="fill:#000000; fill-opacity:1.0; 
stroke:#000000; stroke-width:59.0551; stroke-opacity:1; 
stroke-linecap:round; stroke-linejoin:round;">
</g>
<g style="fill:#000000; fill-opacity:1.0; 
stroke:#000000; stroke-width:0; stroke-opacity:1; 
stroke-linecap:round; stroke-linejoin:round;">
<circle cx="64550" cy="39025" r="275.591" /> 
</g>
<g style="fill:#000000; fill-opacity:1.0; 
stroke:#000000; stroke-width:59.0551; stroke-opacity:1; 
stroke-linecap:round; stroke-linejoin:round;">
</g>
<g style="fill:#000000; fill-opacity:1.0; 
stroke:#000000; stroke-width:0; stroke-opacity:1; 
stroke-linecap:round; stroke-linejoin:round;">
<circle cx="43460" cy="42780" r="393.701" /> 
</g>
<g style="fill:#000000; fill-opacity:1.0; 
stroke:#000000; stroke-width:59.0551; stroke-opacity:1; 
stroke-linecap:round; stroke-linejoin:round;">
</g>
<g style="fill:#000000; fill-opacity:1.0; 
stroke:#000000; stroke-width:0; stroke-opacity:1; 
stroke-linecap:round; stroke-linejoin:round;">
<circle cx="64290" cy="41650" r="314.961" /> 
</g>
<g style="fill:#000000; fill-opacity:1.0; 
stroke:#000000; stroke-width:59.0551; stroke-opacity:1; 
stroke-linecap:round; stroke-linejoin:round;">
</g>
<g style="fill:#000000; fill-opacity:1.0; 
stroke:#000000; stroke-width:0; stroke-opacity:1; 
stroke-linecap:round; stroke-linejoin:round;">
<circle cx="55265" cy="46710" r="393.701" /> 
</g>
<g style="fill:#000000; fill-opacity:1.0; 
stroke:#000000; stroke-width:59.0551; stroke-opacity:1; 
stroke-linecap:round; stroke-linejoin:round;">
</g>
<g style="fill:#000000; fill-opacity:1.0; 
stroke:#000000; stroke-width:0; stroke-opacity:1; 
stroke-linecap:round; stroke-linejoin:round;">
<circle cx="57385" cy="30940" r="393.701" /> 
</g>
<g style="fill:#000000; fill-opacity:1.0; 
stroke:#000000; stroke-width:59.0551; stroke-opacity:1; 
stroke-linecap:round; stroke-linejoin:round;">
</g>
<g style="fill:#000000; fill-opacity:1.0; 
stroke:#000000; stroke-width:0; stroke-opacity:1; 
stroke-linecap:round; stroke-linejoin:round;">
<circle cx="53505" cy="30960" r="393.701" /> 
</g>
<g style="fill:#000000; fill-opacity:1.0; 
stroke:#000000; stroke-width:59.0551; stroke-opacity:1; 
stroke-linecap:round; stroke-linejoin:round;">
</g>
<g style="fill:#000000; fill-opacity:1.0; 
stroke:#000000; stroke-width:393.701; stroke-opacity:1; 
stroke-linecap:round; stroke-linejoin:round;">
</g>
<g style="fill:#000000; fill-opacity:0.0; 
stroke:#000000; stroke-width:393.701; stroke-opacity:1; 
stroke-linecap:round; stroke-linejoin:round;">
<path d="M40682 33400
L41630 33400
" />
<path d="M58380 29600
L58380 30695
" />
</g>
<g style="fill:#000000; fill-opacity:0.0; 
stroke:#000000; stroke-width:196.85; stroke-opacity:1; 
stroke-linecap:round; stroke-linejoin:round;">
<path d="M63880 45849
L63880 46295
" />
<path d="M63880 42389
L63880 45849
" />
<path d="M63780 42289
L63880 42389
" />
<path d="M39255 44615
L39070 44615
" />
<path d="M39070 44615
L38805 44350
" />
<path d="M38805 44350
L38805 43575
" />
<path d="M38805 43575
L39063 43316
" />
<path d="M39063 43316
L39358 43316
" />
<path d="M64095 39480
L64550 39025
" />
<path d="M61460 39480
L64095 39480
" />
<path d="M61115 39825
L61460 39480
" />
<path d="M61115 40775
L61115 39825
" />
<path d="M61448 41108
L61115 40775
" />
<path d="M61513 41108
L61448 41108
" />
</g>
<g style="fill:#000000; fill-opacity:0.0; 
stroke:#000000; stroke-width:118.11; stroke-opacity:1; 
stroke-linecap:round; stroke-linejoin:round;">
<path d="M62780 40872
L62780 41108
" />
<path d="M62780 41108
L61513 41108
" />
</g>
<g style="fill:#000000; fill-opacity:0.0; 
stroke:#000000; stroke-width:393.701; stroke-opacity:1; 
stroke-linecap:round; stroke-linejoin:round;">
<path d="M40682 33400
L39180 33400
" />
</g>
<g style="fill:#000000; fill-opacity:0.0; 
stroke:#000000; stroke-width:255.906; stroke-opacity:1; 
stroke-linecap:round; stroke-linejoin:round;">
<path d="M40580 44615
L39255 44615
" />
<path d="M39358 43316
L40580 43316
" />
</g>
<g style="fill:#000000; fill-opacity:0.0; 
stroke:#000000; stroke-width:137.795; stroke-opacity:1; 
stroke-linecap:round; stroke-linejoin:round;">
<path d="M63780 42289
L62780 42289
" />
</g>
<g style="fill:#000000; fill-opacity:0.0; 
stroke:#000000; stroke-width:196.85; stroke-opacity:1; 
stroke-linecap:round; stroke-linejoin:round;">
<path d="M54380 29600
L54380 31465
" />
<path d="M54380 31465
L44930 40915
" />
<path d="M42825 40915
L42156 41583
" />
<path d="M44930 40915
L42825 40915
" />
<path d="M42156 41583
L40580 41583
" />
</g>
<g style="fill:#000000; fill-opacity:0.0; 
stroke:#000000; stroke-width:393.701; stroke-opacity:1; 
stroke-linecap:round; stroke-linejoin:round;">
<path d="M45170 34445
L43840 34445
" />
<path d="M46850 34445
L45170 34445
" />
<path d="M43840 34445
L43840 35745
" />
<path d="M43840 35745
L43820 35765
" />
<path d="M47780 33515
L46850 34445
" />
<path d="M47780 29600
L47780 33515
" />
<path d="M43855 33085
L44805 33085
" />
<path d="M44805 33085
L45035 32855
" />
<path d="M45035 32855
L45035 31860
" />
<path d="M43855 33084
L43855 33085
" />
<path d="M45780 29600
L45780 31115
" />
<path d="M45780 31115
L45035 31860
" />
<path d="M45035 31860
L43855 31860
" />
</g>
<g style="fill:#000000; fill-opacity:0.0; 
stroke:#000000; stroke-width:196.85; stroke-opacity:1; 
stroke-linecap:round; stroke-linejoin:round;">
<path d="M43263 42583
L43459 42780
" />
<path d="M43129 42450
L43263 42583
" />
<path d="M40580 42450
L43129 42450
" />
</g>
<g style="fill:#000000; fill-opacity:0.0; 
stroke:#000000; stroke-width:118.11; stroke-opacity:1; 
stroke-linecap:round; stroke-linejoin:round;">
<path d="M62780 41581
L60901 41581
" />
<path d="M60901 41581
L60440 41120
" />
<path d="M60440 41120
L60440 40705
" />
</g>
<g style="fill:#000000; fill-opacity:0.0; 
stroke:#000000; stroke-width:196.85; stroke-opacity:1; 
stroke-linecap:round; stroke-linejoin:round;">
<path d="M60440 40705
L60440 35595
" />
<path d="M60440 35595
L62939 33095
" />
<path d="M62939 33095
L62939 30920
" />
<path d="M63984 41344
L63900 41344
" />
<path d="M64290 41650
L63984 41344
" />
</g>
<g style="fill:#000000; fill-opacity:0.0; 
stroke:#000000; stroke-width:118.11; stroke-opacity:1; 
stroke-linecap:round; stroke-linejoin:round;">
<path d="M62780 41344
L63900 41344
" />
</g>
<g style="fill:#000000; fill-opacity:0.0; 
stroke:#000000; stroke-width:393.701; stroke-opacity:1; 
stroke-linecap:round; stroke-linejoin:round;">
<path d="M54780 48600
L54780 47195
" />
<path d="M54780 47195
L55265 46710
" />
</g>
<g style="fill:#000000; fill-opacity:0.0; 
stroke:#000000; stroke-width:98.4252; stroke-opacity:1; 
stroke-linecap:round; stroke-linejoin:round;">
<path d="M62780 41344
L62780 41581
" />
</g>
<g style="fill:#000000; fill-opacity:0.0; 
stroke:#000000; stroke-width:196.85; stroke-opacity:1; 
stroke-linecap:round; stroke-linejoin:round;">
<path d="M62645 47500
L62440 47295
" />
<path d="M62440 47295
L62440 46120
" />
<path d="M64630 47500
L62645 47500
" />
<path d="M64800 47330
L64630 47500
" />
<path d="M64800 46485
L64800 47330
" />
<path d="M64800 45510
L64800 46485
" />
</g>
<g style="fill:#000000; fill-opacity:0.0; 
stroke:#000000; stroke-width:177.165; stroke-opacity:1; 
stroke-linecap:round; stroke-linejoin:round;">
<path d="M64051 40636
L64800 41385
" />
<path d="M64800 41385
L64800 45510
" />
</g>
<g style="fill:#000000; fill-opacity:0.0; 
stroke:#000000; stroke-width:137.795; stroke-opacity:1; 
stroke-linecap:round; stroke-linejoin:round;">
<path d="M62780 40636
L64051 40636
" />
</g>
<g style="fill:#000000; fill-opacity:0.0; 
stroke:#000000; stroke-width:196.85; stroke-opacity:1; 
stroke-linecap:round; stroke-linejoin:round;">
<path d="M43935 43749
L56380 31305
" />
<path d="M56380 31305
L56380 29600
" />
<path d="M40580 43749
L43935 43749
" />
<path d="M57385 30925
L57385 30940
" />
<path d="M57380 30920
L57385 30925
" />
</g>
<g style="fill:#000000; fill-opacity:0.0; 
stroke:#000000; stroke-width:393.701; stroke-opacity:1; 
stroke-linecap:round; stroke-linejoin:round;">
<path d="M57380 29600
L57380 30920
" />
</g>
<g style="fill:#000000; fill-opacity:0.0; 
stroke:#000000; stroke-width:196.85; stroke-opacity:1; 
stroke-linecap:round; stroke-linejoin:round;">
<path d="M40580 42883
L39313 42883
" />
<path d="M39313 42883
L38985 42555
" />
<path d="M38985 42555
L38985 40670
" />
<path d="M38985 40670
L39270 40385
" />
<path d="M39270 40385
L44080 40385
" />
<path d="M44080 40385
L53308 31156
" />
<path d="M53308 31156
L53505 30960
" />
<path d="M40580 42016
L42417 42016
" />
<path d="M42417 42016
L42994 41440
" />
<path d="M42994 41440
L45240 41440
" />
<path d="M45240 41440
L55380 31300
" />
<path d="M55380 31300
L55380 30308
" />
<path d="M55380 30308
L55380 29600
" />
</g>
<g style="fill:#000000; fill-opacity:0.0; 
stroke:#000000; stroke-width:314.961; stroke-opacity:1; 
stroke-linecap:round; stroke-linejoin:round;">
<path d="M57300 46120
L61440 46120
" />
<path d="M54615 45575
L53780 46410
" />
<path d="M56755 45575
L54615 45575
" />
<path d="M57300 46120
L56755 45575
" />
<path d="M53780 46410
L53780 48600
" />
</g>
<g style="fill:#000000; fill-opacity:0.0; 
stroke:#000000; stroke-width:393.701; stroke-opacity:1; 
stroke-linecap:round; stroke-linejoin:round;">
<path d="M41238 31860
L40682 32415
" />
<path d="M42714 31860
L41238 31860
" />
<path d="M42679 35765
L42063 35765
" />
<path d="M42063 35765
L40682 34384
" />
</g>
<g style="fill:#000000; fill-opacity:0.0; 
stroke:#000000; stroke-width:196.85; stroke-opacity:1; 
stroke-linecap:round; stroke-linejoin:round;">
<path d="M61655 44865
L61720 44865
" />
<path d="M61940 45085
L61940 46120
" />
<path d="M61720 44865
L61940 45085
" />
<path d="M49695 44865
L61655 44865
" />
<path d="M48780 48600
L48780 45780
" />
<path d="M48780 45780
L49695 44865
" />
<path d="M59775 42525
L56749 42525
" />
<path d="M56749 42525
L56140 43135
" />
<path d="M49195 43135
L46780 45550
" />
<path d="M56140 43135
L49195 43135
" />
<path d="M46780 45550
L46780 48600
" />
</g>
<g style="fill:#000000; fill-opacity:0.0; 
stroke:#000000; stroke-width:118.11; stroke-opacity:1; 
stroke-linecap:round; stroke-linejoin:round;">
<path d="M61370 42525
L59775 42525
" />
<path d="M62780 42525
L61370 42525
" />
</g>
<g style="fill:#000000; fill-opacity:0.0; 
stroke:#000000; stroke-width:196.85; stroke-opacity:1; 
stroke-linecap:round; stroke-linejoin:round;">
<path d="M45780 48600
L45780 45385
" />
<path d="M45780 45385
L49111 42053
" />
<path d="M49111 42053
L59580 42053
" />
</g>
<g style="fill:#000000; fill-opacity:0.0; 
stroke:#000000; stroke-width:118.11; stroke-opacity:1; 
stroke-linecap:round; stroke-linejoin:round;">
<path d="M62780 42053
L61360 42053
" />
<path d="M61360 42053
L59580 42053
" />
<path d="M62780 41817
L60287 41817
" />
<path d="M60287 41817
L59765 41295
" />
</g>
<g style="fill:#000000; fill-opacity:0.0; 
stroke:#000000; stroke-width:196.85; stroke-opacity:1; 
stroke-linecap:round; stroke-linejoin:round;">
<path d="M59765 41295
L48690 41295
" />
<path d="M48690 41295
L48167 41817
" />
<path d="M48167 41817
L44780 45205
" />
<path d="M44780 45205
L44780 48600
" />
</g>
<g style="fill:#000000; fill-opacity:0.0; 
stroke:#000000; stroke-width:393.701; stroke-opacity:1; 
stroke-linecap:round; stroke-linejoin:round;">
<path d="M44778 48598
L44780 48600
" />
</g>
<g style="fill:#000000; fill-opacity:0.0; 
stroke:#000000; stroke-width:118.11; stroke-opacity:1; 
stroke-linecap:round; stroke-linejoin:round;">
<path d="M62780 42762
L60187 42762
" />
</g>
<g style="fill:#000000; fill-opacity:0.0; 
stroke:#000000; stroke-width:196.85; stroke-opacity:1; 
stroke-linecap:round; stroke-linejoin:round;">
<path d="M60187 42762
L58755 44195
" />
<path d="M58755 44195
L56930 44195
" />
<path d="M49355 44195
L56930 44195
" />
<path d="M47780 45770
L49355 44195
" />
<path d="M47780 48600
L47780 45770
" />
<path d="M60380 30600
L60380 32130
" />
<path d="M62345 29840
L62934 29840
" />
<path d="M60380 32130
L60555 32305
" />
<path d="M60555 32305
L61995 32305
" />
<path d="M61995 32305
L62210 32090
" />
<path d="M62210 32090
L62210 29975
" />
<path d="M62210 29975
L62345 29840
" />
<path d="M64075 29840
L64075 30915
" />
<path d="M64075 30915
L64080 30920
" />
</g>
<g style="fill:#000000; fill-opacity:1.0; 
stroke:#000000; stroke-width:100; stroke-opacity:1; 
stroke-linecap:round; stroke-linejoin:round;">
<polyline style="fill-rule:evenodd;"
points="49243,45971
49243,47759
49339,47821
49422,47943
49452,48088
49452,49111
49443,49160
50216,49160
50165,49083
50115,48828
50115,48371
50165,48116
50309,47900
50525,47756
50780,47706
51034,47756
51250,47900
51382,48099
51444,48016
51611,47916
51677,47898
51755,47938
51755,48575
51747,48575
51747,48625
51755,48625
51755,48632
51805,48632
51805,48625
52755,48625
52755,48632
52805,48632
52805,48625
52812,48625
52812,48575
52805,48575
52805,47938
52755,47938
52755,48575
51805,48575
51805,47938
51882,47898
51948,47916
52115,48016
52232,48173
52280,48363
52327,48173
52444,48016
52611,47916
52677,47898
52755,47938
52805,47938
52882,47898
52948,47916
53115,48016
53177,48099
53257,47979
53257,46410
53257,46410
53297,46210
53297,46210
53410,46040
53410,46040
54122,45328
49886,45328
49243,45971
" /> 
<polyline style="fill-rule:evenodd;"
points="51452,29088
51452,30111
51426,30247
51346,30371
51224,30454
51080,30483
50480,30483
50344,30458
50220,30378
50192,30337
50034,30443
49780,30493
49525,30443
49309,30299
49280,30254
49250,30299
49034,30443
48780,30493
48525,30443
48341,30320
48341,33515
48315,33646
48299,33729
48177,33912
47247,34842
47064,34964
47029,34971
46850,35006
44402,35006
44402,35745
44370,35907
44370,36099
44344,36234
44264,36359
44142,36442
43998,36471
43643,36471
43508,36446
43384,36366
43300,36244
43271,36099
43271,35828
43259,35765
43271,35701
43271,35430
43278,35392
43278,34795
43271,34759
43271,34520
43056,34520
43056,34799
43025,34873
42969,34929
42896,34959
42734,34959
42684,34909
42684,34470
42634,34470
42634,34909
42584,34959
42422,34959
42349,34929
42293,34873
42262,34799
42262,34520
42312,34470
42634,34470
42684,34470
43006,34470
43056,34520
43271,34520
43271,34130
43279,34090
43056,34090
43056,34370
43006,34420
42684,34420
42684,33980
42634,33980
42634,34420
42312,34420
42262,34370
42262,34090
42293,34016
42349,33960
42422,33930
42584,33930
42634,33980
42684,33980
42734,33930
42896,33930
42969,33960
43025,34016
43056,34090
43279,34090
43297,33994
43376,33870
43498,33787
43614,33763
43523,33746
43399,33666
43315,33544
43286,33399
43286,33160
43071,33160
43071,33439
43040,33513
42984,33569
42911,33599
42749,33599
42699,33549
42699,33110
42649,33110
42649,33549
42599,33599
42437,33599
42364,33569
42308,33513
42277,33439
42277,33160
42327,33110
42649,33110
42699,33110
43021,33110
43071,33160
43286,33160
43286,32770
43294,32730
43071,32730
43071,33010
43021,33060
42699,33060
42699,32620
42649,32620
42649,33060
42327,33060
42277,33010
42277,32730
42308,32656
42364,32600
42437,32570
42599,32570
42649,32620
42699,32620
42749,32570
42911,32570
42984,32600
43040,32656
43071,32730
43294,32730
43312,32634
43391,32510
43442,32476
43419,32461
43335,32339
43306,32194
43306,31923
43294,31860
43275,31860
43263,31923
43263,32194
43237,32329
43158,32454
43036,32537
42891,32566
42536,32566
42401,32541
42277,32461
42250,32421
41471,32421
41392,32500
41392,32556
41284,32817
41085,33016
41083,33017
41092,33025
41057,33060
41146,33094
41227,33294
41226,33511
41146,33705
41057,33739
41092,33774
41084,33782
41084,33782
41283,33981
41392,34242
41392,34299
42252,35159
42357,35087
42501,35058
42856,35058
42991,35083
43115,35163
43199,35285
43228,35430
43228,35701
43240,35765
43228,35828
43228,36099
43202,36234
43123,36359
43001,36442
42856,36471
42501,36471
42366,36446
42242,36366
42215,36326
42063,36326
41848,36284
41666,36162
41322,35818
38882,35818
38882,35863
38794,36304
38544,36678
38170,36928
37730,37015
37289,36928
36915,36678
36665,36304
36577,35863
36577,35818
36665,35377
36915,35003
37289,34753
37730,34666
38170,34753
38544,35003
38794,35377
38882,35818
41322,35818
40597,35093
40542,35093
40281,34986
40081,34786
39973,34525
39973,34243
40080,33982
40280,33783
40281,33782
40273,33774
40308,33739
40219,33705
40137,33505
40138,33288
40219,33094
40308,33060
40273,33025
40281,33017
40281,33017
40081,32818
40070,32790
35313,32790
35279,32879
35079,32960
34862,32959
34668,32879
34635,32790
34974,32451
35313,32790
40070,32790
39973,32557
39973,32310
35519,32310
35517,32527
35437,32721
35348,32754
35009,32415
35348,32076
35437,32109
35519,32310
39973,32310
39973,32275
40080,32014
40280,31814
40541,31706
40597,31706
40841,31462
41023,31340
41238,31298
42249,31298
42270,31265
42392,31182
42536,31153
42891,31153
43026,31178
43150,31258
43234,31380
43263,31525
43263,31796
43275,31860
43294,31860
43306,31796
43306,31525
43332,31390
43411,31265
43533,31182
43678,31153
44033,31153
44168,31178
44292,31258
44319,31298
44802,31298
45164,30936
38882,30936
38882,30981
38794,31422
38544,31796
38170,32046
37730,32133
37289,32046
37281,32041
35313,32041
34974,32380
34635,32041
34668,31952
34868,31870
35085,31871
35279,31952
35313,32041
37281,32041
36915,31796
36665,31422
36577,30981
36577,30936
36665,30495
36915,30121
37289,29871
37730,29784
38170,29871
38544,30121
38794,30495
38882,30936
45164,30936
45218,30882
45218,30320
45034,30443
44780,30493
44525,30443
44309,30299
44280,30254
44250,30299
44034,30443
43780,30493
43525,30443
43309,30299
43165,30083
43115,29828
43115,29371
43165,29116
43213,29044
34544,29044
34540,32098
34599,32076
34938,32415
34599,32754
34540,32732
34538,33816
34571,33783
34832,33674
35114,33674
35375,33782
35575,33981
35683,34242
35683,34524
35575,34785
35376,34985
35115,35093
34833,35093
34572,34986
34537,34950
34520,49160
43216,49160
43165,49083
43115,48828
43115,48371
43165,48116
43309,47900
43525,47756
43780,47706
44034,47756
44250,47900
44280,47945
44309,47900
44316,47896
44316,45205
44351,45027
44452,44877
44452,44877
47840,41489
48362,40967
48512,40866
48690,40831
59765,40831
59942,40866
60015,40916
60015,40888
60011,40882
59976,40705
59976,35595
59976,35595
60011,35417
60112,35267
62475,32903
62475,32479
62322,32632
62172,32733
61995,32768
60555,32768
60377,32733
60227,32632
60052,32457
59951,32307
59916,32130
59916,32129
59916,31539
59909,31535
59765,31319
59715,31065
59715,30607
59764,30356
59634,30443
59380,30493
59125,30443
58909,30299
58777,30100
58715,30183
58548,30283
58482,30301
58405,30261
58405,29625
58412,29625
58412,29575
58405,29575
58405,29567
58355,29567
58355,29575
58347,29575
58347,29625
58355,29625
58355,30261
58277,30301
58211,30283
58044,30183
57982,30100
57941,30162
57941,30423
58027,30509
58143,30788
58143,31090
58028,31369
57815,31582
57536,31698
57234,31698
56955,31583
56815,31443
56808,31482
56707,31632
44263,44076
44263,44076
44113,44177
43935,44212
43935,44212
41267,44212
41267,44320
41241,44455
41161,44579
41094,44625
41094,44640
41072,44640
41056,44651
41094,44690
41094,44792
41064,44866
41008,44922
40991,44929
40991,45324
40966,45459
40886,45583
40764,45666
40619,45696
40068,45696
39932,45670
39808,45590
39725,45468
39696,45324
39696,44851
37408,44851
37408,45324
37383,45459
37303,45583
37181,45666
37036,45696
36170,45696
36035,45670
35911,45590
35827,45468
35798,45324
35798,44851
35823,44716
35903,44592
36025,44508
36170,44479
36170,44479
36128,44461
35970,44304
35884,44097
35884,43874
35969,43667
36127,43509
36333,43423
36557,43423
36763,43508
36922,43666
37007,43873
37008,44096
36922,44303
36764,44461
36721,44479
37036,44479
37171,44504
37296,44584
37379,44706
37408,44851
39696,44851
39721,44716
39801,44592
39923,44508
39948,44503
39922,44464
39892,44320
39892,44044
39908,43962
39892,43887
39892,43611
39918,43476
39998,43351
40006,43346
39313,43346
39135,43311
38985,43210
38657,42882
38556,42732
38521,42555
38521,40947
37008,40947
36922,41153
36764,41311
36558,41397
36334,41397
36128,41312
35970,41154
35884,40948
35884,40724
35969,40518
36127,40359
36333,40274
36557,40273
36763,40359
36922,40517
37007,40723
37008,40947
38521,40947
38521,40670
38543,40562
38556,40492
38657,40342
38942,40057
39092,39956
39270,39921
39808,39921
39808,39921
39725,39799
39696,39654
39696,39024
39721,38889
39801,38765
39825,38749
37369,38749
37369,39221
37343,39356
37264,39481
37142,39564
36997,39593
36131,39593
35995,39568
35871,39488
35788,39366
35759,39221
35759,38749
35784,38613
35864,38489
35986,38406
36131,38377
36997,38377
37132,38402
37256,38482
37340,38604
37369,38749
39825,38749
39923,38682
40068,38652
40619,38652
40754,38678
40878,38758
40962,38880
40991,39024
40991,39654
40966,39789
40886,39914
40875,39921
43888,39921
52746,31063
52746,30809
52861,30530
53019,30372
52909,30299
52880,30254
52850,30299
52634,30443
52380,30493
52125,30443
51909,30299
51765,30083
51715,29828
51715,29371
51765,29116
51813,29044
51443,29044
51452,29088
" /> 
<polyline style="fill-rule:evenodd;"
points="40641,33394
40647,33400
40641,33405
40677,33440
40682,33435
40688,33440
40723,33405
40718,33400
40723,33394
40688,33359
40682,33364
40677,33359
40641,33394
" /> 
<polyline style="fill-rule:evenodd;"
points="63624,41880
63613,41937
63624,41990
63624,42116
63599,42251
63575,42288
63595,42318
63624,42462
63624,42588
63613,42646
63624,42699
63624,42825
63613,42882
63624,42935
63624,43061
63599,43196
63519,43320
63397,43404
63252,43433
62307,43433
62172,43408
62048,43328
61964,43206
61960,43186
60419,43186
59203,44401
61719,44401
61720,44401
61897,44436
62047,44537
62047,44537
62267,44757
62368,44907
62391,45027
62403,45085
62403,45453
62440,45446
62647,45487
62823,45605
62940,45781
62981,45988
62981,46251
62940,46458
62903,46514
62903,47036
64336,47036
64336,45510
64346,45460
64346,42329
64155,42330
63905,42226
63713,42035
63624,41820
63624,41880
" /> 
<polyline style="fill-rule:evenodd;"
points="62022,29061
62052,29206
62052,29489
62167,29411
62345,29376
62409,29376
62410,29370
62490,29245
62612,29162
62756,29133
63111,29133
63246,29158
63370,29238
63454,29360
63483,29505
63483,30174
63457,30309
63415,30376
63459,30440
63488,30585
63488,31254
63462,31389
63402,31483
63402,33095
63367,33273
63266,33423
60903,35786
60903,40705
60868,40882
60864,40888
60864,40944
61076,41157
61958,41157
61960,41146
62040,41022
62086,40990
62048,40965
61964,40843
61935,40699
61935,40573
61946,40516
61935,40462
61935,40337
61960,40201
62040,40077
62162,39994
62307,39964
63252,39964
63387,39990
63511,40070
63595,40192
63597,40202
63952,40202
64051,40182
64224,40217
64371,40315
64605,40549
64601,31395
64524,31514
64402,31597
64258,31626
63903,31626
63768,31601
63644,31521
63560,31399
63531,31254
63531,30585
63557,30450
63599,30383
63555,30319
63526,30174
63526,29505
63552,29370
63631,29245
63753,29162
63898,29133
64253,29133
64388,29158
64512,29238
64595,29360
64600,29383
64600,29044
62011,29044
62022,29061
" /> 
</g> 
</svg>
