G04 #@! TF.FileFunction,Copper,L2,Bot,Signal*
%FSLAX46Y46*%
G04 Gerber Fmt 4.6, Leading zero omitted, Abs format (unit mm)*
G04 Created by KiCad (PCBNEW 4.0.7) date Wed Dec 12 21:34:46 2018*
%MOMM*%
%LPD*%
G01*
G04 APERTURE LIST*
%ADD10C,0.100000*%
%ADD11C,0.300000*%
%ADD12R,1.700000X2.000000*%
%ADD13O,1.700000X2.000000*%
%ADD14R,2.000000X1.800000*%
%ADD15O,2.000000X1.800000*%
%ADD16C,1.000000*%
%ADD17C,0.600000*%
%ADD18C,0.400000*%
%ADD19C,0.600000*%
%ADD20C,0.254000*%
G04 APERTURE END LIST*
D10*
D11*
X75873715Y-101818286D02*
X75945143Y-101746857D01*
X76088000Y-101675429D01*
X76230858Y-101675429D01*
X76373715Y-101746857D01*
X76445143Y-101818286D01*
X76516572Y-101961143D01*
X76516572Y-102104000D01*
X76445143Y-102246857D01*
X76373715Y-102318286D01*
X76230858Y-102389714D01*
X76088000Y-102389714D01*
X75945143Y-102318286D01*
X75873715Y-102246857D01*
X75873715Y-101675429D02*
X75873715Y-102246857D01*
X75802286Y-102318286D01*
X75730858Y-102318286D01*
X75588000Y-102246857D01*
X75516572Y-102104000D01*
X75516572Y-101746857D01*
X75659429Y-101532571D01*
X75873715Y-101389714D01*
X76159429Y-101318286D01*
X76445143Y-101389714D01*
X76659429Y-101532571D01*
X76802286Y-101746857D01*
X76873715Y-102032571D01*
X76802286Y-102318286D01*
X76659429Y-102532571D01*
X76445143Y-102675429D01*
X76159429Y-102746857D01*
X75873715Y-102675429D01*
X75659429Y-102532571D01*
X74873715Y-102532571D02*
X74873715Y-101532571D01*
X74873715Y-101675429D02*
X74802287Y-101604000D01*
X74659429Y-101532571D01*
X74445144Y-101532571D01*
X74302287Y-101604000D01*
X74230858Y-101746857D01*
X74230858Y-102532571D01*
X74230858Y-101746857D02*
X74159429Y-101604000D01*
X74016572Y-101532571D01*
X73802287Y-101532571D01*
X73659429Y-101604000D01*
X73588001Y-101746857D01*
X73588001Y-102532571D01*
X72230858Y-101532571D02*
X72230858Y-102532571D01*
X72873715Y-101532571D02*
X72873715Y-102318286D01*
X72802287Y-102461143D01*
X72659429Y-102532571D01*
X72445144Y-102532571D01*
X72302287Y-102461143D01*
X72230858Y-102389714D01*
X71516572Y-102532571D02*
X71516572Y-101532571D01*
X71516572Y-101818286D02*
X71445144Y-101675429D01*
X71373715Y-101604000D01*
X71230858Y-101532571D01*
X71088001Y-101532571D01*
X70588001Y-102532571D02*
X70588001Y-101532571D01*
X70588001Y-101032571D02*
X70659430Y-101104000D01*
X70588001Y-101175429D01*
X70516573Y-101104000D01*
X70588001Y-101032571D01*
X70588001Y-101175429D01*
X69230858Y-101532571D02*
X69230858Y-102532571D01*
X69873715Y-101532571D02*
X69873715Y-102318286D01*
X69802287Y-102461143D01*
X69659429Y-102532571D01*
X69445144Y-102532571D01*
X69302287Y-102461143D01*
X69230858Y-102389714D01*
X68516572Y-102532571D02*
X68516572Y-101032571D01*
X68373715Y-101961143D02*
X67945144Y-102532571D01*
X67945144Y-101532571D02*
X68516572Y-102104000D01*
X67302286Y-102532571D02*
X67302286Y-101532571D01*
X67302286Y-101032571D02*
X67373715Y-101104000D01*
X67302286Y-101175429D01*
X67230858Y-101104000D01*
X67302286Y-101032571D01*
X67302286Y-101175429D01*
X65945143Y-102532571D02*
X65945143Y-101032571D01*
X65945143Y-102461143D02*
X66088000Y-102532571D01*
X66373714Y-102532571D01*
X66516572Y-102461143D01*
X66588000Y-102389714D01*
X66659429Y-102246857D01*
X66659429Y-101818286D01*
X66588000Y-101675429D01*
X66516572Y-101604000D01*
X66373714Y-101532571D01*
X66088000Y-101532571D01*
X65945143Y-101604000D01*
X64588000Y-102532571D02*
X64588000Y-101746857D01*
X64659429Y-101604000D01*
X64802286Y-101532571D01*
X65088000Y-101532571D01*
X65230857Y-101604000D01*
X64588000Y-102461143D02*
X64730857Y-102532571D01*
X65088000Y-102532571D01*
X65230857Y-102461143D01*
X65302286Y-102318286D01*
X65302286Y-102175429D01*
X65230857Y-102032571D01*
X65088000Y-101961143D01*
X64730857Y-101961143D01*
X64588000Y-101889714D01*
X64016571Y-101532571D02*
X63659428Y-102532571D01*
X63302286Y-101532571D01*
X62730857Y-102532571D02*
X62730857Y-101532571D01*
X62730857Y-101032571D02*
X62802286Y-101104000D01*
X62730857Y-101175429D01*
X62659429Y-101104000D01*
X62730857Y-101032571D01*
X62730857Y-101175429D01*
X61373714Y-102532571D02*
X61373714Y-101032571D01*
X61373714Y-102461143D02*
X61516571Y-102532571D01*
X61802285Y-102532571D01*
X61945143Y-102461143D01*
X62016571Y-102389714D01*
X62088000Y-102246857D01*
X62088000Y-101818286D01*
X62016571Y-101675429D01*
X61945143Y-101604000D01*
X61802285Y-101532571D01*
X61516571Y-101532571D01*
X61373714Y-101604000D01*
D12*
X67106800Y-95402400D03*
D13*
X64566800Y-95402400D03*
X62026800Y-95402400D03*
X59486800Y-95402400D03*
D14*
X85140800Y-105562400D03*
D15*
X82600800Y-105562400D03*
X85140800Y-103022400D03*
X82600800Y-103022400D03*
X85140800Y-100482400D03*
X82600800Y-100482400D03*
X85140800Y-97942400D03*
X82600800Y-97942400D03*
D16*
X78130400Y-104394000D03*
X63804800Y-99212400D03*
X70662800Y-96418400D03*
X82613500Y-94869000D03*
D17*
X64160400Y-106578400D03*
D16*
X78930500Y-101854000D03*
D18*
X77423294Y-104394000D02*
X78130400Y-104394000D01*
X68986400Y-104394000D02*
X77423294Y-104394000D01*
X63804800Y-99212400D02*
X68986400Y-104394000D01*
D19*
X67106800Y-95402400D02*
X67970400Y-95402400D01*
X67970400Y-95402400D02*
X68961000Y-96393000D01*
X68961000Y-96393000D02*
X70637400Y-96393000D01*
X70637400Y-96393000D02*
X70662800Y-96418400D01*
D18*
X85140800Y-103022400D02*
X86779100Y-103022400D01*
X87058500Y-96583500D02*
X85044001Y-94569001D01*
X86779100Y-103022400D02*
X87058500Y-102743000D01*
X87058500Y-102743000D02*
X87058500Y-96583500D01*
X85044001Y-94569001D02*
X82913499Y-94569001D01*
X82913499Y-94569001D02*
X82613500Y-94869000D01*
X64770000Y-108153200D02*
X64160400Y-107543600D01*
X64160400Y-107543600D02*
X64160400Y-106578400D01*
X79197200Y-108153200D02*
X64770000Y-108153200D01*
X79392399Y-107958001D02*
X79197200Y-108153200D01*
X79392399Y-106488895D02*
X79392399Y-107958001D01*
X79392399Y-103023005D02*
X79392399Y-106488895D01*
X78930500Y-101854000D02*
X78930500Y-102561106D01*
X78930500Y-102561106D02*
X79392399Y-103023005D01*
X79392399Y-106488895D02*
X79197200Y-106684094D01*
X79197200Y-106684094D02*
X79197200Y-107391200D01*
X85140800Y-105562400D02*
X85040800Y-105562400D01*
X85040800Y-105562400D02*
X83740800Y-106862400D01*
X80751200Y-106862400D02*
X80416400Y-106527600D01*
X83740800Y-106862400D02*
X80751200Y-106862400D01*
X80416400Y-106527600D02*
X80416400Y-101053900D01*
X80416400Y-101053900D02*
X78803500Y-99441000D01*
X62357000Y-98044000D02*
X62026800Y-97713800D01*
X78803500Y-99441000D02*
X65722500Y-99441000D01*
X65722500Y-99441000D02*
X64325500Y-98044000D01*
X64325500Y-98044000D02*
X62357000Y-98044000D01*
X62026800Y-97713800D02*
X62026800Y-97218500D01*
X62026800Y-95402400D02*
X62026800Y-97218500D01*
X62026800Y-97218500D02*
X62026800Y-97523300D01*
X73825100Y-97942400D02*
X73723500Y-98044000D01*
X82600800Y-97942400D02*
X73825100Y-97942400D01*
X67058400Y-98044000D02*
X64566800Y-95552400D01*
X73723500Y-98044000D02*
X67058400Y-98044000D01*
X64566800Y-95552400D02*
X64566800Y-95402400D01*
D20*
G36*
X58594755Y-94063736D02*
X58207776Y-94495588D01*
X58015516Y-95042658D01*
X58159569Y-95275400D01*
X59359800Y-95275400D01*
X59359800Y-95255400D01*
X59613800Y-95255400D01*
X59613800Y-95275400D01*
X59633800Y-95275400D01*
X59633800Y-95529400D01*
X59613800Y-95529400D01*
X59613800Y-96872555D01*
X59843690Y-96993876D01*
X59856060Y-96991953D01*
X60378845Y-96741064D01*
X60762147Y-96313315D01*
X60976746Y-96634486D01*
X61191800Y-96778180D01*
X61191800Y-97713800D01*
X61255361Y-98033341D01*
X61268831Y-98053500D01*
X61436366Y-98304234D01*
X61766566Y-98634434D01*
X62037459Y-98815439D01*
X62357000Y-98879000D01*
X63979632Y-98879000D01*
X65132066Y-100031434D01*
X65402959Y-100212439D01*
X65722500Y-100276000D01*
X78457632Y-100276000D01*
X78900605Y-100718973D01*
X78705725Y-100718803D01*
X78288414Y-100891233D01*
X77968855Y-101210235D01*
X77795697Y-101627244D01*
X77795303Y-102078775D01*
X77967733Y-102496086D01*
X78111143Y-102639746D01*
X78159061Y-102880647D01*
X78254182Y-103023005D01*
X78340066Y-103151540D01*
X78557399Y-103368873D01*
X78557399Y-106167543D01*
X78425761Y-106364553D01*
X78362200Y-106684094D01*
X78362200Y-107318200D01*
X65115868Y-107318200D01*
X64995400Y-107197732D01*
X64995400Y-107005634D01*
X65095238Y-106765199D01*
X65095562Y-106393233D01*
X64953517Y-106049457D01*
X64690727Y-105786208D01*
X64347199Y-105643562D01*
X63975233Y-105643238D01*
X63631457Y-105785283D01*
X63368208Y-106048073D01*
X63225562Y-106391601D01*
X63225238Y-106763567D01*
X63325400Y-107005978D01*
X63325400Y-107543600D01*
X63388961Y-107863141D01*
X63468136Y-107981634D01*
X63569966Y-108134034D01*
X64098332Y-108662400D01*
X57910800Y-108662400D01*
X57910800Y-95762142D01*
X58015516Y-95762142D01*
X58207776Y-96309212D01*
X58594755Y-96741064D01*
X59117540Y-96991953D01*
X59129910Y-96993876D01*
X59359800Y-96872555D01*
X59359800Y-95529400D01*
X58159569Y-95529400D01*
X58015516Y-95762142D01*
X57910800Y-95762142D01*
X57910800Y-93826400D01*
X59089299Y-93826400D01*
X58594755Y-94063736D01*
X58594755Y-94063736D01*
G37*
X58594755Y-94063736D02*
X58207776Y-94495588D01*
X58015516Y-95042658D01*
X58159569Y-95275400D01*
X59359800Y-95275400D01*
X59359800Y-95255400D01*
X59613800Y-95255400D01*
X59613800Y-95275400D01*
X59633800Y-95275400D01*
X59633800Y-95529400D01*
X59613800Y-95529400D01*
X59613800Y-96872555D01*
X59843690Y-96993876D01*
X59856060Y-96991953D01*
X60378845Y-96741064D01*
X60762147Y-96313315D01*
X60976746Y-96634486D01*
X61191800Y-96778180D01*
X61191800Y-97713800D01*
X61255361Y-98033341D01*
X61268831Y-98053500D01*
X61436366Y-98304234D01*
X61766566Y-98634434D01*
X62037459Y-98815439D01*
X62357000Y-98879000D01*
X63979632Y-98879000D01*
X65132066Y-100031434D01*
X65402959Y-100212439D01*
X65722500Y-100276000D01*
X78457632Y-100276000D01*
X78900605Y-100718973D01*
X78705725Y-100718803D01*
X78288414Y-100891233D01*
X77968855Y-101210235D01*
X77795697Y-101627244D01*
X77795303Y-102078775D01*
X77967733Y-102496086D01*
X78111143Y-102639746D01*
X78159061Y-102880647D01*
X78254182Y-103023005D01*
X78340066Y-103151540D01*
X78557399Y-103368873D01*
X78557399Y-106167543D01*
X78425761Y-106364553D01*
X78362200Y-106684094D01*
X78362200Y-107318200D01*
X65115868Y-107318200D01*
X64995400Y-107197732D01*
X64995400Y-107005634D01*
X65095238Y-106765199D01*
X65095562Y-106393233D01*
X64953517Y-106049457D01*
X64690727Y-105786208D01*
X64347199Y-105643562D01*
X63975233Y-105643238D01*
X63631457Y-105785283D01*
X63368208Y-106048073D01*
X63225562Y-106391601D01*
X63225238Y-106763567D01*
X63325400Y-107005978D01*
X63325400Y-107543600D01*
X63388961Y-107863141D01*
X63468136Y-107981634D01*
X63569966Y-108134034D01*
X64098332Y-108662400D01*
X57910800Y-108662400D01*
X57910800Y-95762142D01*
X58015516Y-95762142D01*
X58207776Y-96309212D01*
X58594755Y-96741064D01*
X59117540Y-96991953D01*
X59129910Y-96993876D01*
X59359800Y-96872555D01*
X59359800Y-95529400D01*
X58159569Y-95529400D01*
X58015516Y-95762142D01*
X57910800Y-95762142D01*
X57910800Y-93826400D01*
X59089299Y-93826400D01*
X58594755Y-94063736D01*
G36*
X82727800Y-105435400D02*
X82747800Y-105435400D01*
X82747800Y-105689400D01*
X82727800Y-105689400D01*
X82727800Y-105709400D01*
X82473800Y-105709400D01*
X82473800Y-105689400D01*
X82453800Y-105689400D01*
X82453800Y-105435400D01*
X82473800Y-105435400D01*
X82473800Y-105415400D01*
X82727800Y-105415400D01*
X82727800Y-105435400D01*
X82727800Y-105435400D01*
G37*
X82727800Y-105435400D02*
X82747800Y-105435400D01*
X82747800Y-105689400D01*
X82727800Y-105689400D01*
X82727800Y-105709400D01*
X82473800Y-105709400D01*
X82473800Y-105689400D01*
X82453800Y-105689400D01*
X82453800Y-105435400D01*
X82473800Y-105435400D01*
X82473800Y-105415400D01*
X82727800Y-105415400D01*
X82727800Y-105435400D01*
M02*
