G04 #@! TF.FileFunction,Legend,Top*
%FSLAX46Y46*%
G04 Gerber Fmt 4.6, Leading zero omitted, Abs format (unit mm)*
G04 Created by KiCad (PCBNEW 4.0.7) date Wed Dec 12 21:34:46 2018*
%MOMM*%
%LPD*%
G01*
G04 APERTURE LIST*
%ADD10C,0.100000*%
%ADD11C,0.200000*%
%ADD12C,0.120000*%
G04 APERTURE END LIST*
D10*
D11*
X66205219Y-97605905D02*
X66700457Y-97605905D01*
X66433790Y-97910667D01*
X66548076Y-97910667D01*
X66624266Y-97948762D01*
X66662362Y-97986857D01*
X66700457Y-98063048D01*
X66700457Y-98253524D01*
X66662362Y-98329714D01*
X66624266Y-98367810D01*
X66548076Y-98405905D01*
X66319504Y-98405905D01*
X66243314Y-98367810D01*
X66205219Y-98329714D01*
X66967124Y-97872571D02*
X67157600Y-98405905D01*
X67348076Y-97872571D01*
X67576648Y-97605905D02*
X68071886Y-97605905D01*
X67805219Y-97910667D01*
X67919505Y-97910667D01*
X67995695Y-97948762D01*
X68033791Y-97986857D01*
X68071886Y-98063048D01*
X68071886Y-98253524D01*
X68033791Y-98329714D01*
X67995695Y-98367810D01*
X67919505Y-98405905D01*
X67690933Y-98405905D01*
X67614743Y-98367810D01*
X67576648Y-98329714D01*
X64541410Y-98405905D02*
X64274743Y-98024952D01*
X64084267Y-98405905D02*
X64084267Y-97605905D01*
X64389029Y-97605905D01*
X64465220Y-97644000D01*
X64503315Y-97682095D01*
X64541410Y-97758286D01*
X64541410Y-97872571D01*
X64503315Y-97948762D01*
X64465220Y-97986857D01*
X64389029Y-98024952D01*
X64084267Y-98024952D01*
X64808077Y-98405905D02*
X65227124Y-97872571D01*
X64808077Y-97872571D02*
X65227124Y-98405905D01*
X61525219Y-97605905D02*
X61982362Y-97605905D01*
X61753791Y-98405905D02*
X61753791Y-97605905D01*
X62172839Y-98405905D02*
X62591886Y-97872571D01*
X62172839Y-97872571D02*
X62591886Y-98405905D01*
X58674077Y-97644000D02*
X58597886Y-97605905D01*
X58483601Y-97605905D01*
X58369315Y-97644000D01*
X58293124Y-97720190D01*
X58255029Y-97796381D01*
X58216934Y-97948762D01*
X58216934Y-98063048D01*
X58255029Y-98215429D01*
X58293124Y-98291619D01*
X58369315Y-98367810D01*
X58483601Y-98405905D01*
X58559791Y-98405905D01*
X58674077Y-98367810D01*
X58712172Y-98329714D01*
X58712172Y-98063048D01*
X58559791Y-98063048D01*
X59055029Y-98405905D02*
X59055029Y-97605905D01*
X59512172Y-98405905D01*
X59512172Y-97605905D01*
X59893124Y-98405905D02*
X59893124Y-97605905D01*
X60083600Y-97605905D01*
X60197886Y-97644000D01*
X60274077Y-97720190D01*
X60312172Y-97796381D01*
X60350267Y-97948762D01*
X60350267Y-98063048D01*
X60312172Y-98215429D01*
X60274077Y-98291619D01*
X60197886Y-98367810D01*
X60083600Y-98405905D01*
X59893124Y-98405905D01*
D12*
X61380800Y-108179900D02*
X61380800Y-107799900D01*
X57330800Y-108179900D02*
X57070800Y-108179900D01*
X61380800Y-108179900D02*
X59610800Y-108179900D01*
X61380800Y-100559900D02*
X61380800Y-100939900D01*
X59610800Y-100559900D02*
X61380800Y-100559900D01*
X57070800Y-100559900D02*
X57330800Y-100559900D01*
X58156800Y-94072400D02*
X58156800Y-96732400D01*
X65836800Y-94072400D02*
X58156800Y-94072400D01*
X65836800Y-96732400D02*
X58156800Y-96732400D01*
X65836800Y-94072400D02*
X65836800Y-96732400D01*
X67106800Y-94072400D02*
X68436800Y-94072400D01*
X68436800Y-94072400D02*
X68436800Y-95402400D01*
X76926800Y-105535600D02*
X76926800Y-105335600D01*
X76926800Y-107685600D02*
X76926800Y-106385600D01*
X76926800Y-108735600D02*
X76926800Y-108535600D01*
X72526800Y-108735600D02*
X76926800Y-108735600D01*
X72526800Y-108535600D02*
X72526800Y-108735600D01*
X72526800Y-106385600D02*
X72526800Y-107685600D01*
X72526800Y-105335600D02*
X72526800Y-105535600D01*
X76926800Y-105335600D02*
X72526800Y-105335600D01*
X78136800Y-95524400D02*
X76876800Y-95524400D01*
X71316800Y-95524400D02*
X72576800Y-95524400D01*
X78136800Y-99284400D02*
X78136800Y-95524400D01*
X71316800Y-101534400D02*
X71316800Y-95524400D01*
X70441200Y-99096000D02*
X70441200Y-102346000D01*
X68141200Y-99096000D02*
X68141200Y-102346000D01*
X70441200Y-99096000D02*
X68141200Y-99096000D01*
X77989600Y-103922400D02*
X74539600Y-103922400D01*
X77989600Y-102122400D02*
X74539600Y-102122400D01*
X77989600Y-103922400D02*
X77989600Y-102122400D01*
X80432800Y-96732800D02*
X80432800Y-97932800D01*
X78672800Y-97932800D02*
X78672800Y-96732800D01*
X70018000Y-105637200D02*
X70018000Y-105437200D01*
X70018000Y-107787200D02*
X70018000Y-106487200D01*
X70018000Y-108837200D02*
X70018000Y-108637200D01*
X65618000Y-108837200D02*
X70018000Y-108837200D01*
X65618000Y-108637200D02*
X65618000Y-108837200D01*
X65618000Y-106487200D02*
X65618000Y-107787200D01*
X65618000Y-105437200D02*
X65618000Y-105637200D01*
X70018000Y-105437200D02*
X65618000Y-105437200D01*
D11*
X62350705Y-105682876D02*
X62998324Y-105682876D01*
X63074514Y-105644781D01*
X63112610Y-105606685D01*
X63150705Y-105530495D01*
X63150705Y-105378114D01*
X63112610Y-105301923D01*
X63074514Y-105263828D01*
X62998324Y-105225733D01*
X62350705Y-105225733D01*
X63112610Y-104882876D02*
X63150705Y-104768590D01*
X63150705Y-104578114D01*
X63112610Y-104501924D01*
X63074514Y-104463828D01*
X62998324Y-104425733D01*
X62922133Y-104425733D01*
X62845943Y-104463828D01*
X62807848Y-104501924D01*
X62769752Y-104578114D01*
X62731657Y-104730495D01*
X62693562Y-104806686D01*
X62655467Y-104844781D01*
X62579276Y-104882876D01*
X62503086Y-104882876D01*
X62426895Y-104844781D01*
X62388800Y-104806686D01*
X62350705Y-104730495D01*
X62350705Y-104540019D01*
X62388800Y-104425733D01*
X62731657Y-103816209D02*
X62769752Y-103701923D01*
X62807848Y-103663828D01*
X62884038Y-103625733D01*
X62998324Y-103625733D01*
X63074514Y-103663828D01*
X63112610Y-103701923D01*
X63150705Y-103778114D01*
X63150705Y-104082876D01*
X62350705Y-104082876D01*
X62350705Y-103816209D01*
X62388800Y-103740019D01*
X62426895Y-103701923D01*
X62503086Y-103663828D01*
X62579276Y-103663828D01*
X62655467Y-103701923D01*
X62693562Y-103740019D01*
X62731657Y-103816209D01*
X62731657Y-104082876D01*
X63150705Y-102863828D02*
X63150705Y-103320971D01*
X63150705Y-103092400D02*
X62350705Y-103092400D01*
X62464990Y-103168590D01*
X62541181Y-103244781D01*
X62579276Y-103320971D01*
X78962305Y-108565905D02*
X78695638Y-108184952D01*
X78505162Y-108565905D02*
X78505162Y-107765905D01*
X78809924Y-107765905D01*
X78886115Y-107804000D01*
X78924210Y-107842095D01*
X78962305Y-107918286D01*
X78962305Y-108032571D01*
X78924210Y-108108762D01*
X78886115Y-108146857D01*
X78809924Y-108184952D01*
X78505162Y-108184952D01*
X79267067Y-108527810D02*
X79381353Y-108565905D01*
X79571829Y-108565905D01*
X79648019Y-108527810D01*
X79686115Y-108489714D01*
X79724210Y-108413524D01*
X79724210Y-108337333D01*
X79686115Y-108261143D01*
X79648019Y-108223048D01*
X79571829Y-108184952D01*
X79419448Y-108146857D01*
X79343257Y-108108762D01*
X79305162Y-108070667D01*
X79267067Y-107994476D01*
X79267067Y-107918286D01*
X79305162Y-107842095D01*
X79343257Y-107804000D01*
X79419448Y-107765905D01*
X79609924Y-107765905D01*
X79724210Y-107804000D01*
X79952781Y-107765905D02*
X80409924Y-107765905D01*
X80181353Y-108565905D02*
X80181353Y-107765905D01*
X71374076Y-94100705D02*
X71374076Y-94748324D01*
X71412171Y-94824514D01*
X71450267Y-94862610D01*
X71526457Y-94900705D01*
X71678838Y-94900705D01*
X71755029Y-94862610D01*
X71793124Y-94824514D01*
X71831219Y-94748324D01*
X71831219Y-94100705D01*
X72631219Y-94900705D02*
X72174076Y-94900705D01*
X72402647Y-94900705D02*
X72402647Y-94100705D01*
X72326457Y-94214990D01*
X72250266Y-94291181D01*
X72174076Y-94329276D01*
X81293009Y-95345257D02*
X81559676Y-95345257D01*
X81673962Y-95764305D02*
X81293009Y-95764305D01*
X81293009Y-94964305D01*
X81673962Y-94964305D01*
X81978724Y-95726210D02*
X82093010Y-95764305D01*
X82283486Y-95764305D01*
X82359676Y-95726210D01*
X82397772Y-95688114D01*
X82435867Y-95611924D01*
X82435867Y-95535733D01*
X82397772Y-95459543D01*
X82359676Y-95421448D01*
X82283486Y-95383352D01*
X82131105Y-95345257D01*
X82054914Y-95307162D01*
X82016819Y-95269067D01*
X81978724Y-95192876D01*
X81978724Y-95116686D01*
X82016819Y-95040495D01*
X82054914Y-95002400D01*
X82131105Y-94964305D01*
X82321581Y-94964305D01*
X82435867Y-95002400D01*
X82778724Y-95764305D02*
X82778724Y-94964305D01*
X83083486Y-94964305D01*
X83159677Y-95002400D01*
X83197772Y-95040495D01*
X83235867Y-95116686D01*
X83235867Y-95230971D01*
X83197772Y-95307162D01*
X83159677Y-95345257D01*
X83083486Y-95383352D01*
X82778724Y-95383352D01*
X83693010Y-95307162D02*
X83616819Y-95269067D01*
X83578724Y-95230971D01*
X83540629Y-95154781D01*
X83540629Y-95116686D01*
X83578724Y-95040495D01*
X83616819Y-95002400D01*
X83693010Y-94964305D01*
X83845391Y-94964305D01*
X83921581Y-95002400D01*
X83959677Y-95040495D01*
X83997772Y-95116686D01*
X83997772Y-95154781D01*
X83959677Y-95230971D01*
X83921581Y-95269067D01*
X83845391Y-95307162D01*
X83693010Y-95307162D01*
X83616819Y-95345257D01*
X83578724Y-95383352D01*
X83540629Y-95459543D01*
X83540629Y-95611924D01*
X83578724Y-95688114D01*
X83616819Y-95726210D01*
X83693010Y-95764305D01*
X83845391Y-95764305D01*
X83921581Y-95726210D01*
X83959677Y-95688114D01*
X83997772Y-95611924D01*
X83997772Y-95459543D01*
X83959677Y-95383352D01*
X83921581Y-95345257D01*
X83845391Y-95307162D01*
X84302534Y-95040495D02*
X84340629Y-95002400D01*
X84416820Y-94964305D01*
X84607296Y-94964305D01*
X84683486Y-95002400D01*
X84721582Y-95040495D01*
X84759677Y-95116686D01*
X84759677Y-95192876D01*
X84721582Y-95307162D01*
X84264439Y-95764305D01*
X84759677Y-95764305D01*
X85445391Y-94964305D02*
X85293010Y-94964305D01*
X85216820Y-95002400D01*
X85178725Y-95040495D01*
X85102534Y-95154781D01*
X85064439Y-95307162D01*
X85064439Y-95611924D01*
X85102534Y-95688114D01*
X85140629Y-95726210D01*
X85216820Y-95764305D01*
X85369201Y-95764305D01*
X85445391Y-95726210D01*
X85483487Y-95688114D01*
X85521582Y-95611924D01*
X85521582Y-95421448D01*
X85483487Y-95345257D01*
X85445391Y-95307162D01*
X85369201Y-95269067D01*
X85216820Y-95269067D01*
X85140629Y-95307162D01*
X85102534Y-95345257D01*
X85064439Y-95421448D01*
X86207296Y-94964305D02*
X86054915Y-94964305D01*
X85978725Y-95002400D01*
X85940630Y-95040495D01*
X85864439Y-95154781D01*
X85826344Y-95307162D01*
X85826344Y-95611924D01*
X85864439Y-95688114D01*
X85902534Y-95726210D01*
X85978725Y-95764305D01*
X86131106Y-95764305D01*
X86207296Y-95726210D01*
X86245392Y-95688114D01*
X86283487Y-95611924D01*
X86283487Y-95421448D01*
X86245392Y-95345257D01*
X86207296Y-95307162D01*
X86131106Y-95269067D01*
X85978725Y-95269067D01*
X85902534Y-95307162D01*
X85864439Y-95345257D01*
X85826344Y-95421448D01*
X66922667Y-100920514D02*
X66884572Y-100958610D01*
X66770286Y-100996705D01*
X66694096Y-100996705D01*
X66579810Y-100958610D01*
X66503619Y-100882419D01*
X66465524Y-100806229D01*
X66427429Y-100653848D01*
X66427429Y-100539562D01*
X66465524Y-100387181D01*
X66503619Y-100310990D01*
X66579810Y-100234800D01*
X66694096Y-100196705D01*
X66770286Y-100196705D01*
X66884572Y-100234800D01*
X66922667Y-100272895D01*
X67684572Y-100996705D02*
X67227429Y-100996705D01*
X67456000Y-100996705D02*
X67456000Y-100196705D01*
X67379810Y-100310990D01*
X67303619Y-100387181D01*
X67227429Y-100425276D01*
X78911467Y-103562114D02*
X78873372Y-103600210D01*
X78759086Y-103638305D01*
X78682896Y-103638305D01*
X78568610Y-103600210D01*
X78492419Y-103524019D01*
X78454324Y-103447829D01*
X78416229Y-103295448D01*
X78416229Y-103181162D01*
X78454324Y-103028781D01*
X78492419Y-102952590D01*
X78568610Y-102876400D01*
X78682896Y-102838305D01*
X78759086Y-102838305D01*
X78873372Y-102876400D01*
X78911467Y-102914495D01*
X79216229Y-102914495D02*
X79254324Y-102876400D01*
X79330515Y-102838305D01*
X79520991Y-102838305D01*
X79597181Y-102876400D01*
X79635277Y-102914495D01*
X79673372Y-102990686D01*
X79673372Y-103066876D01*
X79635277Y-103181162D01*
X79178134Y-103638305D01*
X79673372Y-103638305D01*
X79419467Y-95408705D02*
X79152800Y-95027752D01*
X78962324Y-95408705D02*
X78962324Y-94608705D01*
X79267086Y-94608705D01*
X79343277Y-94646800D01*
X79381372Y-94684895D01*
X79419467Y-94761086D01*
X79419467Y-94875371D01*
X79381372Y-94951562D01*
X79343277Y-94989657D01*
X79267086Y-95027752D01*
X78962324Y-95027752D01*
X80181372Y-95408705D02*
X79724229Y-95408705D01*
X79952800Y-95408705D02*
X79952800Y-94608705D01*
X79876610Y-94722990D01*
X79800419Y-94799181D01*
X79724229Y-94837276D01*
X66097276Y-104959105D02*
X66097276Y-104159105D01*
X66402038Y-104159105D01*
X66478229Y-104197200D01*
X66516324Y-104235295D01*
X66554419Y-104311486D01*
X66554419Y-104425771D01*
X66516324Y-104501962D01*
X66478229Y-104540057D01*
X66402038Y-104578152D01*
X66097276Y-104578152D01*
X67354419Y-104959105D02*
X67087752Y-104578152D01*
X66897276Y-104959105D02*
X66897276Y-104159105D01*
X67202038Y-104159105D01*
X67278229Y-104197200D01*
X67316324Y-104235295D01*
X67354419Y-104311486D01*
X67354419Y-104425771D01*
X67316324Y-104501962D01*
X67278229Y-104540057D01*
X67202038Y-104578152D01*
X66897276Y-104578152D01*
X68116324Y-104197200D02*
X68040133Y-104159105D01*
X67925848Y-104159105D01*
X67811562Y-104197200D01*
X67735371Y-104273390D01*
X67697276Y-104349581D01*
X67659181Y-104501962D01*
X67659181Y-104616248D01*
X67697276Y-104768629D01*
X67735371Y-104844819D01*
X67811562Y-104921010D01*
X67925848Y-104959105D01*
X68002038Y-104959105D01*
X68116324Y-104921010D01*
X68154419Y-104882914D01*
X68154419Y-104616248D01*
X68002038Y-104616248D01*
M02*
