G04 #@! TF.FileFunction,Soldermask,Top*
%FSLAX46Y46*%
G04 Gerber Fmt 4.6, Leading zero omitted, Abs format (unit mm)*
G04 Created by KiCad (PCBNEW 4.0.7) date Wed Dec 12 21:34:46 2018*
%MOMM*%
%LPD*%
G01*
G04 APERTURE LIST*
%ADD10C,0.100000*%
%ADD11R,1.380000X0.450000*%
%ADD12R,2.100000X1.475000*%
%ADD13R,1.900000X2.375000*%
%ADD14R,1.900000X1.175000*%
%ADD15R,1.700000X2.000000*%
%ADD16O,1.700000X2.000000*%
%ADD17R,1.050000X0.650000*%
%ADD18R,3.800000X2.000000*%
%ADD19R,1.500000X2.000000*%
%ADD20R,2.000000X1.800000*%
%ADD21O,2.000000X1.800000*%
%ADD22C,1.200000*%
%ADD23R,1.800000X1.550000*%
%ADD24R,1.750000X1.260000*%
%ADD25R,1.300000X0.700000*%
G04 APERTURE END LIST*
D10*
D11*
X61130800Y-103069900D03*
X61130800Y-103719900D03*
X61130800Y-104369900D03*
X61130800Y-105019900D03*
X61130800Y-105669900D03*
D12*
X60770800Y-101907400D03*
X60770800Y-106832400D03*
D13*
X58470800Y-101459900D03*
X58470800Y-107279900D03*
D14*
X58470800Y-103529900D03*
X58470800Y-105209900D03*
D15*
X67106800Y-95402400D03*
D16*
X64566800Y-95402400D03*
X62026800Y-95402400D03*
X59486800Y-95402400D03*
D17*
X72651800Y-105960600D03*
X76801800Y-105960600D03*
X72651800Y-108110600D03*
X76801800Y-108110600D03*
D18*
X74726800Y-94284400D03*
D19*
X74726800Y-100584400D03*
X77026800Y-100584400D03*
X72426800Y-100584400D03*
D20*
X85140800Y-105562400D03*
D21*
X82600800Y-105562400D03*
X85140800Y-103022400D03*
X82600800Y-103022400D03*
X85140800Y-100482400D03*
X82600800Y-100482400D03*
X85140800Y-97942400D03*
X82600800Y-97942400D03*
D22*
X70231000Y-94297500D03*
X86677500Y-94170500D03*
X86614000Y-108331000D03*
D23*
X69291200Y-100171000D03*
X69291200Y-102521000D03*
D24*
X76814600Y-103022400D03*
X74264600Y-103022400D03*
D25*
X79552800Y-98282800D03*
X79552800Y-96382800D03*
D17*
X65743000Y-106062200D03*
X69893000Y-106062200D03*
X65743000Y-108212200D03*
X69893000Y-108212200D03*
M02*
