G04 #@! TF.FileFunction,Copper,L1,Top,Signal*
%FSLAX46Y46*%
G04 Gerber Fmt 4.6, Leading zero omitted, Abs format (unit mm)*
G04 Created by KiCad (PCBNEW 4.0.7) date Wed Dec 12 21:34:46 2018*
%MOMM*%
%LPD*%
G01*
G04 APERTURE LIST*
%ADD10C,0.100000*%
%ADD11R,1.380000X0.450000*%
%ADD12R,2.100000X1.475000*%
%ADD13R,1.900000X2.375000*%
%ADD14R,1.900000X1.175000*%
%ADD15R,1.700000X2.000000*%
%ADD16O,1.700000X2.000000*%
%ADD17R,1.050000X0.650000*%
%ADD18R,3.800000X2.000000*%
%ADD19R,1.500000X2.000000*%
%ADD20R,2.000000X1.800000*%
%ADD21O,2.000000X1.800000*%
%ADD22R,1.800000X1.550000*%
%ADD23R,1.750000X1.260000*%
%ADD24R,1.300000X0.700000*%
%ADD25C,1.000000*%
%ADD26C,0.600000*%
%ADD27C,0.400000*%
%ADD28C,0.600000*%
%ADD29C,0.800000*%
%ADD30C,0.254000*%
G04 APERTURE END LIST*
D10*
D11*
X61130800Y-103069900D03*
X61130800Y-103719900D03*
X61130800Y-104369900D03*
X61130800Y-105019900D03*
X61130800Y-105669900D03*
D12*
X60770800Y-101907400D03*
X60770800Y-106832400D03*
D13*
X58470800Y-101459900D03*
X58470800Y-107279900D03*
D14*
X58470800Y-103529900D03*
X58470800Y-105209900D03*
D15*
X67106800Y-95402400D03*
D16*
X64566800Y-95402400D03*
X62026800Y-95402400D03*
X59486800Y-95402400D03*
D17*
X72651800Y-105960600D03*
X76801800Y-105960600D03*
X72651800Y-108110600D03*
X76801800Y-108110600D03*
D18*
X74726800Y-94284400D03*
D19*
X74726800Y-100584400D03*
X77026800Y-100584400D03*
X72426800Y-100584400D03*
D20*
X85140800Y-105562400D03*
D21*
X82600800Y-105562400D03*
X85140800Y-103022400D03*
X82600800Y-103022400D03*
X85140800Y-100482400D03*
X82600800Y-100482400D03*
X85140800Y-97942400D03*
X82600800Y-97942400D03*
D22*
X69291200Y-100171000D03*
X69291200Y-102521000D03*
D23*
X76814600Y-103022400D03*
X74264600Y-103022400D03*
D24*
X79552800Y-98282800D03*
X79552800Y-96382800D03*
D17*
X65743000Y-106062200D03*
X69893000Y-106062200D03*
X65743000Y-108212200D03*
X69893000Y-108212200D03*
D25*
X78130400Y-104394000D03*
X63804800Y-99212400D03*
X70662800Y-96418400D03*
X82613500Y-94869000D03*
D26*
X64160400Y-106578400D03*
D25*
X78930500Y-101854000D03*
D27*
X78837506Y-104394000D02*
X78130400Y-104394000D01*
X80005906Y-105562400D02*
X78837506Y-104394000D01*
X82600800Y-105562400D02*
X80005906Y-105562400D01*
X74726800Y-100584400D02*
X74726800Y-102560200D01*
X74726800Y-102560200D02*
X74264600Y-103022400D01*
X58470800Y-107279900D02*
X60323300Y-107279900D01*
X60323300Y-107279900D02*
X60770800Y-106832400D01*
X60770800Y-106832400D02*
X60770800Y-106310400D01*
X60770800Y-106310400D02*
X61010800Y-106070400D01*
X61010800Y-106070400D02*
X61010800Y-105789900D01*
X61010800Y-105789900D02*
X61130800Y-105669900D01*
X74726800Y-102514400D02*
X74472800Y-102768400D01*
X74472800Y-102768400D02*
X73698800Y-102768400D01*
X64820800Y-98196400D02*
X63804800Y-99212400D01*
X69900800Y-98196400D02*
X64820800Y-98196400D01*
X74726800Y-98196400D02*
X69900800Y-98196400D01*
X74726800Y-100584400D02*
X74726800Y-98196400D01*
D28*
X77026800Y-100584400D02*
X77026800Y-101840000D01*
X77026800Y-101840000D02*
X76814600Y-102052200D01*
X76814600Y-102052200D02*
X76814600Y-103022400D01*
X77026800Y-100584400D02*
X78028400Y-100584400D01*
X78028400Y-100584400D02*
X79552800Y-99060000D01*
X79552800Y-99060000D02*
X79552800Y-98282800D01*
X75222800Y-97180400D02*
X77254100Y-97180400D01*
X77254100Y-97180400D02*
X78232000Y-96202500D01*
X78232000Y-96202500D02*
X78232000Y-94551500D01*
X78232000Y-94551500D02*
X78994000Y-93789500D01*
X78994000Y-93789500D02*
X84074000Y-93789500D01*
X84074000Y-93789500D02*
X85140800Y-94856300D01*
X85140800Y-94856300D02*
X85140800Y-97942400D01*
X77026800Y-100584400D02*
X77026800Y-98984400D01*
X77026800Y-98984400D02*
X75222800Y-97180400D01*
X71424800Y-97180400D02*
X70662800Y-96418400D01*
X75222800Y-97180400D02*
X71424800Y-97180400D01*
X77000800Y-100610400D02*
X77026800Y-100584400D01*
D27*
X79552800Y-95834200D02*
X79552800Y-96382800D01*
X79552800Y-95834200D02*
X79883000Y-95504000D01*
X79883000Y-95504000D02*
X81978500Y-95504000D01*
X81978500Y-95504000D02*
X82613500Y-94869000D01*
X69893000Y-106062200D02*
X68968000Y-106062200D01*
X68968000Y-106062200D02*
X65743000Y-106062200D01*
X64160400Y-106578400D02*
X64676600Y-106062200D01*
X64676600Y-106062200D02*
X65743000Y-106062200D01*
X82600800Y-100482400D02*
X80726364Y-100482400D01*
X79354764Y-101854000D02*
X78930500Y-101854000D01*
X80726364Y-100482400D02*
X79354764Y-101854000D01*
X72651800Y-105960600D02*
X76801800Y-105960600D01*
X85140800Y-100482400D02*
X85240800Y-100482400D01*
X85240800Y-100482400D02*
X87122000Y-102363600D01*
X87122000Y-102363600D02*
X87122000Y-106680000D01*
X87122000Y-106680000D02*
X86550500Y-107251500D01*
X86550500Y-107251500D02*
X85940900Y-107251500D01*
X84797900Y-108394500D02*
X81828255Y-108394500D01*
X85940900Y-107251500D02*
X84797900Y-108394500D01*
X81828255Y-108394500D02*
X79394355Y-105960600D01*
X77726800Y-105960600D02*
X76801800Y-105960600D01*
X79394355Y-105960600D02*
X77726800Y-105960600D01*
X72426800Y-100584400D02*
X69704600Y-100584400D01*
X69704600Y-100584400D02*
X69291200Y-100171000D01*
X69291200Y-100171000D02*
X69291200Y-100533600D01*
X69291200Y-100533600D02*
X69342000Y-100584400D01*
D29*
X65226800Y-100584400D02*
X63042800Y-102768400D01*
D27*
X62741300Y-103069900D02*
X63042800Y-102768400D01*
X61130800Y-103069900D02*
X62741300Y-103069900D01*
D29*
X72426800Y-100584400D02*
X65226800Y-100584400D01*
D30*
G36*
X81383359Y-101567809D02*
X81659619Y-101752400D01*
X81383359Y-101936991D01*
X81050613Y-102434981D01*
X80933768Y-103022400D01*
X81050613Y-103609819D01*
X81383359Y-104107809D01*
X81654854Y-104289216D01*
X81243991Y-104682648D01*
X81009764Y-105197660D01*
X81130422Y-105435400D01*
X82473800Y-105435400D01*
X82473800Y-105415400D01*
X82727800Y-105415400D01*
X82727800Y-105435400D01*
X82747800Y-105435400D01*
X82747800Y-105689400D01*
X82727800Y-105689400D01*
X82727800Y-106937535D01*
X82967420Y-107073177D01*
X83525274Y-106856145D01*
X83596002Y-106788417D01*
X83676710Y-106913841D01*
X83888910Y-107058831D01*
X84140800Y-107109840D01*
X84901692Y-107109840D01*
X84452032Y-107559500D01*
X82174123Y-107559500D01*
X80541763Y-105927140D01*
X81009764Y-105927140D01*
X81243991Y-106442152D01*
X81676326Y-106856145D01*
X82234180Y-107073177D01*
X82473800Y-106937535D01*
X82473800Y-105689400D01*
X81130422Y-105689400D01*
X81009764Y-105927140D01*
X80541763Y-105927140D01*
X79984789Y-105370166D01*
X79935003Y-105336900D01*
X79713896Y-105189161D01*
X79394355Y-105125600D01*
X77705186Y-105125600D01*
X77578690Y-105039169D01*
X77326800Y-104988160D01*
X76276800Y-104988160D01*
X76041483Y-105032438D01*
X75825359Y-105171510D01*
X75680369Y-105383710D01*
X75629360Y-105635600D01*
X75629360Y-106285600D01*
X75673638Y-106520917D01*
X75812710Y-106737041D01*
X76024910Y-106882031D01*
X76276800Y-106933040D01*
X77326800Y-106933040D01*
X77562117Y-106888762D01*
X77706895Y-106795600D01*
X79048487Y-106795600D01*
X80915287Y-108662400D01*
X77920176Y-108662400D01*
X77961800Y-108561910D01*
X77961800Y-108396350D01*
X77803050Y-108237600D01*
X76928800Y-108237600D01*
X76928800Y-108257600D01*
X76674800Y-108257600D01*
X76674800Y-108237600D01*
X75800550Y-108237600D01*
X75641800Y-108396350D01*
X75641800Y-108561910D01*
X75683424Y-108662400D01*
X73770176Y-108662400D01*
X73811800Y-108561910D01*
X73811800Y-108396350D01*
X73653050Y-108237600D01*
X72778800Y-108237600D01*
X72778800Y-108257600D01*
X72524800Y-108257600D01*
X72524800Y-108237600D01*
X71650550Y-108237600D01*
X71491800Y-108396350D01*
X71491800Y-108561910D01*
X71533424Y-108662400D01*
X71053000Y-108662400D01*
X71053000Y-108497950D01*
X70894250Y-108339200D01*
X70020000Y-108339200D01*
X70020000Y-108359200D01*
X69766000Y-108359200D01*
X69766000Y-108339200D01*
X68891750Y-108339200D01*
X68733000Y-108497950D01*
X68733000Y-108662400D01*
X66903000Y-108662400D01*
X66903000Y-108497950D01*
X66744250Y-108339200D01*
X65870000Y-108339200D01*
X65870000Y-108359200D01*
X65616000Y-108359200D01*
X65616000Y-108339200D01*
X64741750Y-108339200D01*
X64583000Y-108497950D01*
X64583000Y-108662400D01*
X60027347Y-108662400D01*
X60055800Y-108593709D01*
X60055800Y-108204900D01*
X60485050Y-108204900D01*
X60643800Y-108046150D01*
X60643800Y-106959400D01*
X60897800Y-106959400D01*
X60897800Y-108046150D01*
X61056550Y-108204900D01*
X61947110Y-108204900D01*
X62180499Y-108108227D01*
X62359127Y-107929598D01*
X62429008Y-107760890D01*
X64583000Y-107760890D01*
X64583000Y-107926450D01*
X64741750Y-108085200D01*
X65616000Y-108085200D01*
X65616000Y-107410950D01*
X65870000Y-107410950D01*
X65870000Y-108085200D01*
X66744250Y-108085200D01*
X66903000Y-107926450D01*
X66903000Y-107760890D01*
X68733000Y-107760890D01*
X68733000Y-107926450D01*
X68891750Y-108085200D01*
X69766000Y-108085200D01*
X69766000Y-107410950D01*
X70020000Y-107410950D01*
X70020000Y-108085200D01*
X70894250Y-108085200D01*
X71053000Y-107926450D01*
X71053000Y-107760890D01*
X71010916Y-107659290D01*
X71491800Y-107659290D01*
X71491800Y-107824850D01*
X71650550Y-107983600D01*
X72524800Y-107983600D01*
X72524800Y-107309350D01*
X72778800Y-107309350D01*
X72778800Y-107983600D01*
X73653050Y-107983600D01*
X73811800Y-107824850D01*
X73811800Y-107659290D01*
X75641800Y-107659290D01*
X75641800Y-107824850D01*
X75800550Y-107983600D01*
X76674800Y-107983600D01*
X76674800Y-107309350D01*
X76928800Y-107309350D01*
X76928800Y-107983600D01*
X77803050Y-107983600D01*
X77961800Y-107824850D01*
X77961800Y-107659290D01*
X77865127Y-107425901D01*
X77686498Y-107247273D01*
X77453109Y-107150600D01*
X77087550Y-107150600D01*
X76928800Y-107309350D01*
X76674800Y-107309350D01*
X76516050Y-107150600D01*
X76150491Y-107150600D01*
X75917102Y-107247273D01*
X75738473Y-107425901D01*
X75641800Y-107659290D01*
X73811800Y-107659290D01*
X73715127Y-107425901D01*
X73536498Y-107247273D01*
X73303109Y-107150600D01*
X72937550Y-107150600D01*
X72778800Y-107309350D01*
X72524800Y-107309350D01*
X72366050Y-107150600D01*
X72000491Y-107150600D01*
X71767102Y-107247273D01*
X71588473Y-107425901D01*
X71491800Y-107659290D01*
X71010916Y-107659290D01*
X70956327Y-107527501D01*
X70777698Y-107348873D01*
X70544309Y-107252200D01*
X70178750Y-107252200D01*
X70020000Y-107410950D01*
X69766000Y-107410950D01*
X69607250Y-107252200D01*
X69241691Y-107252200D01*
X69008302Y-107348873D01*
X68829673Y-107527501D01*
X68733000Y-107760890D01*
X66903000Y-107760890D01*
X66806327Y-107527501D01*
X66627698Y-107348873D01*
X66394309Y-107252200D01*
X66028750Y-107252200D01*
X65870000Y-107410950D01*
X65616000Y-107410950D01*
X65457250Y-107252200D01*
X65091691Y-107252200D01*
X64858302Y-107348873D01*
X64679673Y-107527501D01*
X64583000Y-107760890D01*
X62429008Y-107760890D01*
X62455800Y-107696209D01*
X62455800Y-107118150D01*
X62297050Y-106959400D01*
X60897800Y-106959400D01*
X60643800Y-106959400D01*
X60623800Y-106959400D01*
X60623800Y-106763567D01*
X63225238Y-106763567D01*
X63367283Y-107107343D01*
X63630073Y-107370592D01*
X63973601Y-107513238D01*
X64345567Y-107513562D01*
X64689343Y-107371517D01*
X64952592Y-107108727D01*
X65001556Y-106990809D01*
X65218000Y-107034640D01*
X66268000Y-107034640D01*
X66503317Y-106990362D01*
X66719441Y-106851290D01*
X66864431Y-106639090D01*
X66915440Y-106387200D01*
X66915440Y-105737200D01*
X68720560Y-105737200D01*
X68720560Y-106387200D01*
X68764838Y-106622517D01*
X68903910Y-106838641D01*
X69116110Y-106983631D01*
X69368000Y-107034640D01*
X70418000Y-107034640D01*
X70653317Y-106990362D01*
X70869441Y-106851290D01*
X71014431Y-106639090D01*
X71065440Y-106387200D01*
X71065440Y-105737200D01*
X71046323Y-105635600D01*
X71479360Y-105635600D01*
X71479360Y-106285600D01*
X71523638Y-106520917D01*
X71662710Y-106737041D01*
X71874910Y-106882031D01*
X72126800Y-106933040D01*
X73176800Y-106933040D01*
X73412117Y-106888762D01*
X73628241Y-106749690D01*
X73773231Y-106537490D01*
X73824240Y-106285600D01*
X73824240Y-105635600D01*
X73779962Y-105400283D01*
X73640890Y-105184159D01*
X73428690Y-105039169D01*
X73176800Y-104988160D01*
X72126800Y-104988160D01*
X71891483Y-105032438D01*
X71675359Y-105171510D01*
X71530369Y-105383710D01*
X71479360Y-105635600D01*
X71046323Y-105635600D01*
X71021162Y-105501883D01*
X70882090Y-105285759D01*
X70669890Y-105140769D01*
X70418000Y-105089760D01*
X69368000Y-105089760D01*
X69132683Y-105134038D01*
X68916559Y-105273110D01*
X68771569Y-105485310D01*
X68720560Y-105737200D01*
X66915440Y-105737200D01*
X66871162Y-105501883D01*
X66732090Y-105285759D01*
X66519890Y-105140769D01*
X66268000Y-105089760D01*
X65218000Y-105089760D01*
X64982683Y-105134038D01*
X64860446Y-105212695D01*
X64719200Y-105184600D01*
X64399660Y-105248160D01*
X64128766Y-105429166D01*
X63872067Y-105685865D01*
X63631457Y-105785283D01*
X63368208Y-106048073D01*
X63225562Y-106391601D01*
X63225238Y-106763567D01*
X60623800Y-106763567D01*
X60623800Y-106705400D01*
X60643800Y-106705400D01*
X60643800Y-106685400D01*
X60897800Y-106685400D01*
X60897800Y-106705400D01*
X62297050Y-106705400D01*
X62455800Y-106546650D01*
X62455800Y-105941150D01*
X62436396Y-105921746D01*
X62359127Y-105735202D01*
X62296870Y-105672944D01*
X62417231Y-105496790D01*
X62432358Y-105422092D01*
X62455800Y-105398650D01*
X62455800Y-105318591D01*
X62454132Y-105314565D01*
X62468240Y-105244900D01*
X62468240Y-104794900D01*
X62448733Y-104691229D01*
X62468240Y-104594900D01*
X62468240Y-104144900D01*
X62448733Y-104041229D01*
X62468240Y-103944900D01*
X62468240Y-103904900D01*
X62741300Y-103904900D01*
X63060841Y-103841339D01*
X63149334Y-103782210D01*
X63438877Y-103724615D01*
X63774656Y-103500256D01*
X64468161Y-102806750D01*
X67756200Y-102806750D01*
X67756200Y-103422309D01*
X67852873Y-103655698D01*
X68031501Y-103834327D01*
X68264890Y-103931000D01*
X69005450Y-103931000D01*
X69164200Y-103772250D01*
X69164200Y-102648000D01*
X69418200Y-102648000D01*
X69418200Y-103772250D01*
X69576950Y-103931000D01*
X70317510Y-103931000D01*
X70550899Y-103834327D01*
X70729527Y-103655698D01*
X70826200Y-103422309D01*
X70826200Y-103308150D01*
X72754600Y-103308150D01*
X72754600Y-103778710D01*
X72851273Y-104012099D01*
X73029902Y-104190727D01*
X73263291Y-104287400D01*
X73978850Y-104287400D01*
X74137600Y-104128650D01*
X74137600Y-103149400D01*
X72913350Y-103149400D01*
X72754600Y-103308150D01*
X70826200Y-103308150D01*
X70826200Y-102806750D01*
X70667450Y-102648000D01*
X69418200Y-102648000D01*
X69164200Y-102648000D01*
X67914950Y-102648000D01*
X67756200Y-102806750D01*
X64468161Y-102806750D01*
X65655511Y-101619400D01*
X67756321Y-101619400D01*
X67756200Y-101619691D01*
X67756200Y-102235250D01*
X67914950Y-102394000D01*
X69164200Y-102394000D01*
X69164200Y-102374000D01*
X69418200Y-102374000D01*
X69418200Y-102394000D01*
X70667450Y-102394000D01*
X70826200Y-102235250D01*
X70826200Y-101619691D01*
X70826079Y-101619400D01*
X71035946Y-101619400D01*
X71073638Y-101819717D01*
X71212710Y-102035841D01*
X71424910Y-102180831D01*
X71676800Y-102231840D01*
X72768787Y-102231840D01*
X72754600Y-102266090D01*
X72754600Y-102736650D01*
X72913350Y-102895400D01*
X74137600Y-102895400D01*
X74137600Y-102875400D01*
X74391600Y-102875400D01*
X74391600Y-102895400D01*
X74411600Y-102895400D01*
X74411600Y-103149400D01*
X74391600Y-103149400D01*
X74391600Y-104128650D01*
X74550350Y-104287400D01*
X75265909Y-104287400D01*
X75499298Y-104190727D01*
X75541260Y-104148766D01*
X75687710Y-104248831D01*
X75939600Y-104299840D01*
X77689600Y-104299840D01*
X77924917Y-104255562D01*
X78141041Y-104116490D01*
X78286031Y-103904290D01*
X78337040Y-103652400D01*
X78337040Y-102836534D01*
X78703744Y-102988803D01*
X79155275Y-102989197D01*
X79572586Y-102816767D01*
X79892145Y-102497765D01*
X79902422Y-102473016D01*
X79945198Y-102444434D01*
X81072232Y-101317400D01*
X81216041Y-101317400D01*
X81383359Y-101567809D01*
X81383359Y-101567809D01*
G37*
X81383359Y-101567809D02*
X81659619Y-101752400D01*
X81383359Y-101936991D01*
X81050613Y-102434981D01*
X80933768Y-103022400D01*
X81050613Y-103609819D01*
X81383359Y-104107809D01*
X81654854Y-104289216D01*
X81243991Y-104682648D01*
X81009764Y-105197660D01*
X81130422Y-105435400D01*
X82473800Y-105435400D01*
X82473800Y-105415400D01*
X82727800Y-105415400D01*
X82727800Y-105435400D01*
X82747800Y-105435400D01*
X82747800Y-105689400D01*
X82727800Y-105689400D01*
X82727800Y-106937535D01*
X82967420Y-107073177D01*
X83525274Y-106856145D01*
X83596002Y-106788417D01*
X83676710Y-106913841D01*
X83888910Y-107058831D01*
X84140800Y-107109840D01*
X84901692Y-107109840D01*
X84452032Y-107559500D01*
X82174123Y-107559500D01*
X80541763Y-105927140D01*
X81009764Y-105927140D01*
X81243991Y-106442152D01*
X81676326Y-106856145D01*
X82234180Y-107073177D01*
X82473800Y-106937535D01*
X82473800Y-105689400D01*
X81130422Y-105689400D01*
X81009764Y-105927140D01*
X80541763Y-105927140D01*
X79984789Y-105370166D01*
X79935003Y-105336900D01*
X79713896Y-105189161D01*
X79394355Y-105125600D01*
X77705186Y-105125600D01*
X77578690Y-105039169D01*
X77326800Y-104988160D01*
X76276800Y-104988160D01*
X76041483Y-105032438D01*
X75825359Y-105171510D01*
X75680369Y-105383710D01*
X75629360Y-105635600D01*
X75629360Y-106285600D01*
X75673638Y-106520917D01*
X75812710Y-106737041D01*
X76024910Y-106882031D01*
X76276800Y-106933040D01*
X77326800Y-106933040D01*
X77562117Y-106888762D01*
X77706895Y-106795600D01*
X79048487Y-106795600D01*
X80915287Y-108662400D01*
X77920176Y-108662400D01*
X77961800Y-108561910D01*
X77961800Y-108396350D01*
X77803050Y-108237600D01*
X76928800Y-108237600D01*
X76928800Y-108257600D01*
X76674800Y-108257600D01*
X76674800Y-108237600D01*
X75800550Y-108237600D01*
X75641800Y-108396350D01*
X75641800Y-108561910D01*
X75683424Y-108662400D01*
X73770176Y-108662400D01*
X73811800Y-108561910D01*
X73811800Y-108396350D01*
X73653050Y-108237600D01*
X72778800Y-108237600D01*
X72778800Y-108257600D01*
X72524800Y-108257600D01*
X72524800Y-108237600D01*
X71650550Y-108237600D01*
X71491800Y-108396350D01*
X71491800Y-108561910D01*
X71533424Y-108662400D01*
X71053000Y-108662400D01*
X71053000Y-108497950D01*
X70894250Y-108339200D01*
X70020000Y-108339200D01*
X70020000Y-108359200D01*
X69766000Y-108359200D01*
X69766000Y-108339200D01*
X68891750Y-108339200D01*
X68733000Y-108497950D01*
X68733000Y-108662400D01*
X66903000Y-108662400D01*
X66903000Y-108497950D01*
X66744250Y-108339200D01*
X65870000Y-108339200D01*
X65870000Y-108359200D01*
X65616000Y-108359200D01*
X65616000Y-108339200D01*
X64741750Y-108339200D01*
X64583000Y-108497950D01*
X64583000Y-108662400D01*
X60027347Y-108662400D01*
X60055800Y-108593709D01*
X60055800Y-108204900D01*
X60485050Y-108204900D01*
X60643800Y-108046150D01*
X60643800Y-106959400D01*
X60897800Y-106959400D01*
X60897800Y-108046150D01*
X61056550Y-108204900D01*
X61947110Y-108204900D01*
X62180499Y-108108227D01*
X62359127Y-107929598D01*
X62429008Y-107760890D01*
X64583000Y-107760890D01*
X64583000Y-107926450D01*
X64741750Y-108085200D01*
X65616000Y-108085200D01*
X65616000Y-107410950D01*
X65870000Y-107410950D01*
X65870000Y-108085200D01*
X66744250Y-108085200D01*
X66903000Y-107926450D01*
X66903000Y-107760890D01*
X68733000Y-107760890D01*
X68733000Y-107926450D01*
X68891750Y-108085200D01*
X69766000Y-108085200D01*
X69766000Y-107410950D01*
X70020000Y-107410950D01*
X70020000Y-108085200D01*
X70894250Y-108085200D01*
X71053000Y-107926450D01*
X71053000Y-107760890D01*
X71010916Y-107659290D01*
X71491800Y-107659290D01*
X71491800Y-107824850D01*
X71650550Y-107983600D01*
X72524800Y-107983600D01*
X72524800Y-107309350D01*
X72778800Y-107309350D01*
X72778800Y-107983600D01*
X73653050Y-107983600D01*
X73811800Y-107824850D01*
X73811800Y-107659290D01*
X75641800Y-107659290D01*
X75641800Y-107824850D01*
X75800550Y-107983600D01*
X76674800Y-107983600D01*
X76674800Y-107309350D01*
X76928800Y-107309350D01*
X76928800Y-107983600D01*
X77803050Y-107983600D01*
X77961800Y-107824850D01*
X77961800Y-107659290D01*
X77865127Y-107425901D01*
X77686498Y-107247273D01*
X77453109Y-107150600D01*
X77087550Y-107150600D01*
X76928800Y-107309350D01*
X76674800Y-107309350D01*
X76516050Y-107150600D01*
X76150491Y-107150600D01*
X75917102Y-107247273D01*
X75738473Y-107425901D01*
X75641800Y-107659290D01*
X73811800Y-107659290D01*
X73715127Y-107425901D01*
X73536498Y-107247273D01*
X73303109Y-107150600D01*
X72937550Y-107150600D01*
X72778800Y-107309350D01*
X72524800Y-107309350D01*
X72366050Y-107150600D01*
X72000491Y-107150600D01*
X71767102Y-107247273D01*
X71588473Y-107425901D01*
X71491800Y-107659290D01*
X71010916Y-107659290D01*
X70956327Y-107527501D01*
X70777698Y-107348873D01*
X70544309Y-107252200D01*
X70178750Y-107252200D01*
X70020000Y-107410950D01*
X69766000Y-107410950D01*
X69607250Y-107252200D01*
X69241691Y-107252200D01*
X69008302Y-107348873D01*
X68829673Y-107527501D01*
X68733000Y-107760890D01*
X66903000Y-107760890D01*
X66806327Y-107527501D01*
X66627698Y-107348873D01*
X66394309Y-107252200D01*
X66028750Y-107252200D01*
X65870000Y-107410950D01*
X65616000Y-107410950D01*
X65457250Y-107252200D01*
X65091691Y-107252200D01*
X64858302Y-107348873D01*
X64679673Y-107527501D01*
X64583000Y-107760890D01*
X62429008Y-107760890D01*
X62455800Y-107696209D01*
X62455800Y-107118150D01*
X62297050Y-106959400D01*
X60897800Y-106959400D01*
X60643800Y-106959400D01*
X60623800Y-106959400D01*
X60623800Y-106763567D01*
X63225238Y-106763567D01*
X63367283Y-107107343D01*
X63630073Y-107370592D01*
X63973601Y-107513238D01*
X64345567Y-107513562D01*
X64689343Y-107371517D01*
X64952592Y-107108727D01*
X65001556Y-106990809D01*
X65218000Y-107034640D01*
X66268000Y-107034640D01*
X66503317Y-106990362D01*
X66719441Y-106851290D01*
X66864431Y-106639090D01*
X66915440Y-106387200D01*
X66915440Y-105737200D01*
X68720560Y-105737200D01*
X68720560Y-106387200D01*
X68764838Y-106622517D01*
X68903910Y-106838641D01*
X69116110Y-106983631D01*
X69368000Y-107034640D01*
X70418000Y-107034640D01*
X70653317Y-106990362D01*
X70869441Y-106851290D01*
X71014431Y-106639090D01*
X71065440Y-106387200D01*
X71065440Y-105737200D01*
X71046323Y-105635600D01*
X71479360Y-105635600D01*
X71479360Y-106285600D01*
X71523638Y-106520917D01*
X71662710Y-106737041D01*
X71874910Y-106882031D01*
X72126800Y-106933040D01*
X73176800Y-106933040D01*
X73412117Y-106888762D01*
X73628241Y-106749690D01*
X73773231Y-106537490D01*
X73824240Y-106285600D01*
X73824240Y-105635600D01*
X73779962Y-105400283D01*
X73640890Y-105184159D01*
X73428690Y-105039169D01*
X73176800Y-104988160D01*
X72126800Y-104988160D01*
X71891483Y-105032438D01*
X71675359Y-105171510D01*
X71530369Y-105383710D01*
X71479360Y-105635600D01*
X71046323Y-105635600D01*
X71021162Y-105501883D01*
X70882090Y-105285759D01*
X70669890Y-105140769D01*
X70418000Y-105089760D01*
X69368000Y-105089760D01*
X69132683Y-105134038D01*
X68916559Y-105273110D01*
X68771569Y-105485310D01*
X68720560Y-105737200D01*
X66915440Y-105737200D01*
X66871162Y-105501883D01*
X66732090Y-105285759D01*
X66519890Y-105140769D01*
X66268000Y-105089760D01*
X65218000Y-105089760D01*
X64982683Y-105134038D01*
X64860446Y-105212695D01*
X64719200Y-105184600D01*
X64399660Y-105248160D01*
X64128766Y-105429166D01*
X63872067Y-105685865D01*
X63631457Y-105785283D01*
X63368208Y-106048073D01*
X63225562Y-106391601D01*
X63225238Y-106763567D01*
X60623800Y-106763567D01*
X60623800Y-106705400D01*
X60643800Y-106705400D01*
X60643800Y-106685400D01*
X60897800Y-106685400D01*
X60897800Y-106705400D01*
X62297050Y-106705400D01*
X62455800Y-106546650D01*
X62455800Y-105941150D01*
X62436396Y-105921746D01*
X62359127Y-105735202D01*
X62296870Y-105672944D01*
X62417231Y-105496790D01*
X62432358Y-105422092D01*
X62455800Y-105398650D01*
X62455800Y-105318591D01*
X62454132Y-105314565D01*
X62468240Y-105244900D01*
X62468240Y-104794900D01*
X62448733Y-104691229D01*
X62468240Y-104594900D01*
X62468240Y-104144900D01*
X62448733Y-104041229D01*
X62468240Y-103944900D01*
X62468240Y-103904900D01*
X62741300Y-103904900D01*
X63060841Y-103841339D01*
X63149334Y-103782210D01*
X63438877Y-103724615D01*
X63774656Y-103500256D01*
X64468161Y-102806750D01*
X67756200Y-102806750D01*
X67756200Y-103422309D01*
X67852873Y-103655698D01*
X68031501Y-103834327D01*
X68264890Y-103931000D01*
X69005450Y-103931000D01*
X69164200Y-103772250D01*
X69164200Y-102648000D01*
X69418200Y-102648000D01*
X69418200Y-103772250D01*
X69576950Y-103931000D01*
X70317510Y-103931000D01*
X70550899Y-103834327D01*
X70729527Y-103655698D01*
X70826200Y-103422309D01*
X70826200Y-103308150D01*
X72754600Y-103308150D01*
X72754600Y-103778710D01*
X72851273Y-104012099D01*
X73029902Y-104190727D01*
X73263291Y-104287400D01*
X73978850Y-104287400D01*
X74137600Y-104128650D01*
X74137600Y-103149400D01*
X72913350Y-103149400D01*
X72754600Y-103308150D01*
X70826200Y-103308150D01*
X70826200Y-102806750D01*
X70667450Y-102648000D01*
X69418200Y-102648000D01*
X69164200Y-102648000D01*
X67914950Y-102648000D01*
X67756200Y-102806750D01*
X64468161Y-102806750D01*
X65655511Y-101619400D01*
X67756321Y-101619400D01*
X67756200Y-101619691D01*
X67756200Y-102235250D01*
X67914950Y-102394000D01*
X69164200Y-102394000D01*
X69164200Y-102374000D01*
X69418200Y-102374000D01*
X69418200Y-102394000D01*
X70667450Y-102394000D01*
X70826200Y-102235250D01*
X70826200Y-101619691D01*
X70826079Y-101619400D01*
X71035946Y-101619400D01*
X71073638Y-101819717D01*
X71212710Y-102035841D01*
X71424910Y-102180831D01*
X71676800Y-102231840D01*
X72768787Y-102231840D01*
X72754600Y-102266090D01*
X72754600Y-102736650D01*
X72913350Y-102895400D01*
X74137600Y-102895400D01*
X74137600Y-102875400D01*
X74391600Y-102875400D01*
X74391600Y-102895400D01*
X74411600Y-102895400D01*
X74411600Y-103149400D01*
X74391600Y-103149400D01*
X74391600Y-104128650D01*
X74550350Y-104287400D01*
X75265909Y-104287400D01*
X75499298Y-104190727D01*
X75541260Y-104148766D01*
X75687710Y-104248831D01*
X75939600Y-104299840D01*
X77689600Y-104299840D01*
X77924917Y-104255562D01*
X78141041Y-104116490D01*
X78286031Y-103904290D01*
X78337040Y-103652400D01*
X78337040Y-102836534D01*
X78703744Y-102988803D01*
X79155275Y-102989197D01*
X79572586Y-102816767D01*
X79892145Y-102497765D01*
X79902422Y-102473016D01*
X79945198Y-102444434D01*
X81072232Y-101317400D01*
X81216041Y-101317400D01*
X81383359Y-101567809D01*
G36*
X58594755Y-94063736D02*
X58207776Y-94495588D01*
X58015516Y-95042658D01*
X58159569Y-95275400D01*
X59359800Y-95275400D01*
X59359800Y-95255400D01*
X59613800Y-95255400D01*
X59613800Y-95275400D01*
X59633800Y-95275400D01*
X59633800Y-95529400D01*
X59613800Y-95529400D01*
X59613800Y-96872555D01*
X59843690Y-96993876D01*
X59856060Y-96991953D01*
X60378845Y-96741064D01*
X60762147Y-96313315D01*
X60976746Y-96634486D01*
X61458515Y-96956393D01*
X62026800Y-97069432D01*
X62595085Y-96956393D01*
X63076854Y-96634486D01*
X63296800Y-96305313D01*
X63516746Y-96634486D01*
X63998515Y-96956393D01*
X64566800Y-97069432D01*
X65135085Y-96956393D01*
X65616854Y-96634486D01*
X65645081Y-96592241D01*
X65653638Y-96637717D01*
X65792710Y-96853841D01*
X66004910Y-96998831D01*
X66256800Y-97049840D01*
X67956800Y-97049840D01*
X68192117Y-97005562D01*
X68408241Y-96866490D01*
X68553231Y-96654290D01*
X68604240Y-96402400D01*
X68604240Y-94402400D01*
X68559962Y-94167083D01*
X68420890Y-93950959D01*
X68238592Y-93826400D01*
X69089380Y-93826400D01*
X68996215Y-94050766D01*
X68995786Y-94542079D01*
X69183408Y-94996157D01*
X69530515Y-95343871D01*
X69955778Y-95520456D01*
X69701155Y-95774635D01*
X69527997Y-96191644D01*
X69527603Y-96643175D01*
X69700033Y-97060486D01*
X70019035Y-97380045D01*
X70436044Y-97553203D01*
X70475347Y-97553237D01*
X70763655Y-97841545D01*
X71066991Y-98044227D01*
X71424800Y-98115400D01*
X74835510Y-98115400D01*
X75716462Y-98996352D01*
X75603110Y-98949400D01*
X75012550Y-98949400D01*
X74853800Y-99108150D01*
X74853800Y-100457400D01*
X74873800Y-100457400D01*
X74873800Y-100711400D01*
X74853800Y-100711400D01*
X74853800Y-100731400D01*
X74599800Y-100731400D01*
X74599800Y-100711400D01*
X74579800Y-100711400D01*
X74579800Y-100457400D01*
X74599800Y-100457400D01*
X74599800Y-99108150D01*
X74441050Y-98949400D01*
X73850490Y-98949400D01*
X73617101Y-99046073D01*
X73575140Y-99088034D01*
X73428690Y-98987969D01*
X73176800Y-98936960D01*
X71676800Y-98936960D01*
X71441483Y-98981238D01*
X71225359Y-99120310D01*
X71080369Y-99332510D01*
X71036448Y-99549400D01*
X70838640Y-99549400D01*
X70838640Y-99396000D01*
X70794362Y-99160683D01*
X70655290Y-98944559D01*
X70443090Y-98799569D01*
X70191200Y-98748560D01*
X68391200Y-98748560D01*
X68155883Y-98792838D01*
X67939759Y-98931910D01*
X67794769Y-99144110D01*
X67743760Y-99396000D01*
X67743760Y-99549400D01*
X65226800Y-99549400D01*
X64830722Y-99628185D01*
X64798972Y-99649400D01*
X64494944Y-99852544D01*
X64494942Y-99852547D01*
X62455800Y-101891688D01*
X62455800Y-101780398D01*
X62297052Y-101780398D01*
X62455800Y-101621650D01*
X62455800Y-101043591D01*
X62359127Y-100810202D01*
X62180499Y-100631573D01*
X61947110Y-100534900D01*
X61056550Y-100534900D01*
X60897800Y-100693650D01*
X60897800Y-101780400D01*
X60917800Y-101780400D01*
X60917800Y-102034400D01*
X60897800Y-102034400D01*
X60897800Y-102054400D01*
X60643800Y-102054400D01*
X60643800Y-102034400D01*
X60623800Y-102034400D01*
X60623800Y-101780400D01*
X60643800Y-101780400D01*
X60643800Y-100693650D01*
X60485050Y-100534900D01*
X60055800Y-100534900D01*
X60055800Y-100146091D01*
X59959127Y-99912702D01*
X59780499Y-99734073D01*
X59547110Y-99637400D01*
X58756550Y-99637400D01*
X58597800Y-99796150D01*
X58597800Y-101332900D01*
X58617800Y-101332900D01*
X58617800Y-101586900D01*
X58597800Y-101586900D01*
X58597800Y-103402900D01*
X58617800Y-103402900D01*
X58617800Y-103656900D01*
X58597800Y-103656900D01*
X58597800Y-105082900D01*
X58617800Y-105082900D01*
X58617800Y-105336900D01*
X58597800Y-105336900D01*
X58597800Y-107152900D01*
X58617800Y-107152900D01*
X58617800Y-107406900D01*
X58597800Y-107406900D01*
X58597800Y-107426900D01*
X58343800Y-107426900D01*
X58343800Y-107406900D01*
X58323800Y-107406900D01*
X58323800Y-107152900D01*
X58343800Y-107152900D01*
X58343800Y-105336900D01*
X58323800Y-105336900D01*
X58323800Y-105082900D01*
X58343800Y-105082900D01*
X58343800Y-103656900D01*
X58323800Y-103656900D01*
X58323800Y-103402900D01*
X58343800Y-103402900D01*
X58343800Y-101586900D01*
X58323800Y-101586900D01*
X58323800Y-101332900D01*
X58343800Y-101332900D01*
X58343800Y-99796150D01*
X58185050Y-99637400D01*
X57910800Y-99637400D01*
X57910800Y-95762142D01*
X58015516Y-95762142D01*
X58207776Y-96309212D01*
X58594755Y-96741064D01*
X59117540Y-96991953D01*
X59129910Y-96993876D01*
X59359800Y-96872555D01*
X59359800Y-95529400D01*
X58159569Y-95529400D01*
X58015516Y-95762142D01*
X57910800Y-95762142D01*
X57910800Y-93826400D01*
X59089299Y-93826400D01*
X58594755Y-94063736D01*
X58594755Y-94063736D01*
G37*
X58594755Y-94063736D02*
X58207776Y-94495588D01*
X58015516Y-95042658D01*
X58159569Y-95275400D01*
X59359800Y-95275400D01*
X59359800Y-95255400D01*
X59613800Y-95255400D01*
X59613800Y-95275400D01*
X59633800Y-95275400D01*
X59633800Y-95529400D01*
X59613800Y-95529400D01*
X59613800Y-96872555D01*
X59843690Y-96993876D01*
X59856060Y-96991953D01*
X60378845Y-96741064D01*
X60762147Y-96313315D01*
X60976746Y-96634486D01*
X61458515Y-96956393D01*
X62026800Y-97069432D01*
X62595085Y-96956393D01*
X63076854Y-96634486D01*
X63296800Y-96305313D01*
X63516746Y-96634486D01*
X63998515Y-96956393D01*
X64566800Y-97069432D01*
X65135085Y-96956393D01*
X65616854Y-96634486D01*
X65645081Y-96592241D01*
X65653638Y-96637717D01*
X65792710Y-96853841D01*
X66004910Y-96998831D01*
X66256800Y-97049840D01*
X67956800Y-97049840D01*
X68192117Y-97005562D01*
X68408241Y-96866490D01*
X68553231Y-96654290D01*
X68604240Y-96402400D01*
X68604240Y-94402400D01*
X68559962Y-94167083D01*
X68420890Y-93950959D01*
X68238592Y-93826400D01*
X69089380Y-93826400D01*
X68996215Y-94050766D01*
X68995786Y-94542079D01*
X69183408Y-94996157D01*
X69530515Y-95343871D01*
X69955778Y-95520456D01*
X69701155Y-95774635D01*
X69527997Y-96191644D01*
X69527603Y-96643175D01*
X69700033Y-97060486D01*
X70019035Y-97380045D01*
X70436044Y-97553203D01*
X70475347Y-97553237D01*
X70763655Y-97841545D01*
X71066991Y-98044227D01*
X71424800Y-98115400D01*
X74835510Y-98115400D01*
X75716462Y-98996352D01*
X75603110Y-98949400D01*
X75012550Y-98949400D01*
X74853800Y-99108150D01*
X74853800Y-100457400D01*
X74873800Y-100457400D01*
X74873800Y-100711400D01*
X74853800Y-100711400D01*
X74853800Y-100731400D01*
X74599800Y-100731400D01*
X74599800Y-100711400D01*
X74579800Y-100711400D01*
X74579800Y-100457400D01*
X74599800Y-100457400D01*
X74599800Y-99108150D01*
X74441050Y-98949400D01*
X73850490Y-98949400D01*
X73617101Y-99046073D01*
X73575140Y-99088034D01*
X73428690Y-98987969D01*
X73176800Y-98936960D01*
X71676800Y-98936960D01*
X71441483Y-98981238D01*
X71225359Y-99120310D01*
X71080369Y-99332510D01*
X71036448Y-99549400D01*
X70838640Y-99549400D01*
X70838640Y-99396000D01*
X70794362Y-99160683D01*
X70655290Y-98944559D01*
X70443090Y-98799569D01*
X70191200Y-98748560D01*
X68391200Y-98748560D01*
X68155883Y-98792838D01*
X67939759Y-98931910D01*
X67794769Y-99144110D01*
X67743760Y-99396000D01*
X67743760Y-99549400D01*
X65226800Y-99549400D01*
X64830722Y-99628185D01*
X64798972Y-99649400D01*
X64494944Y-99852544D01*
X64494942Y-99852547D01*
X62455800Y-101891688D01*
X62455800Y-101780398D01*
X62297052Y-101780398D01*
X62455800Y-101621650D01*
X62455800Y-101043591D01*
X62359127Y-100810202D01*
X62180499Y-100631573D01*
X61947110Y-100534900D01*
X61056550Y-100534900D01*
X60897800Y-100693650D01*
X60897800Y-101780400D01*
X60917800Y-101780400D01*
X60917800Y-102034400D01*
X60897800Y-102034400D01*
X60897800Y-102054400D01*
X60643800Y-102054400D01*
X60643800Y-102034400D01*
X60623800Y-102034400D01*
X60623800Y-101780400D01*
X60643800Y-101780400D01*
X60643800Y-100693650D01*
X60485050Y-100534900D01*
X60055800Y-100534900D01*
X60055800Y-100146091D01*
X59959127Y-99912702D01*
X59780499Y-99734073D01*
X59547110Y-99637400D01*
X58756550Y-99637400D01*
X58597800Y-99796150D01*
X58597800Y-101332900D01*
X58617800Y-101332900D01*
X58617800Y-101586900D01*
X58597800Y-101586900D01*
X58597800Y-103402900D01*
X58617800Y-103402900D01*
X58617800Y-103656900D01*
X58597800Y-103656900D01*
X58597800Y-105082900D01*
X58617800Y-105082900D01*
X58617800Y-105336900D01*
X58597800Y-105336900D01*
X58597800Y-107152900D01*
X58617800Y-107152900D01*
X58617800Y-107406900D01*
X58597800Y-107406900D01*
X58597800Y-107426900D01*
X58343800Y-107426900D01*
X58343800Y-107406900D01*
X58323800Y-107406900D01*
X58323800Y-107152900D01*
X58343800Y-107152900D01*
X58343800Y-105336900D01*
X58323800Y-105336900D01*
X58323800Y-105082900D01*
X58343800Y-105082900D01*
X58343800Y-103656900D01*
X58323800Y-103656900D01*
X58323800Y-103402900D01*
X58343800Y-103402900D01*
X58343800Y-101586900D01*
X58323800Y-101586900D01*
X58323800Y-101332900D01*
X58343800Y-101332900D01*
X58343800Y-99796150D01*
X58185050Y-99637400D01*
X57910800Y-99637400D01*
X57910800Y-95762142D01*
X58015516Y-95762142D01*
X58207776Y-96309212D01*
X58594755Y-96741064D01*
X59117540Y-96991953D01*
X59129910Y-96993876D01*
X59359800Y-96872555D01*
X59359800Y-95529400D01*
X58159569Y-95529400D01*
X58015516Y-95762142D01*
X57910800Y-95762142D01*
X57910800Y-93826400D01*
X59089299Y-93826400D01*
X58594755Y-94063736D01*
M02*
