M48
;DRILL file {KiCad 4.0.7} date Wed Dec 12 21:19:53 2018
;FORMAT={-:-/ absolute / metric / decimal}
FMAT,2
METRIC,TZ
T1C0.400
T2C1.000
T3C1.200
%
G90
G05
M71
T1
X63.805Y-99.212
X64.16Y-106.578
X70.663Y-96.418
X78.13Y-104.394
X78.93Y-101.854
X82.614Y-94.869
T2
X59.487Y-95.402
X62.027Y-95.402
X64.567Y-95.402
X67.107Y-95.402
X82.601Y-97.942
X82.601Y-100.482
X82.601Y-103.022
X82.601Y-105.562
X85.141Y-97.942
X85.141Y-100.482
X85.141Y-103.022
X85.141Y-105.562
T3
X70.231Y-94.297
X86.614Y-108.331
X86.677Y-94.17
T0
M30
