G04 #@! TF.FileFunction,Legend,Bot*
%FSLAX46Y46*%
G04 Gerber Fmt 4.6, Leading zero omitted, Abs format (unit mm)*
G04 Created by KiCad (PCBNEW 4.0.7) date Wed Nov 28 14:25:24 2018*
%MOMM*%
%LPD*%
G01*
G04 APERTURE LIST*
%ADD10C,0.100000*%
%ADD11C,0.150000*%
%ADD12C,0.120000*%
G04 APERTURE END LIST*
D10*
D11*
X90170000Y-64770000D02*
X90170000Y-126365000D01*
X54610000Y-64770000D02*
X90170000Y-64770000D01*
X54610000Y-126365000D02*
X54610000Y-64770000D01*
X90170000Y-126365000D02*
X54610000Y-126365000D01*
D12*
X61908380Y-124372680D02*
X61908380Y-121712680D01*
X79748380Y-124372680D02*
X61908380Y-124372680D01*
X79748380Y-121712680D02*
X61908380Y-121712680D01*
X79748380Y-124372680D02*
X79748380Y-121712680D01*
X81018380Y-124372680D02*
X82348380Y-124372680D01*
X82348380Y-124372680D02*
X82348380Y-123042680D01*
X82343300Y-65954600D02*
X82343300Y-68614600D01*
X64503300Y-65954600D02*
X82343300Y-65954600D01*
X64503300Y-68614600D02*
X82343300Y-68614600D01*
X64503300Y-65954600D02*
X64503300Y-68614600D01*
X63233300Y-65954600D02*
X61903300Y-65954600D01*
X61903300Y-65954600D02*
X61903300Y-67284600D01*
D11*
X84018381Y-122304585D02*
X83018381Y-122304585D01*
X83018381Y-122685538D01*
X83066000Y-122780776D01*
X83113619Y-122828395D01*
X83208857Y-122876014D01*
X83351714Y-122876014D01*
X83446952Y-122828395D01*
X83494571Y-122780776D01*
X83542190Y-122685538D01*
X83542190Y-122304585D01*
X84018381Y-123828395D02*
X84018381Y-123256966D01*
X84018381Y-123542680D02*
X83018381Y-123542680D01*
X83161238Y-123447442D01*
X83256476Y-123352204D01*
X83304095Y-123256966D01*
X84018381Y-66508405D02*
X83018381Y-66508405D01*
X83018381Y-66889358D01*
X83066000Y-66984596D01*
X83113619Y-67032215D01*
X83208857Y-67079834D01*
X83351714Y-67079834D01*
X83446952Y-67032215D01*
X83494571Y-66984596D01*
X83542190Y-66889358D01*
X83542190Y-66508405D01*
X83113619Y-67460786D02*
X83066000Y-67508405D01*
X83018381Y-67603643D01*
X83018381Y-67841739D01*
X83066000Y-67936977D01*
X83113619Y-67984596D01*
X83208857Y-68032215D01*
X83304095Y-68032215D01*
X83446952Y-67984596D01*
X84018381Y-67413167D01*
X84018381Y-68032215D01*
M02*
