G04 #@! TF.FileFunction,Soldermask,Top*
%FSLAX46Y46*%
G04 Gerber Fmt 4.6, Leading zero omitted, Abs format (unit mm)*
G04 Created by KiCad (PCBNEW 4.0.7) date Wed Nov 28 14:25:24 2018*
%MOMM*%
%LPD*%
G01*
G04 APERTURE LIST*
%ADD10C,0.100000*%
%ADD11C,0.150000*%
%ADD12R,1.152400X1.752400*%
%ADD13R,0.472389X2.552395*%
%ADD14R,0.952500X0.952500*%
%ADD15R,1.852400X1.052400*%
%ADD16R,1.852400X1.852400*%
%ADD17O,1.852400X1.852400*%
G04 APERTURE END LIST*
D10*
D11*
X90170000Y-64770000D02*
X90170000Y-126365000D01*
X54610000Y-64770000D02*
X90170000Y-64770000D01*
X54610000Y-126365000D02*
X54610000Y-64770000D01*
X90170000Y-126365000D02*
X54610000Y-126365000D01*
D12*
X85495000Y-123952000D03*
X88495000Y-123952000D03*
D13*
X83659600Y-116433600D03*
X83059600Y-116433600D03*
X82459600Y-116433600D03*
X81859600Y-116433600D03*
X81259600Y-116433600D03*
X80659600Y-116433600D03*
X80059600Y-116433600D03*
X79459600Y-116433600D03*
X78859600Y-116433600D03*
X78259600Y-116433600D03*
X77659600Y-116433600D03*
X77059600Y-116433600D03*
D14*
X58354000Y-122189240D03*
X56454000Y-122189240D03*
X57404000Y-124188220D03*
D15*
X60833000Y-121740000D03*
X60833000Y-124640000D03*
D16*
X81018380Y-123042680D03*
D17*
X78478380Y-123042680D03*
X75938380Y-123042680D03*
X73398380Y-123042680D03*
X70858380Y-123042680D03*
X68318380Y-123042680D03*
X65778380Y-123042680D03*
X63238380Y-123042680D03*
D16*
X63233300Y-67284600D03*
D17*
X65773300Y-67284600D03*
X68313300Y-67284600D03*
X70853300Y-67284600D03*
X73393300Y-67284600D03*
X75933300Y-67284600D03*
X78473300Y-67284600D03*
X81013300Y-67284600D03*
M02*
