G04 #@! TF.FileFunction,Legend,Top*
%FSLAX46Y46*%
G04 Gerber Fmt 4.6, Leading zero omitted, Abs format (unit mm)*
G04 Created by KiCad (PCBNEW 4.0.7) date Wed Nov 28 14:25:24 2018*
%MOMM*%
%LPD*%
G01*
G04 APERTURE LIST*
%ADD10C,0.100000*%
%ADD11C,0.150000*%
G04 APERTURE END LIST*
D10*
D11*
X63123714Y-124893429D02*
X62838000Y-124893429D01*
X62809429Y-125179143D01*
X62838000Y-125150571D01*
X62895143Y-125122000D01*
X63038000Y-125122000D01*
X63095143Y-125150571D01*
X63123714Y-125179143D01*
X63152286Y-125236286D01*
X63152286Y-125379143D01*
X63123714Y-125436286D01*
X63095143Y-125464857D01*
X63038000Y-125493429D01*
X62895143Y-125493429D01*
X62838000Y-125464857D01*
X62809429Y-125436286D01*
X63323715Y-124893429D02*
X63523715Y-125493429D01*
X63723715Y-124893429D01*
X65420857Y-125436286D02*
X65392286Y-125464857D01*
X65306572Y-125493429D01*
X65249429Y-125493429D01*
X65163714Y-125464857D01*
X65106572Y-125407714D01*
X65078000Y-125350571D01*
X65049429Y-125236286D01*
X65049429Y-125150571D01*
X65078000Y-125036286D01*
X65106572Y-124979143D01*
X65163714Y-124922000D01*
X65249429Y-124893429D01*
X65306572Y-124893429D01*
X65392286Y-124922000D01*
X65420857Y-124950571D01*
X65963714Y-125493429D02*
X65678000Y-125493429D01*
X65678000Y-124893429D01*
X66163714Y-125493429D02*
X66163714Y-124893429D01*
X66506571Y-125493429D02*
X66249428Y-125150571D01*
X66506571Y-124893429D02*
X66163714Y-125236286D01*
X67375143Y-125493429D02*
X67375143Y-124893429D01*
X67575143Y-125322000D01*
X67775143Y-124893429D01*
X67775143Y-125493429D01*
X68175143Y-124893429D02*
X68289429Y-124893429D01*
X68346571Y-124922000D01*
X68403714Y-124979143D01*
X68432286Y-125093429D01*
X68432286Y-125293429D01*
X68403714Y-125407714D01*
X68346571Y-125464857D01*
X68289429Y-125493429D01*
X68175143Y-125493429D01*
X68118000Y-125464857D01*
X68060857Y-125407714D01*
X68032286Y-125293429D01*
X68032286Y-125093429D01*
X68060857Y-124979143D01*
X68118000Y-124922000D01*
X68175143Y-124893429D01*
X68660857Y-125464857D02*
X68746571Y-125493429D01*
X68889428Y-125493429D01*
X68946571Y-125464857D01*
X68975142Y-125436286D01*
X69003714Y-125379143D01*
X69003714Y-125322000D01*
X68975142Y-125264857D01*
X68946571Y-125236286D01*
X68889428Y-125207714D01*
X68775142Y-125179143D01*
X68718000Y-125150571D01*
X68689428Y-125122000D01*
X68660857Y-125064857D01*
X68660857Y-125007714D01*
X68689428Y-124950571D01*
X68718000Y-124922000D01*
X68775142Y-124893429D01*
X68918000Y-124893429D01*
X69003714Y-124922000D01*
X69260857Y-125493429D02*
X69260857Y-124893429D01*
X70480286Y-125493429D02*
X70194572Y-125493429D01*
X70194572Y-124893429D01*
X70680286Y-125179143D02*
X70880286Y-125179143D01*
X70966000Y-125493429D02*
X70680286Y-125493429D01*
X70680286Y-124893429D01*
X70966000Y-124893429D01*
X71223143Y-125493429D02*
X71223143Y-124893429D01*
X71366000Y-124893429D01*
X71451715Y-124922000D01*
X71508857Y-124979143D01*
X71537429Y-125036286D01*
X71566000Y-125150571D01*
X71566000Y-125236286D01*
X71537429Y-125350571D01*
X71508857Y-125407714D01*
X71451715Y-125464857D01*
X71366000Y-125493429D01*
X71223143Y-125493429D01*
X73069808Y-125493429D02*
X72869808Y-125207714D01*
X72726951Y-125493429D02*
X72726951Y-124893429D01*
X72955523Y-124893429D01*
X73012665Y-124922000D01*
X73041237Y-124950571D01*
X73069808Y-125007714D01*
X73069808Y-125093429D01*
X73041237Y-125150571D01*
X73012665Y-125179143D01*
X72955523Y-125207714D01*
X72726951Y-125207714D01*
X73298380Y-125464857D02*
X73384094Y-125493429D01*
X73526951Y-125493429D01*
X73584094Y-125464857D01*
X73612665Y-125436286D01*
X73641237Y-125379143D01*
X73641237Y-125322000D01*
X73612665Y-125264857D01*
X73584094Y-125236286D01*
X73526951Y-125207714D01*
X73412665Y-125179143D01*
X73355523Y-125150571D01*
X73326951Y-125122000D01*
X73298380Y-125064857D01*
X73298380Y-125007714D01*
X73326951Y-124950571D01*
X73355523Y-124922000D01*
X73412665Y-124893429D01*
X73555523Y-124893429D01*
X73641237Y-124922000D01*
X73812666Y-124893429D02*
X74155523Y-124893429D01*
X73984094Y-125493429D02*
X73984094Y-124893429D01*
X75852666Y-125436286D02*
X75824095Y-125464857D01*
X75738381Y-125493429D01*
X75681238Y-125493429D01*
X75595523Y-125464857D01*
X75538381Y-125407714D01*
X75509809Y-125350571D01*
X75481238Y-125236286D01*
X75481238Y-125150571D01*
X75509809Y-125036286D01*
X75538381Y-124979143D01*
X75595523Y-124922000D01*
X75681238Y-124893429D01*
X75738381Y-124893429D01*
X75824095Y-124922000D01*
X75852666Y-124950571D01*
X76109809Y-125179143D02*
X76309809Y-125179143D01*
X76395523Y-125493429D02*
X76109809Y-125493429D01*
X76109809Y-124893429D01*
X76395523Y-124893429D01*
X78020858Y-124922000D02*
X77963715Y-124893429D01*
X77878001Y-124893429D01*
X77792286Y-124922000D01*
X77735144Y-124979143D01*
X77706572Y-125036286D01*
X77678001Y-125150571D01*
X77678001Y-125236286D01*
X77706572Y-125350571D01*
X77735144Y-125407714D01*
X77792286Y-125464857D01*
X77878001Y-125493429D01*
X77935144Y-125493429D01*
X78020858Y-125464857D01*
X78049429Y-125436286D01*
X78049429Y-125236286D01*
X77935144Y-125236286D01*
X78306572Y-125493429D02*
X78306572Y-124893429D01*
X78649429Y-125493429D01*
X78649429Y-124893429D01*
X78935143Y-125493429D02*
X78935143Y-124893429D01*
X79078000Y-124893429D01*
X79163715Y-124922000D01*
X79220857Y-124979143D01*
X79249429Y-125036286D01*
X79278000Y-125150571D01*
X79278000Y-125236286D01*
X79249429Y-125350571D01*
X79220857Y-125407714D01*
X79163715Y-125464857D01*
X79078000Y-125493429D01*
X78935143Y-125493429D01*
X80303714Y-124893429D02*
X80675143Y-124893429D01*
X80475143Y-125122000D01*
X80560857Y-125122000D01*
X80618000Y-125150571D01*
X80646571Y-125179143D01*
X80675143Y-125236286D01*
X80675143Y-125379143D01*
X80646571Y-125436286D01*
X80618000Y-125464857D01*
X80560857Y-125493429D01*
X80389429Y-125493429D01*
X80332286Y-125464857D01*
X80303714Y-125436286D01*
X80875143Y-125093429D02*
X81018000Y-125493429D01*
X81160858Y-125093429D01*
X81332286Y-124893429D02*
X81703715Y-124893429D01*
X81503715Y-125122000D01*
X81589429Y-125122000D01*
X81646572Y-125150571D01*
X81675143Y-125179143D01*
X81703715Y-125236286D01*
X81703715Y-125379143D01*
X81675143Y-125436286D01*
X81646572Y-125464857D01*
X81589429Y-125493429D01*
X81418001Y-125493429D01*
X81360858Y-125464857D01*
X81332286Y-125436286D01*
X90170000Y-64770000D02*
X90170000Y-126365000D01*
X54610000Y-64770000D02*
X90170000Y-64770000D01*
X54610000Y-126365000D02*
X54610000Y-64770000D01*
X90170000Y-126365000D02*
X54610000Y-126365000D01*
X87995000Y-122927000D02*
X85995000Y-122927000D01*
X85995000Y-124977000D02*
X87995000Y-124977000D01*
X89633720Y-70426580D02*
X55038920Y-70426580D01*
X55038920Y-119499380D02*
X55038920Y-70426580D01*
X89633720Y-119499380D02*
X89633720Y-70426580D01*
X89633720Y-119499380D02*
X55038920Y-119499380D01*
X56104840Y-123840240D02*
X56153100Y-123840240D01*
X58903820Y-123139200D02*
X58903820Y-123840240D01*
X58903820Y-123840240D02*
X58654900Y-123840240D01*
X56104840Y-123840240D02*
X55904180Y-123840240D01*
X55904180Y-123840240D02*
X55904180Y-123139200D01*
X59758000Y-124190000D02*
X59758000Y-122190000D01*
X61908000Y-122190000D02*
X61908000Y-124190000D01*
X86861667Y-122586714D02*
X86823572Y-122624810D01*
X86709286Y-122662905D01*
X86633096Y-122662905D01*
X86518810Y-122624810D01*
X86442619Y-122548619D01*
X86404524Y-122472429D01*
X86366429Y-122320048D01*
X86366429Y-122205762D01*
X86404524Y-122053381D01*
X86442619Y-121977190D01*
X86518810Y-121901000D01*
X86633096Y-121862905D01*
X86709286Y-121862905D01*
X86823572Y-121901000D01*
X86861667Y-121939095D01*
X87623572Y-122662905D02*
X87166429Y-122662905D01*
X87395000Y-122662905D02*
X87395000Y-121862905D01*
X87318810Y-121977190D01*
X87242619Y-122053381D01*
X87166429Y-122091476D01*
X55956210Y-125507695D02*
X55880019Y-125469600D01*
X55803829Y-125393410D01*
X55689543Y-125279124D01*
X55613352Y-125241029D01*
X55537162Y-125241029D01*
X55575257Y-125431505D02*
X55499067Y-125393410D01*
X55422876Y-125317219D01*
X55384781Y-125164838D01*
X55384781Y-124898171D01*
X55422876Y-124745790D01*
X55499067Y-124669600D01*
X55575257Y-124631505D01*
X55727638Y-124631505D01*
X55803829Y-124669600D01*
X55880019Y-124745790D01*
X55918114Y-124898171D01*
X55918114Y-125164838D01*
X55880019Y-125317219D01*
X55803829Y-125393410D01*
X55727638Y-125431505D01*
X55575257Y-125431505D01*
X56680019Y-125431505D02*
X56222876Y-125431505D01*
X56451447Y-125431505D02*
X56451447Y-124631505D01*
X56375257Y-124745790D01*
X56299066Y-124821981D01*
X56222876Y-124860076D01*
X59048667Y-125482305D02*
X58782000Y-125101352D01*
X58591524Y-125482305D02*
X58591524Y-124682305D01*
X58896286Y-124682305D01*
X58972477Y-124720400D01*
X59010572Y-124758495D01*
X59048667Y-124834686D01*
X59048667Y-124948971D01*
X59010572Y-125025162D01*
X58972477Y-125063257D01*
X58896286Y-125101352D01*
X58591524Y-125101352D01*
X59810572Y-125482305D02*
X59353429Y-125482305D01*
X59582000Y-125482305D02*
X59582000Y-124682305D01*
X59505810Y-124796590D01*
X59429619Y-124872781D01*
X59353429Y-124910876D01*
M02*
