<?xml version="1.0" encoding="UTF-8" standalone="no"?>
<!-- Created with Inkscape (http://www.inkscape.org/) -->

<svg
   xmlns:dc="http://purl.org/dc/elements/1.1/"
   xmlns:cc="http://creativecommons.org/ns#"
   xmlns:rdf="http://www.w3.org/1999/02/22-rdf-syntax-ns#"
   xmlns:svg="http://www.w3.org/2000/svg"
   xmlns="http://www.w3.org/2000/svg"
   xmlns:sodipodi="http://sodipodi.sourceforge.net/DTD/sodipodi-0.dtd"
   xmlns:inkscape="http://www.inkscape.org/namespaces/inkscape"
   width="40mm"
   height="40mm"
   viewBox="0 0 40 40"
   version="1.1"
   id="svg63"
   inkscape:version="0.92.3 (2405546, 2018-03-11)"
   sodipodi:docname="karibe_company_logo.svg">
  <defs
     id="defs57" />
  <sodipodi:namedview
     id="base"
     pagecolor="#ffffff"
     bordercolor="#666666"
     borderopacity="1.0"
     inkscape:pageopacity="0.0"
     inkscape:pageshadow="2"
     inkscape:zoom="2.8"
     inkscape:cx="67.926819"
     inkscape:cy="76.488791"
     inkscape:document-units="mm"
     inkscape:current-layer="layer1"
     showgrid="false"
     inkscape:window-width="1366"
     inkscape:window-height="713"
     inkscape:window-x="0"
     inkscape:window-y="27"
     inkscape:window-maximized="1" />
  <metadata
     id="metadata60">
    <rdf:RDF>
      <cc:Work
         rdf:about="">
        <dc:format>image/svg+xml</dc:format>
        <dc:type
           rdf:resource="http://purl.org/dc/dcmitype/StillImage" />
        <dc:title></dc:title>
      </cc:Work>
    </rdf:RDF>
  </metadata>
  <g
     inkscape:label="Layer 1"
     inkscape:groupmode="layer"
     id="layer1"
     transform="translate(0,-257)">
    <g
       transform="translate(-57.765524,212.13718)"
       id="g43">
      <path
         style="fill:#999999;fill-opacity:1;stroke:#3b3b3b;stroke-width:1.58700001;stroke-linecap:round;stroke-miterlimit:4;stroke-dasharray:none;stroke-opacity:1"
         d="m 61.888163,47.379393 v 35.090365 h 10.20713 v -7.27035 c -0.701635,-0.52558 -1.115115,-1.35061 -1.116211,-2.22726 1.32e-4,-1.539315 1.248116,-2.787065 2.787425,-2.786915 1.539121,1.4e-4 2.78678,1.2478 2.786912,2.786915 -0.0011,0.94864 -0.484468,1.83162 -1.283126,2.34353 v 7.15408 h 18.4366 l -2.01e-4,-13.300375 c 0,0 0.16146,-2.84735 -3.831415,-2.99786 h -6.684539 c -0.777245,0 -1.403014,-0.69109 -1.403014,-1.54977 v -0.69062 c 0,-0.85869 0.625769,-1.55029 1.403014,-1.55029 h 6.673987 c 4.039346,0.082 3.841967,-3.30643 3.841967,-3.30643 V 47.379393 H 75.270293 v 9.58753 c 0.798499,0.51181 1.281935,1.39456 1.283126,2.34301 1.59e-4,1.5393 -1.24759,2.78728 -2.786912,2.78742 -1.53951,1.5e-4 -2.787581,-1.2479 -2.787425,-2.78742 0.0011,-0.87665 0.414573,-1.70169 1.116211,-2.22726 v -9.70328 z"
         id="path1469"
         inkscape:connector-curvature="0"
         sodipodi:nodetypes="ccccccccccccssscccccccccccc" />
      <circle
         r="0.95399201"
         cy="59.140095"
         cx="73.7342"
         id="circle1471"
         style="fill:#3b3b3b;fill-opacity:1;stroke:#000080;stroke-width:0;stroke-linecap:round;stroke-miterlimit:4;stroke-dasharray:none;stroke-opacity:1" />
      <circle
         style="fill:#333333;fill-opacity:1;stroke:#000080;stroke-width:0;stroke-linecap:round;stroke-miterlimit:4;stroke-dasharray:none;stroke-opacity:1"
         id="circle1473"
         cx="73.7342"
         cy="72.898438"
         r="0.95399201" />
    </g>
  </g>
</svg>
