<?xml version="1.0" standalone="no"?>
 <!DOCTYPE svg PUBLIC "-//W3C//DTD SVG 1.1//EN" 
 "http://www.w3.org/Graphics/SVG/1.1/DTD/svg11.dtd"> 
<svg xmlns="http://www.w3.org/2000/svg" version="1.1" 
    width="29.7002cm" height="21.0007cm" viewBox="0 0 116930 82680 ">
<title>SVG Picture created as Nokia1202_LCD-F.Cu.svg date 2018/01/24 12:39:17 </title>
  <desc>Picture generated by PCBNEW </desc>
<g style="fill:#000000; fill-opacity:1;stroke:#000000; stroke-opacity:1;
stroke-linecap:round; stroke-linejoin:round; "
 transform="translate(0 0) scale(1 1)">
</g>
<g style="fill:#000000; fill-opacity:0.0; 
stroke:#000000; stroke-width:-0.000393701; stroke-opacity:1; 
stroke-linecap:round; stroke-linejoin:round;">
</g>
<g style="fill:#000000; fill-opacity:0.0; 
stroke:#000000; stroke-width:59.0551; stroke-opacity:1; 
stroke-linecap:round; stroke-linejoin:round;">
<path d="M70535 46210
L70530 34900
" />
<path d="M60730 46200
L70535 46210
" />
<path d="M60730 34900
L60730 46200
" />
<path d="M70530 34900
L60730 34900
" />
</g>
<g style="fill:#000000; fill-opacity:0.0; 
stroke:#000000; stroke-width:0; stroke-opacity:1; 
stroke-linecap:round; stroke-linejoin:round;">
</g>
<g style="fill:#000000; fill-opacity:1.0; 
stroke:#000000; stroke-width:0; stroke-opacity:1; 
stroke-linecap:round; stroke-linejoin:round;">
<polyline style="fill-rule:evenodd;"
points="68479,37017
67850,37017
67850,37411
68479,37411
68479,37017
" /> 
<polyline style="fill-rule:evenodd;"
points="68479,38198
67850,38198
67850,38592
68479,38592
68479,38198
" /> 
<polyline style="fill-rule:evenodd;"
points="66855,38882
66855,37937
66729,37937
66729,38882
66855,38882
" /> 
<polyline style="fill-rule:evenodd;"
points="67091,38882
67091,37937
66965,37937
66965,38882
67091,38882
" /> 
<polyline style="fill-rule:evenodd;"
points="66618,38882
66618,37937
66492,37937
66492,38882
66618,38882
" /> 
<polyline style="fill-rule:evenodd;"
points="66382,38882
66382,37937
66256,37937
66256,38882
66382,38882
" /> 
<polyline style="fill-rule:evenodd;"
points="66146,38882
66146,37937
66020,37937
66020,38882
66146,38882
" /> 
<polyline style="fill-rule:evenodd;"
points="65910,38882
65910,37937
65784,37937
65784,38882
65910,38882
" /> 
<polyline style="fill-rule:evenodd;"
points="65674,38882
65674,37937
65548,37937
65548,38882
65674,38882
" /> 
<polyline style="fill-rule:evenodd;"
points="65437,38882
65437,37937
65311,37937
65311,38882
65437,38882
" /> 
<polyline style="fill-rule:evenodd;"
points="65201,38882
65201,37937
65075,37937
65075,38882
65201,38882
" /> 
<polyline style="fill-rule:evenodd;"
points="64965,38882
64965,37937
64839,37937
64839,38882
64965,38882
" /> 
<polyline style="fill-rule:evenodd;"
points="64729,38882
64729,37937
64603,37937
64603,38882
64729,38882
" /> 
<polyline style="fill-rule:evenodd;"
points="64492,38882
64492,37937
64367,37937
64367,38882
64492,38882
" /> 
<polyline style="fill-rule:evenodd;"
points="69170,36160
69850,36160
69850,35360
69170,35360
69170,36160
" /> 
</g>
<g style="fill:#000000; fill-opacity:1.0; 
stroke:#000000; stroke-width:680; stroke-opacity:1; 
stroke-linecap:round; stroke-linejoin:round;">
</g>
<g style="fill:#000000; fill-opacity:0.0; 
stroke:#000000; stroke-width:680; stroke-opacity:1; 
stroke-linecap:round; stroke-linejoin:round;">
<path d="M68510 35820
L68510 35700
" />
<path d="M67510 35820
L67510 35700
" />
<path d="M66510 35820
L66510 35700
" />
<path d="M65510 35820
L65510 35700
" />
<path d="M64510 35820
L64510 35700
" />
<path d="M63510 35820
L63510 35700
" />
<path d="M62510 35820
L62510 35700
" />
</g>
<g style="fill:#000000; fill-opacity:0.0; 
stroke:#000000; stroke-width:0; stroke-opacity:1; 
stroke-linecap:round; stroke-linejoin:round;">
</g>
<g style="fill:#000000; fill-opacity:1.0; 
stroke:#000000; stroke-width:0; stroke-opacity:1; 
stroke-linecap:round; stroke-linejoin:round;">
<polyline style="fill-rule:evenodd;"
points="63193,38129
63193,37460
62838,37460
62838,38129
63193,38129
" /> 
<polyline style="fill-rule:evenodd;"
points="62051,38129
62051,37460
61696,37460
61696,38129
62051,38129
" /> 
<polyline style="fill-rule:evenodd;"
points="69864,37041
69195,37041
69195,37396
69864,37396
69864,37041
" /> 
<polyline style="fill-rule:evenodd;"
points="69864,38183
69195,38183
69195,38538
69864,38538
69864,38183
" /> 
</g>
<g style="fill:#000000; fill-opacity:1.0; 
stroke:#000000; stroke-width:98.4252; stroke-opacity:1; 
stroke-linecap:round; stroke-linejoin:round;">
</g>
<g style="fill:#000000; fill-opacity:0.0; 
stroke:#000000; stroke-width:98.4252; stroke-opacity:1; 
stroke-linecap:round; stroke-linejoin:round;">
<path d="M65865 40020
L65611 39766
" />
<path d="M65611 39766
L65611 38410
" />
<path d="M68595 40020
L65865 40020
" />
<path d="M68845 39770
L68595 40020
" />
<path d="M68845 37219
L68169 37219
" />
<path d="M69530 37219
L68845 37219
" />
<path d="M68845 37219
L68845 39770
" />
<path d="M68169 37219
L68165 37214
" />
</g>
<g style="fill:#000000; fill-opacity:0.0; 
stroke:#000000; stroke-width:157.48; stroke-opacity:1; 
stroke-linecap:round; stroke-linejoin:round;">
<path d="M65330 37255
L64995 36920
" />
</g>
<g style="fill:#000000; fill-opacity:0.0; 
stroke:#000000; stroke-width:98.4252; stroke-opacity:1; 
stroke-linecap:round; stroke-linejoin:round;">
<path d="M65374 37299
L65330 37255
" />
</g>
<g style="fill:#000000; fill-opacity:0.0; 
stroke:#000000; stroke-width:118.11; stroke-opacity:1; 
stroke-linecap:round; stroke-linejoin:round;">
<path d="M65374 38410
L65374 37299
" />
</g>
<g style="fill:#000000; fill-opacity:0.0; 
stroke:#000000; stroke-width:157.48; stroke-opacity:1; 
stroke-linecap:round; stroke-linejoin:round;">
<path d="M64995 36920
L62780 36920
" />
<path d="M62780 36920
L62510 36650
" />
<path d="M62510 36650
L62510 36630
" />
<path d="M62510 36630
L62510 35760
" />
<path d="M69510 35760
L69510 37199
" />
<path d="M69510 37199
L69530 37219
" />
</g>
<g style="fill:#000000; fill-opacity:0.0; 
stroke:#000000; stroke-width:118.11; stroke-opacity:1; 
stroke-linecap:round; stroke-linejoin:round;">
<path d="M65374 38410
L65611 38410
" />
</g>
<g style="fill:#000000; fill-opacity:0.0; 
stroke:#000000; stroke-width:98.4252; stroke-opacity:1; 
stroke-linecap:round; stroke-linejoin:round;">
<path d="M66319 38410
L66319 38980
" />
<path d="M66320 39515
L66455 39650
" />
<path d="M66319 38980
L66320 38981
" />
<path d="M66320 38981
L66320 39515
" />
<path d="M66455 39650
L67910 39650
" />
<path d="M67910 39650
L68165 39395
" />
<path d="M68165 39395
L68165 38395
" />
<path d="M62445 37430
L62445 39170
" />
<path d="M62700 37175
L62445 37430
" />
<path d="M64750 37175
L62700 37175
" />
<path d="M65138 37563
L64750 37175
" />
<path d="M65138 38410
L65138 37563
" />
<path d="M70210 35190
L70210 35790
" />
<path d="M70060 35040
L70210 35190
" />
<path d="M68625 35040
L70060 35040
" />
<path d="M68510 35155
L68625 35040
" />
<path d="M68510 35760
L68510 35155
" />
<path d="M66792 38410
L66792 36852
" />
<path d="M66792 36852
L67510 36135
" />
<path d="M67510 36135
L67510 35760
" />
<path d="M66555 38410
L66555 35805
" />
<path d="M66555 35805
L66510 35760
" />
<path d="M66083 38410
L66083 37224
" />
<path d="M66083 37224
L65289 36430
" />
<path d="M65289 36430
L64635 36430
" />
<path d="M64635 36430
L64510 36305
" />
<path d="M64510 36305
L64510 35760
" />
<path d="M65847 38410
L65847 37337
" />
<path d="M65847 37337
L65200 36690
" />
<path d="M65200 36690
L63920 36690
" />
<path d="M63920 36690
L63510 36280
" />
<path d="M63510 36280
L63510 35760
" />
<path d="M63015 37795
L63500 37795
" />
<path d="M63620 37550
L63780 37390
" />
<path d="M63500 37795
L63620 37675
" />
<path d="M63620 37675
L63620 37550
" />
<path d="M63780 37390
L64620 37390
" />
<path d="M64620 37390
L64902 37672
" />
<path d="M64902 37672
L64902 38410
" />
<path d="M69530 38360
L69530 40020
" />
<path d="M69530 40020
L69255 40295
" />
<path d="M69255 40295
L64860 40295
" />
<path d="M64860 40295
L64666 40101
" />
<path d="M64666 40101
L64666 38410
" />
<path d="M65510 35760
L65510 35180
" />
<path d="M65510 35180
L65350 35020
" />
<path d="M61345 35220
L61345 36415
" />
<path d="M65350 35020
L61545 35020
" />
<path d="M61879 36949
L61879 37790
" />
<path d="M61545 35020
L61345 35220
" />
<path d="M61345 36415
L61879 36949
" />
<path d="M61879 37790
L61874 37795
" />
</g>
<g style="fill:#000000; fill-opacity:1.0; 
stroke:#000000; stroke-width:100; stroke-opacity:1; 
stroke-linecap:round; stroke-linejoin:round;">
<polyline style="fill-rule:evenodd;"
points="70084,35260
70104,35360
70104,36160
70087,36252
70032,36337
69949,36394
69850,36414
69838,36414
69838,36787
69864,36787
69957,36804
70042,36859
70099,36942
70119,37041
70119,37396
70102,37488
70047,37574
69963,37631
69864,37651
69195,37651
69144,37641
69144,37939
69195,37928
69864,37928
69957,37946
70042,38000
70099,38084
70119,38183
70119,38538
70102,38630
70047,38715
69963,38772
69864,38792
69829,38792
69829,40020
69806,40134
69741,40231
69466,40506
69369,40571
69255,40594
64860,40594
64745,40571
64648,40506
64454,40312
64389,40215
64367,40101
64367,39934
64279,39934
64269,39933
64149,39909
64131,39902
64029,39834
64015,39820
63946,39718
63939,39700
63914,39580
63913,39570
63911,38689
63889,38583
63832,38497
63746,38440
63641,38420
61046,38420
61038,38419
61009,38414
61009,45920
70255,45930
70250,35179
70029,35179
70084,35260
" /> 
<polyline style="fill-rule:evenodd;"
points="68460,35710
68452,35710
68452,35810
68460,35810
68460,36345
68368,36392
68362,36391
68154,36291
68008,36128
67927,36249
67735,36377
67679,36389
67091,36976
67091,37435
67129,37435
67137,37436
67234,37451
67249,37456
67337,37500
67350,37510
67420,37579
67429,37592
67474,37680
67478,37695
67494,37792
67495,37800
67495,39565
67494,39575
67470,39695
67462,39713
67457,39720
68471,39720
68545,39646
68545,38835
68529,38842
68277,38842
68215,38779
68215,38445
68115,38445
68115,38779
68052,38842
67800,38842
67708,38804
67638,38734
67600,38642
67600,38508
67662,38445
68115,38445
68215,38445
68222,38445
68222,38345
68215,38345
68215,38011
68115,38011
68115,38345
67662,38345
67600,38283
67600,38148
67638,38057
67708,37986
67800,37948
68052,37948
68115,38011
68215,38011
68277,37948
68529,37948
68545,37955
68545,37652
68479,37666
67850,37666
67757,37648
67672,37594
67615,37510
67595,37411
67595,37017
67612,36924
67667,36839
67750,36782
67850,36762
68479,36762
68572,36780
68657,36834
68714,36918
68715,36919
68976,36919
69012,36864
69096,36807
69181,36789
69181,36414
69170,36414
69077,36397
68992,36342
68935,36259
68927,36221
68865,36291
68657,36391
68651,36392
68560,36345
68560,35810
68567,35810
68567,35710
68560,35710
68560,35702
68460,35702
68460,35710
" /> 
</g>
<g style="fill:#FFFFFF; fill-opacity:1.0; 
stroke:#FFFFFF; stroke-width:100; stroke-opacity:1; 
stroke-linecap:round; stroke-linejoin:round;">
</g>
<g style="fill:#FFFFFF; fill-opacity:1.0; 
stroke:#FFFFFF; stroke-width:0; stroke-opacity:1; 
stroke-linecap:round; stroke-linejoin:round;">
<circle cx="69510" cy="35760" r="200" /> 
</g>
<g style="fill:#FFFFFF; fill-opacity:1.0; 
stroke:#FFFFFF; stroke-width:39.3701; stroke-opacity:1; 
stroke-linecap:round; stroke-linejoin:round;">
</g>
<g style="fill:#FFFFFF; fill-opacity:1.0; 
stroke:#FFFFFF; stroke-width:0; stroke-opacity:1; 
stroke-linecap:round; stroke-linejoin:round;">
<circle cx="68510" cy="35760" r="200" /> 
</g>
<g style="fill:#FFFFFF; fill-opacity:1.0; 
stroke:#FFFFFF; stroke-width:39.3701; stroke-opacity:1; 
stroke-linecap:round; stroke-linejoin:round;">
</g>
<g style="fill:#FFFFFF; fill-opacity:1.0; 
stroke:#FFFFFF; stroke-width:0; stroke-opacity:1; 
stroke-linecap:round; stroke-linejoin:round;">
<circle cx="67510" cy="35760" r="200" /> 
</g>
<g style="fill:#FFFFFF; fill-opacity:1.0; 
stroke:#FFFFFF; stroke-width:39.3701; stroke-opacity:1; 
stroke-linecap:round; stroke-linejoin:round;">
</g>
<g style="fill:#FFFFFF; fill-opacity:1.0; 
stroke:#FFFFFF; stroke-width:0; stroke-opacity:1; 
stroke-linecap:round; stroke-linejoin:round;">
<circle cx="66510" cy="35760" r="200" /> 
</g>
<g style="fill:#FFFFFF; fill-opacity:1.0; 
stroke:#FFFFFF; stroke-width:39.3701; stroke-opacity:1; 
stroke-linecap:round; stroke-linejoin:round;">
</g>
<g style="fill:#FFFFFF; fill-opacity:1.0; 
stroke:#FFFFFF; stroke-width:0; stroke-opacity:1; 
stroke-linecap:round; stroke-linejoin:round;">
<circle cx="65510" cy="35760" r="200" /> 
</g>
<g style="fill:#FFFFFF; fill-opacity:1.0; 
stroke:#FFFFFF; stroke-width:39.3701; stroke-opacity:1; 
stroke-linecap:round; stroke-linejoin:round;">
</g>
<g style="fill:#FFFFFF; fill-opacity:1.0; 
stroke:#FFFFFF; stroke-width:0; stroke-opacity:1; 
stroke-linecap:round; stroke-linejoin:round;">
<circle cx="64510" cy="35760" r="200" /> 
</g>
<g style="fill:#FFFFFF; fill-opacity:1.0; 
stroke:#FFFFFF; stroke-width:39.3701; stroke-opacity:1; 
stroke-linecap:round; stroke-linejoin:round;">
</g>
<g style="fill:#FFFFFF; fill-opacity:1.0; 
stroke:#FFFFFF; stroke-width:0; stroke-opacity:1; 
stroke-linecap:round; stroke-linejoin:round;">
<circle cx="63510" cy="35760" r="200" /> 
</g>
<g style="fill:#FFFFFF; fill-opacity:1.0; 
stroke:#FFFFFF; stroke-width:39.3701; stroke-opacity:1; 
stroke-linecap:round; stroke-linejoin:round;">
</g>
<g style="fill:#FFFFFF; fill-opacity:1.0; 
stroke:#FFFFFF; stroke-width:0; stroke-opacity:1; 
stroke-linecap:round; stroke-linejoin:round;">
<circle cx="62510" cy="35760" r="200" /> 
</g>
<g style="fill:#FFFFFF; fill-opacity:1.0; 
stroke:#FFFFFF; stroke-width:39.3701; stroke-opacity:1; 
stroke-linecap:round; stroke-linejoin:round;">
</g>
<g style="fill:#000000; fill-opacity:1.0; 
stroke:#000000; stroke-width:39.3701; stroke-opacity:1; 
stroke-linecap:round; stroke-linejoin:round;">
</g> 
</svg>
